<?xml version="1.0" encoding="utf-8" standalone="no"?>
<!DOCTYPE svg PUBLIC "-//W3C//DTD SVG 1.1//EN"
  "http://www.w3.org/Graphics/SVG/1.1/DTD/svg11.dtd">
<svg xmlns:xlink="http://www.w3.org/1999/xlink" width="712.8pt" height="568.637812pt" viewBox="0 0 712.8 568.637812" xmlns="http://www.w3.org/2000/svg" version="1.1">
 <metadata>
  <rdf:RDF xmlns:dc="http://purl.org/dc/elements/1.1/" xmlns:cc="http://creativecommons.org/ns#" xmlns:rdf="http://www.w3.org/1999/02/22-rdf-syntax-ns#">
   <cc:Work>
    <dc:type rdf:resource="http://purl.org/dc/dcmitype/StillImage"/>
    <dc:date>2025-12-13T21:02:11.558961</dc:date>
    <dc:format>image/svg+xml</dc:format>
    <dc:creator>
     <cc:Agent>
      <dc:title>Matplotlib v3.10.7, https://matplotlib.org/</dc:title>
     </cc:Agent>
    </dc:creator>
   </cc:Work>
  </rdf:RDF>
 </metadata>
 <defs>
  <style type="text/css">*{stroke-linejoin: round; stroke-linecap: butt}</style>
 </defs>
 <g id="figure_1">
  <g id="patch_1">
   <path d="M 0 568.637812 
L 712.8 568.637812 
L 712.8 0 
L 0 0 
z
" style="fill: #ffffff"/>
  </g>
  <g id="axes_1">
   <g id="patch_2">
    <path d="M 478.62 238.877812 
L 469.89 246.941812 
L 469.89 238.931572 
L 400.05 238.931572 
L 400.05 238.824052 
L 469.89 238.824052 
L 469.89 230.813812 
z
" clip-path="url(#p1506069828)" style="fill: #ffa500; stroke: #ffa500; stroke-width: 3; stroke-linejoin: miter"/>
   </g>
   <g id="line2d_1">
    <path d="M 94.5 131.357812 
L 618.3 131.357812 
" clip-path="url(#p1506069828)" style="fill: none; stroke: #000000; stroke-width: 3; stroke-linecap: square"/>
   </g>
   <g id="line2d_2">
    <path d="M 94.5 346.397812 
L 618.3 346.397812 
" clip-path="url(#p1506069828)" style="fill: none; stroke: #000000; stroke-width: 3; stroke-linecap: square"/>
   </g>
   <g id="line2d_3">
    <path d="M 94.5 346.397812 
L 94.5 131.357812 
" clip-path="url(#p1506069828)" style="fill: none; stroke: #000000; stroke-width: 3; stroke-linecap: square"/>
   </g>
   <g id="line2d_4">
    <path d="M 356.4 346.397812 
L 356.4 131.357812 
" clip-path="url(#p1506069828)" style="fill: none; stroke: #ff0000; stroke-width: 4; stroke-linecap: square"/>
   </g>
   <g id="line2d_5">
    <defs>
     <path id="m0897fd513d" d="M -5 5 
L 5 -5 
M -5 -5 
L 5 5 
" style="stroke: #d946ef; stroke-width: 2.5"/>
    </defs>
    <g clip-path="url(#p1506069828)">
     <use xlink:href="#m0897fd513d" x="138.15" y="314.141812" style="fill: #d946ef; stroke: #d946ef; stroke-width: 2.5"/>
    </g>
   </g>
   <g id="line2d_6">
    <g clip-path="url(#p1506069828)">
     <use xlink:href="#m0897fd513d" x="138.15" y="260.381812" style="fill: #d946ef; stroke: #d946ef; stroke-width: 2.5"/>
    </g>
   </g>
   <g id="line2d_7">
    <g clip-path="url(#p1506069828)">
     <use xlink:href="#m0897fd513d" x="138.15" y="206.621812" style="fill: #d946ef; stroke: #d946ef; stroke-width: 2.5"/>
    </g>
   </g>
   <g id="line2d_8">
    <g clip-path="url(#p1506069828)">
     <use xlink:href="#m0897fd513d" x="138.15" y="152.861812" style="fill: #d946ef; stroke: #d946ef; stroke-width: 2.5"/>
    </g>
   </g>
   <g id="line2d_9">
    <g clip-path="url(#p1506069828)">
     <use xlink:href="#m0897fd513d" x="186.65" y="314.141812" style="fill: #d946ef; stroke: #d946ef; stroke-width: 2.5"/>
    </g>
   </g>
   <g id="line2d_10">
    <g clip-path="url(#p1506069828)">
     <use xlink:href="#m0897fd513d" x="186.65" y="260.381812" style="fill: #d946ef; stroke: #d946ef; stroke-width: 2.5"/>
    </g>
   </g>
   <g id="line2d_11">
    <g clip-path="url(#p1506069828)">
     <use xlink:href="#m0897fd513d" x="186.65" y="206.621812" style="fill: #d946ef; stroke: #d946ef; stroke-width: 2.5"/>
    </g>
   </g>
   <g id="line2d_12">
    <g clip-path="url(#p1506069828)">
     <use xlink:href="#m0897fd513d" x="186.65" y="152.861812" style="fill: #d946ef; stroke: #d946ef; stroke-width: 2.5"/>
    </g>
   </g>
   <g id="line2d_13">
    <g clip-path="url(#p1506069828)">
     <use xlink:href="#m0897fd513d" x="235.15" y="314.141812" style="fill: #d946ef; stroke: #d946ef; stroke-width: 2.5"/>
    </g>
   </g>
   <g id="line2d_14">
    <g clip-path="url(#p1506069828)">
     <use xlink:href="#m0897fd513d" x="235.15" y="260.381812" style="fill: #d946ef; stroke: #d946ef; stroke-width: 2.5"/>
    </g>
   </g>
   <g id="line2d_15">
    <g clip-path="url(#p1506069828)">
     <use xlink:href="#m0897fd513d" x="235.15" y="206.621812" style="fill: #d946ef; stroke: #d946ef; stroke-width: 2.5"/>
    </g>
   </g>
   <g id="line2d_16">
    <g clip-path="url(#p1506069828)">
     <use xlink:href="#m0897fd513d" x="235.15" y="152.861812" style="fill: #d946ef; stroke: #d946ef; stroke-width: 2.5"/>
    </g>
   </g>
   <g id="line2d_17">
    <g clip-path="url(#p1506069828)">
     <use xlink:href="#m0897fd513d" x="283.65" y="314.141812" style="fill: #d946ef; stroke: #d946ef; stroke-width: 2.5"/>
    </g>
   </g>
   <g id="line2d_18">
    <g clip-path="url(#p1506069828)">
     <use xlink:href="#m0897fd513d" x="283.65" y="260.381812" style="fill: #d946ef; stroke: #d946ef; stroke-width: 2.5"/>
    </g>
   </g>
   <g id="line2d_19">
    <g clip-path="url(#p1506069828)">
     <use xlink:href="#m0897fd513d" x="283.65" y="206.621812" style="fill: #d946ef; stroke: #d946ef; stroke-width: 2.5"/>
    </g>
   </g>
   <g id="line2d_20">
    <g clip-path="url(#p1506069828)">
     <use xlink:href="#m0897fd513d" x="283.65" y="152.861812" style="fill: #d946ef; stroke: #d946ef; stroke-width: 2.5"/>
    </g>
   </g>
   <g id="line2d_21">
    <g clip-path="url(#p1506069828)">
     <use xlink:href="#m0897fd513d" x="332.15" y="314.141812" style="fill: #d946ef; stroke: #d946ef; stroke-width: 2.5"/>
    </g>
   </g>
   <g id="line2d_22">
    <g clip-path="url(#p1506069828)">
     <use xlink:href="#m0897fd513d" x="332.15" y="260.381812" style="fill: #d946ef; stroke: #d946ef; stroke-width: 2.5"/>
    </g>
   </g>
   <g id="line2d_23">
    <g clip-path="url(#p1506069828)">
     <use xlink:href="#m0897fd513d" x="332.15" y="206.621812" style="fill: #d946ef; stroke: #d946ef; stroke-width: 2.5"/>
    </g>
   </g>
   <g id="line2d_24">
    <g clip-path="url(#p1506069828)">
     <use xlink:href="#m0897fd513d" x="332.15" y="152.861812" style="fill: #d946ef; stroke: #d946ef; stroke-width: 2.5"/>
    </g>
   </g>
   <g id="line2d_25">
    <g clip-path="url(#p1506069828)">
     <use xlink:href="#m0897fd513d" x="380.65" y="314.141812" style="fill: #d946ef; stroke: #d946ef; stroke-width: 2.5"/>
    </g>
   </g>
   <g id="line2d_26">
    <g clip-path="url(#p1506069828)">
     <use xlink:href="#m0897fd513d" x="380.65" y="260.381812" style="fill: #d946ef; stroke: #d946ef; stroke-width: 2.5"/>
    </g>
   </g>
   <g id="line2d_27">
    <g clip-path="url(#p1506069828)">
     <use xlink:href="#m0897fd513d" x="380.65" y="206.621812" style="fill: #d946ef; stroke: #d946ef; stroke-width: 2.5"/>
    </g>
   </g>
   <g id="line2d_28">
    <g clip-path="url(#p1506069828)">
     <use xlink:href="#m0897fd513d" x="380.65" y="152.861812" style="fill: #d946ef; stroke: #d946ef; stroke-width: 2.5"/>
    </g>
   </g>
   <g id="line2d_29">
    <g clip-path="url(#p1506069828)">
     <use xlink:href="#m0897fd513d" x="429.15" y="314.141812" style="fill: #d946ef; stroke: #d946ef; stroke-width: 2.5"/>
    </g>
   </g>
   <g id="line2d_30">
    <g clip-path="url(#p1506069828)">
     <use xlink:href="#m0897fd513d" x="429.15" y="260.381812" style="fill: #d946ef; stroke: #d946ef; stroke-width: 2.5"/>
    </g>
   </g>
   <g id="line2d_31">
    <g clip-path="url(#p1506069828)">
     <use xlink:href="#m0897fd513d" x="429.15" y="206.621812" style="fill: #d946ef; stroke: #d946ef; stroke-width: 2.5"/>
    </g>
   </g>
   <g id="line2d_32">
    <g clip-path="url(#p1506069828)">
     <use xlink:href="#m0897fd513d" x="429.15" y="152.861812" style="fill: #d946ef; stroke: #d946ef; stroke-width: 2.5"/>
    </g>
   </g>
   <g id="line2d_33">
    <g clip-path="url(#p1506069828)">
     <use xlink:href="#m0897fd513d" x="477.65" y="314.141812" style="fill: #d946ef; stroke: #d946ef; stroke-width: 2.5"/>
    </g>
   </g>
   <g id="line2d_34">
    <g clip-path="url(#p1506069828)">
     <use xlink:href="#m0897fd513d" x="477.65" y="260.381812" style="fill: #d946ef; stroke: #d946ef; stroke-width: 2.5"/>
    </g>
   </g>
   <g id="line2d_35">
    <g clip-path="url(#p1506069828)">
     <use xlink:href="#m0897fd513d" x="477.65" y="206.621812" style="fill: #d946ef; stroke: #d946ef; stroke-width: 2.5"/>
    </g>
   </g>
   <g id="line2d_36">
    <g clip-path="url(#p1506069828)">
     <use xlink:href="#m0897fd513d" x="477.65" y="152.861812" style="fill: #d946ef; stroke: #d946ef; stroke-width: 2.5"/>
    </g>
   </g>
   <g id="line2d_37">
    <g clip-path="url(#p1506069828)">
     <use xlink:href="#m0897fd513d" x="526.15" y="314.141812" style="fill: #d946ef; stroke: #d946ef; stroke-width: 2.5"/>
    </g>
   </g>
   <g id="line2d_38">
    <g clip-path="url(#p1506069828)">
     <use xlink:href="#m0897fd513d" x="526.15" y="260.381812" style="fill: #d946ef; stroke: #d946ef; stroke-width: 2.5"/>
    </g>
   </g>
   <g id="line2d_39">
    <g clip-path="url(#p1506069828)">
     <use xlink:href="#m0897fd513d" x="526.15" y="206.621812" style="fill: #d946ef; stroke: #d946ef; stroke-width: 2.5"/>
    </g>
   </g>
   <g id="line2d_40">
    <g clip-path="url(#p1506069828)">
     <use xlink:href="#m0897fd513d" x="526.15" y="152.861812" style="fill: #d946ef; stroke: #d946ef; stroke-width: 2.5"/>
    </g>
   </g>
   <g id="line2d_41">
    <g clip-path="url(#p1506069828)">
     <use xlink:href="#m0897fd513d" x="574.65" y="314.141812" style="fill: #d946ef; stroke: #d946ef; stroke-width: 2.5"/>
    </g>
   </g>
   <g id="line2d_42">
    <g clip-path="url(#p1506069828)">
     <use xlink:href="#m0897fd513d" x="574.65" y="260.381812" style="fill: #d946ef; stroke: #d946ef; stroke-width: 2.5"/>
    </g>
   </g>
   <g id="line2d_43">
    <g clip-path="url(#p1506069828)">
     <use xlink:href="#m0897fd513d" x="574.65" y="206.621812" style="fill: #d946ef; stroke: #d946ef; stroke-width: 2.5"/>
    </g>
   </g>
   <g id="line2d_44">
    <g clip-path="url(#p1506069828)">
     <use xlink:href="#m0897fd513d" x="574.65" y="152.861812" style="fill: #d946ef; stroke: #d946ef; stroke-width: 2.5"/>
    </g>
   </g>
   <g id="text_1">
    <!-- v -->
    <g style="fill: #ffa500" transform="translate(487.35 195.869812) scale(0.16 -0.16)">
     <defs>
      <path id="DejaVuSans-Bold-76" d="M 97 3500 
L 1216 3500 
L 2088 1081 
L 2956 3500 
L 4078 3500 
L 2700 0 
L 1472 0 
L 97 3500 
z
" transform="scale(0.015625)"/>
     </defs>
     <use xlink:href="#DejaVuSans-Bold-76"/>
    </g>
   </g>
   <g id="text_2">
    <!-- B(⊗) -->
    <g style="fill: #d946ef" transform="translate(635.76 238.877812) scale(0.14 -0.14)">
     <defs>
      <path id="DejaVuSans-Bold-42" d="M 2456 2859 
Q 2741 2859 2887 2984 
Q 3034 3109 3034 3353 
Q 3034 3594 2887 3720 
Q 2741 3847 2456 3847 
L 1791 3847 
L 1791 2859 
L 2456 2859 
z
M 2497 819 
Q 2859 819 3042 972 
Q 3225 1125 3225 1434 
Q 3225 1738 3044 1889 
Q 2863 2041 2497 2041 
L 1791 2041 
L 1791 819 
L 2497 819 
z
M 3616 2497 
Q 4003 2384 4215 2081 
Q 4428 1778 4428 1338 
Q 4428 663 3972 331 
Q 3516 0 2584 0 
L 588 0 
L 588 4666 
L 2394 4666 
Q 3366 4666 3802 4372 
Q 4238 4078 4238 3431 
Q 4238 3091 4078 2852 
Q 3919 2613 3616 2497 
z
" transform="scale(0.015625)"/>
      <path id="DejaVuSans-Bold-28" d="M 2413 -844 
L 1484 -844 
Q 1006 -72 778 623 
Q 550 1319 550 2003 
Q 550 2688 779 3389 
Q 1009 4091 1484 4856 
L 2413 4856 
Q 2013 4116 1813 3408 
Q 1613 2700 1613 2009 
Q 1613 1319 1811 609 
Q 2009 -100 2413 -844 
z
" transform="scale(0.015625)"/>
      <path id="DejaVuSans-Bold-2297" d="M 3247 3378 
Q 2984 3488 2681 3488 
Q 2378 3488 2116 3378 
Q 1856 3269 1641 3053 
Q 1422 2834 1315 2575 
Q 1209 2316 1209 2006 
Q 1209 1706 1315 1447 
Q 1422 1188 1641 969 
Q 1856 753 2116 644 
Q 2378 534 2681 534 
Q 2984 534 3247 644 
Q 3506 753 3722 969 
Q 3941 1188 4047 1447 
Q 4153 1706 4153 2006 
Q 4153 2316 4047 2575 
Q 3941 2834 3722 3053 
Q 3506 3269 3247 3378 
z
M 1878 3956 
Q 2250 4113 2681 4113 
Q 3113 4113 3484 3956 
Q 3856 3800 4163 3494 
Q 4472 3184 4625 2813 
Q 4778 2444 4778 2006 
Q 4778 1578 4625 1206 
Q 4472 838 4163 528 
Q 3856 222 3484 65 
Q 3113 -91 2681 -91 
Q 2250 -91 1878 65 
Q 1506 222 1200 528 
Q 891 838 738 1206 
Q 584 1578 584 2006 
Q 584 2444 738 2813 
Q 891 3184 1200 3494 
Q 1506 3800 1878 3956 
z
M 3813 2697 
L 3122 2006 
L 3813 1316 
L 3372 875 
L 2681 1566 
L 1991 875 
L 1550 1316 
L 2241 2006 
L 1550 2697 
L 1991 3138 
L 2681 2447 
L 3372 3138 
L 3813 2697 
z
" transform="scale(0.015625)"/>
      <path id="DejaVuSans-Bold-29" d="M 513 -844 
Q 913 -100 1113 609 
Q 1313 1319 1313 2009 
Q 1313 2700 1113 3408 
Q 913 4116 513 4856 
L 1441 4856 
Q 1916 4091 2145 3389 
Q 2375 2688 2375 2003 
Q 2375 1319 2147 623 
Q 1919 -72 1441 -844 
L 513 -844 
z
" transform="scale(0.015625)"/>
     </defs>
     <use xlink:href="#DejaVuSans-Bold-42"/>
     <use xlink:href="#DejaVuSans-Bold-28" transform="translate(76.220703 0)"/>
     <use xlink:href="#DejaVuSans-Bold-2297" transform="translate(121.923828 0)"/>
     <use xlink:href="#DejaVuSans-Bold-29" transform="translate(205.712891 0)"/>
    </g>
   </g>
   <g id="text_3">
    <!-- R -->
    <g transform="translate(24.66 99.101812) scale(0.12 -0.12)">
     <defs>
      <path id="DejaVuSans-Bold-52" d="M 2297 2597 
Q 2675 2597 2839 2737 
Q 3003 2878 3003 3200 
Q 3003 3519 2839 3656 
Q 2675 3794 2297 3794 
L 1791 3794 
L 1791 2597 
L 2297 2597 
z
M 1791 1766 
L 1791 0 
L 588 0 
L 588 4666 
L 2425 4666 
Q 3347 4666 3776 4356 
Q 4206 4047 4206 3378 
Q 4206 2916 3982 2619 
Q 3759 2322 3309 2181 
Q 3556 2125 3751 1926 
Q 3947 1728 4147 1325 
L 4800 0 
L 3519 0 
L 2950 1159 
Q 2778 1509 2601 1637 
Q 2425 1766 2131 1766 
L 1791 1766 
z
" transform="scale(0.015625)"/>
     </defs>
     <use xlink:href="#DejaVuSans-Bold-52"/>
    </g>
   </g>
   <g id="text_4">
    <!-- ℓ -->
    <g style="fill: #ff0000" transform="translate(382.59 185.117812) scale(0.12 -0.12)">
     <defs>
      <path id="DejaVuSans-Bold-2113" d="M 1263 841 
Q 1356 306 1568 306 
Q 1781 306 1953 572 
L 2494 572 
Q 2306 253 2088 88 
Q 1850 -91 1475 -91 
Q 1034 -91 853 313 
L 650 0 
L -88 0 
Q 247 459 500 891 
Q 469 1134 469 1397 
Q 469 1872 566 2347 
Q 925 4100 1256 4497 
Q 1466 4750 2022 4750 
Q 2569 4750 2569 4209 
Q 2569 3988 2509 3675 
Q 2284 2484 1263 841 
z
M 1103 1656 
Q 1681 2731 1866 3613 
Q 1959 4063 1959 4097 
Q 1959 4313 1881 4313 
Q 1528 4047 1238 2516 
Q 1144 2025 1103 1656 
z
" transform="scale(0.015625)"/>
     </defs>
     <use xlink:href="#DejaVuSans-Bold-2113"/>
    </g>
   </g>
   <g id="text_5">
    <g id="patch_3">
     <path d="M 7.2 29.933437 
L 57.4575 29.933437 
Q 61.0575 29.933437 61.0575 26.333437 
L 61.0575 14.719687 
Q 61.0575 11.119687 57.4575 11.119687 
L 7.2 11.119687 
Q 3.6 11.119687 3.6 14.719687 
L 3.6 26.333437 
Q 3.6 29.933437 7.2 29.933437 
z
" style="fill: #fde68a; stroke: #000000; stroke-linejoin: miter"/>
    </g>
    <!-- v=5m/s -->
    <g transform="translate(7.2 23.837812) scale(0.12 -0.12)">
     <defs>
      <path id="DejaVuSans-Bold-3d" d="M 678 3084 
L 4684 3084 
L 4684 2350 
L 678 2350 
L 678 3084 
z
M 678 1663 
L 4684 1663 
L 4684 922 
L 678 922 
L 678 1663 
z
" transform="scale(0.015625)"/>
      <path id="DejaVuSans-Bold-35" d="M 678 4666 
L 3669 4666 
L 3669 3781 
L 1638 3781 
L 1638 3059 
Q 1775 3097 1914 3117 
Q 2053 3138 2203 3138 
Q 3056 3138 3531 2711 
Q 4006 2284 4006 1522 
Q 4006 766 3489 337 
Q 2972 -91 2053 -91 
Q 1656 -91 1267 -14 
Q 878 63 494 219 
L 494 1166 
Q 875 947 1217 837 
Q 1559 728 1863 728 
Q 2300 728 2551 942 
Q 2803 1156 2803 1522 
Q 2803 1891 2551 2103 
Q 2300 2316 1863 2316 
Q 1603 2316 1309 2248 
Q 1016 2181 678 2041 
L 678 4666 
z
" transform="scale(0.015625)"/>
      <path id="DejaVuSans-Bold-6d" d="M 3781 2919 
Q 3994 3244 4286 3414 
Q 4578 3584 4928 3584 
Q 5531 3584 5847 3212 
Q 6163 2841 6163 2131 
L 6163 0 
L 5038 0 
L 5038 1825 
Q 5041 1866 5042 1909 
Q 5044 1953 5044 2034 
Q 5044 2406 4934 2573 
Q 4825 2741 4581 2741 
Q 4263 2741 4089 2478 
Q 3916 2216 3909 1719 
L 3909 0 
L 2784 0 
L 2784 1825 
Q 2784 2406 2684 2573 
Q 2584 2741 2328 2741 
Q 2006 2741 1831 2477 
Q 1656 2213 1656 1722 
L 1656 0 
L 531 0 
L 531 3500 
L 1656 3500 
L 1656 2988 
Q 1863 3284 2130 3434 
Q 2397 3584 2719 3584 
Q 3081 3584 3359 3409 
Q 3638 3234 3781 2919 
z
" transform="scale(0.015625)"/>
      <path id="DejaVuSans-Bold-2f" d="M 1644 4666 
L 2338 4666 
L 691 -594 
L 0 -594 
L 1644 4666 
z
" transform="scale(0.015625)"/>
      <path id="DejaVuSans-Bold-73" d="M 3272 3391 
L 3272 2541 
Q 2913 2691 2578 2766 
Q 2244 2841 1947 2841 
Q 1628 2841 1473 2761 
Q 1319 2681 1319 2516 
Q 1319 2381 1436 2309 
Q 1553 2238 1856 2203 
L 2053 2175 
Q 2913 2066 3209 1816 
Q 3506 1566 3506 1031 
Q 3506 472 3093 190 
Q 2681 -91 1863 -91 
Q 1516 -91 1145 -36 
Q 775 19 384 128 
L 384 978 
Q 719 816 1070 734 
Q 1422 653 1784 653 
Q 2113 653 2278 743 
Q 2444 834 2444 1013 
Q 2444 1163 2330 1236 
Q 2216 1309 1875 1350 
L 1678 1375 
Q 931 1469 631 1722 
Q 331 1975 331 2491 
Q 331 3047 712 3315 
Q 1094 3584 1881 3584 
Q 2191 3584 2531 3537 
Q 2872 3491 3272 3391 
z
" transform="scale(0.015625)"/>
     </defs>
     <use xlink:href="#DejaVuSans-Bold-76"/>
     <use xlink:href="#DejaVuSans-Bold-3d" transform="translate(65.185547 0)"/>
     <use xlink:href="#DejaVuSans-Bold-35" transform="translate(148.974609 0)"/>
     <use xlink:href="#DejaVuSans-Bold-6d" transform="translate(218.554688 0)"/>
     <use xlink:href="#DejaVuSans-Bold-2f" transform="translate(322.753906 0)"/>
     <use xlink:href="#DejaVuSans-Bold-73" transform="translate(359.277344 0)"/>
    </g>
   </g>
   <g id="text_6">
    <g id="patch_4">
     <path d="M 7.2 83.693437 
L 55.845 83.693437 
Q 59.445 83.693437 59.445 80.093437 
L 59.445 68.479687 
Q 59.445 64.879687 55.845 64.879687 
L 7.2 64.879687 
Q 3.6 64.879687 3.6 68.479687 
L 3.6 80.093437 
Q 3.6 83.693437 7.2 83.693437 
z
" style="fill: #ffffff; stroke: #000000; stroke-linejoin: miter"/>
    </g>
    <!-- B=0.8T -->
    <g transform="translate(7.2 77.597812) scale(0.12 -0.12)">
     <defs>
      <path id="DejaVuSans-Bold-30" d="M 2944 2338 
Q 2944 3213 2780 3570 
Q 2616 3928 2228 3928 
Q 1841 3928 1675 3570 
Q 1509 3213 1509 2338 
Q 1509 1453 1675 1090 
Q 1841 728 2228 728 
Q 2613 728 2778 1090 
Q 2944 1453 2944 2338 
z
M 4147 2328 
Q 4147 1169 3647 539 
Q 3147 -91 2228 -91 
Q 1306 -91 806 539 
Q 306 1169 306 2328 
Q 306 3491 806 4120 
Q 1306 4750 2228 4750 
Q 3147 4750 3647 4120 
Q 4147 3491 4147 2328 
z
" transform="scale(0.015625)"/>
      <path id="DejaVuSans-Bold-2e" d="M 653 1209 
L 1778 1209 
L 1778 0 
L 653 0 
L 653 1209 
z
" transform="scale(0.015625)"/>
      <path id="DejaVuSans-Bold-38" d="M 2228 2088 
Q 1891 2088 1709 1903 
Q 1528 1719 1528 1375 
Q 1528 1031 1709 848 
Q 1891 666 2228 666 
Q 2563 666 2741 848 
Q 2919 1031 2919 1375 
Q 2919 1722 2741 1905 
Q 2563 2088 2228 2088 
z
M 1350 2484 
Q 925 2613 709 2878 
Q 494 3144 494 3541 
Q 494 4131 934 4440 
Q 1375 4750 2228 4750 
Q 3075 4750 3515 4442 
Q 3956 4134 3956 3541 
Q 3956 3144 3739 2878 
Q 3522 2613 3097 2484 
Q 3572 2353 3814 2058 
Q 4056 1763 4056 1313 
Q 4056 619 3595 264 
Q 3134 -91 2228 -91 
Q 1319 -91 855 264 
Q 391 619 391 1313 
Q 391 1763 633 2058 
Q 875 2353 1350 2484 
z
M 1631 3419 
Q 1631 3141 1786 2991 
Q 1941 2841 2228 2841 
Q 2509 2841 2662 2991 
Q 2816 3141 2816 3419 
Q 2816 3697 2662 3845 
Q 2509 3994 2228 3994 
Q 1941 3994 1786 3844 
Q 1631 3694 1631 3419 
z
" transform="scale(0.015625)"/>
      <path id="DejaVuSans-Bold-54" d="M 31 4666 
L 4331 4666 
L 4331 3756 
L 2784 3756 
L 2784 0 
L 1581 0 
L 1581 3756 
L 31 3756 
L 31 4666 
z
" transform="scale(0.015625)"/>
     </defs>
     <use xlink:href="#DejaVuSans-Bold-42"/>
     <use xlink:href="#DejaVuSans-Bold-3d" transform="translate(76.220703 0)"/>
     <use xlink:href="#DejaVuSans-Bold-30" transform="translate(160.009766 0)"/>
     <use xlink:href="#DejaVuSans-Bold-2e" transform="translate(229.589844 0)"/>
     <use xlink:href="#DejaVuSans-Bold-38" transform="translate(267.578125 0)"/>
     <use xlink:href="#DejaVuSans-Bold-54" transform="translate(337.158203 0)"/>
    </g>
   </g>
   <g id="text_7">
    <g id="patch_5">
     <path d="M 7.2 137.453437 
L 56.6775 137.453437 
Q 60.2775 137.453437 60.2775 133.853437 
L 60.2775 122.239687 
Q 60.2775 118.639687 56.6775 118.639687 
L 7.2 118.639687 
Q 3.6 118.639687 3.6 122.239687 
L 3.6 133.853437 
Q 3.6 137.453437 7.2 137.453437 
z
" style="fill: #ffffff; stroke: #000000; stroke-linejoin: miter"/>
    </g>
    <!-- ℓ=0.4m -->
    <g transform="translate(7.2 131.357812) scale(0.12 -0.12)">
     <defs>
      <path id="DejaVuSans-Bold-34" d="M 2356 3675 
L 1038 1722 
L 2356 1722 
L 2356 3675 
z
M 2156 4666 
L 3494 4666 
L 3494 1722 
L 4159 1722 
L 4159 850 
L 3494 850 
L 3494 0 
L 2356 0 
L 2356 850 
L 288 850 
L 288 1881 
L 2156 4666 
z
" transform="scale(0.015625)"/>
     </defs>
     <use xlink:href="#DejaVuSans-Bold-2113"/>
     <use xlink:href="#DejaVuSans-Bold-3d" transform="translate(47.167969 0)"/>
     <use xlink:href="#DejaVuSans-Bold-30" transform="translate(130.957031 0)"/>
     <use xlink:href="#DejaVuSans-Bold-2e" transform="translate(200.537109 0)"/>
     <use xlink:href="#DejaVuSans-Bold-34" transform="translate(238.525391 0)"/>
     <use xlink:href="#DejaVuSans-Bold-6d" transform="translate(308.105469 0)"/>
    </g>
   </g>
   <g id="text_8">
    <g id="patch_6">
     <path d="M 7.2 191.213437 
L 45.046875 191.213437 
Q 48.646875 191.213437 48.646875 187.613437 
L 48.646875 175.999687 
Q 48.646875 172.399687 45.046875 172.399687 
L 7.2 172.399687 
Q 3.6 172.399687 3.6 175.999687 
L 3.6 187.613437 
Q 3.6 191.213437 7.2 191.213437 
z
" style="fill: #ffffff; stroke: #000000; stroke-linejoin: miter"/>
    </g>
    <!-- R=2Ω -->
    <g transform="translate(7.2 185.117812) scale(0.12 -0.12)">
     <defs>
      <path id="DejaVuSans-Bold-32" d="M 1844 884 
L 3897 884 
L 3897 0 
L 506 0 
L 506 884 
L 2209 2388 
Q 2438 2594 2547 2791 
Q 2656 2988 2656 3200 
Q 2656 3528 2436 3728 
Q 2216 3928 1850 3928 
Q 1569 3928 1234 3808 
Q 900 3688 519 3450 
L 519 4475 
Q 925 4609 1322 4679 
Q 1719 4750 2100 4750 
Q 2938 4750 3402 4381 
Q 3866 4013 3866 3353 
Q 3866 2972 3669 2642 
Q 3472 2313 2841 1759 
L 1844 884 
z
" transform="scale(0.015625)"/>
      <path id="DejaVuSans-Bold-3a9" d="M 2719 4750 
Q 3841 4750 4480 4106 
Q 5119 3463 5119 2494 
Q 5119 1406 4306 909 
L 5266 909 
L 5266 0 
L 3125 0 
L 3125 975 
Q 3244 1041 3334 1131 
Q 3875 1678 3875 2466 
Q 3875 3066 3572 3472 
Q 3269 3878 2719 3878 
Q 2169 3878 1866 3472 
Q 1563 3066 1563 2466 
Q 1563 1678 2103 1131 
Q 2194 1041 2313 975 
L 2313 0 
L 172 0 
L 172 909 
L 1131 909 
Q 319 1406 319 2494 
Q 319 3463 958 4106 
Q 1597 4750 2719 4750 
z
" transform="scale(0.015625)"/>
     </defs>
     <use xlink:href="#DejaVuSans-Bold-52"/>
     <use xlink:href="#DejaVuSans-Bold-3d" transform="translate(77.001953 0)"/>
     <use xlink:href="#DejaVuSans-Bold-32" transform="translate(160.791016 0)"/>
     <use xlink:href="#DejaVuSans-Bold-3a9" transform="translate(230.371094 0)"/>
    </g>
   </g>
   <g id="text_9">
    <!-- Moving Rod EMF -->
    <g transform="translate(291.055 17.837812) scale(0.14 -0.14)">
     <defs>
      <path id="DejaVuSans-Bold-4d" d="M 588 4666 
L 2119 4666 
L 3181 2169 
L 4250 4666 
L 5778 4666 
L 5778 0 
L 4641 0 
L 4641 3413 
L 3566 897 
L 2803 897 
L 1728 3413 
L 1728 0 
L 588 0 
L 588 4666 
z
" transform="scale(0.015625)"/>
      <path id="DejaVuSans-Bold-6f" d="M 2203 2784 
Q 1831 2784 1636 2517 
Q 1441 2250 1441 1747 
Q 1441 1244 1636 976 
Q 1831 709 2203 709 
Q 2569 709 2762 976 
Q 2956 1244 2956 1747 
Q 2956 2250 2762 2517 
Q 2569 2784 2203 2784 
z
M 2203 3584 
Q 3106 3584 3614 3096 
Q 4122 2609 4122 1747 
Q 4122 884 3614 396 
Q 3106 -91 2203 -91 
Q 1297 -91 786 396 
Q 275 884 275 1747 
Q 275 2609 786 3096 
Q 1297 3584 2203 3584 
z
" transform="scale(0.015625)"/>
      <path id="DejaVuSans-Bold-69" d="M 538 3500 
L 1656 3500 
L 1656 0 
L 538 0 
L 538 3500 
z
M 538 4863 
L 1656 4863 
L 1656 3950 
L 538 3950 
L 538 4863 
z
" transform="scale(0.015625)"/>
      <path id="DejaVuSans-Bold-6e" d="M 4056 2131 
L 4056 0 
L 2931 0 
L 2931 347 
L 2931 1631 
Q 2931 2084 2911 2256 
Q 2891 2428 2841 2509 
Q 2775 2619 2662 2680 
Q 2550 2741 2406 2741 
Q 2056 2741 1856 2470 
Q 1656 2200 1656 1722 
L 1656 0 
L 538 0 
L 538 3500 
L 1656 3500 
L 1656 2988 
Q 1909 3294 2193 3439 
Q 2478 3584 2822 3584 
Q 3428 3584 3742 3212 
Q 4056 2841 4056 2131 
z
" transform="scale(0.015625)"/>
      <path id="DejaVuSans-Bold-67" d="M 2919 594 
Q 2688 288 2409 144 
Q 2131 0 1766 0 
Q 1125 0 706 504 
Q 288 1009 288 1791 
Q 288 2575 706 3076 
Q 1125 3578 1766 3578 
Q 2131 3578 2409 3434 
Q 2688 3291 2919 2981 
L 2919 3500 
L 4044 3500 
L 4044 353 
Q 4044 -491 3511 -936 
Q 2978 -1381 1966 -1381 
Q 1638 -1381 1331 -1331 
Q 1025 -1281 716 -1178 
L 716 -306 
Q 1009 -475 1290 -558 
Q 1572 -641 1856 -641 
Q 2406 -641 2662 -400 
Q 2919 -159 2919 353 
L 2919 594 
z
M 2181 2772 
Q 1834 2772 1640 2515 
Q 1447 2259 1447 1791 
Q 1447 1309 1634 1061 
Q 1822 813 2181 813 
Q 2531 813 2725 1069 
Q 2919 1325 2919 1791 
Q 2919 2259 2725 2515 
Q 2531 2772 2181 2772 
z
" transform="scale(0.015625)"/>
      <path id="DejaVuSans-Bold-20" transform="scale(0.015625)"/>
      <path id="DejaVuSans-Bold-64" d="M 2919 2988 
L 2919 4863 
L 4044 4863 
L 4044 0 
L 2919 0 
L 2919 506 
Q 2688 197 2409 53 
Q 2131 -91 1766 -91 
Q 1119 -91 703 423 
Q 288 938 288 1747 
Q 288 2556 703 3070 
Q 1119 3584 1766 3584 
Q 2128 3584 2408 3439 
Q 2688 3294 2919 2988 
z
M 2181 722 
Q 2541 722 2730 984 
Q 2919 1247 2919 1747 
Q 2919 2247 2730 2509 
Q 2541 2772 2181 2772 
Q 1825 2772 1636 2509 
Q 1447 2247 1447 1747 
Q 1447 1247 1636 984 
Q 1825 722 2181 722 
z
" transform="scale(0.015625)"/>
      <path id="DejaVuSans-Bold-45" d="M 588 4666 
L 3834 4666 
L 3834 3756 
L 1791 3756 
L 1791 2888 
L 3713 2888 
L 3713 1978 
L 1791 1978 
L 1791 909 
L 3903 909 
L 3903 0 
L 588 0 
L 588 4666 
z
" transform="scale(0.015625)"/>
      <path id="DejaVuSans-Bold-46" d="M 588 4666 
L 3834 4666 
L 3834 3756 
L 1791 3756 
L 1791 2888 
L 3713 2888 
L 3713 1978 
L 1791 1978 
L 1791 0 
L 588 0 
L 588 4666 
z
" transform="scale(0.015625)"/>
     </defs>
     <use xlink:href="#DejaVuSans-Bold-4d"/>
     <use xlink:href="#DejaVuSans-Bold-6f" transform="translate(99.511719 0)"/>
     <use xlink:href="#DejaVuSans-Bold-76" transform="translate(168.212891 0)"/>
     <use xlink:href="#DejaVuSans-Bold-69" transform="translate(233.398438 0)"/>
     <use xlink:href="#DejaVuSans-Bold-6e" transform="translate(267.675781 0)"/>
     <use xlink:href="#DejaVuSans-Bold-67" transform="translate(338.867188 0)"/>
     <use xlink:href="#DejaVuSans-Bold-20" transform="translate(410.449219 0)"/>
     <use xlink:href="#DejaVuSans-Bold-52" transform="translate(445.263672 0)"/>
     <use xlink:href="#DejaVuSans-Bold-6f" transform="translate(522.265625 0)"/>
     <use xlink:href="#DejaVuSans-Bold-64" transform="translate(590.966797 0)"/>
     <use xlink:href="#DejaVuSans-Bold-20" transform="translate(662.548828 0)"/>
     <use xlink:href="#DejaVuSans-Bold-45" transform="translate(697.363281 0)"/>
     <use xlink:href="#DejaVuSans-Bold-4d" transform="translate(765.673828 0)"/>
     <use xlink:href="#DejaVuSans-Bold-46" transform="translate(865.185547 0)"/>
    </g>
   </g>
  </g>
 </g>
 <defs>
  <clipPath id="p1506069828">
   <rect x="7.2" y="23.837812" width="698.4" height="537.6"/>
  </clipPath>
 </defs>
</svg>
