<?xml version="1.0" encoding="utf-8" standalone="no"?>
<!DOCTYPE svg PUBLIC "-//W3C//DTD SVG 1.1//EN"
  "http://www.w3.org/Graphics/SVG/1.1/DTD/svg11.dtd">
<svg xmlns:xlink="http://www.w3.org/1999/xlink" width="712.8pt" height="572.085781pt" viewBox="0 0 712.8 572.085781" xmlns="http://www.w3.org/2000/svg" version="1.1">
 <metadata>
  <rdf:RDF xmlns:dc="http://purl.org/dc/elements/1.1/" xmlns:cc="http://creativecommons.org/ns#" xmlns:rdf="http://www.w3.org/1999/02/22-rdf-syntax-ns#">
   <cc:Work>
    <dc:type rdf:resource="http://purl.org/dc/dcmitype/StillImage"/>
    <dc:date>2025-12-13T21:01:33.811993</dc:date>
    <dc:format>image/svg+xml</dc:format>
    <dc:creator>
     <cc:Agent>
      <dc:title>Matplotlib v3.10.7, https://matplotlib.org/</dc:title>
     </cc:Agent>
    </dc:creator>
   </cc:Work>
  </rdf:RDF>
 </metadata>
 <defs>
  <style type="text/css">*{stroke-linejoin: round; stroke-linecap: butt}</style>
 </defs>
 <g id="figure_1">
  <g id="patch_1">
   <path d="M 0 572.085781 
L 712.8 572.085781 
L 712.8 0 
L 0 0 
z
" style="fill: #ffffff"/>
  </g>
  <g id="axes_1">
   <g id="FillBetweenPolyCollection_1">
    <defs>
     <path id="mf2c0ddde4b" d="M 338.94 -516.747656 
L 338.94 -48.507656 
L 373.86 -48.507656 
L 373.86 -516.747656 
L 373.86 -516.747656 
L 338.94 -516.747656 
z
" style="stroke: #e8d5f5; stroke-opacity: 0.3"/>
    </defs>
    <g clip-path="url(#p30d5f5a325)">
     <use xlink:href="#mf2c0ddde4b" x="0" y="572.085781" style="fill: #e8d5f5; fill-opacity: 0.3; stroke: #e8d5f5; stroke-opacity: 0.3"/>
    </g>
   </g>
   <g id="patch_2">
    <path d="M 129.42 484.558125 
L 120.69 489.240525 
L 120.69 484.597145 
L 50.85 484.597145 
L 50.85 484.519105 
L 120.69 484.519105 
L 120.69 479.875725 
z
" clip-path="url(#p30d5f5a325)" style="fill: #6b46c1; stroke: #6b46c1; stroke-width: 2; stroke-linejoin: miter"/>
   </g>
   <g id="patch_3">
    <path d="M 129.42 406.518125 
L 120.69 411.200525 
L 120.69 406.557145 
L 50.85 406.557145 
L 50.85 406.479105 
L 120.69 406.479105 
L 120.69 401.835725 
z
" clip-path="url(#p30d5f5a325)" style="fill: #6b46c1; stroke: #6b46c1; stroke-width: 2; stroke-linejoin: miter"/>
   </g>
   <g id="patch_4">
    <path d="M 129.42 328.478125 
L 120.69 333.160525 
L 120.69 328.517145 
L 50.85 328.517145 
L 50.85 328.439105 
L 120.69 328.439105 
L 120.69 323.795725 
z
" clip-path="url(#p30d5f5a325)" style="fill: #6b46c1; stroke: #6b46c1; stroke-width: 2; stroke-linejoin: miter"/>
   </g>
   <g id="patch_5">
    <path d="M 129.42 250.438125 
L 120.69 255.120525 
L 120.69 250.477145 
L 50.85 250.477145 
L 50.85 250.399105 
L 120.69 250.399105 
L 120.69 245.755725 
z
" clip-path="url(#p30d5f5a325)" style="fill: #6b46c1; stroke: #6b46c1; stroke-width: 2; stroke-linejoin: miter"/>
   </g>
   <g id="patch_6">
    <path d="M 129.42 172.398125 
L 120.69 177.080525 
L 120.69 172.437145 
L 50.85 172.437145 
L 50.85 172.359105 
L 120.69 172.359105 
L 120.69 167.715725 
z
" clip-path="url(#p30d5f5a325)" style="fill: #6b46c1; stroke: #6b46c1; stroke-width: 2; stroke-linejoin: miter"/>
   </g>
   <g id="patch_7">
    <path d="M 129.42 94.358125 
L 120.69 99.040525 
L 120.69 94.397145 
L 50.85 94.397145 
L 50.85 94.319105 
L 120.69 94.319105 
L 120.69 89.675725 
z
" clip-path="url(#p30d5f5a325)" style="fill: #6b46c1; stroke: #6b46c1; stroke-width: 2; stroke-linejoin: miter"/>
   </g>
   <g id="patch_8">
    <path d="M 653.22 94.358125 
L 644.49 99.040525 
L 644.49 94.397145 
L 574.65 94.397145 
L 574.65 94.319105 
L 644.49 94.319105 
L 644.49 89.675725 
z
" clip-path="url(#p30d5f5a325)" style="fill: #d946ef; stroke: #d946ef; stroke-width: 2; stroke-linejoin: miter"/>
   </g>
   <g id="line2d_1">
    <path d="M 338.94 523.578125 
L 338.94 55.338125 
" clip-path="url(#p30d5f5a325)" style="fill: none; stroke: #000000; stroke-width: 3; stroke-linecap: square"/>
   </g>
   <g id="line2d_2">
    <path d="M 373.86 523.578125 
L 373.86 55.338125 
" clip-path="url(#p30d5f5a325)" style="fill: none; stroke: #000000; stroke-width: 3; stroke-linecap: square"/>
   </g>
   <g id="line2d_3">
    <defs>
     <path id="mbb1f7d3a62" d="M -6 6 
L 6 -6 
M -6 -6 
L 6 6 
" style="stroke: #ffa500; stroke-width: 3"/>
    </defs>
    <g clip-path="url(#p30d5f5a325)">
     <use xlink:href="#mbb1f7d3a62" x="356.4" y="492.362125" style="fill: #ffa500; stroke: #ffa500; stroke-width: 3"/>
     <use xlink:href="#mbb1f7d3a62" x="356.4" y="476.754125" style="fill: #ffa500; stroke: #ffa500; stroke-width: 3"/>
    </g>
   </g>
   <g id="line2d_4">
    <g clip-path="url(#p30d5f5a325)">
     <use xlink:href="#mbb1f7d3a62" x="356.4" y="436.619268" style="fill: #ffa500; stroke: #ffa500; stroke-width: 3"/>
     <use xlink:href="#mbb1f7d3a62" x="356.4" y="421.011268" style="fill: #ffa500; stroke: #ffa500; stroke-width: 3"/>
    </g>
   </g>
   <g id="line2d_5">
    <g clip-path="url(#p30d5f5a325)">
     <use xlink:href="#mbb1f7d3a62" x="356.4" y="380.876411" style="fill: #ffa500; stroke: #ffa500; stroke-width: 3"/>
     <use xlink:href="#mbb1f7d3a62" x="356.4" y="365.268411" style="fill: #ffa500; stroke: #ffa500; stroke-width: 3"/>
    </g>
   </g>
   <g id="line2d_6">
    <g clip-path="url(#p30d5f5a325)">
     <use xlink:href="#mbb1f7d3a62" x="356.4" y="325.133554" style="fill: #ffa500; stroke: #ffa500; stroke-width: 3"/>
     <use xlink:href="#mbb1f7d3a62" x="356.4" y="309.525554" style="fill: #ffa500; stroke: #ffa500; stroke-width: 3"/>
    </g>
   </g>
   <g id="line2d_7">
    <g clip-path="url(#p30d5f5a325)">
     <use xlink:href="#mbb1f7d3a62" x="356.4" y="269.390696" style="fill: #ffa500; stroke: #ffa500; stroke-width: 3"/>
     <use xlink:href="#mbb1f7d3a62" x="356.4" y="253.782696" style="fill: #ffa500; stroke: #ffa500; stroke-width: 3"/>
    </g>
   </g>
   <g id="line2d_8">
    <g clip-path="url(#p30d5f5a325)">
     <use xlink:href="#mbb1f7d3a62" x="356.4" y="213.647839" style="fill: #ffa500; stroke: #ffa500; stroke-width: 3"/>
     <use xlink:href="#mbb1f7d3a62" x="356.4" y="198.039839" style="fill: #ffa500; stroke: #ffa500; stroke-width: 3"/>
    </g>
   </g>
   <g id="line2d_9">
    <g clip-path="url(#p30d5f5a325)">
     <use xlink:href="#mbb1f7d3a62" x="356.4" y="157.904982" style="fill: #ffa500; stroke: #ffa500; stroke-width: 3"/>
     <use xlink:href="#mbb1f7d3a62" x="356.4" y="142.296982" style="fill: #ffa500; stroke: #ffa500; stroke-width: 3"/>
    </g>
   </g>
   <g id="line2d_10">
    <g clip-path="url(#p30d5f5a325)">
     <use xlink:href="#mbb1f7d3a62" x="356.4" y="102.162125" style="fill: #ffa500; stroke: #ffa500; stroke-width: 3"/>
     <use xlink:href="#mbb1f7d3a62" x="356.4" y="86.554125" style="fill: #ffa500; stroke: #ffa500; stroke-width: 3"/>
    </g>
   </g>
   <g id="text_1">
    <!-- K (⊗) -->
    <g style="fill: #ffa500" transform="translate(400.05 289.458125) scale(0.14 -0.14)">
     <defs>
      <path id="DejaVuSans-Bold-4b" d="M 588 4666 
L 1791 4666 
L 1791 2963 
L 3525 4666 
L 4922 4666 
L 2675 2456 
L 5153 0 
L 3647 0 
L 1791 1838 
L 1791 0 
L 588 0 
L 588 4666 
z
" transform="scale(0.015625)"/>
      <path id="DejaVuSans-Bold-20" transform="scale(0.015625)"/>
      <path id="DejaVuSans-Bold-28" d="M 2413 -844 
L 1484 -844 
Q 1006 -72 778 623 
Q 550 1319 550 2003 
Q 550 2688 779 3389 
Q 1009 4091 1484 4856 
L 2413 4856 
Q 2013 4116 1813 3408 
Q 1613 2700 1613 2009 
Q 1613 1319 1811 609 
Q 2009 -100 2413 -844 
z
" transform="scale(0.015625)"/>
      <path id="DejaVuSans-Bold-2297" d="M 3247 3378 
Q 2984 3488 2681 3488 
Q 2378 3488 2116 3378 
Q 1856 3269 1641 3053 
Q 1422 2834 1315 2575 
Q 1209 2316 1209 2006 
Q 1209 1706 1315 1447 
Q 1422 1188 1641 969 
Q 1856 753 2116 644 
Q 2378 534 2681 534 
Q 2984 534 3247 644 
Q 3506 753 3722 969 
Q 3941 1188 4047 1447 
Q 4153 1706 4153 2006 
Q 4153 2316 4047 2575 
Q 3941 2834 3722 3053 
Q 3506 3269 3247 3378 
z
M 1878 3956 
Q 2250 4113 2681 4113 
Q 3113 4113 3484 3956 
Q 3856 3800 4163 3494 
Q 4472 3184 4625 2813 
Q 4778 2444 4778 2006 
Q 4778 1578 4625 1206 
Q 4472 838 4163 528 
Q 3856 222 3484 65 
Q 3113 -91 2681 -91 
Q 2250 -91 1878 65 
Q 1506 222 1200 528 
Q 891 838 738 1206 
Q 584 1578 584 2006 
Q 584 2444 738 2813 
Q 891 3184 1200 3494 
Q 1506 3800 1878 3956 
z
M 3813 2697 
L 3122 2006 
L 3813 1316 
L 3372 875 
L 2681 1566 
L 1991 875 
L 1550 1316 
L 2241 2006 
L 1550 2697 
L 1991 3138 
L 2681 2447 
L 3372 3138 
L 3813 2697 
z
" transform="scale(0.015625)"/>
      <path id="DejaVuSans-Bold-29" d="M 513 -844 
Q 913 -100 1113 609 
Q 1313 1319 1313 2009 
Q 1313 2700 1113 3408 
Q 913 4116 513 4856 
L 1441 4856 
Q 1916 4091 2145 3389 
Q 2375 2688 2375 2003 
Q 2375 1319 2147 623 
Q 1919 -72 1441 -844 
L 513 -844 
z
" transform="scale(0.015625)"/>
     </defs>
     <use xlink:href="#DejaVuSans-Bold-4b"/>
     <use xlink:href="#DejaVuSans-Bold-20" transform="translate(77.490234 0)"/>
     <use xlink:href="#DejaVuSans-Bold-28" transform="translate(112.304688 0)"/>
     <use xlink:href="#DejaVuSans-Bold-2297" transform="translate(158.007812 0)"/>
     <use xlink:href="#DejaVuSans-Bold-29" transform="translate(241.796875 0)"/>
    </g>
   </g>
   <g id="text_2">
    <!-- B -->
    <g style="fill: #6b46c1" transform="translate(50.85 78.750125) scale(0.16 -0.16)">
     <defs>
      <path id="DejaVuSans-Bold-42" d="M 2456 2859 
Q 2741 2859 2887 2984 
Q 3034 3109 3034 3353 
Q 3034 3594 2887 3720 
Q 2741 3847 2456 3847 
L 1791 3847 
L 1791 2859 
L 2456 2859 
z
M 2497 819 
Q 2859 819 3042 972 
Q 3225 1125 3225 1434 
Q 3225 1738 3044 1889 
Q 2863 2041 2497 2041 
L 1791 2041 
L 1791 819 
L 2497 819 
z
M 3616 2497 
Q 4003 2384 4215 2081 
Q 4428 1778 4428 1338 
Q 4428 663 3972 331 
Q 3516 0 2584 0 
L 588 0 
L 588 4666 
L 2394 4666 
Q 3366 4666 3802 4372 
Q 4238 4078 4238 3431 
Q 4238 3091 4078 2852 
Q 3919 2613 3616 2497 
z
" transform="scale(0.015625)"/>
     </defs>
     <use xlink:href="#DejaVuSans-Bold-42"/>
    </g>
   </g>
   <g id="text_3">
    <!-- B -->
    <g style="fill: #d946ef" transform="translate(644.49 78.750125) scale(0.16 -0.16)">
     <use xlink:href="#DejaVuSans-Bold-42"/>
    </g>
   </g>
   <g id="text_4">
    <g id="patch_9">
     <path d="M 94.5 22.41375 
L 148.378125 22.41375 
Q 151.978125 22.41375 151.978125 18.81375 
L 151.978125 7.2 
Q 151.978125 3.6 148.378125 3.6 
L 94.5 3.6 
Q 90.9 3.6 90.9 7.2 
L 90.9 18.81375 
Q 90.9 22.41375 94.5 22.41375 
z
" style="fill: #fde68a; stroke: #000000; stroke-linejoin: miter"/>
    </g>
    <!-- K=5A/m -->
    <g transform="translate(94.5 16.318125) scale(0.12 -0.12)">
     <defs>
      <path id="DejaVuSans-Bold-3d" d="M 678 3084 
L 4684 3084 
L 4684 2350 
L 678 2350 
L 678 3084 
z
M 678 1663 
L 4684 1663 
L 4684 922 
L 678 922 
L 678 1663 
z
" transform="scale(0.015625)"/>
      <path id="DejaVuSans-Bold-35" d="M 678 4666 
L 3669 4666 
L 3669 3781 
L 1638 3781 
L 1638 3059 
Q 1775 3097 1914 3117 
Q 2053 3138 2203 3138 
Q 3056 3138 3531 2711 
Q 4006 2284 4006 1522 
Q 4006 766 3489 337 
Q 2972 -91 2053 -91 
Q 1656 -91 1267 -14 
Q 878 63 494 219 
L 494 1166 
Q 875 947 1217 837 
Q 1559 728 1863 728 
Q 2300 728 2551 942 
Q 2803 1156 2803 1522 
Q 2803 1891 2551 2103 
Q 2300 2316 1863 2316 
Q 1603 2316 1309 2248 
Q 1016 2181 678 2041 
L 678 4666 
z
" transform="scale(0.015625)"/>
      <path id="DejaVuSans-Bold-41" d="M 3419 850 
L 1538 850 
L 1241 0 
L 31 0 
L 1759 4666 
L 3194 4666 
L 4922 0 
L 3713 0 
L 3419 850 
z
M 1838 1716 
L 3116 1716 
L 2478 3572 
L 1838 1716 
z
" transform="scale(0.015625)"/>
      <path id="DejaVuSans-Bold-2f" d="M 1644 4666 
L 2338 4666 
L 691 -594 
L 0 -594 
L 1644 4666 
z
" transform="scale(0.015625)"/>
      <path id="DejaVuSans-Bold-6d" d="M 3781 2919 
Q 3994 3244 4286 3414 
Q 4578 3584 4928 3584 
Q 5531 3584 5847 3212 
Q 6163 2841 6163 2131 
L 6163 0 
L 5038 0 
L 5038 1825 
Q 5041 1866 5042 1909 
Q 5044 1953 5044 2034 
Q 5044 2406 4934 2573 
Q 4825 2741 4581 2741 
Q 4263 2741 4089 2478 
Q 3916 2216 3909 1719 
L 3909 0 
L 2784 0 
L 2784 1825 
Q 2784 2406 2684 2573 
Q 2584 2741 2328 2741 
Q 2006 2741 1831 2477 
Q 1656 2213 1656 1722 
L 1656 0 
L 531 0 
L 531 3500 
L 1656 3500 
L 1656 2988 
Q 1863 3284 2130 3434 
Q 2397 3584 2719 3584 
Q 3081 3584 3359 3409 
Q 3638 3234 3781 2919 
z
" transform="scale(0.015625)"/>
     </defs>
     <use xlink:href="#DejaVuSans-Bold-4b"/>
     <use xlink:href="#DejaVuSans-Bold-3d" transform="translate(77.490234 0)"/>
     <use xlink:href="#DejaVuSans-Bold-35" transform="translate(161.279297 0)"/>
     <use xlink:href="#DejaVuSans-Bold-41" transform="translate(230.859375 0)"/>
     <use xlink:href="#DejaVuSans-Bold-2f" transform="translate(308.251953 0)"/>
     <use xlink:href="#DejaVuSans-Bold-6d" transform="translate(344.775391 0)"/>
    </g>
   </g>
   <g id="text_5">
    <!-- Infinite Sheet -->
    <g transform="translate(356.4 562.598125) scale(0.11 -0.11)">
     <defs>
      <path id="DejaVuSans-Oblique-49" d="M 1081 4666 
L 1716 4666 
L 806 0 
L 172 0 
L 1081 4666 
z
" transform="scale(0.015625)"/>
      <path id="DejaVuSans-Oblique-6e" d="M 3566 2113 
L 3156 0 
L 2578 0 
L 2988 2091 
Q 3016 2238 3031 2350 
Q 3047 2463 3047 2528 
Q 3047 2791 2881 2937 
Q 2716 3084 2419 3084 
Q 1956 3084 1622 2776 
Q 1288 2469 1184 1941 
L 800 0 
L 225 0 
L 903 3500 
L 1478 3500 
L 1363 2950 
Q 1603 3253 1940 3418 
Q 2278 3584 2650 3584 
Q 3113 3584 3367 3334 
Q 3622 3084 3622 2631 
Q 3622 2519 3608 2391 
Q 3594 2263 3566 2113 
z
" transform="scale(0.015625)"/>
      <path id="DejaVuSans-Oblique-66" d="M 3059 4863 
L 2969 4384 
L 2419 4384 
Q 2106 4384 1964 4261 
Q 1822 4138 1753 3809 
L 1691 3500 
L 2638 3500 
L 2553 3053 
L 1606 3053 
L 1013 0 
L 434 0 
L 1031 3053 
L 481 3053 
L 563 3500 
L 1113 3500 
L 1159 3744 
Q 1278 4363 1576 4613 
Q 1875 4863 2516 4863 
L 3059 4863 
z
" transform="scale(0.015625)"/>
      <path id="DejaVuSans-Oblique-69" d="M 1172 4863 
L 1747 4863 
L 1606 4134 
L 1031 4134 
L 1172 4863 
z
M 909 3500 
L 1484 3500 
L 800 0 
L 225 0 
L 909 3500 
z
" transform="scale(0.015625)"/>
      <path id="DejaVuSans-Oblique-74" d="M 2706 3500 
L 2619 3053 
L 1472 3053 
L 1100 1153 
Q 1081 1047 1072 975 
Q 1063 903 1063 863 
Q 1063 663 1183 572 
Q 1303 481 1569 481 
L 2150 481 
L 2053 0 
L 1503 0 
Q 991 0 739 200 
Q 488 400 488 806 
Q 488 878 497 964 
Q 506 1050 525 1153 
L 897 3053 
L 409 3053 
L 500 3500 
L 978 3500 
L 1172 4494 
L 1747 4494 
L 1556 3500 
L 2706 3500 
z
" transform="scale(0.015625)"/>
      <path id="DejaVuSans-Oblique-65" d="M 3078 2063 
Q 3088 2113 3092 2166 
Q 3097 2219 3097 2272 
Q 3097 2653 2873 2875 
Q 2650 3097 2266 3097 
Q 1838 3097 1509 2826 
Q 1181 2556 1013 2059 
L 3078 2063 
z
M 3578 1613 
L 903 1613 
Q 884 1494 878 1425 
Q 872 1356 872 1306 
Q 872 872 1139 634 
Q 1406 397 1894 397 
Q 2269 397 2603 481 
Q 2938 566 3225 728 
L 3116 159 
Q 2806 34 2476 -28 
Q 2147 -91 1806 -91 
Q 1078 -91 686 257 
Q 294 606 294 1247 
Q 294 1794 489 2264 
Q 684 2734 1063 3103 
Q 1306 3334 1642 3459 
Q 1978 3584 2356 3584 
Q 2950 3584 3301 3228 
Q 3653 2872 3653 2272 
Q 3653 2128 3634 1964 
Q 3616 1800 3578 1613 
z
" transform="scale(0.015625)"/>
      <path id="DejaVuSans-Oblique-20" transform="scale(0.015625)"/>
      <path id="DejaVuSans-Oblique-53" d="M 3859 4513 
L 3738 3897 
Q 3422 4066 3111 4152 
Q 2800 4238 2509 4238 
Q 1944 4238 1609 3991 
Q 1275 3744 1275 3334 
Q 1275 3109 1398 2989 
Q 1522 2869 2034 2731 
L 2413 2638 
Q 3053 2472 3303 2217 
Q 3553 1963 3553 1503 
Q 3553 797 2998 353 
Q 2444 -91 1538 -91 
Q 1166 -91 791 -17 
Q 416 56 38 206 
L 166 856 
Q 513 641 861 531 
Q 1209 422 1556 422 
Q 2147 422 2503 684 
Q 2859 947 2859 1369 
Q 2859 1650 2717 1795 
Q 2575 1941 2106 2059 
L 1728 2156 
Q 1081 2325 845 2545 
Q 609 2766 609 3163 
Q 609 3859 1145 4304 
Q 1681 4750 2541 4750 
Q 2875 4750 3203 4690 
Q 3531 4631 3859 4513 
z
" transform="scale(0.015625)"/>
      <path id="DejaVuSans-Oblique-68" d="M 3566 2113 
L 3156 0 
L 2578 0 
L 2988 2091 
Q 3016 2238 3031 2350 
Q 3047 2463 3047 2528 
Q 3047 2791 2881 2937 
Q 2716 3084 2419 3084 
Q 1956 3084 1617 2771 
Q 1278 2459 1178 1941 
L 800 0 
L 225 0 
L 1172 4863 
L 1747 4863 
L 1375 2950 
Q 1594 3244 1934 3414 
Q 2275 3584 2650 3584 
Q 3113 3584 3367 3334 
Q 3622 3084 3622 2631 
Q 3622 2519 3608 2391 
Q 3594 2263 3566 2113 
z
" transform="scale(0.015625)"/>
     </defs>
     <use xlink:href="#DejaVuSans-Oblique-49"/>
     <use xlink:href="#DejaVuSans-Oblique-6e" transform="translate(29.492188 0)"/>
     <use xlink:href="#DejaVuSans-Oblique-66" transform="translate(92.871094 0)"/>
     <use xlink:href="#DejaVuSans-Oblique-69" transform="translate(128.076172 0)"/>
     <use xlink:href="#DejaVuSans-Oblique-6e" transform="translate(155.859375 0)"/>
     <use xlink:href="#DejaVuSans-Oblique-69" transform="translate(219.238281 0)"/>
     <use xlink:href="#DejaVuSans-Oblique-74" transform="translate(247.021484 0)"/>
     <use xlink:href="#DejaVuSans-Oblique-65" transform="translate(286.230469 0)"/>
     <use xlink:href="#DejaVuSans-Oblique-20" transform="translate(347.753906 0)"/>
     <use xlink:href="#DejaVuSans-Oblique-53" transform="translate(379.541016 0)"/>
     <use xlink:href="#DejaVuSans-Oblique-68" transform="translate(443.017578 0)"/>
     <use xlink:href="#DejaVuSans-Oblique-65" transform="translate(506.396484 0)"/>
     <use xlink:href="#DejaVuSans-Oblique-65" transform="translate(567.919922 0)"/>
     <use xlink:href="#DejaVuSans-Oblique-74" transform="translate(629.443359 0)"/>
    </g>
   </g>
   <g id="text_6">
    <!-- Current Sheet Field -->
    <g transform="translate(279.219531 49.338125) scale(0.14 -0.14)">
     <defs>
      <path id="DejaVuSans-Bold-43" d="M 4288 256 
Q 3956 84 3597 -3 
Q 3238 -91 2847 -91 
Q 1681 -91 1000 561 
Q 319 1213 319 2328 
Q 319 3447 1000 4098 
Q 1681 4750 2847 4750 
Q 3238 4750 3597 4662 
Q 3956 4575 4288 4403 
L 4288 3438 
Q 3953 3666 3628 3772 
Q 3303 3878 2944 3878 
Q 2300 3878 1931 3465 
Q 1563 3053 1563 2328 
Q 1563 1606 1931 1193 
Q 2300 781 2944 781 
Q 3303 781 3628 887 
Q 3953 994 4288 1222 
L 4288 256 
z
" transform="scale(0.015625)"/>
      <path id="DejaVuSans-Bold-75" d="M 500 1363 
L 500 3500 
L 1625 3500 
L 1625 3150 
Q 1625 2866 1622 2436 
Q 1619 2006 1619 1863 
Q 1619 1441 1641 1255 
Q 1663 1069 1716 984 
Q 1784 875 1895 815 
Q 2006 756 2150 756 
Q 2500 756 2700 1025 
Q 2900 1294 2900 1772 
L 2900 3500 
L 4019 3500 
L 4019 0 
L 2900 0 
L 2900 506 
Q 2647 200 2364 54 
Q 2081 -91 1741 -91 
Q 1134 -91 817 281 
Q 500 653 500 1363 
z
" transform="scale(0.015625)"/>
      <path id="DejaVuSans-Bold-72" d="M 3138 2547 
Q 2991 2616 2845 2648 
Q 2700 2681 2553 2681 
Q 2122 2681 1889 2404 
Q 1656 2128 1656 1613 
L 1656 0 
L 538 0 
L 538 3500 
L 1656 3500 
L 1656 2925 
Q 1872 3269 2151 3426 
Q 2431 3584 2822 3584 
Q 2878 3584 2943 3579 
Q 3009 3575 3134 3559 
L 3138 2547 
z
" transform="scale(0.015625)"/>
      <path id="DejaVuSans-Bold-65" d="M 4031 1759 
L 4031 1441 
L 1416 1441 
Q 1456 1047 1700 850 
Q 1944 653 2381 653 
Q 2734 653 3104 758 
Q 3475 863 3866 1075 
L 3866 213 
Q 3469 63 3072 -14 
Q 2675 -91 2278 -91 
Q 1328 -91 801 392 
Q 275 875 275 1747 
Q 275 2603 792 3093 
Q 1309 3584 2216 3584 
Q 3041 3584 3536 3087 
Q 4031 2591 4031 1759 
z
M 2881 2131 
Q 2881 2450 2695 2645 
Q 2509 2841 2209 2841 
Q 1884 2841 1681 2658 
Q 1478 2475 1428 2131 
L 2881 2131 
z
" transform="scale(0.015625)"/>
      <path id="DejaVuSans-Bold-6e" d="M 4056 2131 
L 4056 0 
L 2931 0 
L 2931 347 
L 2931 1631 
Q 2931 2084 2911 2256 
Q 2891 2428 2841 2509 
Q 2775 2619 2662 2680 
Q 2550 2741 2406 2741 
Q 2056 2741 1856 2470 
Q 1656 2200 1656 1722 
L 1656 0 
L 538 0 
L 538 3500 
L 1656 3500 
L 1656 2988 
Q 1909 3294 2193 3439 
Q 2478 3584 2822 3584 
Q 3428 3584 3742 3212 
Q 4056 2841 4056 2131 
z
" transform="scale(0.015625)"/>
      <path id="DejaVuSans-Bold-74" d="M 1759 4494 
L 1759 3500 
L 2913 3500 
L 2913 2700 
L 1759 2700 
L 1759 1216 
Q 1759 972 1856 886 
Q 1953 800 2241 800 
L 2816 800 
L 2816 0 
L 1856 0 
Q 1194 0 917 276 
Q 641 553 641 1216 
L 641 2700 
L 84 2700 
L 84 3500 
L 641 3500 
L 641 4494 
L 1759 4494 
z
" transform="scale(0.015625)"/>
      <path id="DejaVuSans-Bold-53" d="M 3834 4519 
L 3834 3531 
Q 3450 3703 3084 3790 
Q 2719 3878 2394 3878 
Q 1963 3878 1756 3759 
Q 1550 3641 1550 3391 
Q 1550 3203 1689 3098 
Q 1828 2994 2194 2919 
L 2706 2816 
Q 3484 2659 3812 2340 
Q 4141 2022 4141 1434 
Q 4141 663 3683 286 
Q 3225 -91 2284 -91 
Q 1841 -91 1394 -6 
Q 947 78 500 244 
L 500 1259 
Q 947 1022 1364 901 
Q 1781 781 2169 781 
Q 2563 781 2772 912 
Q 2981 1044 2981 1288 
Q 2981 1506 2839 1625 
Q 2697 1744 2272 1838 
L 1806 1941 
Q 1106 2091 782 2419 
Q 459 2747 459 3303 
Q 459 4000 909 4375 
Q 1359 4750 2203 4750 
Q 2588 4750 2994 4692 
Q 3400 4634 3834 4519 
z
" transform="scale(0.015625)"/>
      <path id="DejaVuSans-Bold-68" d="M 4056 2131 
L 4056 0 
L 2931 0 
L 2931 347 
L 2931 1625 
Q 2931 2084 2911 2256 
Q 2891 2428 2841 2509 
Q 2775 2619 2662 2680 
Q 2550 2741 2406 2741 
Q 2056 2741 1856 2470 
Q 1656 2200 1656 1722 
L 1656 0 
L 538 0 
L 538 4863 
L 1656 4863 
L 1656 2988 
Q 1909 3294 2193 3439 
Q 2478 3584 2822 3584 
Q 3428 3584 3742 3212 
Q 4056 2841 4056 2131 
z
" transform="scale(0.015625)"/>
      <path id="DejaVuSans-Bold-46" d="M 588 4666 
L 3834 4666 
L 3834 3756 
L 1791 3756 
L 1791 2888 
L 3713 2888 
L 3713 1978 
L 1791 1978 
L 1791 0 
L 588 0 
L 588 4666 
z
" transform="scale(0.015625)"/>
      <path id="DejaVuSans-Bold-69" d="M 538 3500 
L 1656 3500 
L 1656 0 
L 538 0 
L 538 3500 
z
M 538 4863 
L 1656 4863 
L 1656 3950 
L 538 3950 
L 538 4863 
z
" transform="scale(0.015625)"/>
      <path id="DejaVuSans-Bold-6c" d="M 538 4863 
L 1656 4863 
L 1656 0 
L 538 0 
L 538 4863 
z
" transform="scale(0.015625)"/>
      <path id="DejaVuSans-Bold-64" d="M 2919 2988 
L 2919 4863 
L 4044 4863 
L 4044 0 
L 2919 0 
L 2919 506 
Q 2688 197 2409 53 
Q 2131 -91 1766 -91 
Q 1119 -91 703 423 
Q 288 938 288 1747 
Q 288 2556 703 3070 
Q 1119 3584 1766 3584 
Q 2128 3584 2408 3439 
Q 2688 3294 2919 2988 
z
M 2181 722 
Q 2541 722 2730 984 
Q 2919 1247 2919 1747 
Q 2919 2247 2730 2509 
Q 2541 2772 2181 2772 
Q 1825 2772 1636 2509 
Q 1447 2247 1447 1747 
Q 1447 1247 1636 984 
Q 1825 722 2181 722 
z
" transform="scale(0.015625)"/>
     </defs>
     <use xlink:href="#DejaVuSans-Bold-43"/>
     <use xlink:href="#DejaVuSans-Bold-75" transform="translate(73.388672 0)"/>
     <use xlink:href="#DejaVuSans-Bold-72" transform="translate(144.580078 0)"/>
     <use xlink:href="#DejaVuSans-Bold-72" transform="translate(193.896484 0)"/>
     <use xlink:href="#DejaVuSans-Bold-65" transform="translate(243.212891 0)"/>
     <use xlink:href="#DejaVuSans-Bold-6e" transform="translate(311.035156 0)"/>
     <use xlink:href="#DejaVuSans-Bold-74" transform="translate(382.226562 0)"/>
     <use xlink:href="#DejaVuSans-Bold-20" transform="translate(430.029297 0)"/>
     <use xlink:href="#DejaVuSans-Bold-53" transform="translate(464.84375 0)"/>
     <use xlink:href="#DejaVuSans-Bold-68" transform="translate(536.865234 0)"/>
     <use xlink:href="#DejaVuSans-Bold-65" transform="translate(608.056641 0)"/>
     <use xlink:href="#DejaVuSans-Bold-65" transform="translate(675.878906 0)"/>
     <use xlink:href="#DejaVuSans-Bold-74" transform="translate(743.701172 0)"/>
     <use xlink:href="#DejaVuSans-Bold-20" transform="translate(791.503906 0)"/>
     <use xlink:href="#DejaVuSans-Bold-46" transform="translate(826.318359 0)"/>
     <use xlink:href="#DejaVuSans-Bold-69" transform="translate(894.628906 0)"/>
     <use xlink:href="#DejaVuSans-Bold-65" transform="translate(928.90625 0)"/>
     <use xlink:href="#DejaVuSans-Bold-6c" transform="translate(996.728516 0)"/>
     <use xlink:href="#DejaVuSans-Bold-64" transform="translate(1031.005859 0)"/>
    </g>
   </g>
  </g>
 </g>
 <defs>
  <clipPath id="p30d5f5a325">
   <rect x="7.2" y="55.338125" width="698.4" height="468.24"/>
  </clipPath>
 </defs>
</svg>
