<?xml version="1.0" encoding="utf-8" standalone="no"?>
<!DOCTYPE svg PUBLIC "-//W3C//DTD SVG 1.1//EN"
  "http://www.w3.org/Graphics/SVG/1.1/DTD/svg11.dtd">
<svg xmlns:xlink="http://www.w3.org/1999/xlink" width="543pt" height="568.637812pt" viewBox="0 0 543 568.637812" xmlns="http://www.w3.org/2000/svg" version="1.1">
 <metadata>
  <rdf:RDF xmlns:dc="http://purl.org/dc/elements/1.1/" xmlns:cc="http://creativecommons.org/ns#" xmlns:rdf="http://www.w3.org/1999/02/22-rdf-syntax-ns#">
   <cc:Work>
    <dc:type rdf:resource="http://purl.org/dc/dcmitype/StillImage"/>
    <dc:date>2025-12-13T21:01:33.116002</dc:date>
    <dc:format>image/svg+xml</dc:format>
    <dc:creator>
     <cc:Agent>
      <dc:title>Matplotlib v3.10.7, https://matplotlib.org/</dc:title>
     </cc:Agent>
    </dc:creator>
   </cc:Work>
  </rdf:RDF>
 </metadata>
 <defs>
  <style type="text/css">*{stroke-linejoin: round; stroke-linecap: butt}</style>
 </defs>
 <g id="figure_1">
  <g id="patch_1">
   <path d="M -0 568.637812 
L 543 568.637812 
L 543 0 
L -0 0 
z
" style="fill: #ffffff"/>
  </g>
  <g id="axes_1">
   <g id="patch_2">
    <path d="M 442.814295 375.007947 
L 439.69949 390.581974 
L 433.501027 384.383511 
L 396.123363 421.761175 
L 396.061067 421.698879 
L 433.438731 384.321215 
L 427.240269 378.122752 
z
" clip-path="url(#p01089d83bb)" style="fill: #ffa500; stroke: #ffa500; stroke-width: 2; stroke-linejoin: miter"/>
   </g>
   <g id="patch_3">
    <path d="M 271.5 147.367813 
L 278.1075 164.987813 
L 271.54405 164.987813 
L 271.54405 297.137812 
L 271.45595 297.137812 
L 271.45595 164.987813 
L 264.8925 164.987813 
z
" clip-path="url(#p01089d83bb)" style="fill: #d946ef; stroke: #d946ef; stroke-width: 3; stroke-linejoin: miter"/>
   </g>
   <g id="line2d_1">
    <path d="M 447.7 297.137812 
L 447.345252 285.962518 
L 446.282438 274.832222 
L 444.515836 263.791743 
L 442.052561 252.885537 
L 438.902531 242.157519 
L 435.07843 231.650888 
L 430.595656 221.407949 
L 425.47226 211.469948 
L 419.728872 201.8769 
L 413.388619 192.667435 
L 406.477031 183.878636 
L 399.021938 175.545891 
L 391.053358 167.702753 
L 382.60338 160.380805 
L 373.706027 153.60953 
L 364.397127 147.416192 
L 354.714163 141.82573 
L 344.696125 136.860655 
L 334.383352 132.54096 
L 323.81737 128.884038 
L 313.040724 125.904614 
L 302.096809 123.614686 
L 291.029691 122.023475 
L 279.883934 121.137387 
L 268.704417 120.959991 
L 257.536158 121.492001 
L 246.424125 122.731274 
L 235.413065 124.672821 
L 224.547314 127.308824 
L 213.870625 130.628668 
L 203.425989 134.618986 
L 193.255463 139.263709 
L 183.4 144.544136 
L 173.899285 150.439004 
L 164.791573 156.924576 
L 156.113539 163.974737 
L 147.900125 171.5611 
L 140.184404 179.653115 
L 132.997445 188.218199 
L 126.368186 197.221864 
L 120.323323 206.627856 
L 114.887194 216.398299 
L 110.08169 226.493852 
L 105.92616 236.873863 
L 102.437338 247.496536 
L 99.629272 258.319097 
L 97.513268 269.297967 
L 96.097847 280.388938 
L 95.388709 291.547351 
L 95.388709 302.728274 
L 96.097847 313.886687 
L 97.513268 324.977658 
L 99.629272 335.956528 
L 102.437338 346.779089 
L 105.92616 357.401762 
L 110.08169 367.781773 
L 114.887194 377.877326 
L 120.323323 387.647769 
L 126.368186 397.053761 
L 132.997445 406.057426 
L 140.184404 414.62251 
L 147.900125 422.714525 
L 156.113539 430.300888 
L 164.791573 437.351049 
L 173.899285 443.836621 
L 183.4 449.731489 
L 193.255463 455.011916 
L 203.425989 459.656639 
L 213.870625 463.646957 
L 224.547314 466.966801 
L 235.413065 469.602804 
L 246.424125 471.544351 
L 257.536158 472.783624 
L 268.704417 473.315634 
L 279.883934 473.138238 
L 291.029691 472.25215 
L 302.096809 470.660939 
L 313.040724 468.371011 
L 323.81737 465.391587 
L 334.383352 461.734665 
L 344.696125 457.41497 
L 354.714163 452.449895 
L 364.397127 446.859433 
L 373.706027 440.666095 
L 382.60338 433.89482 
L 391.053358 426.572872 
L 399.021938 418.729734 
L 406.477031 410.396989 
L 413.388619 401.60819 
L 419.728872 392.398725 
L 425.47226 382.805677 
L 430.595656 372.867676 
L 435.07843 362.624737 
L 438.902531 352.118106 
L 442.052561 341.390088 
L 444.515836 330.483882 
L 446.282438 319.443403 
L 447.345252 308.313107 
L 447.7 297.137813 
" clip-path="url(#p01089d83bb)" style="fill: none; stroke: #6b46c1; stroke-width: 4; stroke-linecap: square"/>
   </g>
   <g id="line2d_2">
    <defs>
     <path id="mc4157be524" d="M 0 6 
C 1.591219 6 3.117479 5.367802 4.242641 4.242641 
C 5.367802 3.117479 6 1.591219 6 0 
C 6 -1.591219 5.367802 -3.117479 4.242641 -4.242641 
C 3.117479 -5.367802 1.591219 -6 0 -6 
C -1.591219 -6 -3.117479 -5.367802 -4.242641 -4.242641 
C -5.367802 -3.117479 -6 -1.591219 -6 0 
C -6 1.591219 -5.367802 3.117479 -4.242641 4.242641 
C -3.117479 5.367802 -1.591219 6 0 6 
z
" style="stroke: #ff0000"/>
    </defs>
    <g clip-path="url(#p01089d83bb)">
     <use xlink:href="#mc4157be524" x="271.5" y="297.137812" style="fill: #ff0000; stroke: #ff0000"/>
    </g>
   </g>
   <g id="text_1">
    <!-- B -->
    <g style="fill: #d946ef" transform="translate(297.93 191.417813) scale(0.18 -0.18)">
     <defs>
      <path id="DejaVuSans-Bold-42" d="M 2456 2859 
Q 2741 2859 2887 2984 
Q 3034 3109 3034 3353 
Q 3034 3594 2887 3720 
Q 2741 3847 2456 3847 
L 1791 3847 
L 1791 2859 
L 2456 2859 
z
M 2497 819 
Q 2859 819 3042 972 
Q 3225 1125 3225 1434 
Q 3225 1738 3044 1889 
Q 2863 2041 2497 2041 
L 1791 2041 
L 1791 819 
L 2497 819 
z
M 3616 2497 
Q 4003 2384 4215 2081 
Q 4428 1778 4428 1338 
Q 4428 663 3972 331 
Q 3516 0 2584 0 
L 588 0 
L 588 4666 
L 2394 4666 
Q 3366 4666 3802 4372 
Q 4238 4078 4238 3431 
Q 4238 3091 4078 2852 
Q 3919 2613 3616 2497 
z
" transform="scale(0.015625)"/>
     </defs>
     <use xlink:href="#DejaVuSans-Bold-42"/>
    </g>
   </g>
   <g id="text_2">
    <g id="patch_4">
     <path d="M 491.75 305.265312 
L 497.7025 305.265312 
Q 502.5025 305.265312 502.5025 300.465312 
L 502.5025 284.980312 
Q 502.5025 280.180312 497.7025 280.180312 
L 491.75 280.180312 
Q 486.95 280.180312 486.95 284.980312 
L 486.95 300.465312 
Q 486.95 305.265312 491.75 305.265312 
z
" style="fill: #fde68a; opacity: 0.8; stroke: #000000; stroke-linejoin: miter"/>
    </g>
    <!-- I -->
    <g style="fill: #ffa500" transform="translate(491.75 297.137812) scale(0.16 -0.16)">
     <defs>
      <path id="DejaVuSans-Bold-49" d="M 588 4666 
L 1791 4666 
L 1791 0 
L 588 0 
L 588 4666 
z
" transform="scale(0.015625)"/>
     </defs>
     <use xlink:href="#DejaVuSans-Bold-49"/>
    </g>
   </g>
   <g id="text_3">
    <g id="patch_5">
     <path d="M 24.82 523.483438 
L 87.086875 523.483438 
Q 90.686875 523.483438 90.686875 519.883438 
L 90.686875 508.269688 
Q 90.686875 504.669688 87.086875 504.669688 
L 24.82 504.669688 
Q 21.22 504.669688 21.22 508.269688 
L 21.22 519.883438 
Q 21.22 523.483438 24.82 523.483438 
z
" style="fill: #ffffff; opacity: 0.8; stroke: #000000; stroke-linejoin: miter"/>
    </g>
    <!-- r = 0.2 m -->
    <g style="fill: #0000ff" transform="translate(24.82 517.387812) scale(0.12 -0.12)">
     <defs>
      <path id="DejaVuSans-Bold-72" d="M 3138 2547 
Q 2991 2616 2845 2648 
Q 2700 2681 2553 2681 
Q 2122 2681 1889 2404 
Q 1656 2128 1656 1613 
L 1656 0 
L 538 0 
L 538 3500 
L 1656 3500 
L 1656 2925 
Q 1872 3269 2151 3426 
Q 2431 3584 2822 3584 
Q 2878 3584 2943 3579 
Q 3009 3575 3134 3559 
L 3138 2547 
z
" transform="scale(0.015625)"/>
      <path id="DejaVuSans-Bold-20" transform="scale(0.015625)"/>
      <path id="DejaVuSans-Bold-3d" d="M 678 3084 
L 4684 3084 
L 4684 2350 
L 678 2350 
L 678 3084 
z
M 678 1663 
L 4684 1663 
L 4684 922 
L 678 922 
L 678 1663 
z
" transform="scale(0.015625)"/>
      <path id="DejaVuSans-Bold-30" d="M 2944 2338 
Q 2944 3213 2780 3570 
Q 2616 3928 2228 3928 
Q 1841 3928 1675 3570 
Q 1509 3213 1509 2338 
Q 1509 1453 1675 1090 
Q 1841 728 2228 728 
Q 2613 728 2778 1090 
Q 2944 1453 2944 2338 
z
M 4147 2328 
Q 4147 1169 3647 539 
Q 3147 -91 2228 -91 
Q 1306 -91 806 539 
Q 306 1169 306 2328 
Q 306 3491 806 4120 
Q 1306 4750 2228 4750 
Q 3147 4750 3647 4120 
Q 4147 3491 4147 2328 
z
" transform="scale(0.015625)"/>
      <path id="DejaVuSans-Bold-2e" d="M 653 1209 
L 1778 1209 
L 1778 0 
L 653 0 
L 653 1209 
z
" transform="scale(0.015625)"/>
      <path id="DejaVuSans-Bold-32" d="M 1844 884 
L 3897 884 
L 3897 0 
L 506 0 
L 506 884 
L 2209 2388 
Q 2438 2594 2547 2791 
Q 2656 2988 2656 3200 
Q 2656 3528 2436 3728 
Q 2216 3928 1850 3928 
Q 1569 3928 1234 3808 
Q 900 3688 519 3450 
L 519 4475 
Q 925 4609 1322 4679 
Q 1719 4750 2100 4750 
Q 2938 4750 3402 4381 
Q 3866 4013 3866 3353 
Q 3866 2972 3669 2642 
Q 3472 2313 2841 1759 
L 1844 884 
z
" transform="scale(0.015625)"/>
      <path id="DejaVuSans-Bold-6d" d="M 3781 2919 
Q 3994 3244 4286 3414 
Q 4578 3584 4928 3584 
Q 5531 3584 5847 3212 
Q 6163 2841 6163 2131 
L 6163 0 
L 5038 0 
L 5038 1825 
Q 5041 1866 5042 1909 
Q 5044 1953 5044 2034 
Q 5044 2406 4934 2573 
Q 4825 2741 4581 2741 
Q 4263 2741 4089 2478 
Q 3916 2216 3909 1719 
L 3909 0 
L 2784 0 
L 2784 1825 
Q 2784 2406 2684 2573 
Q 2584 2741 2328 2741 
Q 2006 2741 1831 2477 
Q 1656 2213 1656 1722 
L 1656 0 
L 531 0 
L 531 3500 
L 1656 3500 
L 1656 2988 
Q 1863 3284 2130 3434 
Q 2397 3584 2719 3584 
Q 3081 3584 3359 3409 
Q 3638 3234 3781 2919 
z
" transform="scale(0.015625)"/>
     </defs>
     <use xlink:href="#DejaVuSans-Bold-72"/>
     <use xlink:href="#DejaVuSans-Bold-20" transform="translate(49.316406 0)"/>
     <use xlink:href="#DejaVuSans-Bold-3d" transform="translate(84.130859 0)"/>
     <use xlink:href="#DejaVuSans-Bold-20" transform="translate(167.919922 0)"/>
     <use xlink:href="#DejaVuSans-Bold-30" transform="translate(202.734375 0)"/>
     <use xlink:href="#DejaVuSans-Bold-2e" transform="translate(272.314453 0)"/>
     <use xlink:href="#DejaVuSans-Bold-32" transform="translate(310.302734 0)"/>
     <use xlink:href="#DejaVuSans-Bold-20" transform="translate(379.882812 0)"/>
     <use xlink:href="#DejaVuSans-Bold-6d" transform="translate(414.697266 0)"/>
    </g>
   </g>
   <g id="text_4">
    <g id="patch_6">
     <path d="M 24.82 82.983438 
L 69.50875 82.983438 
Q 73.10875 82.983438 73.10875 79.383438 
L 73.10875 67.769688 
Q 73.10875 64.169688 69.50875 64.169688 
L 24.82 64.169688 
Q 21.22 64.169688 21.22 67.769688 
L 21.22 79.383438 
Q 21.22 82.983438 24.82 82.983438 
z
" style="fill: #ffffff; opacity: 0.8; stroke: #000000; stroke-linejoin: miter"/>
    </g>
    <!-- I = 6 A -->
    <g style="fill: #008000" transform="translate(24.82 76.887812) scale(0.12 -0.12)">
     <defs>
      <path id="DejaVuSans-Bold-36" d="M 2316 2303 
Q 2000 2303 1842 2098 
Q 1684 1894 1684 1484 
Q 1684 1075 1842 870 
Q 2000 666 2316 666 
Q 2634 666 2792 870 
Q 2950 1075 2950 1484 
Q 2950 1894 2792 2098 
Q 2634 2303 2316 2303 
z
M 3803 4544 
L 3803 3681 
Q 3506 3822 3243 3889 
Q 2981 3956 2731 3956 
Q 2194 3956 1894 3657 
Q 1594 3359 1544 2772 
Q 1750 2925 1990 3001 
Q 2231 3078 2516 3078 
Q 3231 3078 3670 2659 
Q 4109 2241 4109 1563 
Q 4109 813 3618 361 
Q 3128 -91 2303 -91 
Q 1394 -91 895 523 
Q 397 1138 397 2266 
Q 397 3422 980 4083 
Q 1563 4744 2578 4744 
Q 2900 4744 3203 4694 
Q 3506 4644 3803 4544 
z
" transform="scale(0.015625)"/>
      <path id="DejaVuSans-Bold-41" d="M 3419 850 
L 1538 850 
L 1241 0 
L 31 0 
L 1759 4666 
L 3194 4666 
L 4922 0 
L 3713 0 
L 3419 850 
z
M 1838 1716 
L 3116 1716 
L 2478 3572 
L 1838 1716 
z
" transform="scale(0.015625)"/>
     </defs>
     <use xlink:href="#DejaVuSans-Bold-49"/>
     <use xlink:href="#DejaVuSans-Bold-20" transform="translate(37.207031 0)"/>
     <use xlink:href="#DejaVuSans-Bold-3d" transform="translate(72.021484 0)"/>
     <use xlink:href="#DejaVuSans-Bold-20" transform="translate(155.810547 0)"/>
     <use xlink:href="#DejaVuSans-Bold-36" transform="translate(190.625 0)"/>
     <use xlink:href="#DejaVuSans-Bold-20" transform="translate(260.205078 0)"/>
     <use xlink:href="#DejaVuSans-Bold-41" transform="translate(295.019531 0)"/>
    </g>
   </g>
   <g id="text_5">
    <!-- Magnetic Field at Center of Circular Loop -->
    <g transform="translate(109.087969 17.837812) scale(0.14 -0.14)">
     <defs>
      <path id="DejaVuSans-Bold-4d" d="M 588 4666 
L 2119 4666 
L 3181 2169 
L 4250 4666 
L 5778 4666 
L 5778 0 
L 4641 0 
L 4641 3413 
L 3566 897 
L 2803 897 
L 1728 3413 
L 1728 0 
L 588 0 
L 588 4666 
z
" transform="scale(0.015625)"/>
      <path id="DejaVuSans-Bold-61" d="M 2106 1575 
Q 1756 1575 1579 1456 
Q 1403 1338 1403 1106 
Q 1403 894 1545 773 
Q 1688 653 1941 653 
Q 2256 653 2472 879 
Q 2688 1106 2688 1447 
L 2688 1575 
L 2106 1575 
z
M 3816 1997 
L 3816 0 
L 2688 0 
L 2688 519 
Q 2463 200 2181 54 
Q 1900 -91 1497 -91 
Q 953 -91 614 226 
Q 275 544 275 1050 
Q 275 1666 698 1953 
Q 1122 2241 2028 2241 
L 2688 2241 
L 2688 2328 
Q 2688 2594 2478 2717 
Q 2269 2841 1825 2841 
Q 1466 2841 1156 2769 
Q 847 2697 581 2553 
L 581 3406 
Q 941 3494 1303 3539 
Q 1666 3584 2028 3584 
Q 2975 3584 3395 3211 
Q 3816 2838 3816 1997 
z
" transform="scale(0.015625)"/>
      <path id="DejaVuSans-Bold-67" d="M 2919 594 
Q 2688 288 2409 144 
Q 2131 0 1766 0 
Q 1125 0 706 504 
Q 288 1009 288 1791 
Q 288 2575 706 3076 
Q 1125 3578 1766 3578 
Q 2131 3578 2409 3434 
Q 2688 3291 2919 2981 
L 2919 3500 
L 4044 3500 
L 4044 353 
Q 4044 -491 3511 -936 
Q 2978 -1381 1966 -1381 
Q 1638 -1381 1331 -1331 
Q 1025 -1281 716 -1178 
L 716 -306 
Q 1009 -475 1290 -558 
Q 1572 -641 1856 -641 
Q 2406 -641 2662 -400 
Q 2919 -159 2919 353 
L 2919 594 
z
M 2181 2772 
Q 1834 2772 1640 2515 
Q 1447 2259 1447 1791 
Q 1447 1309 1634 1061 
Q 1822 813 2181 813 
Q 2531 813 2725 1069 
Q 2919 1325 2919 1791 
Q 2919 2259 2725 2515 
Q 2531 2772 2181 2772 
z
" transform="scale(0.015625)"/>
      <path id="DejaVuSans-Bold-6e" d="M 4056 2131 
L 4056 0 
L 2931 0 
L 2931 347 
L 2931 1631 
Q 2931 2084 2911 2256 
Q 2891 2428 2841 2509 
Q 2775 2619 2662 2680 
Q 2550 2741 2406 2741 
Q 2056 2741 1856 2470 
Q 1656 2200 1656 1722 
L 1656 0 
L 538 0 
L 538 3500 
L 1656 3500 
L 1656 2988 
Q 1909 3294 2193 3439 
Q 2478 3584 2822 3584 
Q 3428 3584 3742 3212 
Q 4056 2841 4056 2131 
z
" transform="scale(0.015625)"/>
      <path id="DejaVuSans-Bold-65" d="M 4031 1759 
L 4031 1441 
L 1416 1441 
Q 1456 1047 1700 850 
Q 1944 653 2381 653 
Q 2734 653 3104 758 
Q 3475 863 3866 1075 
L 3866 213 
Q 3469 63 3072 -14 
Q 2675 -91 2278 -91 
Q 1328 -91 801 392 
Q 275 875 275 1747 
Q 275 2603 792 3093 
Q 1309 3584 2216 3584 
Q 3041 3584 3536 3087 
Q 4031 2591 4031 1759 
z
M 2881 2131 
Q 2881 2450 2695 2645 
Q 2509 2841 2209 2841 
Q 1884 2841 1681 2658 
Q 1478 2475 1428 2131 
L 2881 2131 
z
" transform="scale(0.015625)"/>
      <path id="DejaVuSans-Bold-74" d="M 1759 4494 
L 1759 3500 
L 2913 3500 
L 2913 2700 
L 1759 2700 
L 1759 1216 
Q 1759 972 1856 886 
Q 1953 800 2241 800 
L 2816 800 
L 2816 0 
L 1856 0 
Q 1194 0 917 276 
Q 641 553 641 1216 
L 641 2700 
L 84 2700 
L 84 3500 
L 641 3500 
L 641 4494 
L 1759 4494 
z
" transform="scale(0.015625)"/>
      <path id="DejaVuSans-Bold-69" d="M 538 3500 
L 1656 3500 
L 1656 0 
L 538 0 
L 538 3500 
z
M 538 4863 
L 1656 4863 
L 1656 3950 
L 538 3950 
L 538 4863 
z
" transform="scale(0.015625)"/>
      <path id="DejaVuSans-Bold-63" d="M 3366 3391 
L 3366 2478 
Q 3138 2634 2908 2709 
Q 2678 2784 2431 2784 
Q 1963 2784 1702 2511 
Q 1441 2238 1441 1747 
Q 1441 1256 1702 982 
Q 1963 709 2431 709 
Q 2694 709 2930 787 
Q 3166 866 3366 1019 
L 3366 103 
Q 3103 6 2833 -42 
Q 2563 -91 2291 -91 
Q 1344 -91 809 395 
Q 275 881 275 1747 
Q 275 2613 809 3098 
Q 1344 3584 2291 3584 
Q 2566 3584 2833 3536 
Q 3100 3488 3366 3391 
z
" transform="scale(0.015625)"/>
      <path id="DejaVuSans-Bold-46" d="M 588 4666 
L 3834 4666 
L 3834 3756 
L 1791 3756 
L 1791 2888 
L 3713 2888 
L 3713 1978 
L 1791 1978 
L 1791 0 
L 588 0 
L 588 4666 
z
" transform="scale(0.015625)"/>
      <path id="DejaVuSans-Bold-6c" d="M 538 4863 
L 1656 4863 
L 1656 0 
L 538 0 
L 538 4863 
z
" transform="scale(0.015625)"/>
      <path id="DejaVuSans-Bold-64" d="M 2919 2988 
L 2919 4863 
L 4044 4863 
L 4044 0 
L 2919 0 
L 2919 506 
Q 2688 197 2409 53 
Q 2131 -91 1766 -91 
Q 1119 -91 703 423 
Q 288 938 288 1747 
Q 288 2556 703 3070 
Q 1119 3584 1766 3584 
Q 2128 3584 2408 3439 
Q 2688 3294 2919 2988 
z
M 2181 722 
Q 2541 722 2730 984 
Q 2919 1247 2919 1747 
Q 2919 2247 2730 2509 
Q 2541 2772 2181 2772 
Q 1825 2772 1636 2509 
Q 1447 2247 1447 1747 
Q 1447 1247 1636 984 
Q 1825 722 2181 722 
z
" transform="scale(0.015625)"/>
      <path id="DejaVuSans-Bold-43" d="M 4288 256 
Q 3956 84 3597 -3 
Q 3238 -91 2847 -91 
Q 1681 -91 1000 561 
Q 319 1213 319 2328 
Q 319 3447 1000 4098 
Q 1681 4750 2847 4750 
Q 3238 4750 3597 4662 
Q 3956 4575 4288 4403 
L 4288 3438 
Q 3953 3666 3628 3772 
Q 3303 3878 2944 3878 
Q 2300 3878 1931 3465 
Q 1563 3053 1563 2328 
Q 1563 1606 1931 1193 
Q 2300 781 2944 781 
Q 3303 781 3628 887 
Q 3953 994 4288 1222 
L 4288 256 
z
" transform="scale(0.015625)"/>
      <path id="DejaVuSans-Bold-6f" d="M 2203 2784 
Q 1831 2784 1636 2517 
Q 1441 2250 1441 1747 
Q 1441 1244 1636 976 
Q 1831 709 2203 709 
Q 2569 709 2762 976 
Q 2956 1244 2956 1747 
Q 2956 2250 2762 2517 
Q 2569 2784 2203 2784 
z
M 2203 3584 
Q 3106 3584 3614 3096 
Q 4122 2609 4122 1747 
Q 4122 884 3614 396 
Q 3106 -91 2203 -91 
Q 1297 -91 786 396 
Q 275 884 275 1747 
Q 275 2609 786 3096 
Q 1297 3584 2203 3584 
z
" transform="scale(0.015625)"/>
      <path id="DejaVuSans-Bold-66" d="M 2841 4863 
L 2841 4128 
L 2222 4128 
Q 1984 4128 1890 4042 
Q 1797 3956 1797 3744 
L 1797 3500 
L 2753 3500 
L 2753 2700 
L 1797 2700 
L 1797 0 
L 678 0 
L 678 2700 
L 122 2700 
L 122 3500 
L 678 3500 
L 678 3744 
Q 678 4316 997 4589 
Q 1316 4863 1984 4863 
L 2841 4863 
z
" transform="scale(0.015625)"/>
      <path id="DejaVuSans-Bold-75" d="M 500 1363 
L 500 3500 
L 1625 3500 
L 1625 3150 
Q 1625 2866 1622 2436 
Q 1619 2006 1619 1863 
Q 1619 1441 1641 1255 
Q 1663 1069 1716 984 
Q 1784 875 1895 815 
Q 2006 756 2150 756 
Q 2500 756 2700 1025 
Q 2900 1294 2900 1772 
L 2900 3500 
L 4019 3500 
L 4019 0 
L 2900 0 
L 2900 506 
Q 2647 200 2364 54 
Q 2081 -91 1741 -91 
Q 1134 -91 817 281 
Q 500 653 500 1363 
z
" transform="scale(0.015625)"/>
      <path id="DejaVuSans-Bold-4c" d="M 588 4666 
L 1791 4666 
L 1791 909 
L 3903 909 
L 3903 0 
L 588 0 
L 588 4666 
z
" transform="scale(0.015625)"/>
      <path id="DejaVuSans-Bold-70" d="M 1656 506 
L 1656 -1331 
L 538 -1331 
L 538 3500 
L 1656 3500 
L 1656 2988 
Q 1888 3294 2169 3439 
Q 2450 3584 2816 3584 
Q 3463 3584 3878 3070 
Q 4294 2556 4294 1747 
Q 4294 938 3878 423 
Q 3463 -91 2816 -91 
Q 2450 -91 2169 54 
Q 1888 200 1656 506 
z
M 2400 2772 
Q 2041 2772 1848 2508 
Q 1656 2244 1656 1747 
Q 1656 1250 1848 986 
Q 2041 722 2400 722 
Q 2759 722 2948 984 
Q 3138 1247 3138 1747 
Q 3138 2247 2948 2509 
Q 2759 2772 2400 2772 
z
" transform="scale(0.015625)"/>
     </defs>
     <use xlink:href="#DejaVuSans-Bold-4d"/>
     <use xlink:href="#DejaVuSans-Bold-61" transform="translate(99.511719 0)"/>
     <use xlink:href="#DejaVuSans-Bold-67" transform="translate(166.992188 0)"/>
     <use xlink:href="#DejaVuSans-Bold-6e" transform="translate(238.574219 0)"/>
     <use xlink:href="#DejaVuSans-Bold-65" transform="translate(309.765625 0)"/>
     <use xlink:href="#DejaVuSans-Bold-74" transform="translate(377.587891 0)"/>
     <use xlink:href="#DejaVuSans-Bold-69" transform="translate(425.390625 0)"/>
     <use xlink:href="#DejaVuSans-Bold-63" transform="translate(459.667969 0)"/>
     <use xlink:href="#DejaVuSans-Bold-20" transform="translate(518.945312 0)"/>
     <use xlink:href="#DejaVuSans-Bold-46" transform="translate(553.759766 0)"/>
     <use xlink:href="#DejaVuSans-Bold-69" transform="translate(622.070312 0)"/>
     <use xlink:href="#DejaVuSans-Bold-65" transform="translate(656.347656 0)"/>
     <use xlink:href="#DejaVuSans-Bold-6c" transform="translate(724.169922 0)"/>
     <use xlink:href="#DejaVuSans-Bold-64" transform="translate(758.447266 0)"/>
     <use xlink:href="#DejaVuSans-Bold-20" transform="translate(830.029297 0)"/>
     <use xlink:href="#DejaVuSans-Bold-61" transform="translate(864.84375 0)"/>
     <use xlink:href="#DejaVuSans-Bold-74" transform="translate(932.324219 0)"/>
     <use xlink:href="#DejaVuSans-Bold-20" transform="translate(980.126953 0)"/>
     <use xlink:href="#DejaVuSans-Bold-43" transform="translate(1014.941406 0)"/>
     <use xlink:href="#DejaVuSans-Bold-65" transform="translate(1088.330078 0)"/>
     <use xlink:href="#DejaVuSans-Bold-6e" transform="translate(1156.152344 0)"/>
     <use xlink:href="#DejaVuSans-Bold-74" transform="translate(1227.34375 0)"/>
     <use xlink:href="#DejaVuSans-Bold-65" transform="translate(1275.146484 0)"/>
     <use xlink:href="#DejaVuSans-Bold-72" transform="translate(1342.96875 0)"/>
     <use xlink:href="#DejaVuSans-Bold-20" transform="translate(1392.285156 0)"/>
     <use xlink:href="#DejaVuSans-Bold-6f" transform="translate(1427.099609 0)"/>
     <use xlink:href="#DejaVuSans-Bold-66" transform="translate(1495.800781 0)"/>
     <use xlink:href="#DejaVuSans-Bold-20" transform="translate(1539.306641 0)"/>
     <use xlink:href="#DejaVuSans-Bold-43" transform="translate(1574.121094 0)"/>
     <use xlink:href="#DejaVuSans-Bold-69" transform="translate(1647.509766 0)"/>
     <use xlink:href="#DejaVuSans-Bold-72" transform="translate(1681.787109 0)"/>
     <use xlink:href="#DejaVuSans-Bold-63" transform="translate(1731.103516 0)"/>
     <use xlink:href="#DejaVuSans-Bold-75" transform="translate(1790.380859 0)"/>
     <use xlink:href="#DejaVuSans-Bold-6c" transform="translate(1861.572266 0)"/>
     <use xlink:href="#DejaVuSans-Bold-61" transform="translate(1895.849609 0)"/>
     <use xlink:href="#DejaVuSans-Bold-72" transform="translate(1963.330078 0)"/>
     <use xlink:href="#DejaVuSans-Bold-20" transform="translate(2012.646484 0)"/>
     <use xlink:href="#DejaVuSans-Bold-4c" transform="translate(2047.460938 0)"/>
     <use xlink:href="#DejaVuSans-Bold-6f" transform="translate(2111.181641 0)"/>
     <use xlink:href="#DejaVuSans-Bold-6f" transform="translate(2179.882812 0)"/>
     <use xlink:href="#DejaVuSans-Bold-70" transform="translate(2248.583984 0)"/>
    </g>
   </g>
  </g>
 </g>
 <defs>
  <clipPath id="p01089d83bb">
   <rect x="7.2" y="32.837812" width="528.6" height="528.6"/>
  </clipPath>
 </defs>
</svg>
