<?xml version="1.0" encoding="utf-8" standalone="no"?>
<!DOCTYPE svg PUBLIC "-//W3C//DTD SVG 1.1//EN"
  "http://www.w3.org/Graphics/SVG/1.1/DTD/svg11.dtd">
<svg xmlns:xlink="http://www.w3.org/1999/xlink" width="552pt" height="568.637812pt" viewBox="0 0 552 568.637812" xmlns="http://www.w3.org/2000/svg" version="1.1">
 <metadata>
  <rdf:RDF xmlns:dc="http://purl.org/dc/elements/1.1/" xmlns:cc="http://creativecommons.org/ns#" xmlns:rdf="http://www.w3.org/1999/02/22-rdf-syntax-ns#">
   <cc:Work>
    <dc:type rdf:resource="http://purl.org/dc/dcmitype/StillImage"/>
    <dc:date>2025-12-13T21:01:33.454355</dc:date>
    <dc:format>image/svg+xml</dc:format>
    <dc:creator>
     <cc:Agent>
      <dc:title>Matplotlib v3.10.7, https://matplotlib.org/</dc:title>
     </cc:Agent>
    </dc:creator>
   </cc:Work>
  </rdf:RDF>
 </metadata>
 <defs>
  <style type="text/css">*{stroke-linejoin: round; stroke-linecap: butt}</style>
 </defs>
 <g id="figure_1">
  <g id="patch_1">
   <path d="M 0 568.637812 
L 552 568.637812 
L 552 0 
L 0 0 
z
" style="fill: #ffffff"/>
  </g>
  <g id="patch_2">
   <path d="M 7.2 561.437812 
L 544.8 561.437812 
L 544.8 23.837812 
L 7.2 23.837812 
z
" style="fill: #ffffff"/>
  </g>
  <g id="pane3d_1">
   <g id="patch_3">
    <path d="M 47.792507 428.882881 
L 225.325585 280.071136 
L 222.857705 65.457996 
L 36.828755 201.213451 
" style="fill: #f2f2f2; opacity: 0.5; stroke: #f2f2f2; stroke-linejoin: miter"/>
   </g>
  </g>
  <g id="pane3d_2">
   <g id="patch_4">
    <path d="M 225.325585 280.071136 
L 510.202829 362.873704 
L 520.369094 140.868461 
L 222.857705 65.457996 
" style="fill: #e6e6e6; opacity: 0.5; stroke: #e6e6e6; stroke-linejoin: miter"/>
   </g>
  </g>
  <g id="pane3d_3">
   <g id="patch_5">
    <path d="M 47.792507 428.882881 
L 349.776301 527.510788 
L 510.202829 362.873704 
L 225.325585 280.071136 
" style="fill: #ececec; opacity: 0.5; stroke: #ececec; stroke-linejoin: miter"/>
   </g>
  </g>
  <g id="grid3d_1">
   <g id="Line3DCollection_1">
    <path d="M 47.792507 428.882881 
L 225.325585 280.071136 
L 222.857705 65.457996 
" style="fill: none; stroke: #b0b0b0; stroke-width: 0.8"/>
    <path d="M 83.832734 440.653619 
L 259.456645 289.991687 
L 258.436279 74.476127 
" style="fill: none; stroke: #b0b0b0; stroke-width: 0.8"/>
    <path d="M 120.341844 452.577494 
L 293.995036 300.030634 
L 294.457769 83.606525 
" style="fill: none; stroke: #b0b0b0; stroke-width: 0.8"/>
    <path d="M 157.329049 464.657515 
L 328.948093 310.190108 
L 330.930499 92.851299 
" style="fill: none; stroke: #b0b0b0; stroke-width: 0.8"/>
    <path d="M 194.803801 476.896769 
L 364.323329 320.472292 
L 367.863 102.212612 
" style="fill: none; stroke: #b0b0b0; stroke-width: 0.8"/>
    <path d="M 232.775804 489.298426 
L 400.12844 330.879424 
L 405.264022 111.69268 
" style="fill: none; stroke: #b0b0b0; stroke-width: 0.8"/>
    <path d="M 271.255022 501.865738 
L 436.371308 341.413795 
L 443.142537 121.29378 
" style="fill: none; stroke: #b0b0b0; stroke-width: 0.8"/>
    <path d="M 310.251685 514.602048 
L 473.060012 352.077753 
L 481.507747 131.018242 
" style="fill: none; stroke: #b0b0b0; stroke-width: 0.8"/>
    <path d="M 349.776301 527.510788 
L 510.202829 362.873704 
L 520.369094 140.868461 
" style="fill: none; stroke: #b0b0b0; stroke-width: 0.8"/>
   </g>
  </g>
  <g id="grid3d_2">
   <g id="Line3DCollection_2">
    <path d="M 36.828755 201.213451 
L 47.792507 428.882881 
L 349.776301 527.510788 
" style="fill: none; stroke: #b0b0b0; stroke-width: 0.8"/>
    <path d="M 61.955305 182.877239 
L 71.692892 408.849105 
L 371.456367 505.261707 
" style="fill: none; stroke: #b0b0b0; stroke-width: 0.8"/>
    <path d="M 86.510208 164.958189 
L 95.073191 389.251275 
L 392.639699 483.522396 
" style="fill: none; stroke: #b0b0b0; stroke-width: 0.8"/>
    <path d="M 110.512754 147.442224 
L 117.950198 370.075314 
L 413.343177 462.275535 
" style="fill: none; stroke: #b0b0b0; stroke-width: 0.8"/>
    <path d="M 133.981372 130.315896 
L 140.33999 351.307746 
L 433.582923 441.504577 
" style="fill: none; stroke: #b0b0b0; stroke-width: 0.8"/>
    <path d="M 156.933683 113.566345 
L 162.257968 332.935663 
L 453.374344 421.19371 
" style="fill: none; stroke: #b0b0b0; stroke-width: 0.8"/>
    <path d="M 179.386538 97.181274 
L 183.71889 314.946692 
L 472.732173 401.327815 
" style="fill: none; stroke: #b0b0b0; stroke-width: 0.8"/>
    <path d="M 201.356065 81.148913 
L 204.736905 297.328975 
L 491.670505 381.892428 
" style="fill: none; stroke: #b0b0b0; stroke-width: 0.8"/>
    <path d="M 222.857705 65.457996 
L 225.325585 280.071136 
L 510.202829 362.873704 
" style="fill: none; stroke: #b0b0b0; stroke-width: 0.8"/>
   </g>
  </g>
  <g id="grid3d_3">
   <g id="Line3DCollection_3">
    <path d="M 510.202829 362.873704 
L 225.325585 280.071136 
L 47.792507 428.882881 
" style="fill: none; stroke: #b0b0b0; stroke-width: 0.8"/>
    <path d="M 512.165736 320.008848 
L 224.848273 238.562917 
L 45.6785 384.984159 
" style="fill: none; stroke: #b0b0b0; stroke-width: 0.8"/>
    <path d="M 514.162895 276.396 
L 224.363032 196.365117 
L 43.526192 340.290074 
" style="fill: none; stroke: #b0b0b0; stroke-width: 0.8"/>
    <path d="M 516.195211 232.01541 
L 223.869662 153.460407 
L 41.334531 294.778814 
" style="fill: none; stroke: #b0b0b0; stroke-width: 0.8"/>
    <path d="M 518.26362 186.846626 
L 223.367958 109.830875 
L 39.102428 248.42776 
" style="fill: none; stroke: #b0b0b0; stroke-width: 0.8"/>
    <path d="M 520.369094 140.868461 
L 222.857705 65.457996 
L 36.828755 201.213451 
" style="fill: none; stroke: #b0b0b0; stroke-width: 0.8"/>
   </g>
  </g>
  <g id="axis3d_1">
   <g id="line2d_1">
    <path d="M 47.792507 428.882881 
L 349.776301 527.510788 
" style="fill: none; stroke: #000000; stroke-width: 0.8; stroke-linecap: square"/>
   </g>
   <g id="xtick_1">
    <g id="line2d_2">
     <path d="M 49.338045 427.587381 
L 44.694822 431.479422 
" style="fill: none; stroke: #000000; stroke-width: 0.8; stroke-linecap: square"/>
    </g>
    <g id="text_1">
     <!-- −2.0 -->
     <g transform="translate(28.12729 452.100301) scale(0.1 -0.1)">
      <defs>
       <path id="DejaVuSans-2212" d="M 678 2272 
L 4684 2272 
L 4684 1741 
L 678 1741 
L 678 2272 
z
" transform="scale(0.015625)"/>
       <path id="DejaVuSans-32" d="M 1228 531 
L 3431 531 
L 3431 0 
L 469 0 
L 469 531 
Q 828 903 1448 1529 
Q 2069 2156 2228 2338 
Q 2531 2678 2651 2914 
Q 2772 3150 2772 3378 
Q 2772 3750 2511 3984 
Q 2250 4219 1831 4219 
Q 1534 4219 1204 4116 
Q 875 4013 500 3803 
L 500 4441 
Q 881 4594 1212 4672 
Q 1544 4750 1819 4750 
Q 2544 4750 2975 4387 
Q 3406 4025 3406 3419 
Q 3406 3131 3298 2873 
Q 3191 2616 2906 2266 
Q 2828 2175 2409 1742 
Q 1991 1309 1228 531 
z
" transform="scale(0.015625)"/>
       <path id="DejaVuSans-2e" d="M 684 794 
L 1344 794 
L 1344 0 
L 684 0 
L 684 794 
z
" transform="scale(0.015625)"/>
       <path id="DejaVuSans-30" d="M 2034 4250 
Q 1547 4250 1301 3770 
Q 1056 3291 1056 2328 
Q 1056 1369 1301 889 
Q 1547 409 2034 409 
Q 2525 409 2770 889 
Q 3016 1369 3016 2328 
Q 3016 3291 2770 3770 
Q 2525 4250 2034 4250 
z
M 2034 4750 
Q 2819 4750 3233 4129 
Q 3647 3509 3647 2328 
Q 3647 1150 3233 529 
Q 2819 -91 2034 -91 
Q 1250 -91 836 529 
Q 422 1150 422 2328 
Q 422 3509 836 4129 
Q 1250 4750 2034 4750 
z
" transform="scale(0.015625)"/>
      </defs>
      <use xlink:href="#DejaVuSans-2212"/>
      <use xlink:href="#DejaVuSans-32" transform="translate(83.789062 0)"/>
      <use xlink:href="#DejaVuSans-2e" transform="translate(147.412109 0)"/>
      <use xlink:href="#DejaVuSans-30" transform="translate(179.199219 0)"/>
     </g>
    </g>
   </g>
   <g id="xtick_2">
    <g id="line2d_3">
     <path d="M 85.362451 439.341325 
L 80.766714 443.283856 
" style="fill: none; stroke: #000000; stroke-width: 0.8; stroke-linecap: square"/>
    </g>
    <g id="text_2">
     <!-- −1.5 -->
     <g transform="translate(64.185202 463.993856) scale(0.1 -0.1)">
      <defs>
       <path id="DejaVuSans-31" d="M 794 531 
L 1825 531 
L 1825 4091 
L 703 3866 
L 703 4441 
L 1819 4666 
L 2450 4666 
L 2450 531 
L 3481 531 
L 3481 0 
L 794 0 
L 794 531 
z
" transform="scale(0.015625)"/>
       <path id="DejaVuSans-35" d="M 691 4666 
L 3169 4666 
L 3169 4134 
L 1269 4134 
L 1269 2991 
Q 1406 3038 1543 3061 
Q 1681 3084 1819 3084 
Q 2600 3084 3056 2656 
Q 3513 2228 3513 1497 
Q 3513 744 3044 326 
Q 2575 -91 1722 -91 
Q 1428 -91 1123 -41 
Q 819 9 494 109 
L 494 744 
Q 775 591 1075 516 
Q 1375 441 1709 441 
Q 2250 441 2565 725 
Q 2881 1009 2881 1497 
Q 2881 1984 2565 2268 
Q 2250 2553 1709 2553 
Q 1456 2553 1204 2497 
Q 953 2441 691 2322 
L 691 4666 
z
" transform="scale(0.015625)"/>
      </defs>
      <use xlink:href="#DejaVuSans-2212"/>
      <use xlink:href="#DejaVuSans-31" transform="translate(83.789062 0)"/>
      <use xlink:href="#DejaVuSans-2e" transform="translate(147.412109 0)"/>
      <use xlink:href="#DejaVuSans-35" transform="translate(179.199219 0)"/>
     </g>
    </g>
   </g>
   <g id="xtick_3">
    <g id="line2d_4">
     <path d="M 121.855198 451.248078 
L 117.30858 455.242087 
" style="fill: none; stroke: #000000; stroke-width: 0.8; stroke-linecap: square"/>
    </g>
    <g id="text_3">
     <!-- −1.0 -->
     <g transform="translate(100.713099 476.042434) scale(0.1 -0.1)">
      <use xlink:href="#DejaVuSans-2212"/>
      <use xlink:href="#DejaVuSans-31" transform="translate(83.789062 0)"/>
      <use xlink:href="#DejaVuSans-2e" transform="translate(147.412109 0)"/>
      <use xlink:href="#DejaVuSans-30" transform="translate(179.199219 0)"/>
     </g>
    </g>
   </g>
   <g id="xtick_4">
    <g id="line2d_5">
     <path d="M 158.825478 463.31064 
L 154.329665 467.357141 
" style="fill: none; stroke: #000000; stroke-width: 0.8; stroke-linecap: square"/>
    </g>
    <g id="text_4">
     <!-- −0.5 -->
     <g transform="translate(137.720228 488.249085) scale(0.1 -0.1)">
      <use xlink:href="#DejaVuSans-2212"/>
      <use xlink:href="#DejaVuSans-30" transform="translate(83.789062 0)"/>
      <use xlink:href="#DejaVuSans-2e" transform="translate(147.412109 0)"/>
      <use xlink:href="#DejaVuSans-35" transform="translate(179.199219 0)"/>
     </g>
    </g>
   </g>
   <g id="xtick_5">
    <g id="line2d_6">
     <path d="M 196.282726 475.532088 
L 191.839457 479.632123 
" style="fill: none; stroke: #000000; stroke-width: 0.8; stroke-linecap: square"/>
    </g>
    <g id="text_5">
     <!-- 0.0 -->
     <g transform="translate(179.405928 500.616941) scale(0.1 -0.1)">
      <use xlink:href="#DejaVuSans-30"/>
      <use xlink:href="#DejaVuSans-2e" transform="translate(63.623047 0)"/>
      <use xlink:href="#DejaVuSans-30" transform="translate(95.410156 0)"/>
     </g>
    </g>
   </g>
   <g id="xtick_6">
    <g id="line2d_7">
     <path d="M 234.236629 487.915583 
L 229.847699 492.070222 
" style="fill: none; stroke: #000000; stroke-width: 0.8; stroke-linecap: square"/>
    </g>
    <g id="text_6">
     <!-- 0.5 -->
     <g transform="translate(217.400257 513.149215) scale(0.1 -0.1)">
      <use xlink:href="#DejaVuSans-30"/>
      <use xlink:href="#DejaVuSans-2e" transform="translate(63.623047 0)"/>
      <use xlink:href="#DejaVuSans-35" transform="translate(95.410156 0)"/>
     </g>
    </g>
   </g>
   <g id="xtick_7">
    <g id="line2d_8">
     <path d="M 272.697129 500.464369 
L 268.364392 504.67471 
" style="fill: none; stroke: #000000; stroke-width: 0.8; stroke-linecap: square"/>
    </g>
    <g id="text_7">
     <!-- 1.0 -->
     <g transform="translate(255.903064 525.84921) scale(0.1 -0.1)">
      <use xlink:href="#DejaVuSans-31"/>
      <use xlink:href="#DejaVuSans-2e" transform="translate(63.623047 0)"/>
      <use xlink:href="#DejaVuSans-30" transform="translate(95.410156 0)"/>
     </g>
    </g>
   </g>
   <g id="xtick_8">
    <g id="line2d_9">
     <path d="M 311.674437 513.181778 
L 307.399808 517.448949 
" style="fill: none; stroke: #000000; stroke-width: 0.8; stroke-linecap: square"/>
    </g>
    <g id="text_8">
     <!-- 1.5 -->
     <g transform="translate(294.924626 538.720313) scale(0.1 -0.1)">
      <use xlink:href="#DejaVuSans-31"/>
      <use xlink:href="#DejaVuSans-2e" transform="translate(63.623047 0)"/>
      <use xlink:href="#DejaVuSans-35" transform="translate(95.410156 0)"/>
     </g>
    </g>
   </g>
   <g id="xtick_9">
    <g id="line2d_10">
     <path d="M 351.179041 526.071231 
L 346.964496 530.396391 
" style="fill: none; stroke: #000000; stroke-width: 0.8; stroke-linecap: square"/>
    </g>
    <g id="text_9">
     <!-- 2.0 -->
     <g transform="translate(334.475499 551.766008) scale(0.1 -0.1)">
      <use xlink:href="#DejaVuSans-32"/>
      <use xlink:href="#DejaVuSans-2e" transform="translate(63.623047 0)"/>
      <use xlink:href="#DejaVuSans-30" transform="translate(95.410156 0)"/>
     </g>
    </g>
   </g>
   <g id="text_10">
    <!-- X -->
    <g transform="translate(175.155386 514.780867) scale(0.1 -0.1)">
     <defs>
      <path id="DejaVuSans-58" d="M 403 4666 
L 1081 4666 
L 2241 2931 
L 3406 4666 
L 4084 4666 
L 2584 2425 
L 4184 0 
L 3506 0 
L 2194 1984 
L 872 0 
L 191 0 
L 1856 2491 
L 403 4666 
z
" transform="scale(0.015625)"/>
     </defs>
     <use xlink:href="#DejaVuSans-58"/>
    </g>
   </g>
  </g>
  <g id="axis3d_2">
   <g id="line2d_11">
    <path d="M 510.202829 362.873704 
L 349.776301 527.510788 
" style="fill: none; stroke: #000000; stroke-width: 0.8; stroke-linecap: square"/>
   </g>
   <g id="xtick_10">
    <g id="line2d_12">
     <path d="M 347.230705 526.679396 
L 354.874115 529.175734 
" style="fill: none; stroke: #000000; stroke-width: 0.8; stroke-linecap: square"/>
    </g>
    <g id="text_11">
     <!-- −2.0 -->
     <g transform="translate(350.585209 548.611977) scale(0.1 -0.1)">
      <use xlink:href="#DejaVuSans-2212"/>
      <use xlink:href="#DejaVuSans-32" transform="translate(83.789062 0)"/>
      <use xlink:href="#DejaVuSans-2e" transform="translate(147.412109 0)"/>
      <use xlink:href="#DejaVuSans-30" transform="translate(179.199219 0)"/>
     </g>
    </g>
   </g>
   <g id="xtick_11">
    <g id="line2d_13">
     <path d="M 368.930979 504.449469 
L 376.513636 506.888271 
" style="fill: none; stroke: #000000; stroke-width: 0.8; stroke-linecap: square"/>
    </g>
    <g id="text_12">
     <!-- −1.5 -->
     <g transform="translate(372.12154 526.199815) scale(0.1 -0.1)">
      <use xlink:href="#DejaVuSans-2212"/>
      <use xlink:href="#DejaVuSans-31" transform="translate(83.789062 0)"/>
      <use xlink:href="#DejaVuSans-2e" transform="translate(147.412109 0)"/>
      <use xlink:href="#DejaVuSans-35" transform="translate(179.199219 0)"/>
     </g>
    </g>
   </g>
   <g id="xtick_12">
    <g id="line2d_14">
     <path d="M 390.134267 482.728658 
L 397.656933 485.11189 
" style="fill: none; stroke: #000000; stroke-width: 0.8; stroke-linecap: square"/>
    </g>
    <g id="text_13">
     <!-- −1.0 -->
     <g transform="translate(393.164288 504.30131) scale(0.1 -0.1)">
      <use xlink:href="#DejaVuSans-2212"/>
      <use xlink:href="#DejaVuSans-31" transform="translate(83.789062 0)"/>
      <use xlink:href="#DejaVuSans-2e" transform="translate(147.412109 0)"/>
      <use xlink:href="#DejaVuSans-30" transform="translate(179.199219 0)"/>
     </g>
    </g>
   </g>
   <g id="xtick_13">
    <g id="line2d_15">
     <path d="M 410.857449 461.499671 
L 418.320881 463.829212 
" style="fill: none; stroke: #000000; stroke-width: 0.8; stroke-linecap: square"/>
    </g>
    <g id="text_14">
     <!-- −0.5 -->
     <g transform="translate(413.730228 482.899002) scale(0.1 -0.1)">
      <use xlink:href="#DejaVuSans-2212"/>
      <use xlink:href="#DejaVuSans-30" transform="translate(83.789062 0)"/>
      <use xlink:href="#DejaVuSans-2e" transform="translate(147.412109 0)"/>
      <use xlink:href="#DejaVuSans-35" transform="translate(179.199219 0)"/>
     </g>
    </g>
   </g>
   <g id="xtick_14">
    <g id="line2d_16">
     <path d="M 431.11665 440.745991 
L 438.521598 443.023634 
" style="fill: none; stroke: #000000; stroke-width: 0.8; stroke-linecap: square"/>
    </g>
    <g id="text_15">
     <!-- 0.0 -->
     <g transform="translate(438.025228 461.976217) scale(0.1 -0.1)">
      <use xlink:href="#DejaVuSans-30"/>
      <use xlink:href="#DejaVuSans-2e" transform="translate(63.623047 0)"/>
      <use xlink:href="#DejaVuSans-30" transform="translate(95.410156 0)"/>
     </g>
    </g>
   </g>
   <g id="xtick_15">
    <g id="line2d_17">
     <path d="M 450.927278 420.451831 
L 458.274489 422.679292 
" style="fill: none; stroke: #000000; stroke-width: 0.8; stroke-linecap: square"/>
    </g>
    <g id="text_16">
     <!-- 0.5 -->
     <g transform="translate(457.684917 441.517016) scale(0.1 -0.1)">
      <use xlink:href="#DejaVuSans-30"/>
      <use xlink:href="#DejaVuSans-2e" transform="translate(63.623047 0)"/>
      <use xlink:href="#DejaVuSans-35" transform="translate(95.410156 0)"/>
     </g>
    </g>
   </g>
   <g id="xtick_16">
    <g id="line2d_18">
     <path d="M 470.30407 400.602097 
L 477.594281 402.781016 
" style="fill: none; stroke: #000000; stroke-width: 0.8; stroke-linecap: square"/>
    </g>
    <g id="text_17">
     <!-- 1.0 -->
     <g transform="translate(476.913779 421.506162) scale(0.1 -0.1)">
      <use xlink:href="#DejaVuSans-31"/>
      <use xlink:href="#DejaVuSans-2e" transform="translate(63.623047 0)"/>
      <use xlink:href="#DejaVuSans-30" transform="translate(95.410156 0)"/>
     </g>
    </g>
   </g>
   <g id="xtick_17">
    <g id="line2d_19">
     <path d="M 489.261121 381.182348 
L 496.495065 383.314295 
" style="fill: none; stroke: #000000; stroke-width: 0.8; stroke-linecap: square"/>
    </g>
    <g id="text_18">
     <!-- 1.5 -->
     <g transform="translate(495.725825 401.929075) scale(0.1 -0.1)">
      <use xlink:href="#DejaVuSans-31"/>
      <use xlink:href="#DejaVuSans-2e" transform="translate(63.623047 0)"/>
      <use xlink:href="#DejaVuSans-35" transform="translate(95.410156 0)"/>
     </g>
    </g>
   </g>
   <g id="xtick_18">
    <g id="line2d_20">
     <path d="M 507.811925 362.178762 
L 514.990325 364.26524 
" style="fill: none; stroke: #000000; stroke-width: 0.8; stroke-linecap: square"/>
    </g>
    <g id="text_19">
     <!-- 2.0 -->
     <g transform="translate(514.13446 382.771805) scale(0.1 -0.1)">
      <use xlink:href="#DejaVuSans-32"/>
      <use xlink:href="#DejaVuSans-2e" transform="translate(63.623047 0)"/>
      <use xlink:href="#DejaVuSans-30" transform="translate(95.410156 0)"/>
     </g>
    </g>
   </g>
   <g id="text_20">
    <!-- Y -->
    <g transform="translate(457.481216 472.258531) scale(0.1 -0.1)">
     <defs>
      <path id="DejaVuSans-59" d="M -13 4666 
L 666 4666 
L 1959 2747 
L 3244 4666 
L 3922 4666 
L 2272 2222 
L 2272 0 
L 1638 0 
L 1638 2222 
L -13 4666 
z
" transform="scale(0.015625)"/>
     </defs>
     <use xlink:href="#DejaVuSans-59"/>
    </g>
   </g>
  </g>
  <g id="axis3d_3">
   <g id="line2d_21">
    <path d="M 510.202829 362.873704 
L 520.369094 140.868461 
" style="fill: none; stroke: #000000; stroke-width: 0.8; stroke-linecap: square"/>
   </g>
   <g id="xtick_19">
    <g id="line2d_22">
     <path d="M 507.811925 362.178762 
L 514.990325 364.26524 
" style="fill: none; stroke: #000000; stroke-width: 0.8; stroke-linecap: square"/>
    </g>
    <g id="text_21">
     <!-- 0 -->
     <g transform="translate(525.297891 367.863194) scale(0.1 -0.1)">
      <use xlink:href="#DejaVuSans-30"/>
     </g>
    </g>
   </g>
   <g id="xtick_20">
    <g id="line2d_23">
     <path d="M 509.753375 319.325015 
L 516.996244 321.378153 
" style="fill: none; stroke: #000000; stroke-width: 0.8; stroke-linecap: square"/>
    </g>
    <g id="text_22">
     <!-- 1 -->
     <g transform="translate(527.415699 325.040068) scale(0.1 -0.1)">
      <use xlink:href="#DejaVuSans-31"/>
     </g>
    </g>
   </g>
   <g id="xtick_21">
    <g id="line2d_24">
     <path d="M 511.72869 275.723772 
L 519.037194 277.742082 
" style="fill: none; stroke: #000000; stroke-width: 0.8; stroke-linecap: square"/>
    </g>
    <g id="text_23">
     <!-- 2 -->
     <g transform="translate(529.570406 281.47081) scale(0.1 -0.1)">
      <use xlink:href="#DejaVuSans-32"/>
     </g>
    </g>
   </g>
   <g id="xtick_22">
    <g id="line2d_25">
     <path d="M 513.738764 231.355303 
L 521.114101 233.337236 
" style="fill: none; stroke: #000000; stroke-width: 0.8; stroke-linecap: square"/>
    </g>
    <g id="text_24">
     <!-- 3 -->
     <g transform="translate(531.762987 237.135747) scale(0.1 -0.1)">
      <defs>
       <path id="DejaVuSans-33" d="M 2597 2516 
Q 3050 2419 3304 2112 
Q 3559 1806 3559 1356 
Q 3559 666 3084 287 
Q 2609 -91 1734 -91 
Q 1441 -91 1130 -33 
Q 819 25 488 141 
L 488 750 
Q 750 597 1062 519 
Q 1375 441 1716 441 
Q 2309 441 2620 675 
Q 2931 909 2931 1356 
Q 2931 1769 2642 2001 
Q 2353 2234 1838 2234 
L 1294 2234 
L 1294 2753 
L 1863 2753 
Q 2328 2753 2575 2939 
Q 2822 3125 2822 3475 
Q 2822 3834 2567 4026 
Q 2313 4219 1838 4219 
Q 1578 4219 1281 4162 
Q 984 4106 628 3988 
L 628 4550 
Q 988 4650 1302 4700 
Q 1616 4750 1894 4750 
Q 2613 4750 3031 4423 
Q 3450 4097 3450 3541 
Q 3450 3153 3228 2886 
Q 3006 2619 2597 2516 
z
" transform="scale(0.015625)"/>
      </defs>
      <use xlink:href="#DejaVuSans-33"/>
     </g>
    </g>
   </g>
   <g id="xtick_23">
    <g id="line2d_26">
     <path d="M 515.784521 186.199177 
L 523.227925 188.143117 
" style="fill: none; stroke: #000000; stroke-width: 0.8; stroke-linecap: square"/>
    </g>
    <g id="text_25">
     <!-- 4 -->
     <g transform="translate(533.994447 192.014509) scale(0.1 -0.1)">
      <defs>
       <path id="DejaVuSans-34" d="M 2419 4116 
L 825 1625 
L 2419 1625 
L 2419 4116 
z
M 2253 4666 
L 3047 4666 
L 3047 1625 
L 3713 1625 
L 3713 1100 
L 3047 1100 
L 3047 0 
L 2419 0 
L 2419 1100 
L 313 1100 
L 313 1709 
L 2253 4666 
z
" transform="scale(0.015625)"/>
      </defs>
      <use xlink:href="#DejaVuSans-34"/>
     </g>
    </g>
   </g>
   <g id="xtick_24">
    <g id="line2d_27">
     <path d="M 517.866922 140.234233 
L 525.379657 142.138492 
" style="fill: none; stroke: #000000; stroke-width: 0.8; stroke-linecap: square"/>
    </g>
    <g id="text_26">
     <!-- 5 -->
     <g transform="translate(536.265831 146.085999) scale(0.1 -0.1)">
      <use xlink:href="#DejaVuSans-35"/>
     </g>
    </g>
   </g>
   <g id="text_27">
    <!-- Z (B direction) -->
    <g transform="translate(556.802951 284.808648) rotate(-87.378092) scale(0.1 -0.1)">
     <defs>
      <path id="DejaVuSans-5a" d="M 359 4666 
L 4025 4666 
L 4025 4184 
L 1075 531 
L 4097 531 
L 4097 0 
L 288 0 
L 288 481 
L 3238 4134 
L 359 4134 
L 359 4666 
z
" transform="scale(0.015625)"/>
      <path id="DejaVuSans-20" transform="scale(0.015625)"/>
      <path id="DejaVuSans-28" d="M 1984 4856 
Q 1566 4138 1362 3434 
Q 1159 2731 1159 2009 
Q 1159 1288 1364 580 
Q 1569 -128 1984 -844 
L 1484 -844 
Q 1016 -109 783 600 
Q 550 1309 550 2009 
Q 550 2706 781 3412 
Q 1013 4119 1484 4856 
L 1984 4856 
z
" transform="scale(0.015625)"/>
      <path id="DejaVuSans-42" d="M 1259 2228 
L 1259 519 
L 2272 519 
Q 2781 519 3026 730 
Q 3272 941 3272 1375 
Q 3272 1813 3026 2020 
Q 2781 2228 2272 2228 
L 1259 2228 
z
M 1259 4147 
L 1259 2741 
L 2194 2741 
Q 2656 2741 2882 2914 
Q 3109 3088 3109 3444 
Q 3109 3797 2882 3972 
Q 2656 4147 2194 4147 
L 1259 4147 
z
M 628 4666 
L 2241 4666 
Q 2963 4666 3353 4366 
Q 3744 4066 3744 3513 
Q 3744 3084 3544 2831 
Q 3344 2578 2956 2516 
Q 3422 2416 3680 2098 
Q 3938 1781 3938 1306 
Q 3938 681 3513 340 
Q 3088 0 2303 0 
L 628 0 
L 628 4666 
z
" transform="scale(0.015625)"/>
      <path id="DejaVuSans-64" d="M 2906 2969 
L 2906 4863 
L 3481 4863 
L 3481 0 
L 2906 0 
L 2906 525 
Q 2725 213 2448 61 
Q 2172 -91 1784 -91 
Q 1150 -91 751 415 
Q 353 922 353 1747 
Q 353 2572 751 3078 
Q 1150 3584 1784 3584 
Q 2172 3584 2448 3432 
Q 2725 3281 2906 2969 
z
M 947 1747 
Q 947 1113 1208 752 
Q 1469 391 1925 391 
Q 2381 391 2643 752 
Q 2906 1113 2906 1747 
Q 2906 2381 2643 2742 
Q 2381 3103 1925 3103 
Q 1469 3103 1208 2742 
Q 947 2381 947 1747 
z
" transform="scale(0.015625)"/>
      <path id="DejaVuSans-69" d="M 603 3500 
L 1178 3500 
L 1178 0 
L 603 0 
L 603 3500 
z
M 603 4863 
L 1178 4863 
L 1178 4134 
L 603 4134 
L 603 4863 
z
" transform="scale(0.015625)"/>
      <path id="DejaVuSans-72" d="M 2631 2963 
Q 2534 3019 2420 3045 
Q 2306 3072 2169 3072 
Q 1681 3072 1420 2755 
Q 1159 2438 1159 1844 
L 1159 0 
L 581 0 
L 581 3500 
L 1159 3500 
L 1159 2956 
Q 1341 3275 1631 3429 
Q 1922 3584 2338 3584 
Q 2397 3584 2469 3576 
Q 2541 3569 2628 3553 
L 2631 2963 
z
" transform="scale(0.015625)"/>
      <path id="DejaVuSans-65" d="M 3597 1894 
L 3597 1613 
L 953 1613 
Q 991 1019 1311 708 
Q 1631 397 2203 397 
Q 2534 397 2845 478 
Q 3156 559 3463 722 
L 3463 178 
Q 3153 47 2828 -22 
Q 2503 -91 2169 -91 
Q 1331 -91 842 396 
Q 353 884 353 1716 
Q 353 2575 817 3079 
Q 1281 3584 2069 3584 
Q 2775 3584 3186 3129 
Q 3597 2675 3597 1894 
z
M 3022 2063 
Q 3016 2534 2758 2815 
Q 2500 3097 2075 3097 
Q 1594 3097 1305 2825 
Q 1016 2553 972 2059 
L 3022 2063 
z
" transform="scale(0.015625)"/>
      <path id="DejaVuSans-63" d="M 3122 3366 
L 3122 2828 
Q 2878 2963 2633 3030 
Q 2388 3097 2138 3097 
Q 1578 3097 1268 2742 
Q 959 2388 959 1747 
Q 959 1106 1268 751 
Q 1578 397 2138 397 
Q 2388 397 2633 464 
Q 2878 531 3122 666 
L 3122 134 
Q 2881 22 2623 -34 
Q 2366 -91 2075 -91 
Q 1284 -91 818 406 
Q 353 903 353 1747 
Q 353 2603 823 3093 
Q 1294 3584 2113 3584 
Q 2378 3584 2631 3529 
Q 2884 3475 3122 3366 
z
" transform="scale(0.015625)"/>
      <path id="DejaVuSans-74" d="M 1172 4494 
L 1172 3500 
L 2356 3500 
L 2356 3053 
L 1172 3053 
L 1172 1153 
Q 1172 725 1289 603 
Q 1406 481 1766 481 
L 2356 481 
L 2356 0 
L 1766 0 
Q 1100 0 847 248 
Q 594 497 594 1153 
L 594 3053 
L 172 3053 
L 172 3500 
L 594 3500 
L 594 4494 
L 1172 4494 
z
" transform="scale(0.015625)"/>
      <path id="DejaVuSans-6f" d="M 1959 3097 
Q 1497 3097 1228 2736 
Q 959 2375 959 1747 
Q 959 1119 1226 758 
Q 1494 397 1959 397 
Q 2419 397 2687 759 
Q 2956 1122 2956 1747 
Q 2956 2369 2687 2733 
Q 2419 3097 1959 3097 
z
M 1959 3584 
Q 2709 3584 3137 3096 
Q 3566 2609 3566 1747 
Q 3566 888 3137 398 
Q 2709 -91 1959 -91 
Q 1206 -91 779 398 
Q 353 888 353 1747 
Q 353 2609 779 3096 
Q 1206 3584 1959 3584 
z
" transform="scale(0.015625)"/>
      <path id="DejaVuSans-6e" d="M 3513 2113 
L 3513 0 
L 2938 0 
L 2938 2094 
Q 2938 2591 2744 2837 
Q 2550 3084 2163 3084 
Q 1697 3084 1428 2787 
Q 1159 2491 1159 1978 
L 1159 0 
L 581 0 
L 581 3500 
L 1159 3500 
L 1159 2956 
Q 1366 3272 1645 3428 
Q 1925 3584 2291 3584 
Q 2894 3584 3203 3211 
Q 3513 2838 3513 2113 
z
" transform="scale(0.015625)"/>
      <path id="DejaVuSans-29" d="M 513 4856 
L 1013 4856 
Q 1481 4119 1714 3412 
Q 1947 2706 1947 2009 
Q 1947 1309 1714 600 
Q 1481 -109 1013 -844 
L 513 -844 
Q 928 -128 1133 580 
Q 1338 1288 1338 2009 
Q 1338 2731 1133 3434 
Q 928 4138 513 4856 
z
" transform="scale(0.015625)"/>
     </defs>
     <use xlink:href="#DejaVuSans-5a"/>
     <use xlink:href="#DejaVuSans-20" transform="translate(68.505859 0)"/>
     <use xlink:href="#DejaVuSans-28" transform="translate(100.292969 0)"/>
     <use xlink:href="#DejaVuSans-42" transform="translate(139.306641 0)"/>
     <use xlink:href="#DejaVuSans-20" transform="translate(207.910156 0)"/>
     <use xlink:href="#DejaVuSans-64" transform="translate(239.697266 0)"/>
     <use xlink:href="#DejaVuSans-69" transform="translate(303.173828 0)"/>
     <use xlink:href="#DejaVuSans-72" transform="translate(330.957031 0)"/>
     <use xlink:href="#DejaVuSans-65" transform="translate(369.820312 0)"/>
     <use xlink:href="#DejaVuSans-63" transform="translate(431.34375 0)"/>
     <use xlink:href="#DejaVuSans-74" transform="translate(486.324219 0)"/>
     <use xlink:href="#DejaVuSans-69" transform="translate(525.533203 0)"/>
     <use xlink:href="#DejaVuSans-6f" transform="translate(553.316406 0)"/>
     <use xlink:href="#DejaVuSans-6e" transform="translate(614.498047 0)"/>
     <use xlink:href="#DejaVuSans-29" transform="translate(677.876953 0)"/>
    </g>
   </g>
  </g>
  <g id="axes_1">
   <g id="line2d_28">
    <path d="M 357.464351 418.091723 
L 359.451121 415.394614 
L 361.238613 412.649696 
L 362.822787 409.86264 
L 364.200176 407.039188 
L 365.367894 404.185135 
L 366.323629 401.306315 
L 367.065646 398.408579 
L 367.592783 395.497785 
L 367.904445 392.579775 
L 368.000597 389.660364 
L 367.881759 386.745324 
L 367.548993 383.840368 
L 367.003891 380.951137 
L 366.24857 378.083187 
L 365.285652 375.241978 
L 364.118251 372.432856 
L 362.749963 369.661049 
L 361.184845 366.931652 
L 359.427399 364.249618 
L 357.482561 361.619748 
L 355.355677 359.046684 
L 353.052488 356.534898 
L 350.579113 354.088688 
L 347.942028 351.712168 
L 345.148051 349.409262 
L 342.204322 347.183701 
L 337.5243 343.998047 
L 332.550445 341.005355 
L 327.310355 338.2156 
L 321.832788 335.637659 
L 316.147517 333.279289 
L 310.285201 331.14711 
L 304.277239 329.246591 
L 298.15564 327.582036 
L 291.952885 326.156579 
L 285.701797 324.972178 
L 279.435406 324.02961 
L 273.186815 323.328477 
L 266.989072 322.867201 
L 260.875036 322.643036 
L 254.87724 322.652071 
L 249.027762 322.889245 
L 243.358087 323.348354 
L 237.898971 324.022074 
L 232.680301 324.901974 
L 227.730958 325.978546 
L 223.078673 327.241227 
L 218.749885 328.678433 
L 214.769597 330.277596 
L 211.161234 332.025203 
L 207.946497 333.906849 
L 205.145222 335.907281 
L 203.516298 337.299009 
L 202.083863 338.731489 
L 200.852236 340.19966 
L 199.825277 341.698335 
L 199.006373 343.222219 
L 198.398422 344.765915 
L 198.003814 346.323938 
L 197.824423 347.890726 
L 197.86159 349.460656 
L 198.116113 351.028055 
L 198.588234 352.587216 
L 199.277633 354.13241 
L 200.183417 355.657906 
L 201.304118 357.157981 
L 202.637682 358.626942 
L 204.181472 360.059137 
L 205.932265 361.448975 
L 207.886253 362.790943 
L 210.039046 364.079622 
L 213.629974 365.901148 
L 217.637748 367.573511 
L 222.040413 369.080145 
L 226.813311 370.405391 
L 231.929216 371.534629 
L 237.358483 372.454389 
L 243.069232 373.152469 
L 249.027547 373.618033 
L 255.197704 373.841707 
L 261.542416 373.815659 
L 268.023094 373.533672 
L 274.600127 372.991192 
L 281.233173 372.185377 
L 287.881455 371.115115 
L 294.504066 369.781039 
L 301.060277 368.185519 
L 307.509839 366.332641 
L 313.813277 364.228168 
L 319.932186 361.879488 
L 325.829503 359.295551 
L 331.46977 356.486786 
L 336.819375 353.46501 
L 340.208632 351.338576 
L 343.445847 349.12745 
L 346.522702 346.836028 
L 349.43137 344.468906 
L 352.164539 342.030867 
L 354.715427 339.526858 
L 357.0778 336.961981 
L 359.24598 334.341469 
L 361.214857 331.670671 
L 362.9799 328.955035 
L 364.537158 326.20009 
L 365.883269 323.411427 
L 367.015457 320.594688 
L 367.931534 317.755542 
L 368.629899 314.899671 
L 369.10953 312.032757 
L 369.369983 309.160463 
L 369.411382 306.288419 
L 369.23441 303.422208 
L 368.840301 300.567352 
L 368.230826 297.729299 
L 367.40828 294.913407 
L 366.375474 292.124938 
L 365.135712 289.369041 
L 363.692781 286.650744 
L 362.050935 283.974943 
L 360.214875 281.346394 
L 358.189734 278.769702 
L 355.981059 276.249313 
L 353.594791 273.789507 
L 351.037251 271.394393 
L 348.315116 269.067898 
L 345.435404 266.813766 
L 342.405452 264.635548 
L 337.595616 261.517847 
L 332.491957 258.588936 
L 327.122723 255.858251 
L 321.51731 253.334163 
L 315.706118 251.023953 
L 309.720414 248.933803 
L 303.592192 247.068775 
L 297.354038 245.432806 
L 291.038993 244.0287 
L 284.68042 242.858127 
L 278.311867 241.921616 
L 271.966938 241.218558 
L 265.679158 240.747212 
L 259.481837 240.504707 
L 253.407938 240.487051 
L 247.489943 240.689144 
L 241.759712 241.104787 
L 236.248346 241.7267 
L 230.986049 242.546542 
L 226.001985 243.554934 
L 221.324131 244.741485 
L 216.979139 246.094822 
L 212.992182 247.602628 
L 209.386816 249.251683 
L 206.184825 251.027907 
L 203.406085 252.916417 
L 201.797619 254.230113 
L 200.389973 255.581977 
L 199.18744 256.96708 
L 198.193842 258.380377 
L 197.41252 259.816718 
L 196.84631 261.270858 
L 196.497533 262.73747 
L 196.367982 264.211156 
L 196.458901 265.686461 
L 196.770984 267.157883 
L 197.304355 268.619894 
L 198.058565 270.066946 
L 199.032579 271.493491 
L 200.224774 272.893996 
L 201.632935 274.262958 
L 203.254248 275.594919 
L 205.085301 276.884484 
L 207.122091 278.126336 
L 210.552809 279.888261 
L 214.417965 281.513981 
L 218.696671 282.987063 
L 223.36523 284.291893 
L 228.39725 285.413803 
L 233.76379 286.339184 
L 239.433526 287.055604 
L 245.372952 287.551908 
L 251.546591 287.818314 
L 257.917243 287.846502 
L 264.446238 287.629683 
L 271.093718 287.16266 
L 277.818925 286.441877 
L 284.580503 285.465449 
L 291.336809 284.233181 
L 298.046221 282.746566 
L 304.667453 281.008772 
L 311.159864 279.024617 
L 317.483755 276.800519 
L 323.600661 274.34444 
L 329.473626 271.665816 
L 335.067459 268.775473 
L 340.348975 265.685529 
L 343.681086 263.521205 
L 346.85199 261.278278 
L 349.853601 258.961162 
L 352.678349 256.57445 
L 355.319206 254.122904 
L 357.769696 251.611432 
L 360.023907 249.045075 
L 360.023907 249.045075 
" clip-path="url(#p1e43e2d2e5)" style="fill: none; stroke: #6b46c1; stroke-width: 3; stroke-linecap: square"/>
   </g>
   <g id="Line3DCollection_4">
    <path d="M 395.579072 416.631769 
L 357.464351 418.091723 
" clip-path="url(#p1e43e2d2e5)" style="fill: none; stroke: #ffa500; stroke-width: 2.5"/>
    <path d="M 395.579072 416.631769 
L 389.319234 418.407559 
" clip-path="url(#p1e43e2d2e5)" style="fill: none; stroke: #ffa500; stroke-width: 2.5"/>
    <path d="M 395.579072 416.631769 
L 387.004281 415.424112 
" clip-path="url(#p1e43e2d2e5)" style="fill: none; stroke: #ffa500; stroke-width: 2.5"/>
   </g>
   <g id="text_28">
    <!-- B -->
    <g style="fill: #d946ef" transform="translate(283.264865 249.162545) scale(0.16 -0.16)">
     <defs>
      <path id="DejaVuSans-Bold-42" d="M 2456 2859 
Q 2741 2859 2887 2984 
Q 3034 3109 3034 3353 
Q 3034 3594 2887 3720 
Q 2741 3847 2456 3847 
L 1791 3847 
L 1791 2859 
L 2456 2859 
z
M 2497 819 
Q 2859 819 3042 972 
Q 3225 1125 3225 1434 
Q 3225 1738 3044 1889 
Q 2863 2041 2497 2041 
L 1791 2041 
L 1791 819 
L 2497 819 
z
M 3616 2497 
Q 4003 2384 4215 2081 
Q 4428 1778 4428 1338 
Q 4428 663 3972 331 
Q 3516 0 2584 0 
L 588 0 
L 588 4666 
L 2394 4666 
Q 3366 4666 3802 4372 
Q 4238 4078 4238 3431 
Q 4238 3091 4078 2852 
Q 3919 2613 3616 2497 
z
" transform="scale(0.015625)"/>
     </defs>
     <use xlink:href="#DejaVuSans-Bold-42"/>
    </g>
   </g>
   <g id="text_29">
    <!-- v -->
    <g style="fill: #ffa500" transform="translate(403.221229 418.965368) scale(0.14 -0.14)">
     <defs>
      <path id="DejaVuSans-Bold-76" d="M 97 3500 
L 1216 3500 
L 2088 1081 
L 2956 3500 
L 4078 3500 
L 2700 0 
L 1472 0 
L 97 3500 
z
" transform="scale(0.015625)"/>
     </defs>
     <use xlink:href="#DejaVuSans-Bold-76"/>
    </g>
   </g>
   <g id="text_30">
    <g id="patch_6">
     <path d="M 223.367958 116.434469 
L 310.868114 116.434469 
Q 314.768114 116.434469 314.768114 112.534469 
L 314.768114 99.952906 
Q 314.768114 96.052906 310.868114 96.052906 
L 223.367958 96.052906 
Q 219.467958 96.052906 219.467958 99.952906 
L 219.467958 112.534469 
Q 219.467958 116.434469 223.367958 116.434469 
z
" style="fill: #fde68a; stroke: #000000; stroke-linejoin: miter"/>
    </g>
    <!-- Helical Path -->
    <g transform="translate(223.367958 109.830875) scale(0.13 -0.13)">
     <defs>
      <path id="DejaVuSans-Bold-48" d="M 588 4666 
L 1791 4666 
L 1791 2888 
L 3566 2888 
L 3566 4666 
L 4769 4666 
L 4769 0 
L 3566 0 
L 3566 1978 
L 1791 1978 
L 1791 0 
L 588 0 
L 588 4666 
z
" transform="scale(0.015625)"/>
      <path id="DejaVuSans-Bold-65" d="M 4031 1759 
L 4031 1441 
L 1416 1441 
Q 1456 1047 1700 850 
Q 1944 653 2381 653 
Q 2734 653 3104 758 
Q 3475 863 3866 1075 
L 3866 213 
Q 3469 63 3072 -14 
Q 2675 -91 2278 -91 
Q 1328 -91 801 392 
Q 275 875 275 1747 
Q 275 2603 792 3093 
Q 1309 3584 2216 3584 
Q 3041 3584 3536 3087 
Q 4031 2591 4031 1759 
z
M 2881 2131 
Q 2881 2450 2695 2645 
Q 2509 2841 2209 2841 
Q 1884 2841 1681 2658 
Q 1478 2475 1428 2131 
L 2881 2131 
z
" transform="scale(0.015625)"/>
      <path id="DejaVuSans-Bold-6c" d="M 538 4863 
L 1656 4863 
L 1656 0 
L 538 0 
L 538 4863 
z
" transform="scale(0.015625)"/>
      <path id="DejaVuSans-Bold-69" d="M 538 3500 
L 1656 3500 
L 1656 0 
L 538 0 
L 538 3500 
z
M 538 4863 
L 1656 4863 
L 1656 3950 
L 538 3950 
L 538 4863 
z
" transform="scale(0.015625)"/>
      <path id="DejaVuSans-Bold-63" d="M 3366 3391 
L 3366 2478 
Q 3138 2634 2908 2709 
Q 2678 2784 2431 2784 
Q 1963 2784 1702 2511 
Q 1441 2238 1441 1747 
Q 1441 1256 1702 982 
Q 1963 709 2431 709 
Q 2694 709 2930 787 
Q 3166 866 3366 1019 
L 3366 103 
Q 3103 6 2833 -42 
Q 2563 -91 2291 -91 
Q 1344 -91 809 395 
Q 275 881 275 1747 
Q 275 2613 809 3098 
Q 1344 3584 2291 3584 
Q 2566 3584 2833 3536 
Q 3100 3488 3366 3391 
z
" transform="scale(0.015625)"/>
      <path id="DejaVuSans-Bold-61" d="M 2106 1575 
Q 1756 1575 1579 1456 
Q 1403 1338 1403 1106 
Q 1403 894 1545 773 
Q 1688 653 1941 653 
Q 2256 653 2472 879 
Q 2688 1106 2688 1447 
L 2688 1575 
L 2106 1575 
z
M 3816 1997 
L 3816 0 
L 2688 0 
L 2688 519 
Q 2463 200 2181 54 
Q 1900 -91 1497 -91 
Q 953 -91 614 226 
Q 275 544 275 1050 
Q 275 1666 698 1953 
Q 1122 2241 2028 2241 
L 2688 2241 
L 2688 2328 
Q 2688 2594 2478 2717 
Q 2269 2841 1825 2841 
Q 1466 2841 1156 2769 
Q 847 2697 581 2553 
L 581 3406 
Q 941 3494 1303 3539 
Q 1666 3584 2028 3584 
Q 2975 3584 3395 3211 
Q 3816 2838 3816 1997 
z
" transform="scale(0.015625)"/>
      <path id="DejaVuSans-Bold-20" transform="scale(0.015625)"/>
      <path id="DejaVuSans-Bold-50" d="M 588 4666 
L 2584 4666 
Q 3475 4666 3951 4270 
Q 4428 3875 4428 3144 
Q 4428 2409 3951 2014 
Q 3475 1619 2584 1619 
L 1791 1619 
L 1791 0 
L 588 0 
L 588 4666 
z
M 1791 3794 
L 1791 2491 
L 2456 2491 
Q 2806 2491 2997 2661 
Q 3188 2831 3188 3144 
Q 3188 3456 2997 3625 
Q 2806 3794 2456 3794 
L 1791 3794 
z
" transform="scale(0.015625)"/>
      <path id="DejaVuSans-Bold-74" d="M 1759 4494 
L 1759 3500 
L 2913 3500 
L 2913 2700 
L 1759 2700 
L 1759 1216 
Q 1759 972 1856 886 
Q 1953 800 2241 800 
L 2816 800 
L 2816 0 
L 1856 0 
Q 1194 0 917 276 
Q 641 553 641 1216 
L 641 2700 
L 84 2700 
L 84 3500 
L 641 3500 
L 641 4494 
L 1759 4494 
z
" transform="scale(0.015625)"/>
      <path id="DejaVuSans-Bold-68" d="M 4056 2131 
L 4056 0 
L 2931 0 
L 2931 347 
L 2931 1625 
Q 2931 2084 2911 2256 
Q 2891 2428 2841 2509 
Q 2775 2619 2662 2680 
Q 2550 2741 2406 2741 
Q 2056 2741 1856 2470 
Q 1656 2200 1656 1722 
L 1656 0 
L 538 0 
L 538 4863 
L 1656 4863 
L 1656 2988 
Q 1909 3294 2193 3439 
Q 2478 3584 2822 3584 
Q 3428 3584 3742 3212 
Q 4056 2841 4056 2131 
z
" transform="scale(0.015625)"/>
     </defs>
     <use xlink:href="#DejaVuSans-Bold-48"/>
     <use xlink:href="#DejaVuSans-Bold-65" transform="translate(83.691406 0)"/>
     <use xlink:href="#DejaVuSans-Bold-6c" transform="translate(151.513672 0)"/>
     <use xlink:href="#DejaVuSans-Bold-69" transform="translate(185.791016 0)"/>
     <use xlink:href="#DejaVuSans-Bold-63" transform="translate(220.068359 0)"/>
     <use xlink:href="#DejaVuSans-Bold-61" transform="translate(279.345703 0)"/>
     <use xlink:href="#DejaVuSans-Bold-6c" transform="translate(346.826172 0)"/>
     <use xlink:href="#DejaVuSans-Bold-20" transform="translate(381.103516 0)"/>
     <use xlink:href="#DejaVuSans-Bold-50" transform="translate(415.917969 0)"/>
     <use xlink:href="#DejaVuSans-Bold-61" transform="translate(486.583984 0)"/>
     <use xlink:href="#DejaVuSans-Bold-74" transform="translate(554.064453 0)"/>
     <use xlink:href="#DejaVuSans-Bold-68" transform="translate(601.867188 0)"/>
    </g>
   </g>
   <g id="text_31">
    <!-- Charged Particle in B Field -->
    <g transform="translate(170.963906 17.837812) scale(0.14 -0.14)">
     <defs>
      <path id="DejaVuSans-Bold-43" d="M 4288 256 
Q 3956 84 3597 -3 
Q 3238 -91 2847 -91 
Q 1681 -91 1000 561 
Q 319 1213 319 2328 
Q 319 3447 1000 4098 
Q 1681 4750 2847 4750 
Q 3238 4750 3597 4662 
Q 3956 4575 4288 4403 
L 4288 3438 
Q 3953 3666 3628 3772 
Q 3303 3878 2944 3878 
Q 2300 3878 1931 3465 
Q 1563 3053 1563 2328 
Q 1563 1606 1931 1193 
Q 2300 781 2944 781 
Q 3303 781 3628 887 
Q 3953 994 4288 1222 
L 4288 256 
z
" transform="scale(0.015625)"/>
      <path id="DejaVuSans-Bold-72" d="M 3138 2547 
Q 2991 2616 2845 2648 
Q 2700 2681 2553 2681 
Q 2122 2681 1889 2404 
Q 1656 2128 1656 1613 
L 1656 0 
L 538 0 
L 538 3500 
L 1656 3500 
L 1656 2925 
Q 1872 3269 2151 3426 
Q 2431 3584 2822 3584 
Q 2878 3584 2943 3579 
Q 3009 3575 3134 3559 
L 3138 2547 
z
" transform="scale(0.015625)"/>
      <path id="DejaVuSans-Bold-67" d="M 2919 594 
Q 2688 288 2409 144 
Q 2131 0 1766 0 
Q 1125 0 706 504 
Q 288 1009 288 1791 
Q 288 2575 706 3076 
Q 1125 3578 1766 3578 
Q 2131 3578 2409 3434 
Q 2688 3291 2919 2981 
L 2919 3500 
L 4044 3500 
L 4044 353 
Q 4044 -491 3511 -936 
Q 2978 -1381 1966 -1381 
Q 1638 -1381 1331 -1331 
Q 1025 -1281 716 -1178 
L 716 -306 
Q 1009 -475 1290 -558 
Q 1572 -641 1856 -641 
Q 2406 -641 2662 -400 
Q 2919 -159 2919 353 
L 2919 594 
z
M 2181 2772 
Q 1834 2772 1640 2515 
Q 1447 2259 1447 1791 
Q 1447 1309 1634 1061 
Q 1822 813 2181 813 
Q 2531 813 2725 1069 
Q 2919 1325 2919 1791 
Q 2919 2259 2725 2515 
Q 2531 2772 2181 2772 
z
" transform="scale(0.015625)"/>
      <path id="DejaVuSans-Bold-64" d="M 2919 2988 
L 2919 4863 
L 4044 4863 
L 4044 0 
L 2919 0 
L 2919 506 
Q 2688 197 2409 53 
Q 2131 -91 1766 -91 
Q 1119 -91 703 423 
Q 288 938 288 1747 
Q 288 2556 703 3070 
Q 1119 3584 1766 3584 
Q 2128 3584 2408 3439 
Q 2688 3294 2919 2988 
z
M 2181 722 
Q 2541 722 2730 984 
Q 2919 1247 2919 1747 
Q 2919 2247 2730 2509 
Q 2541 2772 2181 2772 
Q 1825 2772 1636 2509 
Q 1447 2247 1447 1747 
Q 1447 1247 1636 984 
Q 1825 722 2181 722 
z
" transform="scale(0.015625)"/>
      <path id="DejaVuSans-Bold-6e" d="M 4056 2131 
L 4056 0 
L 2931 0 
L 2931 347 
L 2931 1631 
Q 2931 2084 2911 2256 
Q 2891 2428 2841 2509 
Q 2775 2619 2662 2680 
Q 2550 2741 2406 2741 
Q 2056 2741 1856 2470 
Q 1656 2200 1656 1722 
L 1656 0 
L 538 0 
L 538 3500 
L 1656 3500 
L 1656 2988 
Q 1909 3294 2193 3439 
Q 2478 3584 2822 3584 
Q 3428 3584 3742 3212 
Q 4056 2841 4056 2131 
z
" transform="scale(0.015625)"/>
      <path id="DejaVuSans-Bold-46" d="M 588 4666 
L 3834 4666 
L 3834 3756 
L 1791 3756 
L 1791 2888 
L 3713 2888 
L 3713 1978 
L 1791 1978 
L 1791 0 
L 588 0 
L 588 4666 
z
" transform="scale(0.015625)"/>
     </defs>
     <use xlink:href="#DejaVuSans-Bold-43"/>
     <use xlink:href="#DejaVuSans-Bold-68" transform="translate(73.388672 0)"/>
     <use xlink:href="#DejaVuSans-Bold-61" transform="translate(144.580078 0)"/>
     <use xlink:href="#DejaVuSans-Bold-72" transform="translate(212.060547 0)"/>
     <use xlink:href="#DejaVuSans-Bold-67" transform="translate(261.376953 0)"/>
     <use xlink:href="#DejaVuSans-Bold-65" transform="translate(332.958984 0)"/>
     <use xlink:href="#DejaVuSans-Bold-64" transform="translate(400.78125 0)"/>
     <use xlink:href="#DejaVuSans-Bold-20" transform="translate(472.363281 0)"/>
     <use xlink:href="#DejaVuSans-Bold-50" transform="translate(507.177734 0)"/>
     <use xlink:href="#DejaVuSans-Bold-61" transform="translate(577.84375 0)"/>
     <use xlink:href="#DejaVuSans-Bold-72" transform="translate(645.324219 0)"/>
     <use xlink:href="#DejaVuSans-Bold-74" transform="translate(694.640625 0)"/>
     <use xlink:href="#DejaVuSans-Bold-69" transform="translate(742.443359 0)"/>
     <use xlink:href="#DejaVuSans-Bold-63" transform="translate(776.720703 0)"/>
     <use xlink:href="#DejaVuSans-Bold-6c" transform="translate(835.998047 0)"/>
     <use xlink:href="#DejaVuSans-Bold-65" transform="translate(870.275391 0)"/>
     <use xlink:href="#DejaVuSans-Bold-20" transform="translate(938.097656 0)"/>
     <use xlink:href="#DejaVuSans-Bold-69" transform="translate(972.912109 0)"/>
     <use xlink:href="#DejaVuSans-Bold-6e" transform="translate(1007.189453 0)"/>
     <use xlink:href="#DejaVuSans-Bold-20" transform="translate(1078.380859 0)"/>
     <use xlink:href="#DejaVuSans-Bold-42" transform="translate(1113.195312 0)"/>
     <use xlink:href="#DejaVuSans-Bold-20" transform="translate(1189.416016 0)"/>
     <use xlink:href="#DejaVuSans-Bold-46" transform="translate(1224.230469 0)"/>
     <use xlink:href="#DejaVuSans-Bold-69" transform="translate(1292.541016 0)"/>
     <use xlink:href="#DejaVuSans-Bold-65" transform="translate(1326.818359 0)"/>
     <use xlink:href="#DejaVuSans-Bold-6c" transform="translate(1394.640625 0)"/>
     <use xlink:href="#DejaVuSans-Bold-64" transform="translate(1428.917969 0)"/>
    </g>
   </g>
   <g id="Line3DCollection_5">
    <path d="M 283.264865 262.802338 
L 283.264865 395.269149 
" clip-path="url(#p1e43e2d2e5)" style="fill: none; stroke: #d946ef; stroke-width: 3"/>
    <path d="M 283.264865 262.802338 
L 277.444139 274.237038 
" clip-path="url(#p1e43e2d2e5)" style="fill: none; stroke: #d946ef; stroke-width: 3"/>
    <path d="M 283.264865 262.802338 
L 289.097273 277.58203 
" clip-path="url(#p1e43e2d2e5)" style="fill: none; stroke: #d946ef; stroke-width: 3"/>
   </g>
  </g>
 </g>
 <defs>
  <clipPath id="p1e43e2d2e5">
   <rect x="7.2" y="23.837812" width="537.6" height="537.6"/>
  </clipPath>
 </defs>
</svg>
