<?xml version="1.0" encoding="utf-8" standalone="no"?>
<!DOCTYPE svg PUBLIC "-//W3C//DTD SVG 1.1//EN"
  "http://www.w3.org/Graphics/SVG/1.1/DTD/svg11.dtd">
<svg xmlns:xlink="http://www.w3.org/1999/xlink" width="624pt" height="640.637812pt" viewBox="0 0 624 640.637812" xmlns="http://www.w3.org/2000/svg" version="1.1">
 <metadata>
  <rdf:RDF xmlns:dc="http://purl.org/dc/elements/1.1/" xmlns:cc="http://creativecommons.org/ns#" xmlns:rdf="http://www.w3.org/1999/02/22-rdf-syntax-ns#">
   <cc:Work>
    <dc:type rdf:resource="http://purl.org/dc/dcmitype/StillImage"/>
    <dc:date>2025-12-13T21:01:33.288876</dc:date>
    <dc:format>image/svg+xml</dc:format>
    <dc:creator>
     <cc:Agent>
      <dc:title>Matplotlib v3.10.7, https://matplotlib.org/</dc:title>
     </cc:Agent>
    </dc:creator>
   </cc:Work>
  </rdf:RDF>
 </metadata>
 <defs>
  <style type="text/css">*{stroke-linejoin: round; stroke-linecap: butt}</style>
 </defs>
 <g id="figure_1">
  <g id="patch_1">
   <path d="M 0 640.637812 
L 624 640.637812 
L 624 0 
L 0 0 
z
" style="fill: #ffffff"/>
  </g>
  <g id="axes_1">
   <g id="patch_2">
    <path d="M 525.36 328.637812 
L 525.253659 321.902347 
L 524.934742 315.173595 
L 524.403567 308.458265 
L 523.660664 301.76305 
L 522.706773 295.094624 
L 521.542844 288.459635 
L 520.170039 281.864697 
L 518.589726 275.316383 
L 516.803479 268.821221 
L 514.81308 262.385685 
L 512.620512 256.016191 
L 510.227961 249.719088 
L 507.637812 243.500653 
L 504.852648 237.367084 
L 501.875243 231.324496 
L 498.708567 225.378912 
L 495.355776 219.536259 
L 491.820211 213.80236 
L 488.105398 208.182932 
L 484.21504 202.683576 
L 480.153013 197.309774 
L 475.923368 192.066882 
L 471.530321 186.960128 
L 466.97825 181.994601 
L 462.271694 177.175251 
L 457.415343 172.506882 
L 452.41404 167.994148 
L 447.272768 163.641547 
L 441.996654 159.453417 
L 436.590956 155.433935 
L 431.061064 151.587106 
L 425.412488 147.916765 
L 419.650861 144.42657 
L 413.781925 141.120002 
L 407.81153 138.000355 
L 401.745628 135.070739 
L 395.590266 132.334076 
L 389.35158 129.793092 
L 383.035788 127.450322 
L 376.649185 125.308099 
L 370.198139 123.36856 
L 363.68908 121.633637 
L 357.128496 120.105061 
L 350.522927 118.784355 
L 343.878957 117.672835 
L 337.20321 116.77161 
L 330.50234 116.081578 
L 323.783026 115.603426 
L 317.051967 115.337631 
L 310.315871 115.284459 
L 303.581455 115.443962 
L 296.85543 115.815982 
L 290.144502 116.400147 
L 283.455359 117.195875 
L 276.794671 118.202373 
L 270.169076 119.418637 
L 263.585179 120.843456 
L 257.049543 122.475408 
L 250.568683 124.312868 
L 244.149059 126.354004 
L 237.79707 128.59678 
L 231.519048 131.038961 
L 225.321251 133.678114 
L 219.209858 136.511606 
L 213.19096 139.536614 
L 207.270557 142.750122 
L 201.45455 146.148927 
L 195.748738 149.729641 
L 190.158807 153.488695 
L 184.690331 157.422341 
L 179.348759 161.526658 
L 174.139417 165.797555 
L 169.067498 170.230775 
L 164.138056 174.821899 
L 159.356007 179.56635 
L 154.726117 184.459398 
L 150.253 189.496167 
L 145.941117 194.671635 
L 141.794764 199.980643 
L 137.818076 205.417899 
L 134.015016 210.977984 
L 130.389376 216.655355 
L 126.944769 222.444352 
L 123.684629 228.339206 
L 120.612206 234.334039 
L 117.730562 240.422876 
L 115.04257 246.599648 
L 112.55091 252.858197 
L 110.258065 259.192285 
L 108.166321 265.595597 
L 106.277763 272.061752 
L 104.594273 278.584303 
L 103.117529 285.156748 
L 101.849004 291.772536 
L 100.789963 298.425072 
L 99.94146 305.107725 
L 99.304341 311.813833 
L 98.879242 318.536712 
L 98.666587 325.26966 
L 98.666587 332.005965 
L 98.879242 338.738913 
L 99.304341 345.461792 
L 99.94146 352.1679 
L 100.789963 358.850553 
L 101.849004 365.503089 
L 103.117529 372.118877 
L 104.594273 378.691322 
L 106.277763 385.213873 
L 108.166321 391.680028 
L 110.258065 398.08334 
L 112.55091 404.417428 
L 115.04257 410.675977 
L 117.730562 416.852749 
L 120.612206 422.941586 
L 123.684629 428.936419 
L 126.944769 434.831273 
L 130.389376 440.62027 
L 134.015016 446.297641 
L 137.818076 451.857726 
L 141.794764 457.294982 
L 145.941117 462.60399 
L 150.253 467.779458 
L 154.726117 472.816227 
L 159.356007 477.709275 
L 164.138056 482.453726 
L 169.067498 487.04485 
L 174.139417 491.47807 
L 179.348759 495.748967 
L 184.690331 499.853284 
L 190.158807 503.78693 
L 195.748738 507.545984 
L 201.45455 511.126698 
L 207.270557 514.525503 
L 213.19096 517.739011 
L 219.209858 520.764019 
L 225.321251 523.597511 
L 231.519048 526.236664 
L 237.79707 528.678845 
L 244.149059 530.921621 
L 250.568683 532.962757 
L 257.049543 534.800217 
L 263.585179 536.432169 
L 270.169076 537.856988 
L 276.794671 539.073252 
L 283.455359 540.07975 
L 290.144502 540.875478 
L 296.85543 541.459643 
L 303.581455 541.831663 
L 310.315871 541.991166 
L 317.051967 541.937994 
L 323.783026 541.672199 
L 330.50234 541.194047 
L 337.20321 540.504015 
L 343.878957 539.60279 
L 350.522927 538.49127 
L 357.128496 537.170564 
L 363.68908 535.641988 
L 370.198139 533.907065 
L 376.649185 531.967526 
L 383.035788 529.825303 
L 389.35158 527.482533 
L 395.590266 524.941549 
L 401.745628 522.204886 
L 407.81153 519.27527 
L 413.781925 516.155623 
L 419.650861 512.849055 
L 425.412488 509.35886 
L 431.061064 505.688519 
L 436.590956 501.84169 
L 441.996654 497.822208 
L 447.272768 493.634078 
L 452.41404 489.281477 
L 457.415343 484.768743 
L 462.271694 480.100374 
L 466.97825 475.281024 
L 471.530321 470.315497 
L 475.923368 465.208743 
L 480.153013 459.965851 
L 484.21504 454.592049 
L 488.105398 449.092693 
L 491.820211 443.473265 
L 495.355776 437.739366 
L 498.708567 431.896713 
L 501.875243 425.951129 
L 504.852648 419.908541 
L 507.637812 413.774972 
L 510.227961 407.556537 
L 512.620512 401.259434 
L 514.81308 394.88994 
L 516.803479 388.454404 
L 518.589726 381.959242 
L 520.170039 375.410928 
L 521.542844 368.81599 
L 522.706773 362.181001 
L 523.660664 355.512575 
L 524.403567 348.81736 
L 524.934742 342.10203 
L 525.253659 335.373278 
L 525.36 328.637813 
z
" clip-path="url(#pd848e5c823)" style="fill: #e8d5f5; opacity: 0.3; stroke: #e8d5f5; stroke-linejoin: miter"/>
   </g>
   <g id="patch_3">
    <path d="M 464.4 328.637812 
L 464.324042 323.826766 
L 464.096244 319.020514 
L 463.716834 314.22385 
L 463.186189 309.441553 
L 462.504838 304.678392 
L 461.67346 299.939115 
L 460.692885 295.228444 
L 459.56409 290.551077 
L 458.288199 285.911676 
L 456.866485 281.314864 
L 455.300366 276.765226 
L 453.591401 272.267295 
L 451.741295 267.825556 
L 449.751891 263.444435 
L 447.625174 259.128301 
L 445.363262 254.881455 
L 442.968411 250.708131 
L 440.443008 246.612489 
L 437.78957 242.598612 
L 435.010743 238.670501 
L 432.109295 234.832071 
L 429.08812 231.087148 
L 425.950229 227.439466 
L 422.69875 223.892661 
L 419.336924 220.450268 
L 415.868102 217.115719 
L 412.295743 213.892338 
L 408.623406 210.783337 
L 404.854753 207.791816 
L 400.99354 204.920757 
L 397.043617 202.173022 
L 393.00892 199.55135 
L 388.893472 197.058354 
L 384.701375 194.696519 
L 380.436807 192.4682 
L 376.10402 190.375617 
L 371.707333 188.420858 
L 367.251129 186.60587 
L 362.739848 184.932462 
L 358.177989 183.402303 
L 353.570099 182.016918 
L 348.920771 180.777687 
L 344.23464 179.685847 
L 339.516376 178.742486 
L 334.770684 177.948543 
L 330.002293 177.304811 
L 325.215957 176.81193 
L 320.416447 176.470393 
L 315.608548 176.28054 
L 310.797051 176.24256 
L 305.986753 176.356491 
L 301.18245 176.622219 
L 296.38893 177.03948 
L 291.610971 177.607857 
L 286.853336 178.326784 
L 282.120769 179.195544 
L 277.417985 180.213272 
L 272.749674 181.378952 
L 268.120488 182.691424 
L 263.535042 184.149378 
L 258.997907 185.751361 
L 254.513606 187.495776 
L 250.086608 189.380885 
L 245.721327 191.404808 
L 241.422114 193.565528 
L 237.193255 195.860891 
L 233.038965 198.288609 
L 228.963384 200.846262 
L 224.970577 203.5313 
L 221.064522 206.341047 
L 217.249114 209.272702 
L 213.528155 212.323343 
L 209.905355 215.489929 
L 206.384326 218.769303 
L 202.968576 222.158196 
L 199.661512 225.653231 
L 196.466429 229.250923 
L 193.386512 232.947685 
L 190.424832 236.739834 
L 187.58434 240.623589 
L 184.867869 244.595078 
L 182.278126 248.650343 
L 179.817692 252.785341 
L 177.489021 256.99595 
L 175.294433 261.277974 
L 173.236116 265.627143 
L 171.316122 270.039123 
L 169.536364 274.509515 
L 167.898618 279.033864 
L 166.404515 283.607659 
L 165.055545 288.226341 
L 163.853052 292.885305 
L 162.798235 297.579909 
L 161.892146 302.305472 
L 161.135688 307.057284 
L 160.529614 311.830607 
L 160.074529 316.620685 
L 159.770887 321.422741 
L 159.618991 326.231989 
L 159.618991 331.043636 
L 159.770887 335.852884 
L 160.074529 340.65494 
L 160.529614 345.445018 
L 161.135688 350.218341 
L 161.892146 354.970153 
L 162.798235 359.695716 
L 163.853052 364.39032 
L 165.055545 369.049284 
L 166.404515 373.667966 
L 167.898618 378.241761 
L 169.536364 382.76611 
L 171.316122 387.236502 
L 173.236116 391.648482 
L 175.294433 395.997651 
L 177.489021 400.279675 
L 179.817692 404.490284 
L 182.278126 408.625282 
L 184.867869 412.680547 
L 187.58434 416.652036 
L 190.424832 420.535791 
L 193.386512 424.32794 
L 196.466429 428.024702 
L 199.661512 431.622394 
L 202.968576 435.117429 
L 206.384326 438.506322 
L 209.905355 441.785696 
L 213.528155 444.952282 
L 217.249114 448.002923 
L 221.064522 450.934578 
L 224.970577 453.744325 
L 228.963384 456.429363 
L 233.038965 458.987016 
L 237.193255 461.414734 
L 241.422114 463.710097 
L 245.721327 465.870817 
L 250.086608 467.89474 
L 254.513606 469.779849 
L 258.997907 471.524264 
L 263.535042 473.126247 
L 268.120488 474.584201 
L 272.749674 475.896673 
L 277.417985 477.062353 
L 282.120769 478.080081 
L 286.853336 478.948841 
L 291.610971 479.667768 
L 296.38893 480.236145 
L 301.18245 480.653406 
L 305.986753 480.919134 
L 310.797051 481.033065 
L 315.608548 480.995085 
L 320.416447 480.805232 
L 325.215957 480.463695 
L 330.002293 479.970814 
L 334.770684 479.327082 
L 339.516376 478.533139 
L 344.23464 477.589778 
L 348.920771 476.497938 
L 353.570099 475.258707 
L 358.177989 473.873322 
L 362.739848 472.343163 
L 367.251129 470.669755 
L 371.707333 468.854767 
L 376.10402 466.900008 
L 380.436807 464.807425 
L 384.701375 462.579106 
L 388.893472 460.217271 
L 393.00892 457.724275 
L 397.043617 455.102603 
L 400.99354 452.354868 
L 404.854753 449.483809 
L 408.623406 446.492288 
L 412.295743 443.383287 
L 415.868102 440.159906 
L 419.336924 436.825357 
L 422.69875 433.382964 
L 425.950229 429.836159 
L 429.08812 426.188477 
L 432.109295 422.443554 
L 435.010743 418.605124 
L 437.78957 414.677013 
L 440.443008 410.663136 
L 442.968411 406.567494 
L 445.363262 402.39417 
L 447.625174 398.147324 
L 449.751891 393.83119 
L 451.741295 389.450069 
L 453.591401 385.00833 
L 455.300366 380.510399 
L 456.866485 375.960761 
L 458.288199 371.363949 
L 459.56409 366.724548 
L 460.692885 362.047181 
L 461.67346 357.33651 
L 462.504838 352.597233 
L 463.186189 347.834072 
L 463.716834 343.051775 
L 464.096244 338.255111 
L 464.324042 333.448859 
L 464.4 328.637813 
z
" clip-path="url(#pd848e5c823)" style="fill: #ffffff; stroke: #ffffff; stroke-linejoin: miter"/>
   </g>
   <g id="patch_4">
    <path d="M 470.378726 429.221813 
C 472.803743 429.221813 475.129764 428.258343 476.84451 426.543597 
C 478.559256 424.828851 479.522726 422.50283 479.522726 420.077813 
C 479.522726 417.652795 478.559256 415.326774 476.84451 413.612028 
C 475.129764 411.897282 472.803743 410.933813 470.378726 410.933813 
C 467.953709 410.933813 465.627688 411.897282 463.912941 413.612028 
C 462.198195 415.326774 461.234726 417.652795 461.234726 420.077813 
C 461.234726 422.50283 462.198195 424.828851 463.912941 426.543597 
C 465.627688 428.258343 467.953709 429.221813 470.378726 429.221813 
L 470.378726 429.221813 
z
" clip-path="url(#pd848e5c823)" style="fill: none; stroke: #6b46c1; stroke-width: 2; stroke-linejoin: miter"/>
   </g>
   <g id="patch_5">
    <path d="M 543.648 231.101812 
L 548.22 237.197812 
L 543.67848 237.197812 
L 543.67848 267.677812 
L 543.61752 267.677812 
L 543.61752 237.197812 
L 539.076 237.197812 
z
" clip-path="url(#pd848e5c823)" style="fill: #0000ff; stroke: #0000ff; stroke-width: 2; stroke-linejoin: miter"/>
   </g>
   <g id="line2d_1">
    <path d="M 525.36 328.637812 
L 525.253659 321.902347 
L 524.934742 315.173595 
L 524.403567 308.458265 
L 523.660664 301.76305 
L 522.706773 295.094624 
L 521.542844 288.459635 
L 520.170039 281.864697 
L 518.589726 275.316383 
L 516.803479 268.821221 
L 514.81308 262.385685 
L 512.620512 256.016191 
L 510.227961 249.719088 
L 507.637812 243.500653 
L 504.852648 237.367084 
L 501.875243 231.324496 
L 498.708567 225.378912 
L 495.355776 219.536259 
L 491.820211 213.80236 
L 488.105398 208.182932 
L 484.21504 202.683576 
L 480.153013 197.309774 
L 475.923368 192.066882 
L 471.530321 186.960128 
L 466.97825 181.994601 
L 462.271694 177.175251 
L 457.415343 172.506882 
L 452.41404 167.994148 
L 447.272768 163.641547 
L 441.996654 159.453417 
L 436.590956 155.433935 
L 431.061064 151.587106 
L 425.412488 147.916765 
L 419.650861 144.42657 
L 413.781925 141.120002 
L 407.81153 138.000355 
L 401.745628 135.070739 
L 395.590266 132.334076 
L 389.35158 129.793092 
L 383.035788 127.450322 
L 376.649185 125.308099 
L 370.198139 123.36856 
L 363.68908 121.633637 
L 357.128496 120.105061 
L 350.522927 118.784355 
L 343.878957 117.672835 
L 337.20321 116.77161 
L 330.50234 116.081578 
L 323.783026 115.603426 
L 317.051967 115.337631 
L 310.315871 115.284459 
L 303.581455 115.443962 
L 296.85543 115.815982 
L 290.144502 116.400147 
L 283.455359 117.195875 
L 276.794671 118.202373 
L 270.169076 119.418637 
L 263.585179 120.843456 
L 257.049543 122.475408 
L 250.568683 124.312868 
L 244.149059 126.354004 
L 237.79707 128.59678 
L 231.519048 131.038961 
L 225.321251 133.678114 
L 219.209858 136.511606 
L 213.19096 139.536614 
L 207.270557 142.750122 
L 201.45455 146.148927 
L 195.748738 149.729641 
L 190.158807 153.488695 
L 184.690331 157.422341 
L 179.348759 161.526658 
L 174.139417 165.797555 
L 169.067498 170.230775 
L 164.138056 174.821899 
L 159.356007 179.56635 
L 154.726117 184.459398 
L 150.253 189.496167 
L 145.941117 194.671635 
L 141.794764 199.980643 
L 137.818076 205.417899 
L 134.015016 210.977984 
L 130.389376 216.655355 
L 126.944769 222.444352 
L 123.684629 228.339206 
L 120.612206 234.334039 
L 117.730562 240.422876 
L 115.04257 246.599648 
L 112.55091 252.858197 
L 110.258065 259.192285 
L 108.166321 265.595597 
L 106.277763 272.061752 
L 104.594273 278.584303 
L 103.117529 285.156748 
L 101.849004 291.772536 
L 100.789963 298.425072 
L 99.94146 305.107725 
L 99.304341 311.813833 
L 98.879242 318.536712 
L 98.666587 325.26966 
L 98.666587 332.005965 
L 98.879242 338.738913 
L 99.304341 345.461792 
L 99.94146 352.1679 
L 100.789963 358.850553 
L 101.849004 365.503089 
L 103.117529 372.118877 
L 104.594273 378.691322 
L 106.277763 385.213873 
L 108.166321 391.680028 
L 110.258065 398.08334 
L 112.55091 404.417428 
L 115.04257 410.675977 
L 117.730562 416.852749 
L 120.612206 422.941586 
L 123.684629 428.936419 
L 126.944769 434.831273 
L 130.389376 440.62027 
L 134.015016 446.297641 
L 137.818076 451.857726 
L 141.794764 457.294982 
L 145.941117 462.60399 
L 150.253 467.779458 
L 154.726117 472.816227 
L 159.356007 477.709275 
L 164.138056 482.453726 
L 169.067498 487.04485 
L 174.139417 491.47807 
L 179.348759 495.748967 
L 184.690331 499.853284 
L 190.158807 503.78693 
L 195.748738 507.545984 
L 201.45455 511.126698 
L 207.270557 514.525503 
L 213.19096 517.739011 
L 219.209858 520.764019 
L 225.321251 523.597511 
L 231.519048 526.236664 
L 237.79707 528.678845 
L 244.149059 530.921621 
L 250.568683 532.962757 
L 257.049543 534.800217 
L 263.585179 536.432169 
L 270.169076 537.856988 
L 276.794671 539.073252 
L 283.455359 540.07975 
L 290.144502 540.875478 
L 296.85543 541.459643 
L 303.581455 541.831663 
L 310.315871 541.991166 
L 317.051967 541.937994 
L 323.783026 541.672199 
L 330.50234 541.194047 
L 337.20321 540.504015 
L 343.878957 539.60279 
L 350.522927 538.49127 
L 357.128496 537.170564 
L 363.68908 535.641988 
L 370.198139 533.907065 
L 376.649185 531.967526 
L 383.035788 529.825303 
L 389.35158 527.482533 
L 395.590266 524.941549 
L 401.745628 522.204886 
L 407.81153 519.27527 
L 413.781925 516.155623 
L 419.650861 512.849055 
L 425.412488 509.35886 
L 431.061064 505.688519 
L 436.590956 501.84169 
L 441.996654 497.822208 
L 447.272768 493.634078 
L 452.41404 489.281477 
L 457.415343 484.768743 
L 462.271694 480.100374 
L 466.97825 475.281024 
L 471.530321 470.315497 
L 475.923368 465.208743 
L 480.153013 459.965851 
L 484.21504 454.592049 
L 488.105398 449.092693 
L 491.820211 443.473265 
L 495.355776 437.739366 
L 498.708567 431.896713 
L 501.875243 425.951129 
L 504.852648 419.908541 
L 507.637812 413.774972 
L 510.227961 407.556537 
L 512.620512 401.259434 
L 514.81308 394.88994 
L 516.803479 388.454404 
L 518.589726 381.959242 
L 520.170039 375.410928 
L 521.542844 368.81599 
L 522.706773 362.181001 
L 523.660664 355.512575 
L 524.403567 348.81736 
L 524.934742 342.10203 
L 525.253659 335.373278 
L 525.36 328.637813 
L 525.36 328.637813 
" clip-path="url(#pd848e5c823)" style="fill: none; stroke: #000000; stroke-width: 3; stroke-linecap: square"/>
   </g>
   <g id="line2d_2">
    <path d="M 464.4 328.637812 
L 464.324042 323.826766 
L 464.096244 319.020514 
L 463.716834 314.22385 
L 463.186189 309.441553 
L 462.504838 304.678392 
L 461.67346 299.939115 
L 460.692885 295.228444 
L 459.56409 290.551077 
L 458.288199 285.911676 
L 456.866485 281.314864 
L 455.300366 276.765226 
L 453.591401 272.267295 
L 451.741295 267.825556 
L 449.751891 263.444435 
L 447.625174 259.128301 
L 445.363262 254.881455 
L 442.968411 250.708131 
L 440.443008 246.612489 
L 437.78957 242.598612 
L 435.010743 238.670501 
L 432.109295 234.832071 
L 429.08812 231.087148 
L 425.950229 227.439466 
L 422.69875 223.892661 
L 419.336924 220.450268 
L 415.868102 217.115719 
L 412.295743 213.892338 
L 408.623406 210.783337 
L 404.854753 207.791816 
L 400.99354 204.920757 
L 397.043617 202.173022 
L 393.00892 199.55135 
L 388.893472 197.058354 
L 384.701375 194.696519 
L 380.436807 192.4682 
L 376.10402 190.375617 
L 371.707333 188.420858 
L 367.251129 186.60587 
L 362.739848 184.932462 
L 358.177989 183.402303 
L 353.570099 182.016918 
L 348.920771 180.777687 
L 344.23464 179.685847 
L 339.516376 178.742486 
L 334.770684 177.948543 
L 330.002293 177.304811 
L 325.215957 176.81193 
L 320.416447 176.470393 
L 315.608548 176.28054 
L 310.797051 176.24256 
L 305.986753 176.356491 
L 301.18245 176.622219 
L 296.38893 177.03948 
L 291.610971 177.607857 
L 286.853336 178.326784 
L 282.120769 179.195544 
L 277.417985 180.213272 
L 272.749674 181.378952 
L 268.120488 182.691424 
L 263.535042 184.149378 
L 258.997907 185.751361 
L 254.513606 187.495776 
L 250.086608 189.380885 
L 245.721327 191.404808 
L 241.422114 193.565528 
L 237.193255 195.860891 
L 233.038965 198.288609 
L 228.963384 200.846262 
L 224.970577 203.5313 
L 221.064522 206.341047 
L 217.249114 209.272702 
L 213.528155 212.323343 
L 209.905355 215.489929 
L 206.384326 218.769303 
L 202.968576 222.158196 
L 199.661512 225.653231 
L 196.466429 229.250923 
L 193.386512 232.947685 
L 190.424832 236.739834 
L 187.58434 240.623589 
L 184.867869 244.595078 
L 182.278126 248.650343 
L 179.817692 252.785341 
L 177.489021 256.99595 
L 175.294433 261.277974 
L 173.236116 265.627143 
L 171.316122 270.039123 
L 169.536364 274.509515 
L 167.898618 279.033864 
L 166.404515 283.607659 
L 165.055545 288.226341 
L 163.853052 292.885305 
L 162.798235 297.579909 
L 161.892146 302.305472 
L 161.135688 307.057284 
L 160.529614 311.830607 
L 160.074529 316.620685 
L 159.770887 321.422741 
L 159.618991 326.231989 
L 159.618991 331.043636 
L 159.770887 335.852884 
L 160.074529 340.65494 
L 160.529614 345.445018 
L 161.135688 350.218341 
L 161.892146 354.970153 
L 162.798235 359.695716 
L 163.853052 364.39032 
L 165.055545 369.049284 
L 166.404515 373.667966 
L 167.898618 378.241761 
L 169.536364 382.76611 
L 171.316122 387.236502 
L 173.236116 391.648482 
L 175.294433 395.997651 
L 177.489021 400.279675 
L 179.817692 404.490284 
L 182.278126 408.625282 
L 184.867869 412.680547 
L 187.58434 416.652036 
L 190.424832 420.535791 
L 193.386512 424.32794 
L 196.466429 428.024702 
L 199.661512 431.622394 
L 202.968576 435.117429 
L 206.384326 438.506322 
L 209.905355 441.785696 
L 213.528155 444.952282 
L 217.249114 448.002923 
L 221.064522 450.934578 
L 224.970577 453.744325 
L 228.963384 456.429363 
L 233.038965 458.987016 
L 237.193255 461.414734 
L 241.422114 463.710097 
L 245.721327 465.870817 
L 250.086608 467.89474 
L 254.513606 469.779849 
L 258.997907 471.524264 
L 263.535042 473.126247 
L 268.120488 474.584201 
L 272.749674 475.896673 
L 277.417985 477.062353 
L 282.120769 478.080081 
L 286.853336 478.948841 
L 291.610971 479.667768 
L 296.38893 480.236145 
L 301.18245 480.653406 
L 305.986753 480.919134 
L 310.797051 481.033065 
L 315.608548 480.995085 
L 320.416447 480.805232 
L 325.215957 480.463695 
L 330.002293 479.970814 
L 334.770684 479.327082 
L 339.516376 478.533139 
L 344.23464 477.589778 
L 348.920771 476.497938 
L 353.570099 475.258707 
L 358.177989 473.873322 
L 362.739848 472.343163 
L 367.251129 470.669755 
L 371.707333 468.854767 
L 376.10402 466.900008 
L 380.436807 464.807425 
L 384.701375 462.579106 
L 388.893472 460.217271 
L 393.00892 457.724275 
L 397.043617 455.102603 
L 400.99354 452.354868 
L 404.854753 449.483809 
L 408.623406 446.492288 
L 412.295743 443.383287 
L 415.868102 440.159906 
L 419.336924 436.825357 
L 422.69875 433.382964 
L 425.950229 429.836159 
L 429.08812 426.188477 
L 432.109295 422.443554 
L 435.010743 418.605124 
L 437.78957 414.677013 
L 440.443008 410.663136 
L 442.968411 406.567494 
L 445.363262 402.39417 
L 447.625174 398.147324 
L 449.751891 393.83119 
L 451.741295 389.450069 
L 453.591401 385.00833 
L 455.300366 380.510399 
L 456.866485 375.960761 
L 458.288199 371.363949 
L 459.56409 366.724548 
L 460.692885 362.047181 
L 461.67346 357.33651 
L 462.504838 352.597233 
L 463.186189 347.834072 
L 463.716834 343.051775 
L 464.096244 338.255111 
L 464.324042 333.448859 
L 464.4 328.637813 
L 464.4 328.637813 
" clip-path="url(#pd848e5c823)" style="fill: none; stroke: #000000; stroke-width: 3; stroke-linecap: square"/>
   </g>
   <g id="line2d_3">
    <path d="M 494.88 328.637812 
L 494.788851 322.864556 
L 494.515493 317.097055 
L 494.060201 311.341057 
L 493.423426 305.602302 
L 492.605805 299.886508 
L 491.608152 294.199375 
L 490.431462 288.546571 
L 489.076908 282.93373 
L 487.545839 277.366448 
L 485.839782 271.850275 
L 483.960439 266.390709 
L 481.909681 260.993192 
L 479.689553 255.663104 
L 477.302269 250.405759 
L 474.750209 245.226398 
L 472.035915 240.130183 
L 469.162094 235.122195 
L 466.13161 230.207425 
L 462.947484 225.390772 
L 459.612891 220.677038 
L 456.131154 216.070922 
L 452.505744 211.577015 
L 448.740275 207.199797 
L 444.8385 202.943631 
L 440.804309 198.812759 
L 436.641723 194.8113 
L 432.354891 190.943243 
L 427.948087 187.212442 
L 423.425703 183.622617 
L 418.792248 180.177346 
L 414.05234 176.880064 
L 409.210704 173.734057 
L 404.272166 170.742462 
L 399.24165 167.90826 
L 394.124169 165.234277 
L 388.924824 162.723178 
L 383.6488 160.377467 
L 378.301354 158.199481 
L 372.887818 156.191392 
L 367.413587 154.355201 
L 361.884119 152.692739 
L 356.304926 151.205662 
L 350.681568 149.895454 
L 345.019652 148.76342 
L 339.324821 147.810689 
L 333.602752 147.03821 
L 327.859148 146.446754 
L 322.099737 146.03691 
L 316.330257 145.809086 
L 310.556461 145.76351 
L 304.784104 145.900227 
L 299.01894 146.219101 
L 293.266716 146.719813 
L 287.533165 147.401866 
L 281.824004 148.264578 
L 276.144922 149.307091 
L 270.501582 150.528364 
L 264.899608 151.92718 
L 259.344585 153.502146 
L 253.84205 155.251691 
L 248.397488 157.17407 
L 243.016327 159.267369 
L 237.70393 161.529499 
L 232.465593 163.958207 
L 227.306537 166.551071 
L 222.231906 169.305507 
L 217.246758 172.218768 
L 212.356061 175.287952 
L 207.564692 178.509997 
L 202.877426 181.881694 
L 198.298936 185.39968 
L 193.833786 189.060449 
L 189.486427 192.860352 
L 185.261191 196.795601 
L 181.162292 200.862273 
L 177.193814 205.056314 
L 173.359714 209.373545 
L 169.663814 213.80966 
L 166.109798 218.360238 
L 162.701208 223.020744 
L 159.441443 227.786531 
L 156.333751 232.652849 
L 153.38123 237.614847 
L 150.586825 242.667578 
L 147.953319 247.806006 
L 145.483339 253.02501 
L 143.179346 258.319385 
L 141.043637 263.683856 
L 139.078342 269.113074 
L 137.285418 274.601628 
L 135.666654 280.144046 
L 134.223662 285.734804 
L 132.957882 291.368329 
L 131.870575 297.039004 
L 130.962825 302.741178 
L 130.235537 308.469166 
L 129.689435 314.217259 
L 129.325065 319.979726 
L 129.142789 325.750825 
L 129.142789 331.5248 
L 129.325065 337.295899 
L 129.689435 343.058366 
L 130.235537 348.806459 
L 130.962825 354.534447 
L 131.870575 360.236621 
L 132.957882 365.907296 
L 134.223662 371.540821 
L 135.666654 377.131579 
L 137.285418 382.673997 
L 139.078342 388.162551 
L 141.043637 393.591769 
L 143.179346 398.95624 
L 145.483339 404.250615 
L 147.953319 409.469619 
L 150.586825 414.608047 
L 153.38123 419.660778 
L 156.333751 424.622776 
L 159.441443 429.489094 
L 162.701208 434.254881 
L 166.109798 438.915387 
L 169.663814 443.465965 
L 173.359714 447.90208 
L 177.193814 452.219311 
L 181.162292 456.413352 
L 185.261191 460.480024 
L 189.486427 464.415273 
L 193.833786 468.215176 
L 198.298936 471.875945 
L 202.877426 475.393931 
L 207.564692 478.765628 
L 212.356061 481.987673 
L 217.246758 485.056857 
L 222.231906 487.970118 
L 227.306537 490.724554 
L 232.465593 493.317418 
L 237.70393 495.746126 
L 243.016327 498.008256 
L 248.397488 500.101555 
L 253.84205 502.023934 
L 259.344585 503.773479 
L 264.899608 505.348445 
L 270.501582 506.747261 
L 276.144922 507.968534 
L 281.824004 509.011047 
L 287.533165 509.873759 
L 293.266716 510.555812 
L 299.01894 511.056524 
L 304.784104 511.375398 
L 310.556461 511.512115 
L 316.330257 511.466539 
L 322.099737 511.238715 
L 327.859148 510.828871 
L 333.602752 510.237415 
L 339.324821 509.464936 
L 345.019652 508.512205 
L 350.681568 507.380171 
L 356.304926 506.069963 
L 361.884119 504.582886 
L 367.413587 502.920424 
L 372.887818 501.084233 
L 378.301354 499.076144 
L 383.6488 496.898158 
L 388.924824 494.552447 
L 394.124169 492.041348 
L 399.24165 489.367365 
L 404.272166 486.533163 
L 409.210704 483.541568 
L 414.05234 480.395561 
L 418.792248 477.098279 
L 423.425703 473.653008 
L 427.948087 470.063183 
L 432.354891 466.332382 
L 436.641723 462.464325 
L 440.804309 458.462866 
L 444.8385 454.331994 
L 448.740275 450.075828 
L 452.505744 445.69861 
L 456.131154 441.204703 
L 459.612891 436.598587 
L 462.947484 431.884853 
L 466.13161 427.0682 
L 469.162094 422.15343 
L 472.035915 417.145442 
L 474.750209 412.049227 
L 477.302269 406.869866 
L 479.689553 401.612521 
L 481.909681 396.282433 
L 483.960439 390.884916 
L 485.839782 385.42535 
L 487.545839 379.909177 
L 489.076908 374.341895 
L 490.431462 368.729054 
L 491.608152 363.07625 
L 492.605805 357.389117 
L 493.423426 351.673323 
L 494.060201 345.934568 
L 494.515493 340.17857 
L 494.788851 334.411069 
L 494.88 328.637813 
L 494.88 328.637813 
" clip-path="url(#pd848e5c823)" style="fill: none; stroke-dasharray: 9.25,4; stroke-dashoffset: 0; stroke: #ff0000; stroke-width: 2.5"/>
   </g>
   <g id="line2d_4">
    <path d="M 312 328.637812 
L 494.88 328.637812 
" clip-path="url(#pd848e5c823)" style="fill: none; stroke: #008000; stroke-width: 2.5; stroke-linecap: square"/>
   </g>
   <g id="text_1">
    <!-- R -->
    <g style="fill: #008000" transform="translate(391.248 353.021813) scale(0.16 -0.16)">
     <defs>
      <path id="DejaVuSans-Bold-52" d="M 2297 2597 
Q 2675 2597 2839 2737 
Q 3003 2878 3003 3200 
Q 3003 3519 2839 3656 
Q 2675 3794 2297 3794 
L 1791 3794 
L 1791 2597 
L 2297 2597 
z
M 1791 1766 
L 1791 0 
L 588 0 
L 588 4666 
L 2425 4666 
Q 3347 4666 3776 4356 
Q 4206 4047 4206 3378 
Q 4206 2916 3982 2619 
Q 3759 2322 3309 2181 
Q 3556 2125 3751 1926 
Q 3947 1728 4147 1325 
L 4800 0 
L 3519 0 
L 2950 1159 
Q 2778 1509 2601 1637 
Q 2425 1766 2131 1766 
L 1791 1766 
z
" transform="scale(0.015625)"/>
     </defs>
     <use xlink:href="#DejaVuSans-Bold-52"/>
    </g>
   </g>
   <g id="text_2">
    <g id="patch_6">
     <path d="M 220.56 90.893437 
L 265.70625 90.893437 
Q 269.30625 90.893437 269.30625 87.293437 
L 269.30625 75.679687 
Q 269.30625 72.079687 265.70625 72.079687 
L 220.56 72.079687 
Q 216.96 72.079687 216.96 75.679687 
L 216.96 87.293437 
Q 216.96 90.893437 220.56 90.893437 
z
" style="fill: #fde68a; stroke: #000000; stroke-linejoin: miter"/>
    </g>
    <!-- N=500 -->
    <g transform="translate(220.56 84.797812) scale(0.12 -0.12)">
     <defs>
      <path id="DejaVuSans-Bold-4e" d="M 588 4666 
L 1931 4666 
L 3628 1466 
L 3628 4666 
L 4769 4666 
L 4769 0 
L 3425 0 
L 1728 3200 
L 1728 0 
L 588 0 
L 588 4666 
z
" transform="scale(0.015625)"/>
      <path id="DejaVuSans-Bold-3d" d="M 678 3084 
L 4684 3084 
L 4684 2350 
L 678 2350 
L 678 3084 
z
M 678 1663 
L 4684 1663 
L 4684 922 
L 678 922 
L 678 1663 
z
" transform="scale(0.015625)"/>
      <path id="DejaVuSans-Bold-35" d="M 678 4666 
L 3669 4666 
L 3669 3781 
L 1638 3781 
L 1638 3059 
Q 1775 3097 1914 3117 
Q 2053 3138 2203 3138 
Q 3056 3138 3531 2711 
Q 4006 2284 4006 1522 
Q 4006 766 3489 337 
Q 2972 -91 2053 -91 
Q 1656 -91 1267 -14 
Q 878 63 494 219 
L 494 1166 
Q 875 947 1217 837 
Q 1559 728 1863 728 
Q 2300 728 2551 942 
Q 2803 1156 2803 1522 
Q 2803 1891 2551 2103 
Q 2300 2316 1863 2316 
Q 1603 2316 1309 2248 
Q 1016 2181 678 2041 
L 678 4666 
z
" transform="scale(0.015625)"/>
      <path id="DejaVuSans-Bold-30" d="M 2944 2338 
Q 2944 3213 2780 3570 
Q 2616 3928 2228 3928 
Q 1841 3928 1675 3570 
Q 1509 3213 1509 2338 
Q 1509 1453 1675 1090 
Q 1841 728 2228 728 
Q 2613 728 2778 1090 
Q 2944 1453 2944 2338 
z
M 4147 2328 
Q 4147 1169 3647 539 
Q 3147 -91 2228 -91 
Q 1306 -91 806 539 
Q 306 1169 306 2328 
Q 306 3491 806 4120 
Q 1306 4750 2228 4750 
Q 3147 4750 3647 4120 
Q 4147 3491 4147 2328 
z
" transform="scale(0.015625)"/>
     </defs>
     <use xlink:href="#DejaVuSans-Bold-4e"/>
     <use xlink:href="#DejaVuSans-Bold-3d" transform="translate(83.691406 0)"/>
     <use xlink:href="#DejaVuSans-Bold-35" transform="translate(167.480469 0)"/>
     <use xlink:href="#DejaVuSans-Bold-30" transform="translate(237.060547 0)"/>
     <use xlink:href="#DejaVuSans-Bold-30" transform="translate(306.640625 0)"/>
    </g>
   </g>
   <g id="text_3">
    <g id="patch_7">
     <path d="M 220.56 133.565438 
L 252.71625 133.565438 
Q 256.31625 133.565438 256.31625 129.965438 
L 256.31625 118.351688 
Q 256.31625 114.751688 252.71625 114.751688 
L 220.56 114.751688 
Q 216.96 114.751688 216.96 118.351688 
L 216.96 129.965438 
Q 216.96 133.565438 220.56 133.565438 
z
" style="fill: #ffffff; stroke: #000000; stroke-linejoin: miter"/>
    </g>
    <!-- I=3A -->
    <g transform="translate(220.56 127.469812) scale(0.12 -0.12)">
     <defs>
      <path id="DejaVuSans-Bold-49" d="M 588 4666 
L 1791 4666 
L 1791 0 
L 588 0 
L 588 4666 
z
" transform="scale(0.015625)"/>
      <path id="DejaVuSans-Bold-33" d="M 2981 2516 
Q 3453 2394 3698 2092 
Q 3944 1791 3944 1325 
Q 3944 631 3412 270 
Q 2881 -91 1863 -91 
Q 1503 -91 1142 -33 
Q 781 25 428 141 
L 428 1069 
Q 766 900 1098 814 
Q 1431 728 1753 728 
Q 2231 728 2486 893 
Q 2741 1059 2741 1369 
Q 2741 1688 2480 1852 
Q 2219 2016 1709 2016 
L 1228 2016 
L 1228 2791 
L 1734 2791 
Q 2188 2791 2409 2933 
Q 2631 3075 2631 3366 
Q 2631 3634 2415 3781 
Q 2200 3928 1806 3928 
Q 1516 3928 1219 3862 
Q 922 3797 628 3669 
L 628 4550 
Q 984 4650 1334 4700 
Q 1684 4750 2022 4750 
Q 2931 4750 3382 4451 
Q 3834 4153 3834 3553 
Q 3834 3144 3618 2883 
Q 3403 2622 2981 2516 
z
" transform="scale(0.015625)"/>
      <path id="DejaVuSans-Bold-41" d="M 3419 850 
L 1538 850 
L 1241 0 
L 31 0 
L 1759 4666 
L 3194 4666 
L 4922 0 
L 3713 0 
L 3419 850 
z
M 1838 1716 
L 3116 1716 
L 2478 3572 
L 1838 1716 
z
" transform="scale(0.015625)"/>
     </defs>
     <use xlink:href="#DejaVuSans-Bold-49"/>
     <use xlink:href="#DejaVuSans-Bold-3d" transform="translate(37.207031 0)"/>
     <use xlink:href="#DejaVuSans-Bold-33" transform="translate(120.996094 0)"/>
     <use xlink:href="#DejaVuSans-Bold-41" transform="translate(190.576172 0)"/>
    </g>
   </g>
   <g id="text_4">
    <g id="patch_8">
     <path d="M 220.56 176.237437 
L 273.616875 176.237437 
Q 277.216875 176.237437 277.216875 172.637437 
L 277.216875 161.023687 
Q 277.216875 157.423687 273.616875 157.423687 
L 220.56 157.423687 
Q 216.96 157.423687 216.96 161.023687 
L 216.96 172.637437 
Q 216.96 176.237437 220.56 176.237437 
z
" style="fill: #ffffff; stroke: #000000; stroke-linejoin: miter"/>
    </g>
    <!-- R=0.2m -->
    <g transform="translate(220.56 170.141812) scale(0.12 -0.12)">
     <defs>
      <path id="DejaVuSans-Bold-2e" d="M 653 1209 
L 1778 1209 
L 1778 0 
L 653 0 
L 653 1209 
z
" transform="scale(0.015625)"/>
      <path id="DejaVuSans-Bold-32" d="M 1844 884 
L 3897 884 
L 3897 0 
L 506 0 
L 506 884 
L 2209 2388 
Q 2438 2594 2547 2791 
Q 2656 2988 2656 3200 
Q 2656 3528 2436 3728 
Q 2216 3928 1850 3928 
Q 1569 3928 1234 3808 
Q 900 3688 519 3450 
L 519 4475 
Q 925 4609 1322 4679 
Q 1719 4750 2100 4750 
Q 2938 4750 3402 4381 
Q 3866 4013 3866 3353 
Q 3866 2972 3669 2642 
Q 3472 2313 2841 1759 
L 1844 884 
z
" transform="scale(0.015625)"/>
      <path id="DejaVuSans-Bold-6d" d="M 3781 2919 
Q 3994 3244 4286 3414 
Q 4578 3584 4928 3584 
Q 5531 3584 5847 3212 
Q 6163 2841 6163 2131 
L 6163 0 
L 5038 0 
L 5038 1825 
Q 5041 1866 5042 1909 
Q 5044 1953 5044 2034 
Q 5044 2406 4934 2573 
Q 4825 2741 4581 2741 
Q 4263 2741 4089 2478 
Q 3916 2216 3909 1719 
L 3909 0 
L 2784 0 
L 2784 1825 
Q 2784 2406 2684 2573 
Q 2584 2741 2328 2741 
Q 2006 2741 1831 2477 
Q 1656 2213 1656 1722 
L 1656 0 
L 531 0 
L 531 3500 
L 1656 3500 
L 1656 2988 
Q 1863 3284 2130 3434 
Q 2397 3584 2719 3584 
Q 3081 3584 3359 3409 
Q 3638 3234 3781 2919 
z
" transform="scale(0.015625)"/>
     </defs>
     <use xlink:href="#DejaVuSans-Bold-52"/>
     <use xlink:href="#DejaVuSans-Bold-3d" transform="translate(77.001953 0)"/>
     <use xlink:href="#DejaVuSans-Bold-30" transform="translate(160.791016 0)"/>
     <use xlink:href="#DejaVuSans-Bold-2e" transform="translate(230.371094 0)"/>
     <use xlink:href="#DejaVuSans-Bold-32" transform="translate(268.359375 0)"/>
     <use xlink:href="#DejaVuSans-Bold-6d" transform="translate(337.939453 0)"/>
    </g>
   </g>
   <g id="text_5">
    <!-- I -->
    <g style="fill: #0000ff" transform="translate(555.84 249.389812) scale(0.14 -0.14)">
     <use xlink:href="#DejaVuSans-Bold-49"/>
    </g>
   </g>
   <g id="text_6">
    <!-- Toroid Field -->
    <g transform="translate(265.895156 17.837812) scale(0.14 -0.14)">
     <defs>
      <path id="DejaVuSans-Bold-54" d="M 31 4666 
L 4331 4666 
L 4331 3756 
L 2784 3756 
L 2784 0 
L 1581 0 
L 1581 3756 
L 31 3756 
L 31 4666 
z
" transform="scale(0.015625)"/>
      <path id="DejaVuSans-Bold-6f" d="M 2203 2784 
Q 1831 2784 1636 2517 
Q 1441 2250 1441 1747 
Q 1441 1244 1636 976 
Q 1831 709 2203 709 
Q 2569 709 2762 976 
Q 2956 1244 2956 1747 
Q 2956 2250 2762 2517 
Q 2569 2784 2203 2784 
z
M 2203 3584 
Q 3106 3584 3614 3096 
Q 4122 2609 4122 1747 
Q 4122 884 3614 396 
Q 3106 -91 2203 -91 
Q 1297 -91 786 396 
Q 275 884 275 1747 
Q 275 2609 786 3096 
Q 1297 3584 2203 3584 
z
" transform="scale(0.015625)"/>
      <path id="DejaVuSans-Bold-72" d="M 3138 2547 
Q 2991 2616 2845 2648 
Q 2700 2681 2553 2681 
Q 2122 2681 1889 2404 
Q 1656 2128 1656 1613 
L 1656 0 
L 538 0 
L 538 3500 
L 1656 3500 
L 1656 2925 
Q 1872 3269 2151 3426 
Q 2431 3584 2822 3584 
Q 2878 3584 2943 3579 
Q 3009 3575 3134 3559 
L 3138 2547 
z
" transform="scale(0.015625)"/>
      <path id="DejaVuSans-Bold-69" d="M 538 3500 
L 1656 3500 
L 1656 0 
L 538 0 
L 538 3500 
z
M 538 4863 
L 1656 4863 
L 1656 3950 
L 538 3950 
L 538 4863 
z
" transform="scale(0.015625)"/>
      <path id="DejaVuSans-Bold-64" d="M 2919 2988 
L 2919 4863 
L 4044 4863 
L 4044 0 
L 2919 0 
L 2919 506 
Q 2688 197 2409 53 
Q 2131 -91 1766 -91 
Q 1119 -91 703 423 
Q 288 938 288 1747 
Q 288 2556 703 3070 
Q 1119 3584 1766 3584 
Q 2128 3584 2408 3439 
Q 2688 3294 2919 2988 
z
M 2181 722 
Q 2541 722 2730 984 
Q 2919 1247 2919 1747 
Q 2919 2247 2730 2509 
Q 2541 2772 2181 2772 
Q 1825 2772 1636 2509 
Q 1447 2247 1447 1747 
Q 1447 1247 1636 984 
Q 1825 722 2181 722 
z
" transform="scale(0.015625)"/>
      <path id="DejaVuSans-Bold-20" transform="scale(0.015625)"/>
      <path id="DejaVuSans-Bold-46" d="M 588 4666 
L 3834 4666 
L 3834 3756 
L 1791 3756 
L 1791 2888 
L 3713 2888 
L 3713 1978 
L 1791 1978 
L 1791 0 
L 588 0 
L 588 4666 
z
" transform="scale(0.015625)"/>
      <path id="DejaVuSans-Bold-65" d="M 4031 1759 
L 4031 1441 
L 1416 1441 
Q 1456 1047 1700 850 
Q 1944 653 2381 653 
Q 2734 653 3104 758 
Q 3475 863 3866 1075 
L 3866 213 
Q 3469 63 3072 -14 
Q 2675 -91 2278 -91 
Q 1328 -91 801 392 
Q 275 875 275 1747 
Q 275 2603 792 3093 
Q 1309 3584 2216 3584 
Q 3041 3584 3536 3087 
Q 4031 2591 4031 1759 
z
M 2881 2131 
Q 2881 2450 2695 2645 
Q 2509 2841 2209 2841 
Q 1884 2841 1681 2658 
Q 1478 2475 1428 2131 
L 2881 2131 
z
" transform="scale(0.015625)"/>
      <path id="DejaVuSans-Bold-6c" d="M 538 4863 
L 1656 4863 
L 1656 0 
L 538 0 
L 538 4863 
z
" transform="scale(0.015625)"/>
     </defs>
     <use xlink:href="#DejaVuSans-Bold-54"/>
     <use xlink:href="#DejaVuSans-Bold-6f" transform="translate(54.962891 0)"/>
     <use xlink:href="#DejaVuSans-Bold-72" transform="translate(123.664062 0)"/>
     <use xlink:href="#DejaVuSans-Bold-6f" transform="translate(172.980469 0)"/>
     <use xlink:href="#DejaVuSans-Bold-69" transform="translate(241.681641 0)"/>
     <use xlink:href="#DejaVuSans-Bold-64" transform="translate(275.958984 0)"/>
     <use xlink:href="#DejaVuSans-Bold-20" transform="translate(347.541016 0)"/>
     <use xlink:href="#DejaVuSans-Bold-46" transform="translate(382.355469 0)"/>
     <use xlink:href="#DejaVuSans-Bold-69" transform="translate(450.666016 0)"/>
     <use xlink:href="#DejaVuSans-Bold-65" transform="translate(484.943359 0)"/>
     <use xlink:href="#DejaVuSans-Bold-6c" transform="translate(552.765625 0)"/>
     <use xlink:href="#DejaVuSans-Bold-64" transform="translate(587.042969 0)"/>
    </g>
   </g>
  </g>
 </g>
 <defs>
  <clipPath id="pd848e5c823">
   <rect x="7.2" y="23.837812" width="609.6" height="609.6"/>
  </clipPath>
 </defs>
</svg>
