<?xml version="1.0" encoding="utf-8" standalone="no"?>
<!DOCTYPE svg PUBLIC "-//W3C//DTD SVG 1.1//EN"
  "http://www.w3.org/Graphics/SVG/1.1/DTD/svg11.dtd">
<svg xmlns:xlink="http://www.w3.org/1999/xlink" width="712.8pt" height="554.837812pt" viewBox="0 0 712.8 554.837812" xmlns="http://www.w3.org/2000/svg" version="1.1">
 <metadata>
  <rdf:RDF xmlns:dc="http://purl.org/dc/elements/1.1/" xmlns:cc="http://creativecommons.org/ns#" xmlns:rdf="http://www.w3.org/1999/02/22-rdf-syntax-ns#">
   <cc:Work>
    <dc:type rdf:resource="http://purl.org/dc/dcmitype/StillImage"/>
    <dc:date>2025-12-13T21:01:33.355398</dc:date>
    <dc:format>image/svg+xml</dc:format>
    <dc:creator>
     <cc:Agent>
      <dc:title>Matplotlib v3.10.7, https://matplotlib.org/</dc:title>
     </cc:Agent>
    </dc:creator>
   </cc:Work>
  </rdf:RDF>
 </metadata>
 <defs>
  <style type="text/css">*{stroke-linejoin: round; stroke-linecap: butt}</style>
 </defs>
 <g id="figure_1">
  <g id="patch_1">
   <path d="M 0 554.837812 
L 712.8 554.837812 
L 712.8 0 
L 0 0 
z
" style="fill: #ffffff"/>
  </g>
  <g id="axes_1">
   <g id="patch_2">
    <path d="M 138.15 455.972812 
L 129.42 442.877812 
L 138.10635 442.877812 
L 138.10635 373.037812 
L 138.19365 373.037812 
L 138.19365 442.877812 
L 146.88 442.877812 
z
" clip-path="url(#p2274138c48)" style="fill: #ffa500; stroke: #ffa500; stroke-width: 2.5; stroke-linejoin: miter"/>
   </g>
   <g id="patch_3">
    <path d="M 574.65 455.972812 
L 565.92 442.877812 
L 574.60635 442.877812 
L 574.60635 373.037812 
L 574.69365 373.037812 
L 574.69365 442.877812 
L 583.38 442.877812 
z
" clip-path="url(#p2274138c48)" style="fill: #ffa500; stroke: #ffa500; stroke-width: 2.5; stroke-linejoin: miter"/>
   </g>
   <g id="line2d_1">
    <path d="M 574.65 373.037812 
L 574.54012 366.113191 
L 574.210592 359.195542 
L 573.661747 352.291831 
L 572.894138 345.40901 
L 571.908537 338.554008 
L 570.705938 331.733728 
L 569.287551 324.955039 
L 567.654804 318.224764 
L 565.809341 311.549682 
L 563.753021 304.936513 
L 561.487914 298.391916 
L 559.016301 291.922482 
L 556.340671 285.534723 
L 553.463717 279.235073 
L 550.388337 273.029874 
L 547.117627 266.925375 
L 543.65488 260.927722 
L 540.003584 255.042954 
L 536.167414 249.276997 
L 532.150234 243.635657 
L 527.956088 238.124614 
L 523.5892 232.749417 
L 519.053966 227.515478 
L 514.354954 222.428068 
L 509.496894 217.49231 
L 504.484679 212.713172 
L 499.323355 208.095468 
L 494.01812 203.643847 
L 488.574314 199.362791 
L 482.997421 195.256611 
L 477.293054 191.329442 
L 471.466958 187.585237 
L 465.525 184.027768 
L 459.473162 180.660616 
L 453.317538 177.487171 
L 447.064327 174.51063 
L 440.719824 171.733988 
L 434.290418 169.160042 
L 427.782583 166.791384 
L 421.202872 164.630398 
L 414.55791 162.679261 
L 407.854388 160.939938 
L 401.099055 159.414179 
L 394.298715 158.10352 
L 387.460213 157.009283 
L 380.590437 156.132568 
L 373.696303 155.474258 
L 366.784753 155.035016 
L 359.862747 154.815284 
L 352.937253 154.815284 
L 346.015247 155.035016 
L 339.103697 155.474258 
L 332.209563 156.132568 
L 325.339787 157.009283 
L 318.501285 158.10352 
L 311.700945 159.414179 
L 304.945612 160.939938 
L 298.24209 162.679261 
L 291.597128 164.630398 
L 285.017417 166.791384 
L 278.509582 169.160042 
L 272.080176 171.733988 
L 265.735673 174.51063 
L 259.482462 177.487171 
L 253.326838 180.660616 
L 247.275 184.027768 
L 241.333042 187.585237 
L 235.506946 191.329442 
L 229.802579 195.256611 
L 224.225686 199.362791 
L 218.78188 203.643847 
L 213.476645 208.095468 
L 208.315321 212.713172 
L 203.303106 217.49231 
L 198.445046 222.428068 
L 193.746034 227.515478 
L 189.2108 232.749417 
L 184.843912 238.124614 
L 180.649766 243.635657 
L 176.632586 249.276997 
L 172.796416 255.042954 
L 169.14512 260.927722 
L 165.682373 266.925375 
L 162.411663 273.029874 
L 159.336283 279.235073 
L 156.459329 285.534723 
L 153.783699 291.922482 
L 151.312086 298.391916 
L 149.046979 304.936513 
L 146.990659 311.549682 
L 145.145196 318.224764 
L 143.512449 324.955039 
L 142.094062 331.733728 
L 140.891463 338.554008 
L 139.905862 345.40901 
L 139.138253 352.291831 
L 138.589408 359.195542 
L 138.25988 366.113191 
L 138.15 373.037812 
" clip-path="url(#p2274138c48)" style="fill: none; stroke: #6b46c1; stroke-width: 4; stroke-linecap: square"/>
   </g>
   <g id="line2d_2">
    <defs>
     <path id="m329fd57b08" d="M 0 7.5 
C 1.989023 7.5 3.896849 6.709753 5.303301 5.303301 
C 6.709753 3.896849 7.5 1.989023 7.5 0 
C 7.5 -1.989023 6.709753 -3.896849 5.303301 -5.303301 
C 3.896849 -6.709753 1.989023 -7.5 0 -7.5 
C -1.989023 -7.5 -3.896849 -6.709753 -5.303301 -5.303301 
C -6.709753 -3.896849 -7.5 -1.989023 -7.5 0 
C -7.5 1.989023 -6.709753 3.896849 -5.303301 5.303301 
C -3.896849 6.709753 -1.989023 7.5 0 7.5 
z
" style="stroke: #ff0000"/>
    </defs>
    <g clip-path="url(#p2274138c48)">
     <use xlink:href="#m329fd57b08" x="356.4" y="373.037812" style="fill: #ff0000; stroke: #ff0000"/>
    </g>
   </g>
   <g id="line2d_3">
    <path d="M 356.4 373.037812 
L 574.65 373.037812 
" clip-path="url(#p2274138c48)" style="fill: none; stroke-dasharray: 7.4,3.2; stroke-dashoffset: 0; stroke: #008000; stroke-width: 2"/>
   </g>
   <g id="line2d_4">
    <defs>
     <path id="m106adeabf7" d="M -10 10 
L 10 -10 
M -10 -10 
L 10 10 
" style="stroke: #d946ef; stroke-width: 3"/>
    </defs>
    <g clip-path="url(#p2274138c48)">
     <use xlink:href="#m106adeabf7" x="356.4" y="373.037812" style="fill: #d946ef; stroke: #d946ef; stroke-width: 3"/>
    </g>
   </g>
   <g id="text_1">
    <!-- I -->
    <g style="fill: #ffa500" transform="translate(94.5 477.797812) scale(0.16 -0.16)">
     <defs>
      <path id="DejaVuSans-Bold-49" d="M 588 4666 
L 1791 4666 
L 1791 0 
L 588 0 
L 588 4666 
z
" transform="scale(0.015625)"/>
     </defs>
     <use xlink:href="#DejaVuSans-Bold-49"/>
    </g>
   </g>
   <g id="text_2">
    <!-- I -->
    <g style="fill: #ffa500" transform="translate(600.84 477.797812) scale(0.16 -0.16)">
     <use xlink:href="#DejaVuSans-Bold-49"/>
    </g>
   </g>
   <g id="text_3">
    <!-- O -->
    <g style="fill: #ff0000" transform="translate(382.59 399.227812) scale(0.12 -0.12)">
     <defs>
      <path id="DejaVuSans-Bold-4f" d="M 2719 3878 
Q 2169 3878 1866 3472 
Q 1563 3066 1563 2328 
Q 1563 1594 1866 1187 
Q 2169 781 2719 781 
Q 3272 781 3575 1187 
Q 3878 1594 3878 2328 
Q 3878 3066 3575 3472 
Q 3272 3878 2719 3878 
z
M 2719 4750 
Q 3844 4750 4481 4106 
Q 5119 3463 5119 2328 
Q 5119 1197 4481 553 
Q 3844 -91 2719 -91 
Q 1597 -91 958 553 
Q 319 1197 319 2328 
Q 319 3463 958 4106 
Q 1597 4750 2719 4750 
z
" transform="scale(0.015625)"/>
     </defs>
     <use xlink:href="#DejaVuSans-Bold-4f"/>
    </g>
   </g>
   <g id="text_4">
    <!-- R -->
    <g style="fill: #008000" transform="translate(443.7 407.957812) scale(0.14 -0.14)">
     <defs>
      <path id="DejaVuSans-Bold-52" d="M 2297 2597 
Q 2675 2597 2839 2737 
Q 3003 2878 3003 3200 
Q 3003 3519 2839 3656 
Q 2675 3794 2297 3794 
L 1791 3794 
L 1791 2597 
L 2297 2597 
z
M 1791 1766 
L 1791 0 
L 588 0 
L 588 4666 
L 2425 4666 
Q 3347 4666 3776 4356 
Q 4206 4047 4206 3378 
Q 4206 2916 3982 2619 
Q 3759 2322 3309 2181 
Q 3556 2125 3751 1926 
Q 3947 1728 4147 1325 
L 4800 0 
L 3519 0 
L 2950 1159 
Q 2778 1509 2601 1637 
Q 2425 1766 2131 1766 
L 1791 1766 
z
" transform="scale(0.015625)"/>
     </defs>
     <use xlink:href="#DejaVuSans-Bold-52"/>
    </g>
   </g>
   <g id="text_5">
    <!-- B(in) -->
    <g style="fill: #d946ef" transform="translate(391.32 338.117813) scale(0.14 -0.14)">
     <defs>
      <path id="DejaVuSans-Bold-42" d="M 2456 2859 
Q 2741 2859 2887 2984 
Q 3034 3109 3034 3353 
Q 3034 3594 2887 3720 
Q 2741 3847 2456 3847 
L 1791 3847 
L 1791 2859 
L 2456 2859 
z
M 2497 819 
Q 2859 819 3042 972 
Q 3225 1125 3225 1434 
Q 3225 1738 3044 1889 
Q 2863 2041 2497 2041 
L 1791 2041 
L 1791 819 
L 2497 819 
z
M 3616 2497 
Q 4003 2384 4215 2081 
Q 4428 1778 4428 1338 
Q 4428 663 3972 331 
Q 3516 0 2584 0 
L 588 0 
L 588 4666 
L 2394 4666 
Q 3366 4666 3802 4372 
Q 4238 4078 4238 3431 
Q 4238 3091 4078 2852 
Q 3919 2613 3616 2497 
z
" transform="scale(0.015625)"/>
      <path id="DejaVuSans-Bold-28" d="M 2413 -844 
L 1484 -844 
Q 1006 -72 778 623 
Q 550 1319 550 2003 
Q 550 2688 779 3389 
Q 1009 4091 1484 4856 
L 2413 4856 
Q 2013 4116 1813 3408 
Q 1613 2700 1613 2009 
Q 1613 1319 1811 609 
Q 2009 -100 2413 -844 
z
" transform="scale(0.015625)"/>
      <path id="DejaVuSans-Bold-69" d="M 538 3500 
L 1656 3500 
L 1656 0 
L 538 0 
L 538 3500 
z
M 538 4863 
L 1656 4863 
L 1656 3950 
L 538 3950 
L 538 4863 
z
" transform="scale(0.015625)"/>
      <path id="DejaVuSans-Bold-6e" d="M 4056 2131 
L 4056 0 
L 2931 0 
L 2931 347 
L 2931 1631 
Q 2931 2084 2911 2256 
Q 2891 2428 2841 2509 
Q 2775 2619 2662 2680 
Q 2550 2741 2406 2741 
Q 2056 2741 1856 2470 
Q 1656 2200 1656 1722 
L 1656 0 
L 538 0 
L 538 3500 
L 1656 3500 
L 1656 2988 
Q 1909 3294 2193 3439 
Q 2478 3584 2822 3584 
Q 3428 3584 3742 3212 
Q 4056 2841 4056 2131 
z
" transform="scale(0.015625)"/>
      <path id="DejaVuSans-Bold-29" d="M 513 -844 
Q 913 -100 1113 609 
Q 1313 1319 1313 2009 
Q 1313 2700 1113 3408 
Q 913 4116 513 4856 
L 1441 4856 
Q 1916 4091 2145 3389 
Q 2375 2688 2375 2003 
Q 2375 1319 2147 623 
Q 1919 -72 1441 -844 
L 513 -844 
z
" transform="scale(0.015625)"/>
     </defs>
     <use xlink:href="#DejaVuSans-Bold-42"/>
     <use xlink:href="#DejaVuSans-Bold-28" transform="translate(76.220703 0)"/>
     <use xlink:href="#DejaVuSans-Bold-69" transform="translate(121.923828 0)"/>
     <use xlink:href="#DejaVuSans-Bold-6e" transform="translate(156.201172 0)"/>
     <use xlink:href="#DejaVuSans-Bold-29" transform="translate(227.392578 0)"/>
    </g>
   </g>
   <g id="text_6">
    <g id="patch_4">
     <path d="M 94.5 117.233438 
L 126.65625 117.233438 
Q 130.25625 117.233438 130.25625 113.633438 
L 130.25625 102.019688 
Q 130.25625 98.419688 126.65625 98.419688 
L 94.5 98.419688 
Q 90.9 98.419688 90.9 102.019688 
L 90.9 113.633438 
Q 90.9 117.233438 94.5 117.233438 
z
" style="fill: #fde68a; stroke: #000000; stroke-linejoin: miter"/>
    </g>
    <!-- I=8A -->
    <g transform="translate(94.5 111.137812) scale(0.12 -0.12)">
     <defs>
      <path id="DejaVuSans-Bold-3d" d="M 678 3084 
L 4684 3084 
L 4684 2350 
L 678 2350 
L 678 3084 
z
M 678 1663 
L 4684 1663 
L 4684 922 
L 678 922 
L 678 1663 
z
" transform="scale(0.015625)"/>
      <path id="DejaVuSans-Bold-38" d="M 2228 2088 
Q 1891 2088 1709 1903 
Q 1528 1719 1528 1375 
Q 1528 1031 1709 848 
Q 1891 666 2228 666 
Q 2563 666 2741 848 
Q 2919 1031 2919 1375 
Q 2919 1722 2741 1905 
Q 2563 2088 2228 2088 
z
M 1350 2484 
Q 925 2613 709 2878 
Q 494 3144 494 3541 
Q 494 4131 934 4440 
Q 1375 4750 2228 4750 
Q 3075 4750 3515 4442 
Q 3956 4134 3956 3541 
Q 3956 3144 3739 2878 
Q 3522 2613 3097 2484 
Q 3572 2353 3814 2058 
Q 4056 1763 4056 1313 
Q 4056 619 3595 264 
Q 3134 -91 2228 -91 
Q 1319 -91 855 264 
Q 391 619 391 1313 
Q 391 1763 633 2058 
Q 875 2353 1350 2484 
z
M 1631 3419 
Q 1631 3141 1786 2991 
Q 1941 2841 2228 2841 
Q 2509 2841 2662 2991 
Q 2816 3141 2816 3419 
Q 2816 3697 2662 3845 
Q 2509 3994 2228 3994 
Q 1941 3994 1786 3844 
Q 1631 3694 1631 3419 
z
" transform="scale(0.015625)"/>
      <path id="DejaVuSans-Bold-41" d="M 3419 850 
L 1538 850 
L 1241 0 
L 31 0 
L 1759 4666 
L 3194 4666 
L 4922 0 
L 3713 0 
L 3419 850 
z
M 1838 1716 
L 3116 1716 
L 2478 3572 
L 1838 1716 
z
" transform="scale(0.015625)"/>
     </defs>
     <use xlink:href="#DejaVuSans-Bold-49"/>
     <use xlink:href="#DejaVuSans-Bold-3d" transform="translate(37.207031 0)"/>
     <use xlink:href="#DejaVuSans-Bold-38" transform="translate(120.996094 0)"/>
     <use xlink:href="#DejaVuSans-Bold-41" transform="translate(190.576172 0)"/>
    </g>
   </g>
   <g id="text_7">
    <g id="patch_5">
     <path d="M 94.5 178.343438 
L 147.556875 178.343438 
Q 151.156875 178.343438 151.156875 174.743438 
L 151.156875 163.129688 
Q 151.156875 159.529688 147.556875 159.529688 
L 94.5 159.529688 
Q 90.9 159.529688 90.9 163.129688 
L 90.9 174.743438 
Q 90.9 178.343438 94.5 178.343438 
z
" style="fill: #ffffff; stroke: #000000; stroke-linejoin: miter"/>
    </g>
    <!-- R=0.1m -->
    <g transform="translate(94.5 172.247813) scale(0.12 -0.12)">
     <defs>
      <path id="DejaVuSans-Bold-30" d="M 2944 2338 
Q 2944 3213 2780 3570 
Q 2616 3928 2228 3928 
Q 1841 3928 1675 3570 
Q 1509 3213 1509 2338 
Q 1509 1453 1675 1090 
Q 1841 728 2228 728 
Q 2613 728 2778 1090 
Q 2944 1453 2944 2338 
z
M 4147 2328 
Q 4147 1169 3647 539 
Q 3147 -91 2228 -91 
Q 1306 -91 806 539 
Q 306 1169 306 2328 
Q 306 3491 806 4120 
Q 1306 4750 2228 4750 
Q 3147 4750 3647 4120 
Q 4147 3491 4147 2328 
z
" transform="scale(0.015625)"/>
      <path id="DejaVuSans-Bold-2e" d="M 653 1209 
L 1778 1209 
L 1778 0 
L 653 0 
L 653 1209 
z
" transform="scale(0.015625)"/>
      <path id="DejaVuSans-Bold-31" d="M 750 831 
L 1813 831 
L 1813 3847 
L 722 3622 
L 722 4441 
L 1806 4666 
L 2950 4666 
L 2950 831 
L 4013 831 
L 4013 0 
L 750 0 
L 750 831 
z
" transform="scale(0.015625)"/>
      <path id="DejaVuSans-Bold-6d" d="M 3781 2919 
Q 3994 3244 4286 3414 
Q 4578 3584 4928 3584 
Q 5531 3584 5847 3212 
Q 6163 2841 6163 2131 
L 6163 0 
L 5038 0 
L 5038 1825 
Q 5041 1866 5042 1909 
Q 5044 1953 5044 2034 
Q 5044 2406 4934 2573 
Q 4825 2741 4581 2741 
Q 4263 2741 4089 2478 
Q 3916 2216 3909 1719 
L 3909 0 
L 2784 0 
L 2784 1825 
Q 2784 2406 2684 2573 
Q 2584 2741 2328 2741 
Q 2006 2741 1831 2477 
Q 1656 2213 1656 1722 
L 1656 0 
L 531 0 
L 531 3500 
L 1656 3500 
L 1656 2988 
Q 1863 3284 2130 3434 
Q 2397 3584 2719 3584 
Q 3081 3584 3359 3409 
Q 3638 3234 3781 2919 
z
" transform="scale(0.015625)"/>
     </defs>
     <use xlink:href="#DejaVuSans-Bold-52"/>
     <use xlink:href="#DejaVuSans-Bold-3d" transform="translate(77.001953 0)"/>
     <use xlink:href="#DejaVuSans-Bold-30" transform="translate(160.791016 0)"/>
     <use xlink:href="#DejaVuSans-Bold-2e" transform="translate(230.371094 0)"/>
     <use xlink:href="#DejaVuSans-Bold-31" transform="translate(268.359375 0)"/>
     <use xlink:href="#DejaVuSans-Bold-6d" transform="translate(337.939453 0)"/>
    </g>
   </g>
   <g id="text_8">
    <!-- Semi-circular Arc -->
    <g transform="translate(288.846719 17.837812) scale(0.14 -0.14)">
     <defs>
      <path id="DejaVuSans-Bold-53" d="M 3834 4519 
L 3834 3531 
Q 3450 3703 3084 3790 
Q 2719 3878 2394 3878 
Q 1963 3878 1756 3759 
Q 1550 3641 1550 3391 
Q 1550 3203 1689 3098 
Q 1828 2994 2194 2919 
L 2706 2816 
Q 3484 2659 3812 2340 
Q 4141 2022 4141 1434 
Q 4141 663 3683 286 
Q 3225 -91 2284 -91 
Q 1841 -91 1394 -6 
Q 947 78 500 244 
L 500 1259 
Q 947 1022 1364 901 
Q 1781 781 2169 781 
Q 2563 781 2772 912 
Q 2981 1044 2981 1288 
Q 2981 1506 2839 1625 
Q 2697 1744 2272 1838 
L 1806 1941 
Q 1106 2091 782 2419 
Q 459 2747 459 3303 
Q 459 4000 909 4375 
Q 1359 4750 2203 4750 
Q 2588 4750 2994 4692 
Q 3400 4634 3834 4519 
z
" transform="scale(0.015625)"/>
      <path id="DejaVuSans-Bold-65" d="M 4031 1759 
L 4031 1441 
L 1416 1441 
Q 1456 1047 1700 850 
Q 1944 653 2381 653 
Q 2734 653 3104 758 
Q 3475 863 3866 1075 
L 3866 213 
Q 3469 63 3072 -14 
Q 2675 -91 2278 -91 
Q 1328 -91 801 392 
Q 275 875 275 1747 
Q 275 2603 792 3093 
Q 1309 3584 2216 3584 
Q 3041 3584 3536 3087 
Q 4031 2591 4031 1759 
z
M 2881 2131 
Q 2881 2450 2695 2645 
Q 2509 2841 2209 2841 
Q 1884 2841 1681 2658 
Q 1478 2475 1428 2131 
L 2881 2131 
z
" transform="scale(0.015625)"/>
      <path id="DejaVuSans-Bold-2d" d="M 347 2297 
L 2309 2297 
L 2309 1388 
L 347 1388 
L 347 2297 
z
" transform="scale(0.015625)"/>
      <path id="DejaVuSans-Bold-63" d="M 3366 3391 
L 3366 2478 
Q 3138 2634 2908 2709 
Q 2678 2784 2431 2784 
Q 1963 2784 1702 2511 
Q 1441 2238 1441 1747 
Q 1441 1256 1702 982 
Q 1963 709 2431 709 
Q 2694 709 2930 787 
Q 3166 866 3366 1019 
L 3366 103 
Q 3103 6 2833 -42 
Q 2563 -91 2291 -91 
Q 1344 -91 809 395 
Q 275 881 275 1747 
Q 275 2613 809 3098 
Q 1344 3584 2291 3584 
Q 2566 3584 2833 3536 
Q 3100 3488 3366 3391 
z
" transform="scale(0.015625)"/>
      <path id="DejaVuSans-Bold-72" d="M 3138 2547 
Q 2991 2616 2845 2648 
Q 2700 2681 2553 2681 
Q 2122 2681 1889 2404 
Q 1656 2128 1656 1613 
L 1656 0 
L 538 0 
L 538 3500 
L 1656 3500 
L 1656 2925 
Q 1872 3269 2151 3426 
Q 2431 3584 2822 3584 
Q 2878 3584 2943 3579 
Q 3009 3575 3134 3559 
L 3138 2547 
z
" transform="scale(0.015625)"/>
      <path id="DejaVuSans-Bold-75" d="M 500 1363 
L 500 3500 
L 1625 3500 
L 1625 3150 
Q 1625 2866 1622 2436 
Q 1619 2006 1619 1863 
Q 1619 1441 1641 1255 
Q 1663 1069 1716 984 
Q 1784 875 1895 815 
Q 2006 756 2150 756 
Q 2500 756 2700 1025 
Q 2900 1294 2900 1772 
L 2900 3500 
L 4019 3500 
L 4019 0 
L 2900 0 
L 2900 506 
Q 2647 200 2364 54 
Q 2081 -91 1741 -91 
Q 1134 -91 817 281 
Q 500 653 500 1363 
z
" transform="scale(0.015625)"/>
      <path id="DejaVuSans-Bold-6c" d="M 538 4863 
L 1656 4863 
L 1656 0 
L 538 0 
L 538 4863 
z
" transform="scale(0.015625)"/>
      <path id="DejaVuSans-Bold-61" d="M 2106 1575 
Q 1756 1575 1579 1456 
Q 1403 1338 1403 1106 
Q 1403 894 1545 773 
Q 1688 653 1941 653 
Q 2256 653 2472 879 
Q 2688 1106 2688 1447 
L 2688 1575 
L 2106 1575 
z
M 3816 1997 
L 3816 0 
L 2688 0 
L 2688 519 
Q 2463 200 2181 54 
Q 1900 -91 1497 -91 
Q 953 -91 614 226 
Q 275 544 275 1050 
Q 275 1666 698 1953 
Q 1122 2241 2028 2241 
L 2688 2241 
L 2688 2328 
Q 2688 2594 2478 2717 
Q 2269 2841 1825 2841 
Q 1466 2841 1156 2769 
Q 847 2697 581 2553 
L 581 3406 
Q 941 3494 1303 3539 
Q 1666 3584 2028 3584 
Q 2975 3584 3395 3211 
Q 3816 2838 3816 1997 
z
" transform="scale(0.015625)"/>
      <path id="DejaVuSans-Bold-20" transform="scale(0.015625)"/>
     </defs>
     <use xlink:href="#DejaVuSans-Bold-53"/>
     <use xlink:href="#DejaVuSans-Bold-65" transform="translate(72.021484 0)"/>
     <use xlink:href="#DejaVuSans-Bold-6d" transform="translate(139.84375 0)"/>
     <use xlink:href="#DejaVuSans-Bold-69" transform="translate(244.042969 0)"/>
     <use xlink:href="#DejaVuSans-Bold-2d" transform="translate(278.320312 0)"/>
     <use xlink:href="#DejaVuSans-Bold-63" transform="translate(319.824219 0)"/>
     <use xlink:href="#DejaVuSans-Bold-69" transform="translate(379.101562 0)"/>
     <use xlink:href="#DejaVuSans-Bold-72" transform="translate(413.378906 0)"/>
     <use xlink:href="#DejaVuSans-Bold-63" transform="translate(462.695312 0)"/>
     <use xlink:href="#DejaVuSans-Bold-75" transform="translate(521.972656 0)"/>
     <use xlink:href="#DejaVuSans-Bold-6c" transform="translate(593.164062 0)"/>
     <use xlink:href="#DejaVuSans-Bold-61" transform="translate(627.441406 0)"/>
     <use xlink:href="#DejaVuSans-Bold-72" transform="translate(694.921875 0)"/>
     <use xlink:href="#DejaVuSans-Bold-20" transform="translate(744.238281 0)"/>
     <use xlink:href="#DejaVuSans-Bold-41" transform="translate(779.052734 0)"/>
     <use xlink:href="#DejaVuSans-Bold-72" transform="translate(856.445312 0)"/>
     <use xlink:href="#DejaVuSans-Bold-63" transform="translate(905.761719 0)"/>
    </g>
   </g>
  </g>
 </g>
 <defs>
  <clipPath id="p2274138c48">
   <rect x="7.2" y="23.837812" width="698.4" height="523.8"/>
  </clipPath>
 </defs>
</svg>
