<?xml version="1.0" encoding="utf-8" standalone="no"?>
<!DOCTYPE svg PUBLIC "-//W3C//DTD SVG 1.1//EN"
  "http://www.w3.org/Graphics/SVG/1.1/DTD/svg11.dtd">
<svg xmlns:xlink="http://www.w3.org/1999/xlink" width="712.8pt" height="568.637812pt" viewBox="0 0 712.8 568.637812" xmlns="http://www.w3.org/2000/svg" version="1.1">
 <metadata>
  <rdf:RDF xmlns:dc="http://purl.org/dc/elements/1.1/" xmlns:cc="http://creativecommons.org/ns#" xmlns:rdf="http://www.w3.org/1999/02/22-rdf-syntax-ns#">
   <cc:Work>
    <dc:type rdf:resource="http://purl.org/dc/dcmitype/StillImage"/>
    <dc:date>2025-12-13T21:01:58.970342</dc:date>
    <dc:format>image/svg+xml</dc:format>
    <dc:creator>
     <cc:Agent>
      <dc:title>Matplotlib v3.10.7, https://matplotlib.org/</dc:title>
     </cc:Agent>
    </dc:creator>
   </cc:Work>
  </rdf:RDF>
 </metadata>
 <defs>
  <style type="text/css">*{stroke-linejoin: round; stroke-linecap: butt}</style>
 </defs>
 <g id="figure_1">
  <g id="patch_1">
   <path d="M 0 568.637812 
L 712.8 568.637812 
L 712.8 0 
L 0 0 
z
" style="fill: #ffffff"/>
  </g>
  <g id="axes_1">
   <g id="patch_2">
    <path d="M 146.88 407.837812 
L 565.92 407.837812 
L 565.92 177.437813 
L 146.88 177.437813 
L 146.88 407.837812 
z
" clip-path="url(#p52820e39de)" style="fill: none; stroke: #000000; stroke-width: 3; stroke-linejoin: miter"/>
   </g>
   <g id="patch_3">
    <path d="M 181.8 200.477813 
L 176.562 192.797813 
L 181.76508 192.797813 
L 181.76508 139.037813 
L 181.83492 139.037813 
L 181.83492 192.797813 
L 187.038 192.797813 
z
" clip-path="url(#p52820e39de)" style="fill: #6b46c1; stroke: #6b46c1; stroke-width: 2; stroke-linejoin: miter"/>
   </g>
   <g id="patch_4">
    <path d="M 231.685714 200.477813 
L 226.447714 192.797813 
L 231.650794 192.797813 
L 231.650794 139.037813 
L 231.720634 139.037813 
L 231.720634 192.797813 
L 236.923714 192.797813 
z
" clip-path="url(#p52820e39de)" style="fill: #6b46c1; stroke: #6b46c1; stroke-width: 2; stroke-linejoin: miter"/>
   </g>
   <g id="patch_5">
    <path d="M 281.571429 200.477813 
L 276.333429 192.797813 
L 281.536509 192.797813 
L 281.536509 139.037813 
L 281.606349 139.037813 
L 281.606349 192.797813 
L 286.809429 192.797813 
z
" clip-path="url(#p52820e39de)" style="fill: #6b46c1; stroke: #6b46c1; stroke-width: 2; stroke-linejoin: miter"/>
   </g>
   <g id="patch_6">
    <path d="M 331.457143 200.477813 
L 326.219143 192.797813 
L 331.422223 192.797813 
L 331.422223 139.037813 
L 331.492063 139.037813 
L 331.492063 192.797813 
L 336.695143 192.797813 
z
" clip-path="url(#p52820e39de)" style="fill: #6b46c1; stroke: #6b46c1; stroke-width: 2; stroke-linejoin: miter"/>
   </g>
   <g id="patch_7">
    <path d="M 381.342857 200.477813 
L 376.104857 192.797813 
L 381.307937 192.797813 
L 381.307937 139.037813 
L 381.377777 139.037813 
L 381.377777 192.797813 
L 386.580857 192.797813 
z
" clip-path="url(#p52820e39de)" style="fill: #6b46c1; stroke: #6b46c1; stroke-width: 2; stroke-linejoin: miter"/>
   </g>
   <g id="patch_8">
    <path d="M 431.228571 200.477813 
L 425.990571 192.797813 
L 431.193651 192.797813 
L 431.193651 139.037813 
L 431.263491 139.037813 
L 431.263491 192.797813 
L 436.466571 192.797813 
z
" clip-path="url(#p52820e39de)" style="fill: #6b46c1; stroke: #6b46c1; stroke-width: 2; stroke-linejoin: miter"/>
   </g>
   <g id="patch_9">
    <path d="M 481.114286 200.477813 
L 475.876286 192.797813 
L 481.079366 192.797813 
L 481.079366 139.037813 
L 481.149206 139.037813 
L 481.149206 192.797813 
L 486.352286 192.797813 
z
" clip-path="url(#p52820e39de)" style="fill: #6b46c1; stroke: #6b46c1; stroke-width: 2; stroke-linejoin: miter"/>
   </g>
   <g id="patch_10">
    <path d="M 531 200.477813 
L 525.762 192.797813 
L 530.96508 192.797813 
L 530.96508 139.037813 
L 531.03492 139.037813 
L 531.03492 192.797813 
L 536.238 192.797813 
z
" clip-path="url(#p52820e39de)" style="fill: #6b46c1; stroke: #6b46c1; stroke-width: 2; stroke-linejoin: miter"/>
   </g>
   <g id="patch_11">
    <path d="M 230.688 292.637812 
L 216.72 300.317813 
L 216.72 292.676213 
L 111.96 292.676213 
L 111.96 292.599412 
L 216.72 292.599412 
L 216.72 284.957812 
z
" clip-path="url(#p52820e39de)" style="fill: #ffa500; stroke: #ffa500; stroke-width: 3; stroke-linejoin: miter"/>
   </g>
   <g id="patch_12">
    <path d="M 251.64 223.517812 
L 256.878 231.197813 
L 251.67492 231.197813 
L 251.67492 292.637812 
L 251.60508 292.637812 
L 251.60508 231.197813 
L 246.402 231.197813 
z
" clip-path="url(#p52820e39de)" style="fill: #0000ff; stroke: #0000ff; stroke-width: 2.5; stroke-linejoin: miter"/>
   </g>
   <g id="patch_13">
    <path d="M 251.64 361.757812 
L 246.402 354.077812 
L 251.60508 354.077812 
L 251.60508 292.637812 
L 251.67492 292.637812 
L 251.67492 354.077812 
L 256.878 354.077812 
z
" clip-path="url(#p52820e39de)" style="fill: #008000; stroke: #008000; stroke-width: 2.5; stroke-linejoin: miter"/>
   </g>
   <g id="line2d_1">
    <defs>
     <path id="m587eed496e" d="M -5 5 
L 5 -5 
M -5 -5 
L 5 5 
" style="stroke: #d946ef; stroke-width: 2.5"/>
    </defs>
    <g clip-path="url(#p52820e39de)">
     <use xlink:href="#m587eed496e" x="181.8" y="369.437813" style="fill: #d946ef; stroke: #d946ef; stroke-width: 2.5"/>
    </g>
   </g>
   <g id="line2d_2">
    <g clip-path="url(#p52820e39de)">
     <use xlink:href="#m587eed496e" x="181.8" y="318.237813" style="fill: #d946ef; stroke: #d946ef; stroke-width: 2.5"/>
    </g>
   </g>
   <g id="line2d_3">
    <g clip-path="url(#p52820e39de)">
     <use xlink:href="#m587eed496e" x="181.8" y="267.037813" style="fill: #d946ef; stroke: #d946ef; stroke-width: 2.5"/>
    </g>
   </g>
   <g id="line2d_4">
    <g clip-path="url(#p52820e39de)">
     <use xlink:href="#m587eed496e" x="181.8" y="215.837812" style="fill: #d946ef; stroke: #d946ef; stroke-width: 2.5"/>
    </g>
   </g>
   <g id="line2d_5">
    <g clip-path="url(#p52820e39de)">
     <use xlink:href="#m587eed496e" x="231.685714" y="369.437813" style="fill: #d946ef; stroke: #d946ef; stroke-width: 2.5"/>
    </g>
   </g>
   <g id="line2d_6">
    <g clip-path="url(#p52820e39de)">
     <use xlink:href="#m587eed496e" x="231.685714" y="318.237813" style="fill: #d946ef; stroke: #d946ef; stroke-width: 2.5"/>
    </g>
   </g>
   <g id="line2d_7">
    <g clip-path="url(#p52820e39de)">
     <use xlink:href="#m587eed496e" x="231.685714" y="267.037813" style="fill: #d946ef; stroke: #d946ef; stroke-width: 2.5"/>
    </g>
   </g>
   <g id="line2d_8">
    <g clip-path="url(#p52820e39de)">
     <use xlink:href="#m587eed496e" x="231.685714" y="215.837812" style="fill: #d946ef; stroke: #d946ef; stroke-width: 2.5"/>
    </g>
   </g>
   <g id="line2d_9">
    <g clip-path="url(#p52820e39de)">
     <use xlink:href="#m587eed496e" x="281.571429" y="369.437813" style="fill: #d946ef; stroke: #d946ef; stroke-width: 2.5"/>
    </g>
   </g>
   <g id="line2d_10">
    <g clip-path="url(#p52820e39de)">
     <use xlink:href="#m587eed496e" x="281.571429" y="318.237813" style="fill: #d946ef; stroke: #d946ef; stroke-width: 2.5"/>
    </g>
   </g>
   <g id="line2d_11">
    <g clip-path="url(#p52820e39de)">
     <use xlink:href="#m587eed496e" x="281.571429" y="267.037813" style="fill: #d946ef; stroke: #d946ef; stroke-width: 2.5"/>
    </g>
   </g>
   <g id="line2d_12">
    <g clip-path="url(#p52820e39de)">
     <use xlink:href="#m587eed496e" x="281.571429" y="215.837812" style="fill: #d946ef; stroke: #d946ef; stroke-width: 2.5"/>
    </g>
   </g>
   <g id="line2d_13">
    <g clip-path="url(#p52820e39de)">
     <use xlink:href="#m587eed496e" x="331.457143" y="369.437813" style="fill: #d946ef; stroke: #d946ef; stroke-width: 2.5"/>
    </g>
   </g>
   <g id="line2d_14">
    <g clip-path="url(#p52820e39de)">
     <use xlink:href="#m587eed496e" x="331.457143" y="318.237813" style="fill: #d946ef; stroke: #d946ef; stroke-width: 2.5"/>
    </g>
   </g>
   <g id="line2d_15">
    <g clip-path="url(#p52820e39de)">
     <use xlink:href="#m587eed496e" x="331.457143" y="267.037813" style="fill: #d946ef; stroke: #d946ef; stroke-width: 2.5"/>
    </g>
   </g>
   <g id="line2d_16">
    <g clip-path="url(#p52820e39de)">
     <use xlink:href="#m587eed496e" x="331.457143" y="215.837812" style="fill: #d946ef; stroke: #d946ef; stroke-width: 2.5"/>
    </g>
   </g>
   <g id="line2d_17">
    <g clip-path="url(#p52820e39de)">
     <use xlink:href="#m587eed496e" x="381.342857" y="369.437813" style="fill: #d946ef; stroke: #d946ef; stroke-width: 2.5"/>
    </g>
   </g>
   <g id="line2d_18">
    <g clip-path="url(#p52820e39de)">
     <use xlink:href="#m587eed496e" x="381.342857" y="318.237813" style="fill: #d946ef; stroke: #d946ef; stroke-width: 2.5"/>
    </g>
   </g>
   <g id="line2d_19">
    <g clip-path="url(#p52820e39de)">
     <use xlink:href="#m587eed496e" x="381.342857" y="267.037813" style="fill: #d946ef; stroke: #d946ef; stroke-width: 2.5"/>
    </g>
   </g>
   <g id="line2d_20">
    <g clip-path="url(#p52820e39de)">
     <use xlink:href="#m587eed496e" x="381.342857" y="215.837812" style="fill: #d946ef; stroke: #d946ef; stroke-width: 2.5"/>
    </g>
   </g>
   <g id="line2d_21">
    <g clip-path="url(#p52820e39de)">
     <use xlink:href="#m587eed496e" x="431.228571" y="369.437813" style="fill: #d946ef; stroke: #d946ef; stroke-width: 2.5"/>
    </g>
   </g>
   <g id="line2d_22">
    <g clip-path="url(#p52820e39de)">
     <use xlink:href="#m587eed496e" x="431.228571" y="318.237813" style="fill: #d946ef; stroke: #d946ef; stroke-width: 2.5"/>
    </g>
   </g>
   <g id="line2d_23">
    <g clip-path="url(#p52820e39de)">
     <use xlink:href="#m587eed496e" x="431.228571" y="267.037813" style="fill: #d946ef; stroke: #d946ef; stroke-width: 2.5"/>
    </g>
   </g>
   <g id="line2d_24">
    <g clip-path="url(#p52820e39de)">
     <use xlink:href="#m587eed496e" x="431.228571" y="215.837812" style="fill: #d946ef; stroke: #d946ef; stroke-width: 2.5"/>
    </g>
   </g>
   <g id="line2d_25">
    <g clip-path="url(#p52820e39de)">
     <use xlink:href="#m587eed496e" x="481.114286" y="369.437813" style="fill: #d946ef; stroke: #d946ef; stroke-width: 2.5"/>
    </g>
   </g>
   <g id="line2d_26">
    <g clip-path="url(#p52820e39de)">
     <use xlink:href="#m587eed496e" x="481.114286" y="318.237813" style="fill: #d946ef; stroke: #d946ef; stroke-width: 2.5"/>
    </g>
   </g>
   <g id="line2d_27">
    <g clip-path="url(#p52820e39de)">
     <use xlink:href="#m587eed496e" x="481.114286" y="267.037813" style="fill: #d946ef; stroke: #d946ef; stroke-width: 2.5"/>
    </g>
   </g>
   <g id="line2d_28">
    <g clip-path="url(#p52820e39de)">
     <use xlink:href="#m587eed496e" x="481.114286" y="215.837812" style="fill: #d946ef; stroke: #d946ef; stroke-width: 2.5"/>
    </g>
   </g>
   <g id="line2d_29">
    <g clip-path="url(#p52820e39de)">
     <use xlink:href="#m587eed496e" x="531" y="369.437813" style="fill: #d946ef; stroke: #d946ef; stroke-width: 2.5"/>
    </g>
   </g>
   <g id="line2d_30">
    <g clip-path="url(#p52820e39de)">
     <use xlink:href="#m587eed496e" x="531" y="318.237813" style="fill: #d946ef; stroke: #d946ef; stroke-width: 2.5"/>
    </g>
   </g>
   <g id="line2d_31">
    <g clip-path="url(#p52820e39de)">
     <use xlink:href="#m587eed496e" x="531" y="267.037813" style="fill: #d946ef; stroke: #d946ef; stroke-width: 2.5"/>
    </g>
   </g>
   <g id="line2d_32">
    <g clip-path="url(#p52820e39de)">
     <use xlink:href="#m587eed496e" x="531" y="215.837812" style="fill: #d946ef; stroke: #d946ef; stroke-width: 2.5"/>
    </g>
   </g>
   <g id="line2d_33">
    <defs>
     <path id="me973695d6c" d="M 0 7.5 
C 1.989023 7.5 3.896849 6.709753 5.303301 5.303301 
C 6.709753 3.896849 7.5 1.989023 7.5 0 
C 7.5 -1.989023 6.709753 -3.896849 5.303301 -5.303301 
C 3.896849 -6.709753 1.989023 -7.5 0 -7.5 
C -1.989023 -7.5 -3.896849 -6.709753 -5.303301 -5.303301 
C -6.709753 -3.896849 -7.5 -1.989023 -7.5 0 
C -7.5 1.989023 -6.709753 3.896849 -5.303301 5.303301 
C -3.896849 6.709753 -1.989023 7.5 0 7.5 
z
" style="stroke: #ff0000"/>
    </defs>
    <g clip-path="url(#p52820e39de)">
     <use xlink:href="#me973695d6c" x="251.64" y="292.637812" style="fill: #ff0000; stroke: #ff0000"/>
    </g>
   </g>
   <g id="text_1">
    <!-- E -->
    <g style="fill: #6b46c1" transform="translate(579.888 192.797813) scale(0.16 -0.16)">
     <defs>
      <path id="DejaVuSans-Bold-45" d="M 588 4666 
L 3834 4666 
L 3834 3756 
L 1791 3756 
L 1791 2888 
L 3713 2888 
L 3713 1978 
L 1791 1978 
L 1791 909 
L 3903 909 
L 3903 0 
L 588 0 
L 588 4666 
z
" transform="scale(0.015625)"/>
     </defs>
     <use xlink:href="#DejaVuSans-Bold-45"/>
    </g>
   </g>
   <g id="text_2">
    <!-- B(in) -->
    <g style="fill: #d946ef" transform="translate(579.888 292.637812) scale(0.14 -0.14)">
     <defs>
      <path id="DejaVuSans-Bold-42" d="M 2456 2859 
Q 2741 2859 2887 2984 
Q 3034 3109 3034 3353 
Q 3034 3594 2887 3720 
Q 2741 3847 2456 3847 
L 1791 3847 
L 1791 2859 
L 2456 2859 
z
M 2497 819 
Q 2859 819 3042 972 
Q 3225 1125 3225 1434 
Q 3225 1738 3044 1889 
Q 2863 2041 2497 2041 
L 1791 2041 
L 1791 819 
L 2497 819 
z
M 3616 2497 
Q 4003 2384 4215 2081 
Q 4428 1778 4428 1338 
Q 4428 663 3972 331 
Q 3516 0 2584 0 
L 588 0 
L 588 4666 
L 2394 4666 
Q 3366 4666 3802 4372 
Q 4238 4078 4238 3431 
Q 4238 3091 4078 2852 
Q 3919 2613 3616 2497 
z
" transform="scale(0.015625)"/>
      <path id="DejaVuSans-Bold-28" d="M 2413 -844 
L 1484 -844 
Q 1006 -72 778 623 
Q 550 1319 550 2003 
Q 550 2688 779 3389 
Q 1009 4091 1484 4856 
L 2413 4856 
Q 2013 4116 1813 3408 
Q 1613 2700 1613 2009 
Q 1613 1319 1811 609 
Q 2009 -100 2413 -844 
z
" transform="scale(0.015625)"/>
      <path id="DejaVuSans-Bold-69" d="M 538 3500 
L 1656 3500 
L 1656 0 
L 538 0 
L 538 3500 
z
M 538 4863 
L 1656 4863 
L 1656 3950 
L 538 3950 
L 538 4863 
z
" transform="scale(0.015625)"/>
      <path id="DejaVuSans-Bold-6e" d="M 4056 2131 
L 4056 0 
L 2931 0 
L 2931 347 
L 2931 1631 
Q 2931 2084 2911 2256 
Q 2891 2428 2841 2509 
Q 2775 2619 2662 2680 
Q 2550 2741 2406 2741 
Q 2056 2741 1856 2470 
Q 1656 2200 1656 1722 
L 1656 0 
L 538 0 
L 538 3500 
L 1656 3500 
L 1656 2988 
Q 1909 3294 2193 3439 
Q 2478 3584 2822 3584 
Q 3428 3584 3742 3212 
Q 4056 2841 4056 2131 
z
" transform="scale(0.015625)"/>
      <path id="DejaVuSans-Bold-29" d="M 513 -844 
Q 913 -100 1113 609 
Q 1313 1319 1313 2009 
Q 1313 2700 1113 3408 
Q 913 4116 513 4856 
L 1441 4856 
Q 1916 4091 2145 3389 
Q 2375 2688 2375 2003 
Q 2375 1319 2147 623 
Q 1919 -72 1441 -844 
L 513 -844 
z
" transform="scale(0.015625)"/>
     </defs>
     <use xlink:href="#DejaVuSans-Bold-42"/>
     <use xlink:href="#DejaVuSans-Bold-28" transform="translate(76.220703 0)"/>
     <use xlink:href="#DejaVuSans-Bold-69" transform="translate(121.923828 0)"/>
     <use xlink:href="#DejaVuSans-Bold-6e" transform="translate(156.201172 0)"/>
     <use xlink:href="#DejaVuSans-Bold-29" transform="translate(227.392578 0)"/>
    </g>
   </g>
   <g id="text_3">
    <!-- v -->
    <g style="fill: #ffa500" transform="translate(146.88 331.037812) scale(0.16 -0.16)">
     <defs>
      <path id="DejaVuSans-Bold-76" d="M 97 3500 
L 1216 3500 
L 2088 1081 
L 2956 3500 
L 4078 3500 
L 2700 0 
L 1472 0 
L 97 3500 
z
" transform="scale(0.015625)"/>
     </defs>
     <use xlink:href="#DejaVuSans-Bold-76"/>
    </g>
   </g>
   <g id="text_4">
    <!-- +q -->
    <g style="fill: #ff0000" transform="translate(265.608 307.997813) scale(0.12 -0.12)">
     <defs>
      <path id="DejaVuSans-Bold-2b" d="M 3053 4013 
L 3053 2375 
L 4684 2375 
L 4684 1638 
L 3053 1638 
L 3053 0 
L 2309 0 
L 2309 1638 
L 678 1638 
L 678 2375 
L 2309 2375 
L 2309 4013 
L 3053 4013 
z
" transform="scale(0.015625)"/>
      <path id="DejaVuSans-Bold-71" d="M 2181 2772 
Q 1825 2772 1636 2509 
Q 1447 2247 1447 1747 
Q 1447 1247 1636 984 
Q 1825 722 2181 722 
Q 2541 722 2730 984 
Q 2919 1247 2919 1747 
Q 2919 2247 2730 2509 
Q 2541 2772 2181 2772 
z
M 2919 506 
Q 2688 197 2409 53 
Q 2131 -91 1766 -91 
Q 1119 -91 703 423 
Q 288 938 288 1747 
Q 288 2556 703 3067 
Q 1119 3578 1766 3578 
Q 2131 3578 2409 3434 
Q 2688 3291 2919 2981 
L 2919 3500 
L 4044 3500 
L 4044 -1331 
L 2919 -1331 
L 2919 506 
z
" transform="scale(0.015625)"/>
     </defs>
     <use xlink:href="#DejaVuSans-Bold-2b"/>
     <use xlink:href="#DejaVuSans-Bold-71" transform="translate(83.789062 0)"/>
    </g>
   </g>
   <g id="text_5">
    <!-- F_E -->
    <g style="fill: #0000ff" transform="translate(265.608 215.837812) scale(0.11 -0.11)">
     <defs>
      <path id="DejaVuSans-Bold-46" d="M 588 4666 
L 3834 4666 
L 3834 3756 
L 1791 3756 
L 1791 2888 
L 3713 2888 
L 3713 1978 
L 1791 1978 
L 1791 0 
L 588 0 
L 588 4666 
z
" transform="scale(0.015625)"/>
      <path id="DejaVuSans-Bold-5f" d="M 3200 -916 
L 3200 -1509 
L 0 -1509 
L 0 -916 
L 3200 -916 
z
" transform="scale(0.015625)"/>
     </defs>
     <use xlink:href="#DejaVuSans-Bold-46"/>
     <use xlink:href="#DejaVuSans-Bold-5f" transform="translate(68.310547 0)"/>
     <use xlink:href="#DejaVuSans-Bold-45" transform="translate(118.310547 0)"/>
    </g>
   </g>
   <g id="text_6">
    <!-- F_B -->
    <g style="fill: #008000" transform="translate(265.608 384.797812) scale(0.11 -0.11)">
     <use xlink:href="#DejaVuSans-Bold-46"/>
     <use xlink:href="#DejaVuSans-Bold-5f" transform="translate(68.310547 0)"/>
     <use xlink:href="#DejaVuSans-Bold-42" transform="translate(118.310547 0)"/>
    </g>
   </g>
   <g id="text_7">
    <g id="patch_14">
     <path d="M 321.48 107.241406 
L 364.386094 107.241406 
Q 368.286094 107.241406 368.286094 103.341406 
L 368.286094 90.759844 
Q 368.286094 86.859844 364.386094 86.859844 
L 321.48 86.859844 
Q 317.58 86.859844 317.58 90.759844 
L 317.58 103.341406 
Q 317.58 107.241406 321.48 107.241406 
z
" style="fill: #fde68a; stroke: #000000; stroke-linejoin: miter"/>
    </g>
    <!-- v=E/B -->
    <g transform="translate(321.48 100.637812) scale(0.13 -0.13)">
     <defs>
      <path id="DejaVuSans-Bold-3d" d="M 678 3084 
L 4684 3084 
L 4684 2350 
L 678 2350 
L 678 3084 
z
M 678 1663 
L 4684 1663 
L 4684 922 
L 678 922 
L 678 1663 
z
" transform="scale(0.015625)"/>
      <path id="DejaVuSans-Bold-2f" d="M 1644 4666 
L 2338 4666 
L 691 -594 
L 0 -594 
L 1644 4666 
z
" transform="scale(0.015625)"/>
     </defs>
     <use xlink:href="#DejaVuSans-Bold-76"/>
     <use xlink:href="#DejaVuSans-Bold-3d" transform="translate(65.185547 0)"/>
     <use xlink:href="#DejaVuSans-Bold-45" transform="translate(148.974609 0)"/>
     <use xlink:href="#DejaVuSans-Bold-2f" transform="translate(217.285156 0)"/>
     <use xlink:href="#DejaVuSans-Bold-42" transform="translate(253.808594 0)"/>
    </g>
   </g>
   <g id="text_8">
    <!-- Velocity Selector -->
    <g transform="translate(289.822344 17.837812) scale(0.14 -0.14)">
     <defs>
      <path id="DejaVuSans-Bold-56" d="M 31 4666 
L 1241 4666 
L 2478 1222 
L 3713 4666 
L 4922 4666 
L 3194 0 
L 1759 0 
L 31 4666 
z
" transform="scale(0.015625)"/>
      <path id="DejaVuSans-Bold-65" d="M 4031 1759 
L 4031 1441 
L 1416 1441 
Q 1456 1047 1700 850 
Q 1944 653 2381 653 
Q 2734 653 3104 758 
Q 3475 863 3866 1075 
L 3866 213 
Q 3469 63 3072 -14 
Q 2675 -91 2278 -91 
Q 1328 -91 801 392 
Q 275 875 275 1747 
Q 275 2603 792 3093 
Q 1309 3584 2216 3584 
Q 3041 3584 3536 3087 
Q 4031 2591 4031 1759 
z
M 2881 2131 
Q 2881 2450 2695 2645 
Q 2509 2841 2209 2841 
Q 1884 2841 1681 2658 
Q 1478 2475 1428 2131 
L 2881 2131 
z
" transform="scale(0.015625)"/>
      <path id="DejaVuSans-Bold-6c" d="M 538 4863 
L 1656 4863 
L 1656 0 
L 538 0 
L 538 4863 
z
" transform="scale(0.015625)"/>
      <path id="DejaVuSans-Bold-6f" d="M 2203 2784 
Q 1831 2784 1636 2517 
Q 1441 2250 1441 1747 
Q 1441 1244 1636 976 
Q 1831 709 2203 709 
Q 2569 709 2762 976 
Q 2956 1244 2956 1747 
Q 2956 2250 2762 2517 
Q 2569 2784 2203 2784 
z
M 2203 3584 
Q 3106 3584 3614 3096 
Q 4122 2609 4122 1747 
Q 4122 884 3614 396 
Q 3106 -91 2203 -91 
Q 1297 -91 786 396 
Q 275 884 275 1747 
Q 275 2609 786 3096 
Q 1297 3584 2203 3584 
z
" transform="scale(0.015625)"/>
      <path id="DejaVuSans-Bold-63" d="M 3366 3391 
L 3366 2478 
Q 3138 2634 2908 2709 
Q 2678 2784 2431 2784 
Q 1963 2784 1702 2511 
Q 1441 2238 1441 1747 
Q 1441 1256 1702 982 
Q 1963 709 2431 709 
Q 2694 709 2930 787 
Q 3166 866 3366 1019 
L 3366 103 
Q 3103 6 2833 -42 
Q 2563 -91 2291 -91 
Q 1344 -91 809 395 
Q 275 881 275 1747 
Q 275 2613 809 3098 
Q 1344 3584 2291 3584 
Q 2566 3584 2833 3536 
Q 3100 3488 3366 3391 
z
" transform="scale(0.015625)"/>
      <path id="DejaVuSans-Bold-74" d="M 1759 4494 
L 1759 3500 
L 2913 3500 
L 2913 2700 
L 1759 2700 
L 1759 1216 
Q 1759 972 1856 886 
Q 1953 800 2241 800 
L 2816 800 
L 2816 0 
L 1856 0 
Q 1194 0 917 276 
Q 641 553 641 1216 
L 641 2700 
L 84 2700 
L 84 3500 
L 641 3500 
L 641 4494 
L 1759 4494 
z
" transform="scale(0.015625)"/>
      <path id="DejaVuSans-Bold-79" d="M 78 3500 
L 1197 3500 
L 2138 1125 
L 2938 3500 
L 4056 3500 
L 2584 -331 
Q 2363 -916 2067 -1148 
Q 1772 -1381 1288 -1381 
L 641 -1381 
L 641 -647 
L 991 -647 
Q 1275 -647 1404 -556 
Q 1534 -466 1606 -231 
L 1638 -134 
L 78 3500 
z
" transform="scale(0.015625)"/>
      <path id="DejaVuSans-Bold-20" transform="scale(0.015625)"/>
      <path id="DejaVuSans-Bold-53" d="M 3834 4519 
L 3834 3531 
Q 3450 3703 3084 3790 
Q 2719 3878 2394 3878 
Q 1963 3878 1756 3759 
Q 1550 3641 1550 3391 
Q 1550 3203 1689 3098 
Q 1828 2994 2194 2919 
L 2706 2816 
Q 3484 2659 3812 2340 
Q 4141 2022 4141 1434 
Q 4141 663 3683 286 
Q 3225 -91 2284 -91 
Q 1841 -91 1394 -6 
Q 947 78 500 244 
L 500 1259 
Q 947 1022 1364 901 
Q 1781 781 2169 781 
Q 2563 781 2772 912 
Q 2981 1044 2981 1288 
Q 2981 1506 2839 1625 
Q 2697 1744 2272 1838 
L 1806 1941 
Q 1106 2091 782 2419 
Q 459 2747 459 3303 
Q 459 4000 909 4375 
Q 1359 4750 2203 4750 
Q 2588 4750 2994 4692 
Q 3400 4634 3834 4519 
z
" transform="scale(0.015625)"/>
      <path id="DejaVuSans-Bold-72" d="M 3138 2547 
Q 2991 2616 2845 2648 
Q 2700 2681 2553 2681 
Q 2122 2681 1889 2404 
Q 1656 2128 1656 1613 
L 1656 0 
L 538 0 
L 538 3500 
L 1656 3500 
L 1656 2925 
Q 1872 3269 2151 3426 
Q 2431 3584 2822 3584 
Q 2878 3584 2943 3579 
Q 3009 3575 3134 3559 
L 3138 2547 
z
" transform="scale(0.015625)"/>
     </defs>
     <use xlink:href="#DejaVuSans-Bold-56"/>
     <use xlink:href="#DejaVuSans-Bold-65" transform="translate(71.892578 0)"/>
     <use xlink:href="#DejaVuSans-Bold-6c" transform="translate(139.714844 0)"/>
     <use xlink:href="#DejaVuSans-Bold-6f" transform="translate(173.992188 0)"/>
     <use xlink:href="#DejaVuSans-Bold-63" transform="translate(242.693359 0)"/>
     <use xlink:href="#DejaVuSans-Bold-69" transform="translate(301.970703 0)"/>
     <use xlink:href="#DejaVuSans-Bold-74" transform="translate(336.248047 0)"/>
     <use xlink:href="#DejaVuSans-Bold-79" transform="translate(384.050781 0)"/>
     <use xlink:href="#DejaVuSans-Bold-20" transform="translate(449.236328 0)"/>
     <use xlink:href="#DejaVuSans-Bold-53" transform="translate(484.050781 0)"/>
     <use xlink:href="#DejaVuSans-Bold-65" transform="translate(556.072266 0)"/>
     <use xlink:href="#DejaVuSans-Bold-6c" transform="translate(623.894531 0)"/>
     <use xlink:href="#DejaVuSans-Bold-65" transform="translate(658.171875 0)"/>
     <use xlink:href="#DejaVuSans-Bold-63" transform="translate(725.994141 0)"/>
     <use xlink:href="#DejaVuSans-Bold-74" transform="translate(785.271484 0)"/>
     <use xlink:href="#DejaVuSans-Bold-6f" transform="translate(833.074219 0)"/>
     <use xlink:href="#DejaVuSans-Bold-72" transform="translate(901.775391 0)"/>
    </g>
   </g>
  </g>
 </g>
 <defs>
  <clipPath id="p52820e39de">
   <rect x="7.2" y="23.837812" width="698.4" height="537.6"/>
  </clipPath>
 </defs>
</svg>
