<?xml version="1.0" encoding="utf-8" standalone="no"?>
<!DOCTYPE svg PUBLIC "-//W3C//DTD SVG 1.1//EN"
  "http://www.w3.org/Graphics/SVG/1.1/DTD/svg11.dtd">
<svg xmlns:xlink="http://www.w3.org/1999/xlink" width="712.8pt" height="554.837812pt" viewBox="0 0 712.8 554.837812" xmlns="http://www.w3.org/2000/svg" version="1.1">
 <metadata>
  <rdf:RDF xmlns:dc="http://purl.org/dc/elements/1.1/" xmlns:cc="http://creativecommons.org/ns#" xmlns:rdf="http://www.w3.org/1999/02/22-rdf-syntax-ns#">
   <cc:Work>
    <dc:type rdf:resource="http://purl.org/dc/dcmitype/StillImage"/>
    <dc:date>2025-12-13T21:01:33.886389</dc:date>
    <dc:format>image/svg+xml</dc:format>
    <dc:creator>
     <cc:Agent>
      <dc:title>Matplotlib v3.10.7, https://matplotlib.org/</dc:title>
     </cc:Agent>
    </dc:creator>
   </cc:Work>
  </rdf:RDF>
 </metadata>
 <defs>
  <style type="text/css">*{stroke-linejoin: round; stroke-linecap: butt}</style>
 </defs>
 <g id="figure_1">
  <g id="patch_1">
   <path d="M 0 554.837812 
L 712.8 554.837812 
L 712.8 0 
L 0 0 
z
" style="fill: #ffffff"/>
  </g>
  <g id="axes_1">
   <g id="patch_2">
    <path d="M 173.07 285.737812 
L 164.34 292.285312 
L 164.34 285.781462 
L 94.5 285.781462 
L 94.5 285.694162 
L 164.34 285.694162 
L 164.34 279.190312 
z
" clip-path="url(#p1d0478836d)" style="fill: #ffa500; stroke: #ffa500; stroke-width: 2.5; stroke-linejoin: miter"/>
   </g>
   <g id="patch_3">
    <path d="M 696.87 285.737812 
L 688.14 292.285312 
L 688.14 285.781462 
L 618.3 285.781462 
L 618.3 285.694162 
L 688.14 285.694162 
L 688.14 279.190312 
z
" clip-path="url(#p1d0478836d)" style="fill: #ffa500; stroke: #ffa500; stroke-width: 2.5; stroke-linejoin: miter"/>
   </g>
   <g id="line2d_1">
    <path d="M 531 285.737812 
L 530.912096 280.198115 
L 530.648474 274.663996 
L 530.209398 269.141027 
L 529.59531 263.63477 
L 528.80683 258.150769 
L 527.844751 252.694545 
L 526.710041 247.271593 
L 525.403843 241.887374 
L 523.927473 236.547308 
L 522.282417 231.256773 
L 520.470332 226.021095 
L 518.493041 220.845548 
L 516.352537 215.735341 
L 514.050974 210.695621 
L 511.590669 205.731462 
L 508.974101 200.847862 
L 506.203904 196.04974 
L 503.282867 191.341926 
L 500.213931 186.72916 
L 497.000187 182.216088 
L 493.64487 177.807254 
L 490.15136 173.507096 
L 486.523173 169.319945 
L 482.763963 165.250017 
L 478.877515 161.30141 
L 474.867743 157.4781 
L 470.738684 153.783937 
L 466.494496 150.22264 
L 462.139451 146.797795 
L 457.677936 143.512851 
L 453.114443 140.371116 
L 448.453567 137.375752 
L 443.7 134.529777 
L 438.85853 131.836055 
L 433.934031 129.2973 
L 428.931461 126.916066 
L 423.855859 124.694753 
L 418.712334 122.635596 
L 413.506066 120.74067 
L 408.242298 119.011881 
L 402.926328 117.450972 
L 397.56351 116.059513 
L 392.159244 114.838905 
L 386.718972 113.790379 
L 381.248171 112.914989 
L 375.75235 112.213617 
L 370.237042 111.686969 
L 364.707803 111.335575 
L 359.170197 111.15979 
L 353.629803 111.15979 
L 348.092197 111.335575 
L 342.562958 111.686969 
L 337.04765 112.213617 
L 331.551829 112.914989 
L 326.081028 113.790379 
L 320.640756 114.838905 
L 315.23649 116.059513 
L 309.873672 117.450972 
L 304.557702 119.011881 
L 299.293934 120.74067 
L 294.087666 122.635596 
L 288.944141 124.694753 
L 283.868539 126.916066 
L 278.865969 129.2973 
L 273.94147 131.836055 
L 269.1 134.529777 
L 264.346433 137.375752 
L 259.685557 140.371116 
L 255.122064 143.512851 
L 250.660549 146.797795 
L 246.305504 150.22264 
L 242.061316 153.783937 
L 237.932257 157.4781 
L 233.922485 161.30141 
L 230.036037 165.250017 
L 226.276827 169.319945 
L 222.64864 173.507096 
L 219.15513 177.807254 
L 215.799813 182.216088 
L 212.586069 186.72916 
L 209.517133 191.341926 
L 206.596096 196.04974 
L 203.825899 200.847862 
L 201.209331 205.731462 
L 198.749026 210.695621 
L 196.447463 215.735341 
L 194.306959 220.845548 
L 192.329668 226.021095 
L 190.517583 231.256773 
L 188.872527 236.547308 
L 187.396157 241.887374 
L 186.089959 247.271593 
L 184.955249 252.694545 
L 183.99317 258.150769 
L 183.20469 263.63477 
L 182.590602 269.141027 
L 182.151526 274.663996 
L 181.887904 280.198115 
L 181.8 285.737812 
" clip-path="url(#p1d0478836d)" style="fill: none; stroke: #6b46c1; stroke-width: 4; stroke-linecap: square"/>
   </g>
   <g id="line2d_2">
    <path d="M 181.8 285.737812 
L 50.85 285.737812 
" clip-path="url(#p1d0478836d)" style="fill: none; stroke: #6b46c1; stroke-width: 4; stroke-linecap: square"/>
   </g>
   <g id="line2d_3">
    <path d="M 531 285.737812 
L 661.95 285.737812 
" clip-path="url(#p1d0478836d)" style="fill: none; stroke: #6b46c1; stroke-width: 4; stroke-linecap: square"/>
   </g>
   <g id="line2d_4">
    <defs>
     <path id="m9148390d14" d="M 0 6 
C 1.591219 6 3.117479 5.367802 4.242641 4.242641 
C 5.367802 3.117479 6 1.591219 6 0 
C 6 -1.591219 5.367802 -3.117479 4.242641 -4.242641 
C 3.117479 -5.367802 1.591219 -6 0 -6 
C -1.591219 -6 -3.117479 -5.367802 -4.242641 -4.242641 
C -5.367802 -3.117479 -6 -1.591219 -6 0 
C -6 1.591219 -5.367802 3.117479 -4.242641 4.242641 
C -3.117479 5.367802 -1.591219 6 0 6 
z
" style="stroke: #ff0000"/>
    </defs>
    <g clip-path="url(#p1d0478836d)">
     <use xlink:href="#m9148390d14" x="356.4" y="285.737812" style="fill: #ff0000; stroke: #ff0000"/>
    </g>
   </g>
   <g id="line2d_5">
    <path d="M 356.4 285.737812 
L 531 285.737812 
" clip-path="url(#p1d0478836d)" style="fill: none; stroke-dasharray: 7.4,3.2; stroke-dashoffset: 0; stroke: #008000; stroke-width: 2"/>
   </g>
   <g id="line2d_6">
    <defs>
     <path id="m7dd03e250d" d="M -10 10 
L 10 -10 
M -10 -10 
L 10 10 
" style="stroke: #d946ef; stroke-width: 3"/>
    </defs>
    <g clip-path="url(#p1d0478836d)">
     <use xlink:href="#m7dd03e250d" x="356.4" y="285.737812" style="fill: #d946ef; stroke: #d946ef; stroke-width: 3"/>
    </g>
   </g>
   <g id="text_1">
    <!-- I -->
    <g style="fill: #ffa500" transform="translate(138.15 242.087812) scale(0.14 -0.14)">
     <defs>
      <path id="DejaVuSans-Bold-49" d="M 588 4666 
L 1791 4666 
L 1791 0 
L 588 0 
L 588 4666 
z
" transform="scale(0.015625)"/>
     </defs>
     <use xlink:href="#DejaVuSans-Bold-49"/>
    </g>
   </g>
   <g id="text_2">
    <!-- I -->
    <g style="fill: #ffa500" transform="translate(661.95 242.087812) scale(0.14 -0.14)">
     <use xlink:href="#DejaVuSans-Bold-49"/>
    </g>
   </g>
   <g id="text_3">
    <!-- O -->
    <g style="fill: #ff0000" transform="translate(373.86 311.927812) scale(0.14 -0.14)">
     <defs>
      <path id="DejaVuSans-Bold-4f" d="M 2719 3878 
Q 2169 3878 1866 3472 
Q 1563 3066 1563 2328 
Q 1563 1594 1866 1187 
Q 2169 781 2719 781 
Q 3272 781 3575 1187 
Q 3878 1594 3878 2328 
Q 3878 3066 3575 3472 
Q 3272 3878 2719 3878 
z
M 2719 4750 
Q 3844 4750 4481 4106 
Q 5119 3463 5119 2328 
Q 5119 1197 4481 553 
Q 3844 -91 2719 -91 
Q 1597 -91 958 553 
Q 319 1197 319 2328 
Q 319 3463 958 4106 
Q 1597 4750 2719 4750 
z
" transform="scale(0.015625)"/>
     </defs>
     <use xlink:href="#DejaVuSans-Bold-4f"/>
    </g>
   </g>
   <g id="text_4">
    <!-- R -->
    <g style="fill: #008000" transform="translate(426.24 320.657812) scale(0.12 -0.12)">
     <defs>
      <path id="DejaVuSans-Bold-52" d="M 2297 2597 
Q 2675 2597 2839 2737 
Q 3003 2878 3003 3200 
Q 3003 3519 2839 3656 
Q 2675 3794 2297 3794 
L 1791 3794 
L 1791 2597 
L 2297 2597 
z
M 1791 1766 
L 1791 0 
L 588 0 
L 588 4666 
L 2425 4666 
Q 3347 4666 3776 4356 
Q 4206 4047 4206 3378 
Q 4206 2916 3982 2619 
Q 3759 2322 3309 2181 
Q 3556 2125 3751 1926 
Q 3947 1728 4147 1325 
L 4800 0 
L 3519 0 
L 2950 1159 
Q 2778 1509 2601 1637 
Q 2425 1766 2131 1766 
L 1791 1766 
z
" transform="scale(0.015625)"/>
     </defs>
     <use xlink:href="#DejaVuSans-Bold-52"/>
    </g>
   </g>
   <g id="text_5">
    <g id="patch_4">
     <path d="M 94.5 73.583438 
L 150.1125 73.583438 
Q 153.7125 73.583438 153.7125 69.983438 
L 153.7125 58.369688 
Q 153.7125 54.769688 150.1125 54.769688 
L 94.5 54.769688 
Q 90.9 54.769688 90.9 58.369688 
L 90.9 69.983438 
Q 90.9 73.583438 94.5 73.583438 
z
" style="fill: #fde68a; stroke: #000000; stroke-linejoin: miter"/>
    </g>
    <!-- R=10cm -->
    <g transform="translate(94.5 67.487813) scale(0.12 -0.12)">
     <defs>
      <path id="DejaVuSans-Bold-3d" d="M 678 3084 
L 4684 3084 
L 4684 2350 
L 678 2350 
L 678 3084 
z
M 678 1663 
L 4684 1663 
L 4684 922 
L 678 922 
L 678 1663 
z
" transform="scale(0.015625)"/>
      <path id="DejaVuSans-Bold-31" d="M 750 831 
L 1813 831 
L 1813 3847 
L 722 3622 
L 722 4441 
L 1806 4666 
L 2950 4666 
L 2950 831 
L 4013 831 
L 4013 0 
L 750 0 
L 750 831 
z
" transform="scale(0.015625)"/>
      <path id="DejaVuSans-Bold-30" d="M 2944 2338 
Q 2944 3213 2780 3570 
Q 2616 3928 2228 3928 
Q 1841 3928 1675 3570 
Q 1509 3213 1509 2338 
Q 1509 1453 1675 1090 
Q 1841 728 2228 728 
Q 2613 728 2778 1090 
Q 2944 1453 2944 2338 
z
M 4147 2328 
Q 4147 1169 3647 539 
Q 3147 -91 2228 -91 
Q 1306 -91 806 539 
Q 306 1169 306 2328 
Q 306 3491 806 4120 
Q 1306 4750 2228 4750 
Q 3147 4750 3647 4120 
Q 4147 3491 4147 2328 
z
" transform="scale(0.015625)"/>
      <path id="DejaVuSans-Bold-63" d="M 3366 3391 
L 3366 2478 
Q 3138 2634 2908 2709 
Q 2678 2784 2431 2784 
Q 1963 2784 1702 2511 
Q 1441 2238 1441 1747 
Q 1441 1256 1702 982 
Q 1963 709 2431 709 
Q 2694 709 2930 787 
Q 3166 866 3366 1019 
L 3366 103 
Q 3103 6 2833 -42 
Q 2563 -91 2291 -91 
Q 1344 -91 809 395 
Q 275 881 275 1747 
Q 275 2613 809 3098 
Q 1344 3584 2291 3584 
Q 2566 3584 2833 3536 
Q 3100 3488 3366 3391 
z
" transform="scale(0.015625)"/>
      <path id="DejaVuSans-Bold-6d" d="M 3781 2919 
Q 3994 3244 4286 3414 
Q 4578 3584 4928 3584 
Q 5531 3584 5847 3212 
Q 6163 2841 6163 2131 
L 6163 0 
L 5038 0 
L 5038 1825 
Q 5041 1866 5042 1909 
Q 5044 1953 5044 2034 
Q 5044 2406 4934 2573 
Q 4825 2741 4581 2741 
Q 4263 2741 4089 2478 
Q 3916 2216 3909 1719 
L 3909 0 
L 2784 0 
L 2784 1825 
Q 2784 2406 2684 2573 
Q 2584 2741 2328 2741 
Q 2006 2741 1831 2477 
Q 1656 2213 1656 1722 
L 1656 0 
L 531 0 
L 531 3500 
L 1656 3500 
L 1656 2988 
Q 1863 3284 2130 3434 
Q 2397 3584 2719 3584 
Q 3081 3584 3359 3409 
Q 3638 3234 3781 2919 
z
" transform="scale(0.015625)"/>
     </defs>
     <use xlink:href="#DejaVuSans-Bold-52"/>
     <use xlink:href="#DejaVuSans-Bold-3d" transform="translate(77.001953 0)"/>
     <use xlink:href="#DejaVuSans-Bold-31" transform="translate(160.791016 0)"/>
     <use xlink:href="#DejaVuSans-Bold-30" transform="translate(230.371094 0)"/>
     <use xlink:href="#DejaVuSans-Bold-63" transform="translate(299.951172 0)"/>
     <use xlink:href="#DejaVuSans-Bold-6d" transform="translate(359.228516 0)"/>
    </g>
   </g>
   <g id="text_6">
    <g id="patch_5">
     <path d="M 94.5 117.233438 
L 135.005625 117.233438 
Q 138.605625 117.233438 138.605625 113.633438 
L 138.605625 102.019688 
Q 138.605625 98.419688 135.005625 98.419688 
L 94.5 98.419688 
Q 90.9 98.419688 90.9 102.019688 
L 90.9 113.633438 
Q 90.9 117.233438 94.5 117.233438 
z
" style="fill: #ffffff; stroke: #000000; stroke-linejoin: miter"/>
    </g>
    <!-- I=12A -->
    <g transform="translate(94.5 111.137812) scale(0.12 -0.12)">
     <defs>
      <path id="DejaVuSans-Bold-32" d="M 1844 884 
L 3897 884 
L 3897 0 
L 506 0 
L 506 884 
L 2209 2388 
Q 2438 2594 2547 2791 
Q 2656 2988 2656 3200 
Q 2656 3528 2436 3728 
Q 2216 3928 1850 3928 
Q 1569 3928 1234 3808 
Q 900 3688 519 3450 
L 519 4475 
Q 925 4609 1322 4679 
Q 1719 4750 2100 4750 
Q 2938 4750 3402 4381 
Q 3866 4013 3866 3353 
Q 3866 2972 3669 2642 
Q 3472 2313 2841 1759 
L 1844 884 
z
" transform="scale(0.015625)"/>
      <path id="DejaVuSans-Bold-41" d="M 3419 850 
L 1538 850 
L 1241 0 
L 31 0 
L 1759 4666 
L 3194 4666 
L 4922 0 
L 3713 0 
L 3419 850 
z
M 1838 1716 
L 3116 1716 
L 2478 3572 
L 1838 1716 
z
" transform="scale(0.015625)"/>
     </defs>
     <use xlink:href="#DejaVuSans-Bold-49"/>
     <use xlink:href="#DejaVuSans-Bold-3d" transform="translate(37.207031 0)"/>
     <use xlink:href="#DejaVuSans-Bold-31" transform="translate(120.996094 0)"/>
     <use xlink:href="#DejaVuSans-Bold-32" transform="translate(190.576172 0)"/>
     <use xlink:href="#DejaVuSans-Bold-41" transform="translate(260.15625 0)"/>
    </g>
   </g>
   <g id="text_7">
    <!-- B(⊗) -->
    <g style="fill: #d946ef" transform="translate(391.32 250.817812) scale(0.14 -0.14)">
     <defs>
      <path id="DejaVuSans-Bold-42" d="M 2456 2859 
Q 2741 2859 2887 2984 
Q 3034 3109 3034 3353 
Q 3034 3594 2887 3720 
Q 2741 3847 2456 3847 
L 1791 3847 
L 1791 2859 
L 2456 2859 
z
M 2497 819 
Q 2859 819 3042 972 
Q 3225 1125 3225 1434 
Q 3225 1738 3044 1889 
Q 2863 2041 2497 2041 
L 1791 2041 
L 1791 819 
L 2497 819 
z
M 3616 2497 
Q 4003 2384 4215 2081 
Q 4428 1778 4428 1338 
Q 4428 663 3972 331 
Q 3516 0 2584 0 
L 588 0 
L 588 4666 
L 2394 4666 
Q 3366 4666 3802 4372 
Q 4238 4078 4238 3431 
Q 4238 3091 4078 2852 
Q 3919 2613 3616 2497 
z
" transform="scale(0.015625)"/>
      <path id="DejaVuSans-Bold-28" d="M 2413 -844 
L 1484 -844 
Q 1006 -72 778 623 
Q 550 1319 550 2003 
Q 550 2688 779 3389 
Q 1009 4091 1484 4856 
L 2413 4856 
Q 2013 4116 1813 3408 
Q 1613 2700 1613 2009 
Q 1613 1319 1811 609 
Q 2009 -100 2413 -844 
z
" transform="scale(0.015625)"/>
      <path id="DejaVuSans-Bold-2297" d="M 3247 3378 
Q 2984 3488 2681 3488 
Q 2378 3488 2116 3378 
Q 1856 3269 1641 3053 
Q 1422 2834 1315 2575 
Q 1209 2316 1209 2006 
Q 1209 1706 1315 1447 
Q 1422 1188 1641 969 
Q 1856 753 2116 644 
Q 2378 534 2681 534 
Q 2984 534 3247 644 
Q 3506 753 3722 969 
Q 3941 1188 4047 1447 
Q 4153 1706 4153 2006 
Q 4153 2316 4047 2575 
Q 3941 2834 3722 3053 
Q 3506 3269 3247 3378 
z
M 1878 3956 
Q 2250 4113 2681 4113 
Q 3113 4113 3484 3956 
Q 3856 3800 4163 3494 
Q 4472 3184 4625 2813 
Q 4778 2444 4778 2006 
Q 4778 1578 4625 1206 
Q 4472 838 4163 528 
Q 3856 222 3484 65 
Q 3113 -91 2681 -91 
Q 2250 -91 1878 65 
Q 1506 222 1200 528 
Q 891 838 738 1206 
Q 584 1578 584 2006 
Q 584 2444 738 2813 
Q 891 3184 1200 3494 
Q 1506 3800 1878 3956 
z
M 3813 2697 
L 3122 2006 
L 3813 1316 
L 3372 875 
L 2681 1566 
L 1991 875 
L 1550 1316 
L 2241 2006 
L 1550 2697 
L 1991 3138 
L 2681 2447 
L 3372 3138 
L 3813 2697 
z
" transform="scale(0.015625)"/>
      <path id="DejaVuSans-Bold-29" d="M 513 -844 
Q 913 -100 1113 609 
Q 1313 1319 1313 2009 
Q 1313 2700 1113 3408 
Q 913 4116 513 4856 
L 1441 4856 
Q 1916 4091 2145 3389 
Q 2375 2688 2375 2003 
Q 2375 1319 2147 623 
Q 1919 -72 1441 -844 
L 513 -844 
z
" transform="scale(0.015625)"/>
     </defs>
     <use xlink:href="#DejaVuSans-Bold-42"/>
     <use xlink:href="#DejaVuSans-Bold-28" transform="translate(76.220703 0)"/>
     <use xlink:href="#DejaVuSans-Bold-2297" transform="translate(121.923828 0)"/>
     <use xlink:href="#DejaVuSans-Bold-29" transform="translate(205.712891 0)"/>
    </g>
   </g>
   <g id="text_8">
    <!-- Bent Wire Configuration -->
    <g transform="translate(260.712187 17.837812) scale(0.14 -0.14)">
     <defs>
      <path id="DejaVuSans-Bold-65" d="M 4031 1759 
L 4031 1441 
L 1416 1441 
Q 1456 1047 1700 850 
Q 1944 653 2381 653 
Q 2734 653 3104 758 
Q 3475 863 3866 1075 
L 3866 213 
Q 3469 63 3072 -14 
Q 2675 -91 2278 -91 
Q 1328 -91 801 392 
Q 275 875 275 1747 
Q 275 2603 792 3093 
Q 1309 3584 2216 3584 
Q 3041 3584 3536 3087 
Q 4031 2591 4031 1759 
z
M 2881 2131 
Q 2881 2450 2695 2645 
Q 2509 2841 2209 2841 
Q 1884 2841 1681 2658 
Q 1478 2475 1428 2131 
L 2881 2131 
z
" transform="scale(0.015625)"/>
      <path id="DejaVuSans-Bold-6e" d="M 4056 2131 
L 4056 0 
L 2931 0 
L 2931 347 
L 2931 1631 
Q 2931 2084 2911 2256 
Q 2891 2428 2841 2509 
Q 2775 2619 2662 2680 
Q 2550 2741 2406 2741 
Q 2056 2741 1856 2470 
Q 1656 2200 1656 1722 
L 1656 0 
L 538 0 
L 538 3500 
L 1656 3500 
L 1656 2988 
Q 1909 3294 2193 3439 
Q 2478 3584 2822 3584 
Q 3428 3584 3742 3212 
Q 4056 2841 4056 2131 
z
" transform="scale(0.015625)"/>
      <path id="DejaVuSans-Bold-74" d="M 1759 4494 
L 1759 3500 
L 2913 3500 
L 2913 2700 
L 1759 2700 
L 1759 1216 
Q 1759 972 1856 886 
Q 1953 800 2241 800 
L 2816 800 
L 2816 0 
L 1856 0 
Q 1194 0 917 276 
Q 641 553 641 1216 
L 641 2700 
L 84 2700 
L 84 3500 
L 641 3500 
L 641 4494 
L 1759 4494 
z
" transform="scale(0.015625)"/>
      <path id="DejaVuSans-Bold-20" transform="scale(0.015625)"/>
      <path id="DejaVuSans-Bold-57" d="M 191 4666 
L 1344 4666 
L 2150 1275 
L 2950 4666 
L 4109 4666 
L 4909 1275 
L 5716 4666 
L 6859 4666 
L 5759 0 
L 4372 0 
L 3525 3547 
L 2688 0 
L 1300 0 
L 191 4666 
z
" transform="scale(0.015625)"/>
      <path id="DejaVuSans-Bold-69" d="M 538 3500 
L 1656 3500 
L 1656 0 
L 538 0 
L 538 3500 
z
M 538 4863 
L 1656 4863 
L 1656 3950 
L 538 3950 
L 538 4863 
z
" transform="scale(0.015625)"/>
      <path id="DejaVuSans-Bold-72" d="M 3138 2547 
Q 2991 2616 2845 2648 
Q 2700 2681 2553 2681 
Q 2122 2681 1889 2404 
Q 1656 2128 1656 1613 
L 1656 0 
L 538 0 
L 538 3500 
L 1656 3500 
L 1656 2925 
Q 1872 3269 2151 3426 
Q 2431 3584 2822 3584 
Q 2878 3584 2943 3579 
Q 3009 3575 3134 3559 
L 3138 2547 
z
" transform="scale(0.015625)"/>
      <path id="DejaVuSans-Bold-43" d="M 4288 256 
Q 3956 84 3597 -3 
Q 3238 -91 2847 -91 
Q 1681 -91 1000 561 
Q 319 1213 319 2328 
Q 319 3447 1000 4098 
Q 1681 4750 2847 4750 
Q 3238 4750 3597 4662 
Q 3956 4575 4288 4403 
L 4288 3438 
Q 3953 3666 3628 3772 
Q 3303 3878 2944 3878 
Q 2300 3878 1931 3465 
Q 1563 3053 1563 2328 
Q 1563 1606 1931 1193 
Q 2300 781 2944 781 
Q 3303 781 3628 887 
Q 3953 994 4288 1222 
L 4288 256 
z
" transform="scale(0.015625)"/>
      <path id="DejaVuSans-Bold-6f" d="M 2203 2784 
Q 1831 2784 1636 2517 
Q 1441 2250 1441 1747 
Q 1441 1244 1636 976 
Q 1831 709 2203 709 
Q 2569 709 2762 976 
Q 2956 1244 2956 1747 
Q 2956 2250 2762 2517 
Q 2569 2784 2203 2784 
z
M 2203 3584 
Q 3106 3584 3614 3096 
Q 4122 2609 4122 1747 
Q 4122 884 3614 396 
Q 3106 -91 2203 -91 
Q 1297 -91 786 396 
Q 275 884 275 1747 
Q 275 2609 786 3096 
Q 1297 3584 2203 3584 
z
" transform="scale(0.015625)"/>
      <path id="DejaVuSans-Bold-66" d="M 2841 4863 
L 2841 4128 
L 2222 4128 
Q 1984 4128 1890 4042 
Q 1797 3956 1797 3744 
L 1797 3500 
L 2753 3500 
L 2753 2700 
L 1797 2700 
L 1797 0 
L 678 0 
L 678 2700 
L 122 2700 
L 122 3500 
L 678 3500 
L 678 3744 
Q 678 4316 997 4589 
Q 1316 4863 1984 4863 
L 2841 4863 
z
" transform="scale(0.015625)"/>
      <path id="DejaVuSans-Bold-67" d="M 2919 594 
Q 2688 288 2409 144 
Q 2131 0 1766 0 
Q 1125 0 706 504 
Q 288 1009 288 1791 
Q 288 2575 706 3076 
Q 1125 3578 1766 3578 
Q 2131 3578 2409 3434 
Q 2688 3291 2919 2981 
L 2919 3500 
L 4044 3500 
L 4044 353 
Q 4044 -491 3511 -936 
Q 2978 -1381 1966 -1381 
Q 1638 -1381 1331 -1331 
Q 1025 -1281 716 -1178 
L 716 -306 
Q 1009 -475 1290 -558 
Q 1572 -641 1856 -641 
Q 2406 -641 2662 -400 
Q 2919 -159 2919 353 
L 2919 594 
z
M 2181 2772 
Q 1834 2772 1640 2515 
Q 1447 2259 1447 1791 
Q 1447 1309 1634 1061 
Q 1822 813 2181 813 
Q 2531 813 2725 1069 
Q 2919 1325 2919 1791 
Q 2919 2259 2725 2515 
Q 2531 2772 2181 2772 
z
" transform="scale(0.015625)"/>
      <path id="DejaVuSans-Bold-75" d="M 500 1363 
L 500 3500 
L 1625 3500 
L 1625 3150 
Q 1625 2866 1622 2436 
Q 1619 2006 1619 1863 
Q 1619 1441 1641 1255 
Q 1663 1069 1716 984 
Q 1784 875 1895 815 
Q 2006 756 2150 756 
Q 2500 756 2700 1025 
Q 2900 1294 2900 1772 
L 2900 3500 
L 4019 3500 
L 4019 0 
L 2900 0 
L 2900 506 
Q 2647 200 2364 54 
Q 2081 -91 1741 -91 
Q 1134 -91 817 281 
Q 500 653 500 1363 
z
" transform="scale(0.015625)"/>
      <path id="DejaVuSans-Bold-61" d="M 2106 1575 
Q 1756 1575 1579 1456 
Q 1403 1338 1403 1106 
Q 1403 894 1545 773 
Q 1688 653 1941 653 
Q 2256 653 2472 879 
Q 2688 1106 2688 1447 
L 2688 1575 
L 2106 1575 
z
M 3816 1997 
L 3816 0 
L 2688 0 
L 2688 519 
Q 2463 200 2181 54 
Q 1900 -91 1497 -91 
Q 953 -91 614 226 
Q 275 544 275 1050 
Q 275 1666 698 1953 
Q 1122 2241 2028 2241 
L 2688 2241 
L 2688 2328 
Q 2688 2594 2478 2717 
Q 2269 2841 1825 2841 
Q 1466 2841 1156 2769 
Q 847 2697 581 2553 
L 581 3406 
Q 941 3494 1303 3539 
Q 1666 3584 2028 3584 
Q 2975 3584 3395 3211 
Q 3816 2838 3816 1997 
z
" transform="scale(0.015625)"/>
     </defs>
     <use xlink:href="#DejaVuSans-Bold-42"/>
     <use xlink:href="#DejaVuSans-Bold-65" transform="translate(76.220703 0)"/>
     <use xlink:href="#DejaVuSans-Bold-6e" transform="translate(144.042969 0)"/>
     <use xlink:href="#DejaVuSans-Bold-74" transform="translate(215.234375 0)"/>
     <use xlink:href="#DejaVuSans-Bold-20" transform="translate(263.037109 0)"/>
     <use xlink:href="#DejaVuSans-Bold-57" transform="translate(297.851562 0)"/>
     <use xlink:href="#DejaVuSans-Bold-69" transform="translate(408.154297 0)"/>
     <use xlink:href="#DejaVuSans-Bold-72" transform="translate(442.431641 0)"/>
     <use xlink:href="#DejaVuSans-Bold-65" transform="translate(491.748047 0)"/>
     <use xlink:href="#DejaVuSans-Bold-20" transform="translate(559.570312 0)"/>
     <use xlink:href="#DejaVuSans-Bold-43" transform="translate(594.384766 0)"/>
     <use xlink:href="#DejaVuSans-Bold-6f" transform="translate(667.773438 0)"/>
     <use xlink:href="#DejaVuSans-Bold-6e" transform="translate(736.474609 0)"/>
     <use xlink:href="#DejaVuSans-Bold-66" transform="translate(807.666016 0)"/>
     <use xlink:href="#DejaVuSans-Bold-69" transform="translate(851.171875 0)"/>
     <use xlink:href="#DejaVuSans-Bold-67" transform="translate(885.449219 0)"/>
     <use xlink:href="#DejaVuSans-Bold-75" transform="translate(957.03125 0)"/>
     <use xlink:href="#DejaVuSans-Bold-72" transform="translate(1028.222656 0)"/>
     <use xlink:href="#DejaVuSans-Bold-61" transform="translate(1077.539062 0)"/>
     <use xlink:href="#DejaVuSans-Bold-74" transform="translate(1145.019531 0)"/>
     <use xlink:href="#DejaVuSans-Bold-69" transform="translate(1192.822266 0)"/>
     <use xlink:href="#DejaVuSans-Bold-6f" transform="translate(1227.099609 0)"/>
     <use xlink:href="#DejaVuSans-Bold-6e" transform="translate(1295.800781 0)"/>
    </g>
   </g>
  </g>
 </g>
 <defs>
  <clipPath id="p1d0478836d">
   <rect x="7.2" y="23.837812" width="698.4" height="523.8"/>
  </clipPath>
 </defs>
</svg>
