<?xml version="1.0" encoding="utf-8" standalone="no"?>
<!DOCTYPE svg PUBLIC "-//W3C//DTD SVG 1.1//EN"
  "http://www.w3.org/Graphics/SVG/1.1/DTD/svg11.dtd">
<svg xmlns:xlink="http://www.w3.org/1999/xlink" width="559.97642pt" height="424.597969pt" viewBox="0 0 559.97642 424.597969" xmlns="http://www.w3.org/2000/svg" version="1.1">
 <metadata>
  <rdf:RDF xmlns:dc="http://purl.org/dc/elements/1.1/" xmlns:cc="http://creativecommons.org/ns#" xmlns:rdf="http://www.w3.org/1999/02/22-rdf-syntax-ns#">
   <cc:Work>
    <dc:type rdf:resource="http://purl.org/dc/dcmitype/StillImage"/>
    <dc:date>2025-12-12T18:46:05.980856</dc:date>
    <dc:format>image/svg+xml</dc:format>
    <dc:creator>
     <cc:Agent>
      <dc:title>Matplotlib v3.10.7, https://matplotlib.org/</dc:title>
     </cc:Agent>
    </dc:creator>
   </cc:Work>
  </rdf:RDF>
 </metadata>
 <defs>
  <style type="text/css">*{stroke-linejoin: round; stroke-linecap: butt}</style>
 </defs>
 <g id="figure_1">
  <g id="patch_1">
   <path d="M 0 424.597969 
L 559.97642 424.597969 
L 559.97642 0 
L 0 0 
z
" style="fill: #ffffff"/>
  </g>
  <g id="axes_1">
   <g id="patch_2">
    <path d="M 123.963636 300.634332 
L 357.490909 300.634332 
L 357.490909 125.488878 
L 123.963636 125.488878 
L 123.963636 300.634332 
z
" clip-path="url(#p2dd14d3085)" style="fill: none; stroke: #6b46c1; stroke-width: 3; stroke-linejoin: miter"/>
   </g>
   <g id="patch_3">
    <path d="M 30.552727 337.998696 
L 35.223273 347.339787 
L 30.611109 347.339787 
L 30.611109 394.045241 
L 30.494345 394.045241 
L 30.494345 347.339787 
L 25.882182 347.339787 
z
" clip-path="url(#p2dd14d3085)" style="fill: #d946ef; opacity: 0.7; stroke: #d946ef; stroke-width: 1.5; stroke-linejoin: miter"/>
   </g>
   <g id="patch_4">
    <path d="M 60.577662 337.998696 
L 65.248208 347.339787 
L 60.636044 347.339787 
L 60.636044 394.045241 
L 60.519281 394.045241 
L 60.519281 347.339787 
L 55.907117 347.339787 
z
" clip-path="url(#p2dd14d3085)" style="fill: #d946ef; opacity: 0.7; stroke: #d946ef; stroke-width: 1.5; stroke-linejoin: miter"/>
   </g>
   <g id="patch_5">
    <path d="M 90.602597 337.998696 
L 95.273143 347.339787 
L 90.660979 347.339787 
L 90.660979 394.045241 
L 90.544216 394.045241 
L 90.544216 347.339787 
L 85.932052 347.339787 
z
" clip-path="url(#p2dd14d3085)" style="fill: #d946ef; opacity: 0.7; stroke: #d946ef; stroke-width: 1.5; stroke-linejoin: miter"/>
   </g>
   <g id="patch_6">
    <path d="M 120.627532 337.998696 
L 125.298078 347.339787 
L 120.685914 347.339787 
L 120.685914 394.045241 
L 120.569151 394.045241 
L 120.569151 347.339787 
L 115.956987 347.339787 
z
" clip-path="url(#p2dd14d3085)" style="fill: #d946ef; opacity: 0.7; stroke: #d946ef; stroke-width: 1.5; stroke-linejoin: miter"/>
   </g>
   <g id="patch_7">
    <path d="M 150.652468 337.998696 
L 155.323013 347.339787 
L 150.710849 347.339787 
L 150.710849 394.045241 
L 150.594086 394.045241 
L 150.594086 347.339787 
L 145.981922 347.339787 
z
" clip-path="url(#p2dd14d3085)" style="fill: #d946ef; opacity: 0.7; stroke: #d946ef; stroke-width: 1.5; stroke-linejoin: miter"/>
   </g>
   <g id="patch_8">
    <path d="M 180.677403 337.998696 
L 185.347948 347.339787 
L 180.735784 347.339787 
L 180.735784 394.045241 
L 180.619021 394.045241 
L 180.619021 347.339787 
L 176.006857 347.339787 
z
" clip-path="url(#p2dd14d3085)" style="fill: #d946ef; opacity: 0.7; stroke: #d946ef; stroke-width: 1.5; stroke-linejoin: miter"/>
   </g>
   <g id="patch_9">
    <path d="M 210.702338 337.998696 
L 215.372883 347.339787 
L 210.760719 347.339787 
L 210.760719 394.045241 
L 210.643956 394.045241 
L 210.643956 347.339787 
L 206.031792 347.339787 
z
" clip-path="url(#p2dd14d3085)" style="fill: #d946ef; opacity: 0.7; stroke: #d946ef; stroke-width: 1.5; stroke-linejoin: miter"/>
   </g>
   <g id="patch_10">
    <path d="M 240.727273 337.998696 
L 245.397818 347.339787 
L 240.785655 347.339787 
L 240.785655 394.045241 
L 240.668891 394.045241 
L 240.668891 347.339787 
L 236.056727 347.339787 
z
" clip-path="url(#p2dd14d3085)" style="fill: #d946ef; opacity: 0.7; stroke: #d946ef; stroke-width: 1.5; stroke-linejoin: miter"/>
   </g>
   <g id="patch_11">
    <path d="M 270.752208 337.998696 
L 275.422753 347.339787 
L 270.81059 347.339787 
L 270.81059 394.045241 
L 270.693826 394.045241 
L 270.693826 347.339787 
L 266.081662 347.339787 
z
" clip-path="url(#p2dd14d3085)" style="fill: #d946ef; opacity: 0.7; stroke: #d946ef; stroke-width: 1.5; stroke-linejoin: miter"/>
   </g>
   <g id="patch_12">
    <path d="M 300.777143 337.998696 
L 305.447688 347.339787 
L 300.835525 347.339787 
L 300.835525 394.045241 
L 300.718761 394.045241 
L 300.718761 347.339787 
L 296.106597 347.339787 
z
" clip-path="url(#p2dd14d3085)" style="fill: #d946ef; opacity: 0.7; stroke: #d946ef; stroke-width: 1.5; stroke-linejoin: miter"/>
   </g>
   <g id="patch_13">
    <path d="M 330.802078 337.998696 
L 335.472623 347.339787 
L 330.86046 347.339787 
L 330.86046 394.045241 
L 330.743696 394.045241 
L 330.743696 347.339787 
L 326.131532 347.339787 
z
" clip-path="url(#p2dd14d3085)" style="fill: #d946ef; opacity: 0.7; stroke: #d946ef; stroke-width: 1.5; stroke-linejoin: miter"/>
   </g>
   <g id="patch_14">
    <path d="M 360.827013 337.998696 
L 365.497558 347.339787 
L 360.885395 347.339787 
L 360.885395 394.045241 
L 360.768631 394.045241 
L 360.768631 347.339787 
L 356.156468 347.339787 
z
" clip-path="url(#p2dd14d3085)" style="fill: #d946ef; opacity: 0.7; stroke: #d946ef; stroke-width: 1.5; stroke-linejoin: miter"/>
   </g>
   <g id="patch_15">
    <path d="M 390.851948 337.998696 
L 395.522494 347.339787 
L 390.91033 347.339787 
L 390.91033 394.045241 
L 390.793566 394.045241 
L 390.793566 347.339787 
L 386.181403 347.339787 
z
" clip-path="url(#p2dd14d3085)" style="fill: #d946ef; opacity: 0.7; stroke: #d946ef; stroke-width: 1.5; stroke-linejoin: miter"/>
   </g>
   <g id="patch_16">
    <path d="M 420.876883 337.998696 
L 425.547429 347.339787 
L 420.935265 347.339787 
L 420.935265 394.045241 
L 420.818501 394.045241 
L 420.818501 347.339787 
L 416.206338 347.339787 
z
" clip-path="url(#p2dd14d3085)" style="fill: #d946ef; opacity: 0.7; stroke: #d946ef; stroke-width: 1.5; stroke-linejoin: miter"/>
   </g>
   <g id="patch_17">
    <path d="M 450.901818 337.998696 
L 455.572364 347.339787 
L 450.9602 347.339787 
L 450.9602 394.045241 
L 450.843436 394.045241 
L 450.843436 347.339787 
L 446.231273 347.339787 
z
" clip-path="url(#p2dd14d3085)" style="fill: #d946ef; opacity: 0.7; stroke: #d946ef; stroke-width: 1.5; stroke-linejoin: miter"/>
   </g>
   <g id="patch_18">
    <path d="M 30.552727 46.089605 
L 35.223273 55.430696 
L 30.611109 55.430696 
L 30.611109 102.136151 
L 30.494345 102.136151 
L 30.494345 55.430696 
L 25.882182 55.430696 
z
" clip-path="url(#p2dd14d3085)" style="fill: #d946ef; opacity: 0.7; stroke: #d946ef; stroke-width: 1.5; stroke-linejoin: miter"/>
   </g>
   <g id="patch_19">
    <path d="M 60.577662 46.089605 
L 65.248208 55.430696 
L 60.636044 55.430696 
L 60.636044 102.136151 
L 60.519281 102.136151 
L 60.519281 55.430696 
L 55.907117 55.430696 
z
" clip-path="url(#p2dd14d3085)" style="fill: #d946ef; opacity: 0.7; stroke: #d946ef; stroke-width: 1.5; stroke-linejoin: miter"/>
   </g>
   <g id="patch_20">
    <path d="M 90.602597 46.089605 
L 95.273143 55.430696 
L 90.660979 55.430696 
L 90.660979 102.136151 
L 90.544216 102.136151 
L 90.544216 55.430696 
L 85.932052 55.430696 
z
" clip-path="url(#p2dd14d3085)" style="fill: #d946ef; opacity: 0.7; stroke: #d946ef; stroke-width: 1.5; stroke-linejoin: miter"/>
   </g>
   <g id="patch_21">
    <path d="M 120.627532 46.089605 
L 125.298078 55.430696 
L 120.685914 55.430696 
L 120.685914 102.136151 
L 120.569151 102.136151 
L 120.569151 55.430696 
L 115.956987 55.430696 
z
" clip-path="url(#p2dd14d3085)" style="fill: #d946ef; opacity: 0.7; stroke: #d946ef; stroke-width: 1.5; stroke-linejoin: miter"/>
   </g>
   <g id="patch_22">
    <path d="M 150.652468 46.089605 
L 155.323013 55.430696 
L 150.710849 55.430696 
L 150.710849 102.136151 
L 150.594086 102.136151 
L 150.594086 55.430696 
L 145.981922 55.430696 
z
" clip-path="url(#p2dd14d3085)" style="fill: #d946ef; opacity: 0.7; stroke: #d946ef; stroke-width: 1.5; stroke-linejoin: miter"/>
   </g>
   <g id="patch_23">
    <path d="M 180.677403 46.089605 
L 185.347948 55.430696 
L 180.735784 55.430696 
L 180.735784 102.136151 
L 180.619021 102.136151 
L 180.619021 55.430696 
L 176.006857 55.430696 
z
" clip-path="url(#p2dd14d3085)" style="fill: #d946ef; opacity: 0.7; stroke: #d946ef; stroke-width: 1.5; stroke-linejoin: miter"/>
   </g>
   <g id="patch_24">
    <path d="M 210.702338 46.089605 
L 215.372883 55.430696 
L 210.760719 55.430696 
L 210.760719 102.136151 
L 210.643956 102.136151 
L 210.643956 55.430696 
L 206.031792 55.430696 
z
" clip-path="url(#p2dd14d3085)" style="fill: #d946ef; opacity: 0.7; stroke: #d946ef; stroke-width: 1.5; stroke-linejoin: miter"/>
   </g>
   <g id="patch_25">
    <path d="M 240.727273 46.089605 
L 245.397818 55.430696 
L 240.785655 55.430696 
L 240.785655 102.136151 
L 240.668891 102.136151 
L 240.668891 55.430696 
L 236.056727 55.430696 
z
" clip-path="url(#p2dd14d3085)" style="fill: #d946ef; opacity: 0.7; stroke: #d946ef; stroke-width: 1.5; stroke-linejoin: miter"/>
   </g>
   <g id="patch_26">
    <path d="M 270.752208 46.089605 
L 275.422753 55.430696 
L 270.81059 55.430696 
L 270.81059 102.136151 
L 270.693826 102.136151 
L 270.693826 55.430696 
L 266.081662 55.430696 
z
" clip-path="url(#p2dd14d3085)" style="fill: #d946ef; opacity: 0.7; stroke: #d946ef; stroke-width: 1.5; stroke-linejoin: miter"/>
   </g>
   <g id="patch_27">
    <path d="M 300.777143 46.089605 
L 305.447688 55.430696 
L 300.835525 55.430696 
L 300.835525 102.136151 
L 300.718761 102.136151 
L 300.718761 55.430696 
L 296.106597 55.430696 
z
" clip-path="url(#p2dd14d3085)" style="fill: #d946ef; opacity: 0.7; stroke: #d946ef; stroke-width: 1.5; stroke-linejoin: miter"/>
   </g>
   <g id="patch_28">
    <path d="M 330.802078 46.089605 
L 335.472623 55.430696 
L 330.86046 55.430696 
L 330.86046 102.136151 
L 330.743696 102.136151 
L 330.743696 55.430696 
L 326.131532 55.430696 
z
" clip-path="url(#p2dd14d3085)" style="fill: #d946ef; opacity: 0.7; stroke: #d946ef; stroke-width: 1.5; stroke-linejoin: miter"/>
   </g>
   <g id="patch_29">
    <path d="M 360.827013 46.089605 
L 365.497558 55.430696 
L 360.885395 55.430696 
L 360.885395 102.136151 
L 360.768631 102.136151 
L 360.768631 55.430696 
L 356.156468 55.430696 
z
" clip-path="url(#p2dd14d3085)" style="fill: #d946ef; opacity: 0.7; stroke: #d946ef; stroke-width: 1.5; stroke-linejoin: miter"/>
   </g>
   <g id="patch_30">
    <path d="M 390.851948 46.089605 
L 395.522494 55.430696 
L 390.91033 55.430696 
L 390.91033 102.136151 
L 390.793566 102.136151 
L 390.793566 55.430696 
L 386.181403 55.430696 
z
" clip-path="url(#p2dd14d3085)" style="fill: #d946ef; opacity: 0.7; stroke: #d946ef; stroke-width: 1.5; stroke-linejoin: miter"/>
   </g>
   <g id="patch_31">
    <path d="M 420.876883 46.089605 
L 425.547429 55.430696 
L 420.935265 55.430696 
L 420.935265 102.136151 
L 420.818501 102.136151 
L 420.818501 55.430696 
L 416.206338 55.430696 
z
" clip-path="url(#p2dd14d3085)" style="fill: #d946ef; opacity: 0.7; stroke: #d946ef; stroke-width: 1.5; stroke-linejoin: miter"/>
   </g>
   <g id="patch_32">
    <path d="M 450.901818 46.089605 
L 455.572364 55.430696 
L 450.9602 55.430696 
L 450.9602 102.136151 
L 450.843436 102.136151 
L 450.843436 55.430696 
L 446.231273 55.430696 
z
" clip-path="url(#p2dd14d3085)" style="fill: #d946ef; opacity: 0.7; stroke: #d946ef; stroke-width: 1.5; stroke-linejoin: miter"/>
   </g>
   <g id="patch_33">
    <path d="M 425.213818 213.061605 
L 415.872727 218.899787 
L 415.872727 213.119987 
L 380.843636 213.119987 
L 380.843636 213.003223 
L 415.872727 213.003223 
L 415.872727 207.223423 
z
" clip-path="url(#p2dd14d3085)" style="fill: #ff0000; stroke: #ff0000; stroke-width: 2; stroke-linejoin: miter"/>
   </g>
   <g id="text_1">
    <!-- 50 turns -->
    <g style="fill: #6b46c1" transform="translate(214.713991 213.061605) scale(0.11 -0.11)">
     <defs>
      <path id="DejaVuSans-Bold-35" d="M 678 4666 
L 3669 4666 
L 3669 3781 
L 1638 3781 
L 1638 3059 
Q 1775 3097 1914 3117 
Q 2053 3138 2203 3138 
Q 3056 3138 3531 2711 
Q 4006 2284 4006 1522 
Q 4006 766 3489 337 
Q 2972 -91 2053 -91 
Q 1656 -91 1267 -14 
Q 878 63 494 219 
L 494 1166 
Q 875 947 1217 837 
Q 1559 728 1863 728 
Q 2300 728 2551 942 
Q 2803 1156 2803 1522 
Q 2803 1891 2551 2103 
Q 2300 2316 1863 2316 
Q 1603 2316 1309 2248 
Q 1016 2181 678 2041 
L 678 4666 
z
" transform="scale(0.015625)"/>
      <path id="DejaVuSans-Bold-30" d="M 2944 2338 
Q 2944 3213 2780 3570 
Q 2616 3928 2228 3928 
Q 1841 3928 1675 3570 
Q 1509 3213 1509 2338 
Q 1509 1453 1675 1090 
Q 1841 728 2228 728 
Q 2613 728 2778 1090 
Q 2944 1453 2944 2338 
z
M 4147 2328 
Q 4147 1169 3647 539 
Q 3147 -91 2228 -91 
Q 1306 -91 806 539 
Q 306 1169 306 2328 
Q 306 3491 806 4120 
Q 1306 4750 2228 4750 
Q 3147 4750 3647 4120 
Q 4147 3491 4147 2328 
z
" transform="scale(0.015625)"/>
      <path id="DejaVuSans-Bold-20" transform="scale(0.015625)"/>
      <path id="DejaVuSans-Bold-74" d="M 1759 4494 
L 1759 3500 
L 2913 3500 
L 2913 2700 
L 1759 2700 
L 1759 1216 
Q 1759 972 1856 886 
Q 1953 800 2241 800 
L 2816 800 
L 2816 0 
L 1856 0 
Q 1194 0 917 276 
Q 641 553 641 1216 
L 641 2700 
L 84 2700 
L 84 3500 
L 641 3500 
L 641 4494 
L 1759 4494 
z
" transform="scale(0.015625)"/>
      <path id="DejaVuSans-Bold-75" d="M 500 1363 
L 500 3500 
L 1625 3500 
L 1625 3150 
Q 1625 2866 1622 2436 
Q 1619 2006 1619 1863 
Q 1619 1441 1641 1255 
Q 1663 1069 1716 984 
Q 1784 875 1895 815 
Q 2006 756 2150 756 
Q 2500 756 2700 1025 
Q 2900 1294 2900 1772 
L 2900 3500 
L 4019 3500 
L 4019 0 
L 2900 0 
L 2900 506 
Q 2647 200 2364 54 
Q 2081 -91 1741 -91 
Q 1134 -91 817 281 
Q 500 653 500 1363 
z
" transform="scale(0.015625)"/>
      <path id="DejaVuSans-Bold-72" d="M 3138 2547 
Q 2991 2616 2845 2648 
Q 2700 2681 2553 2681 
Q 2122 2681 1889 2404 
Q 1656 2128 1656 1613 
L 1656 0 
L 538 0 
L 538 3500 
L 1656 3500 
L 1656 2925 
Q 1872 3269 2151 3426 
Q 2431 3584 2822 3584 
Q 2878 3584 2943 3579 
Q 3009 3575 3134 3559 
L 3138 2547 
z
" transform="scale(0.015625)"/>
      <path id="DejaVuSans-Bold-6e" d="M 4056 2131 
L 4056 0 
L 2931 0 
L 2931 347 
L 2931 1631 
Q 2931 2084 2911 2256 
Q 2891 2428 2841 2509 
Q 2775 2619 2662 2680 
Q 2550 2741 2406 2741 
Q 2056 2741 1856 2470 
Q 1656 2200 1656 1722 
L 1656 0 
L 538 0 
L 538 3500 
L 1656 3500 
L 1656 2988 
Q 1909 3294 2193 3439 
Q 2478 3584 2822 3584 
Q 3428 3584 3742 3212 
Q 4056 2841 4056 2131 
z
" transform="scale(0.015625)"/>
      <path id="DejaVuSans-Bold-73" d="M 3272 3391 
L 3272 2541 
Q 2913 2691 2578 2766 
Q 2244 2841 1947 2841 
Q 1628 2841 1473 2761 
Q 1319 2681 1319 2516 
Q 1319 2381 1436 2309 
Q 1553 2238 1856 2203 
L 2053 2175 
Q 2913 2066 3209 1816 
Q 3506 1566 3506 1031 
Q 3506 472 3093 190 
Q 2681 -91 1863 -91 
Q 1516 -91 1145 -36 
Q 775 19 384 128 
L 384 978 
Q 719 816 1070 734 
Q 1422 653 1784 653 
Q 2113 653 2278 743 
Q 2444 834 2444 1013 
Q 2444 1163 2330 1236 
Q 2216 1309 1875 1350 
L 1678 1375 
Q 931 1469 631 1722 
Q 331 1975 331 2491 
Q 331 3047 712 3315 
Q 1094 3584 1881 3584 
Q 2191 3584 2531 3537 
Q 2872 3491 3272 3391 
z
" transform="scale(0.015625)"/>
     </defs>
     <use xlink:href="#DejaVuSans-Bold-35"/>
     <use xlink:href="#DejaVuSans-Bold-30" transform="translate(69.580078 0)"/>
     <use xlink:href="#DejaVuSans-Bold-20" transform="translate(139.160156 0)"/>
     <use xlink:href="#DejaVuSans-Bold-74" transform="translate(173.974609 0)"/>
     <use xlink:href="#DejaVuSans-Bold-75" transform="translate(221.777344 0)"/>
     <use xlink:href="#DejaVuSans-Bold-72" transform="translate(292.96875 0)"/>
     <use xlink:href="#DejaVuSans-Bold-6e" transform="translate(342.285156 0)"/>
     <use xlink:href="#DejaVuSans-Bold-73" transform="translate(413.476562 0)"/>
    </g>
   </g>
   <g id="text_2">
    <!-- A = 0.1 m² -->
    <g style="fill: #6b46c1" transform="translate(213.523366 253.928878) scale(0.1 -0.1)">
     <defs>
      <path id="DejaVuSans-41" d="M 2188 4044 
L 1331 1722 
L 3047 1722 
L 2188 4044 
z
M 1831 4666 
L 2547 4666 
L 4325 0 
L 3669 0 
L 3244 1197 
L 1141 1197 
L 716 0 
L 50 0 
L 1831 4666 
z
" transform="scale(0.015625)"/>
      <path id="DejaVuSans-20" transform="scale(0.015625)"/>
      <path id="DejaVuSans-3d" d="M 678 2906 
L 4684 2906 
L 4684 2381 
L 678 2381 
L 678 2906 
z
M 678 1631 
L 4684 1631 
L 4684 1100 
L 678 1100 
L 678 1631 
z
" transform="scale(0.015625)"/>
      <path id="DejaVuSans-30" d="M 2034 4250 
Q 1547 4250 1301 3770 
Q 1056 3291 1056 2328 
Q 1056 1369 1301 889 
Q 1547 409 2034 409 
Q 2525 409 2770 889 
Q 3016 1369 3016 2328 
Q 3016 3291 2770 3770 
Q 2525 4250 2034 4250 
z
M 2034 4750 
Q 2819 4750 3233 4129 
Q 3647 3509 3647 2328 
Q 3647 1150 3233 529 
Q 2819 -91 2034 -91 
Q 1250 -91 836 529 
Q 422 1150 422 2328 
Q 422 3509 836 4129 
Q 1250 4750 2034 4750 
z
" transform="scale(0.015625)"/>
      <path id="DejaVuSans-2e" d="M 684 794 
L 1344 794 
L 1344 0 
L 684 0 
L 684 794 
z
" transform="scale(0.015625)"/>
      <path id="DejaVuSans-31" d="M 794 531 
L 1825 531 
L 1825 4091 
L 703 3866 
L 703 4441 
L 1819 4666 
L 2450 4666 
L 2450 531 
L 3481 531 
L 3481 0 
L 794 0 
L 794 531 
z
" transform="scale(0.015625)"/>
      <path id="DejaVuSans-6d" d="M 3328 2828 
Q 3544 3216 3844 3400 
Q 4144 3584 4550 3584 
Q 5097 3584 5394 3201 
Q 5691 2819 5691 2113 
L 5691 0 
L 5113 0 
L 5113 2094 
Q 5113 2597 4934 2840 
Q 4756 3084 4391 3084 
Q 3944 3084 3684 2787 
Q 3425 2491 3425 1978 
L 3425 0 
L 2847 0 
L 2847 2094 
Q 2847 2600 2669 2842 
Q 2491 3084 2119 3084 
Q 1678 3084 1418 2786 
Q 1159 2488 1159 1978 
L 1159 0 
L 581 0 
L 581 3500 
L 1159 3500 
L 1159 2956 
Q 1356 3278 1631 3431 
Q 1906 3584 2284 3584 
Q 2666 3584 2933 3390 
Q 3200 3197 3328 2828 
z
" transform="scale(0.015625)"/>
      <path id="DejaVuSans-b2" d="M 838 2444 
L 2163 2444 
L 2163 2088 
L 294 2088 
L 294 2431 
Q 400 2528 597 2703 
Q 1672 3656 1672 3950 
Q 1672 4156 1509 4282 
Q 1347 4409 1081 4409 
Q 919 4409 728 4354 
Q 538 4300 313 4191 
L 313 4575 
Q 553 4663 761 4706 
Q 969 4750 1147 4750 
Q 1600 4750 1872 4544 
Q 2144 4338 2144 4000 
Q 2144 3566 1109 2678 
Q 934 2528 838 2444 
z
" transform="scale(0.015625)"/>
     </defs>
     <use xlink:href="#DejaVuSans-41"/>
     <use xlink:href="#DejaVuSans-20" transform="translate(68.408203 0)"/>
     <use xlink:href="#DejaVuSans-3d" transform="translate(100.195312 0)"/>
     <use xlink:href="#DejaVuSans-20" transform="translate(183.984375 0)"/>
     <use xlink:href="#DejaVuSans-30" transform="translate(215.771484 0)"/>
     <use xlink:href="#DejaVuSans-2e" transform="translate(279.394531 0)"/>
     <use xlink:href="#DejaVuSans-31" transform="translate(311.181641 0)"/>
     <use xlink:href="#DejaVuSans-20" transform="translate(374.804688 0)"/>
     <use xlink:href="#DejaVuSans-6d" transform="translate(406.591797 0)"/>
     <use xlink:href="#DejaVuSans-b2" transform="translate(504.003906 0)"/>
    </g>
   </g>
   <g id="text_3">
    <!-- B field -->
    <g style="fill: #d946ef" transform="translate(39.670852 234.811605) rotate(-90) scale(0.12 -0.12)">
     <defs>
      <path id="DejaVuSans-Bold-42" d="M 2456 2859 
Q 2741 2859 2887 2984 
Q 3034 3109 3034 3353 
Q 3034 3594 2887 3720 
Q 2741 3847 2456 3847 
L 1791 3847 
L 1791 2859 
L 2456 2859 
z
M 2497 819 
Q 2859 819 3042 972 
Q 3225 1125 3225 1434 
Q 3225 1738 3044 1889 
Q 2863 2041 2497 2041 
L 1791 2041 
L 1791 819 
L 2497 819 
z
M 3616 2497 
Q 4003 2384 4215 2081 
Q 4428 1778 4428 1338 
Q 4428 663 3972 331 
Q 3516 0 2584 0 
L 588 0 
L 588 4666 
L 2394 4666 
Q 3366 4666 3802 4372 
Q 4238 4078 4238 3431 
Q 4238 3091 4078 2852 
Q 3919 2613 3616 2497 
z
" transform="scale(0.015625)"/>
      <path id="DejaVuSans-Bold-66" d="M 2841 4863 
L 2841 4128 
L 2222 4128 
Q 1984 4128 1890 4042 
Q 1797 3956 1797 3744 
L 1797 3500 
L 2753 3500 
L 2753 2700 
L 1797 2700 
L 1797 0 
L 678 0 
L 678 2700 
L 122 2700 
L 122 3500 
L 678 3500 
L 678 3744 
Q 678 4316 997 4589 
Q 1316 4863 1984 4863 
L 2841 4863 
z
" transform="scale(0.015625)"/>
      <path id="DejaVuSans-Bold-69" d="M 538 3500 
L 1656 3500 
L 1656 0 
L 538 0 
L 538 3500 
z
M 538 4863 
L 1656 4863 
L 1656 3950 
L 538 3950 
L 538 4863 
z
" transform="scale(0.015625)"/>
      <path id="DejaVuSans-Bold-65" d="M 4031 1759 
L 4031 1441 
L 1416 1441 
Q 1456 1047 1700 850 
Q 1944 653 2381 653 
Q 2734 653 3104 758 
Q 3475 863 3866 1075 
L 3866 213 
Q 3469 63 3072 -14 
Q 2675 -91 2278 -91 
Q 1328 -91 801 392 
Q 275 875 275 1747 
Q 275 2603 792 3093 
Q 1309 3584 2216 3584 
Q 3041 3584 3536 3087 
Q 4031 2591 4031 1759 
z
M 2881 2131 
Q 2881 2450 2695 2645 
Q 2509 2841 2209 2841 
Q 1884 2841 1681 2658 
Q 1478 2475 1428 2131 
L 2881 2131 
z
" transform="scale(0.015625)"/>
      <path id="DejaVuSans-Bold-6c" d="M 538 4863 
L 1656 4863 
L 1656 0 
L 538 0 
L 538 4863 
z
" transform="scale(0.015625)"/>
      <path id="DejaVuSans-Bold-64" d="M 2919 2988 
L 2919 4863 
L 4044 4863 
L 4044 0 
L 2919 0 
L 2919 506 
Q 2688 197 2409 53 
Q 2131 -91 1766 -91 
Q 1119 -91 703 423 
Q 288 938 288 1747 
Q 288 2556 703 3070 
Q 1119 3584 1766 3584 
Q 2128 3584 2408 3439 
Q 2688 3294 2919 2988 
z
M 2181 722 
Q 2541 722 2730 984 
Q 2919 1247 2919 1747 
Q 2919 2247 2730 2509 
Q 2541 2772 2181 2772 
Q 1825 2772 1636 2509 
Q 1447 2247 1447 1747 
Q 1447 1247 1636 984 
Q 1825 722 2181 722 
z
" transform="scale(0.015625)"/>
     </defs>
     <use xlink:href="#DejaVuSans-Bold-42"/>
     <use xlink:href="#DejaVuSans-Bold-20" transform="translate(76.220703 0)"/>
     <use xlink:href="#DejaVuSans-Bold-66" transform="translate(111.035156 0)"/>
     <use xlink:href="#DejaVuSans-Bold-69" transform="translate(154.541016 0)"/>
     <use xlink:href="#DejaVuSans-Bold-65" transform="translate(188.818359 0)"/>
     <use xlink:href="#DejaVuSans-Bold-6c" transform="translate(256.640625 0)"/>
     <use xlink:href="#DejaVuSans-Bold-64" transform="translate(290.917969 0)"/>
    </g>
   </g>
   <g id="text_4">
    <g id="patch_34">
     <path d="M 474.254545 130.568565 
L 552.77642 130.568565 
Q 555.77642 130.568565 555.77642 127.568565 
L 555.77642 117.89044 
Q 555.77642 114.89044 552.77642 114.89044 
L 474.254545 114.89044 
Q 471.254545 114.89044 471.254545 117.89044 
L 471.254545 127.568565 
Q 471.254545 130.568565 474.254545 130.568565 
z
" style="fill: #fde68a; opacity: 0.8; stroke: #000000; stroke-linejoin: miter"/>
    </g>
    <!-- B: 0.2 T → 0.8 T -->
    <g transform="translate(474.254545 125.488878) scale(0.1 -0.1)">
     <defs>
      <path id="DejaVuSans-42" d="M 1259 2228 
L 1259 519 
L 2272 519 
Q 2781 519 3026 730 
Q 3272 941 3272 1375 
Q 3272 1813 3026 2020 
Q 2781 2228 2272 2228 
L 1259 2228 
z
M 1259 4147 
L 1259 2741 
L 2194 2741 
Q 2656 2741 2882 2914 
Q 3109 3088 3109 3444 
Q 3109 3797 2882 3972 
Q 2656 4147 2194 4147 
L 1259 4147 
z
M 628 4666 
L 2241 4666 
Q 2963 4666 3353 4366 
Q 3744 4066 3744 3513 
Q 3744 3084 3544 2831 
Q 3344 2578 2956 2516 
Q 3422 2416 3680 2098 
Q 3938 1781 3938 1306 
Q 3938 681 3513 340 
Q 3088 0 2303 0 
L 628 0 
L 628 4666 
z
" transform="scale(0.015625)"/>
      <path id="DejaVuSans-3a" d="M 750 794 
L 1409 794 
L 1409 0 
L 750 0 
L 750 794 
z
M 750 3309 
L 1409 3309 
L 1409 2516 
L 750 2516 
L 750 3309 
z
" transform="scale(0.015625)"/>
      <path id="DejaVuSans-32" d="M 1228 531 
L 3431 531 
L 3431 0 
L 469 0 
L 469 531 
Q 828 903 1448 1529 
Q 2069 2156 2228 2338 
Q 2531 2678 2651 2914 
Q 2772 3150 2772 3378 
Q 2772 3750 2511 3984 
Q 2250 4219 1831 4219 
Q 1534 4219 1204 4116 
Q 875 4013 500 3803 
L 500 4441 
Q 881 4594 1212 4672 
Q 1544 4750 1819 4750 
Q 2544 4750 2975 4387 
Q 3406 4025 3406 3419 
Q 3406 3131 3298 2873 
Q 3191 2616 2906 2266 
Q 2828 2175 2409 1742 
Q 1991 1309 1228 531 
z
" transform="scale(0.015625)"/>
      <path id="DejaVuSans-54" d="M -19 4666 
L 3928 4666 
L 3928 4134 
L 2272 4134 
L 2272 0 
L 1638 0 
L 1638 4134 
L -19 4134 
L -19 4666 
z
" transform="scale(0.015625)"/>
      <path id="DejaVuSans-2192" d="M 5050 2147 
L 5050 1866 
L 3822 638 
L 3447 1013 
L 4175 1741 
L 366 1741 
L 366 2272 
L 4175 2272 
L 3447 3000 
L 3822 3375 
L 5050 2147 
z
" transform="scale(0.015625)"/>
      <path id="DejaVuSans-38" d="M 2034 2216 
Q 1584 2216 1326 1975 
Q 1069 1734 1069 1313 
Q 1069 891 1326 650 
Q 1584 409 2034 409 
Q 2484 409 2743 651 
Q 3003 894 3003 1313 
Q 3003 1734 2745 1975 
Q 2488 2216 2034 2216 
z
M 1403 2484 
Q 997 2584 770 2862 
Q 544 3141 544 3541 
Q 544 4100 942 4425 
Q 1341 4750 2034 4750 
Q 2731 4750 3128 4425 
Q 3525 4100 3525 3541 
Q 3525 3141 3298 2862 
Q 3072 2584 2669 2484 
Q 3125 2378 3379 2068 
Q 3634 1759 3634 1313 
Q 3634 634 3220 271 
Q 2806 -91 2034 -91 
Q 1263 -91 848 271 
Q 434 634 434 1313 
Q 434 1759 690 2068 
Q 947 2378 1403 2484 
z
M 1172 3481 
Q 1172 3119 1398 2916 
Q 1625 2713 2034 2713 
Q 2441 2713 2670 2916 
Q 2900 3119 2900 3481 
Q 2900 3844 2670 4047 
Q 2441 4250 2034 4250 
Q 1625 4250 1398 4047 
Q 1172 3844 1172 3481 
z
" transform="scale(0.015625)"/>
     </defs>
     <use xlink:href="#DejaVuSans-42"/>
     <use xlink:href="#DejaVuSans-3a" transform="translate(68.603516 0)"/>
     <use xlink:href="#DejaVuSans-20" transform="translate(102.294922 0)"/>
     <use xlink:href="#DejaVuSans-30" transform="translate(134.082031 0)"/>
     <use xlink:href="#DejaVuSans-2e" transform="translate(197.705078 0)"/>
     <use xlink:href="#DejaVuSans-32" transform="translate(229.492188 0)"/>
     <use xlink:href="#DejaVuSans-20" transform="translate(293.115234 0)"/>
     <use xlink:href="#DejaVuSans-54" transform="translate(324.902344 0)"/>
     <use xlink:href="#DejaVuSans-20" transform="translate(385.986328 0)"/>
     <use xlink:href="#DejaVuSans-2192" transform="translate(417.773438 0)"/>
     <use xlink:href="#DejaVuSans-20" transform="translate(501.5625 0)"/>
     <use xlink:href="#DejaVuSans-30" transform="translate(533.349609 0)"/>
     <use xlink:href="#DejaVuSans-2e" transform="translate(596.972656 0)"/>
     <use xlink:href="#DejaVuSans-38" transform="translate(628.759766 0)"/>
     <use xlink:href="#DejaVuSans-20" transform="translate(692.382812 0)"/>
     <use xlink:href="#DejaVuSans-54" transform="translate(724.169922 0)"/>
    </g>
   </g>
   <g id="text_5">
    <g id="patch_35">
     <path d="M 474.254545 177.27402 
L 524.042045 177.27402 
Q 527.042045 177.27402 527.042045 174.27402 
L 527.042045 164.595895 
Q 527.042045 161.595895 524.042045 161.595895 
L 474.254545 161.595895 
Q 471.254545 161.595895 471.254545 164.595895 
L 471.254545 174.27402 
Q 471.254545 177.27402 474.254545 177.27402 
z
" style="fill: #fde68a; opacity: 0.8; stroke: #000000; stroke-linejoin: miter"/>
    </g>
    <!-- Δt = 0.3 s -->
    <g transform="translate(474.254545 172.194332) scale(0.1 -0.1)">
     <defs>
      <path id="DejaVuSans-394" d="M 2188 4044 
L 906 525 
L 3472 525 
L 2188 4044 
z
M 50 0 
L 1831 4666 
L 2547 4666 
L 4325 0 
L 50 0 
z
" transform="scale(0.015625)"/>
      <path id="DejaVuSans-74" d="M 1172 4494 
L 1172 3500 
L 2356 3500 
L 2356 3053 
L 1172 3053 
L 1172 1153 
Q 1172 725 1289 603 
Q 1406 481 1766 481 
L 2356 481 
L 2356 0 
L 1766 0 
Q 1100 0 847 248 
Q 594 497 594 1153 
L 594 3053 
L 172 3053 
L 172 3500 
L 594 3500 
L 594 4494 
L 1172 4494 
z
" transform="scale(0.015625)"/>
      <path id="DejaVuSans-33" d="M 2597 2516 
Q 3050 2419 3304 2112 
Q 3559 1806 3559 1356 
Q 3559 666 3084 287 
Q 2609 -91 1734 -91 
Q 1441 -91 1130 -33 
Q 819 25 488 141 
L 488 750 
Q 750 597 1062 519 
Q 1375 441 1716 441 
Q 2309 441 2620 675 
Q 2931 909 2931 1356 
Q 2931 1769 2642 2001 
Q 2353 2234 1838 2234 
L 1294 2234 
L 1294 2753 
L 1863 2753 
Q 2328 2753 2575 2939 
Q 2822 3125 2822 3475 
Q 2822 3834 2567 4026 
Q 2313 4219 1838 4219 
Q 1578 4219 1281 4162 
Q 984 4106 628 3988 
L 628 4550 
Q 988 4650 1302 4700 
Q 1616 4750 1894 4750 
Q 2613 4750 3031 4423 
Q 3450 4097 3450 3541 
Q 3450 3153 3228 2886 
Q 3006 2619 2597 2516 
z
" transform="scale(0.015625)"/>
      <path id="DejaVuSans-73" d="M 2834 3397 
L 2834 2853 
Q 2591 2978 2328 3040 
Q 2066 3103 1784 3103 
Q 1356 3103 1142 2972 
Q 928 2841 928 2578 
Q 928 2378 1081 2264 
Q 1234 2150 1697 2047 
L 1894 2003 
Q 2506 1872 2764 1633 
Q 3022 1394 3022 966 
Q 3022 478 2636 193 
Q 2250 -91 1575 -91 
Q 1294 -91 989 -36 
Q 684 19 347 128 
L 347 722 
Q 666 556 975 473 
Q 1284 391 1588 391 
Q 1994 391 2212 530 
Q 2431 669 2431 922 
Q 2431 1156 2273 1281 
Q 2116 1406 1581 1522 
L 1381 1569 
Q 847 1681 609 1914 
Q 372 2147 372 2553 
Q 372 3047 722 3315 
Q 1072 3584 1716 3584 
Q 2034 3584 2315 3537 
Q 2597 3491 2834 3397 
z
" transform="scale(0.015625)"/>
     </defs>
     <use xlink:href="#DejaVuSans-394"/>
     <use xlink:href="#DejaVuSans-74" transform="translate(68.408203 0)"/>
     <use xlink:href="#DejaVuSans-20" transform="translate(107.617188 0)"/>
     <use xlink:href="#DejaVuSans-3d" transform="translate(139.404297 0)"/>
     <use xlink:href="#DejaVuSans-20" transform="translate(223.193359 0)"/>
     <use xlink:href="#DejaVuSans-30" transform="translate(254.980469 0)"/>
     <use xlink:href="#DejaVuSans-2e" transform="translate(318.603516 0)"/>
     <use xlink:href="#DejaVuSans-33" transform="translate(350.390625 0)"/>
     <use xlink:href="#DejaVuSans-20" transform="translate(414.013672 0)"/>
     <use xlink:href="#DejaVuSans-73" transform="translate(445.800781 0)"/>
    </g>
   </g>
   <g id="text_6">
    <!-- EMF -->
    <g style="fill: #ff0000" transform="translate(439.225455 201.385241) scale(0.14 -0.14)">
     <defs>
      <path id="DejaVuSans-Bold-45" d="M 588 4666 
L 3834 4666 
L 3834 3756 
L 1791 3756 
L 1791 2888 
L 3713 2888 
L 3713 1978 
L 1791 1978 
L 1791 909 
L 3903 909 
L 3903 0 
L 588 0 
L 588 4666 
z
" transform="scale(0.015625)"/>
      <path id="DejaVuSans-Bold-4d" d="M 588 4666 
L 2119 4666 
L 3181 2169 
L 4250 4666 
L 5778 4666 
L 5778 0 
L 4641 0 
L 4641 3413 
L 3566 897 
L 2803 897 
L 1728 3413 
L 1728 0 
L 588 0 
L 588 4666 
z
" transform="scale(0.015625)"/>
      <path id="DejaVuSans-Bold-46" d="M 588 4666 
L 3834 4666 
L 3834 3756 
L 1791 3756 
L 1791 2888 
L 3713 2888 
L 3713 1978 
L 1791 1978 
L 1791 0 
L 588 0 
L 588 4666 
z
" transform="scale(0.015625)"/>
     </defs>
     <use xlink:href="#DejaVuSans-Bold-45"/>
     <use xlink:href="#DejaVuSans-Bold-4d" transform="translate(68.310547 0)"/>
     <use xlink:href="#DejaVuSans-Bold-46" transform="translate(167.822266 0)"/>
    </g>
   </g>
   <g id="text_7">
    <!-- Rectangular Coil in Changing Magnetic Field -->
    <g transform="translate(78.115554 17.077969) scale(0.13 -0.13)">
     <defs>
      <path id="DejaVuSans-Bold-52" d="M 2297 2597 
Q 2675 2597 2839 2737 
Q 3003 2878 3003 3200 
Q 3003 3519 2839 3656 
Q 2675 3794 2297 3794 
L 1791 3794 
L 1791 2597 
L 2297 2597 
z
M 1791 1766 
L 1791 0 
L 588 0 
L 588 4666 
L 2425 4666 
Q 3347 4666 3776 4356 
Q 4206 4047 4206 3378 
Q 4206 2916 3982 2619 
Q 3759 2322 3309 2181 
Q 3556 2125 3751 1926 
Q 3947 1728 4147 1325 
L 4800 0 
L 3519 0 
L 2950 1159 
Q 2778 1509 2601 1637 
Q 2425 1766 2131 1766 
L 1791 1766 
z
" transform="scale(0.015625)"/>
      <path id="DejaVuSans-Bold-63" d="M 3366 3391 
L 3366 2478 
Q 3138 2634 2908 2709 
Q 2678 2784 2431 2784 
Q 1963 2784 1702 2511 
Q 1441 2238 1441 1747 
Q 1441 1256 1702 982 
Q 1963 709 2431 709 
Q 2694 709 2930 787 
Q 3166 866 3366 1019 
L 3366 103 
Q 3103 6 2833 -42 
Q 2563 -91 2291 -91 
Q 1344 -91 809 395 
Q 275 881 275 1747 
Q 275 2613 809 3098 
Q 1344 3584 2291 3584 
Q 2566 3584 2833 3536 
Q 3100 3488 3366 3391 
z
" transform="scale(0.015625)"/>
      <path id="DejaVuSans-Bold-61" d="M 2106 1575 
Q 1756 1575 1579 1456 
Q 1403 1338 1403 1106 
Q 1403 894 1545 773 
Q 1688 653 1941 653 
Q 2256 653 2472 879 
Q 2688 1106 2688 1447 
L 2688 1575 
L 2106 1575 
z
M 3816 1997 
L 3816 0 
L 2688 0 
L 2688 519 
Q 2463 200 2181 54 
Q 1900 -91 1497 -91 
Q 953 -91 614 226 
Q 275 544 275 1050 
Q 275 1666 698 1953 
Q 1122 2241 2028 2241 
L 2688 2241 
L 2688 2328 
Q 2688 2594 2478 2717 
Q 2269 2841 1825 2841 
Q 1466 2841 1156 2769 
Q 847 2697 581 2553 
L 581 3406 
Q 941 3494 1303 3539 
Q 1666 3584 2028 3584 
Q 2975 3584 3395 3211 
Q 3816 2838 3816 1997 
z
" transform="scale(0.015625)"/>
      <path id="DejaVuSans-Bold-67" d="M 2919 594 
Q 2688 288 2409 144 
Q 2131 0 1766 0 
Q 1125 0 706 504 
Q 288 1009 288 1791 
Q 288 2575 706 3076 
Q 1125 3578 1766 3578 
Q 2131 3578 2409 3434 
Q 2688 3291 2919 2981 
L 2919 3500 
L 4044 3500 
L 4044 353 
Q 4044 -491 3511 -936 
Q 2978 -1381 1966 -1381 
Q 1638 -1381 1331 -1331 
Q 1025 -1281 716 -1178 
L 716 -306 
Q 1009 -475 1290 -558 
Q 1572 -641 1856 -641 
Q 2406 -641 2662 -400 
Q 2919 -159 2919 353 
L 2919 594 
z
M 2181 2772 
Q 1834 2772 1640 2515 
Q 1447 2259 1447 1791 
Q 1447 1309 1634 1061 
Q 1822 813 2181 813 
Q 2531 813 2725 1069 
Q 2919 1325 2919 1791 
Q 2919 2259 2725 2515 
Q 2531 2772 2181 2772 
z
" transform="scale(0.015625)"/>
      <path id="DejaVuSans-Bold-43" d="M 4288 256 
Q 3956 84 3597 -3 
Q 3238 -91 2847 -91 
Q 1681 -91 1000 561 
Q 319 1213 319 2328 
Q 319 3447 1000 4098 
Q 1681 4750 2847 4750 
Q 3238 4750 3597 4662 
Q 3956 4575 4288 4403 
L 4288 3438 
Q 3953 3666 3628 3772 
Q 3303 3878 2944 3878 
Q 2300 3878 1931 3465 
Q 1563 3053 1563 2328 
Q 1563 1606 1931 1193 
Q 2300 781 2944 781 
Q 3303 781 3628 887 
Q 3953 994 4288 1222 
L 4288 256 
z
" transform="scale(0.015625)"/>
      <path id="DejaVuSans-Bold-6f" d="M 2203 2784 
Q 1831 2784 1636 2517 
Q 1441 2250 1441 1747 
Q 1441 1244 1636 976 
Q 1831 709 2203 709 
Q 2569 709 2762 976 
Q 2956 1244 2956 1747 
Q 2956 2250 2762 2517 
Q 2569 2784 2203 2784 
z
M 2203 3584 
Q 3106 3584 3614 3096 
Q 4122 2609 4122 1747 
Q 4122 884 3614 396 
Q 3106 -91 2203 -91 
Q 1297 -91 786 396 
Q 275 884 275 1747 
Q 275 2609 786 3096 
Q 1297 3584 2203 3584 
z
" transform="scale(0.015625)"/>
      <path id="DejaVuSans-Bold-68" d="M 4056 2131 
L 4056 0 
L 2931 0 
L 2931 347 
L 2931 1625 
Q 2931 2084 2911 2256 
Q 2891 2428 2841 2509 
Q 2775 2619 2662 2680 
Q 2550 2741 2406 2741 
Q 2056 2741 1856 2470 
Q 1656 2200 1656 1722 
L 1656 0 
L 538 0 
L 538 4863 
L 1656 4863 
L 1656 2988 
Q 1909 3294 2193 3439 
Q 2478 3584 2822 3584 
Q 3428 3584 3742 3212 
Q 4056 2841 4056 2131 
z
" transform="scale(0.015625)"/>
     </defs>
     <use xlink:href="#DejaVuSans-Bold-52"/>
     <use xlink:href="#DejaVuSans-Bold-65" transform="translate(77.001953 0)"/>
     <use xlink:href="#DejaVuSans-Bold-63" transform="translate(144.824219 0)"/>
     <use xlink:href="#DejaVuSans-Bold-74" transform="translate(204.101562 0)"/>
     <use xlink:href="#DejaVuSans-Bold-61" transform="translate(251.904297 0)"/>
     <use xlink:href="#DejaVuSans-Bold-6e" transform="translate(319.384766 0)"/>
     <use xlink:href="#DejaVuSans-Bold-67" transform="translate(390.576172 0)"/>
     <use xlink:href="#DejaVuSans-Bold-75" transform="translate(462.158203 0)"/>
     <use xlink:href="#DejaVuSans-Bold-6c" transform="translate(533.349609 0)"/>
     <use xlink:href="#DejaVuSans-Bold-61" transform="translate(567.626953 0)"/>
     <use xlink:href="#DejaVuSans-Bold-72" transform="translate(635.107422 0)"/>
     <use xlink:href="#DejaVuSans-Bold-20" transform="translate(684.423828 0)"/>
     <use xlink:href="#DejaVuSans-Bold-43" transform="translate(719.238281 0)"/>
     <use xlink:href="#DejaVuSans-Bold-6f" transform="translate(792.626953 0)"/>
     <use xlink:href="#DejaVuSans-Bold-69" transform="translate(861.328125 0)"/>
     <use xlink:href="#DejaVuSans-Bold-6c" transform="translate(895.605469 0)"/>
     <use xlink:href="#DejaVuSans-Bold-20" transform="translate(929.882812 0)"/>
     <use xlink:href="#DejaVuSans-Bold-69" transform="translate(964.697266 0)"/>
     <use xlink:href="#DejaVuSans-Bold-6e" transform="translate(998.974609 0)"/>
     <use xlink:href="#DejaVuSans-Bold-20" transform="translate(1070.166016 0)"/>
     <use xlink:href="#DejaVuSans-Bold-43" transform="translate(1104.980469 0)"/>
     <use xlink:href="#DejaVuSans-Bold-68" transform="translate(1178.369141 0)"/>
     <use xlink:href="#DejaVuSans-Bold-61" transform="translate(1249.560547 0)"/>
     <use xlink:href="#DejaVuSans-Bold-6e" transform="translate(1317.041016 0)"/>
     <use xlink:href="#DejaVuSans-Bold-67" transform="translate(1388.232422 0)"/>
     <use xlink:href="#DejaVuSans-Bold-69" transform="translate(1459.814453 0)"/>
     <use xlink:href="#DejaVuSans-Bold-6e" transform="translate(1494.091797 0)"/>
     <use xlink:href="#DejaVuSans-Bold-67" transform="translate(1565.283203 0)"/>
     <use xlink:href="#DejaVuSans-Bold-20" transform="translate(1636.865234 0)"/>
     <use xlink:href="#DejaVuSans-Bold-4d" transform="translate(1671.679688 0)"/>
     <use xlink:href="#DejaVuSans-Bold-61" transform="translate(1771.191406 0)"/>
     <use xlink:href="#DejaVuSans-Bold-67" transform="translate(1838.671875 0)"/>
     <use xlink:href="#DejaVuSans-Bold-6e" transform="translate(1910.253906 0)"/>
     <use xlink:href="#DejaVuSans-Bold-65" transform="translate(1981.445312 0)"/>
     <use xlink:href="#DejaVuSans-Bold-74" transform="translate(2049.267578 0)"/>
     <use xlink:href="#DejaVuSans-Bold-69" transform="translate(2097.070312 0)"/>
     <use xlink:href="#DejaVuSans-Bold-63" transform="translate(2131.347656 0)"/>
     <use xlink:href="#DejaVuSans-Bold-20" transform="translate(2190.625 0)"/>
     <use xlink:href="#DejaVuSans-Bold-46" transform="translate(2225.439453 0)"/>
     <use xlink:href="#DejaVuSans-Bold-69" transform="translate(2293.75 0)"/>
     <use xlink:href="#DejaVuSans-Bold-65" transform="translate(2328.027344 0)"/>
     <use xlink:href="#DejaVuSans-Bold-6c" transform="translate(2395.849609 0)"/>
     <use xlink:href="#DejaVuSans-Bold-64" transform="translate(2430.126953 0)"/>
    </g>
   </g>
  </g>
 </g>
 <defs>
  <clipPath id="p2dd14d3085">
   <rect x="7.2" y="32.077969" width="467.054545" height="385.32"/>
  </clipPath>
 </defs>
</svg>
