<?xml version="1.0" encoding="utf-8" standalone="no"?>
<!DOCTYPE svg PUBLIC "-//W3C//DTD SVG 1.1//EN"
  "http://www.w3.org/Graphics/SVG/1.1/DTD/svg11.dtd">
<svg xmlns:xlink="http://www.w3.org/1999/xlink" width="712.8pt" height="214.637812pt" viewBox="0 0 712.8 214.637812" xmlns="http://www.w3.org/2000/svg" version="1.1">
 <metadata>
  <rdf:RDF xmlns:dc="http://purl.org/dc/elements/1.1/" xmlns:cc="http://creativecommons.org/ns#" xmlns:rdf="http://www.w3.org/1999/02/22-rdf-syntax-ns#">
   <cc:Work>
    <dc:type rdf:resource="http://purl.org/dc/dcmitype/StillImage"/>
    <dc:date>2025-12-12T18:46:06.092223</dc:date>
    <dc:format>image/svg+xml</dc:format>
    <dc:creator>
     <cc:Agent>
      <dc:title>Matplotlib v3.10.7, https://matplotlib.org/</dc:title>
     </cc:Agent>
    </dc:creator>
   </cc:Work>
  </rdf:RDF>
 </metadata>
 <defs>
  <style type="text/css">*{stroke-linejoin: round; stroke-linecap: butt}</style>
 </defs>
 <g id="figure_1">
  <g id="patch_1">
   <path d="M 0 214.637812 
L 712.8 214.637812 
L 712.8 0 
L 0 0 
z
" style="fill: #ffffff"/>
  </g>
  <g id="axes_1">
   <g id="line2d_1">
    <path d="M 65.4 120.137812 
L 181.8 120.137812 
" clip-path="url(#p74e32fd4de)" style="fill: none; stroke: #000000; stroke-width: 3; stroke-linecap: square"/>
   </g>
   <g id="line2d_2">
    <path d="M 181.8 120.137812 
L 298.2 120.137812 
" clip-path="url(#p74e32fd4de)" style="fill: none; stroke: #000000; stroke-width: 3; stroke-linecap: square"/>
   </g>
   <g id="line2d_3">
    <path d="M 181.8 111.407812 
L 298.2 111.407812 
" clip-path="url(#p74e32fd4de)" style="fill: none; stroke: #000000; stroke-width: 3; stroke-linecap: square"/>
   </g>
   <g id="line2d_4">
    <path d="M 298.2 120.137812 
L 414.6 120.137812 
" clip-path="url(#p74e32fd4de)" style="fill: none; stroke: #000000; stroke-width: 3; stroke-linecap: square"/>
   </g>
   <g id="line2d_5">
    <path d="M 414.6 120.137812 
L 531 120.137812 
" clip-path="url(#p74e32fd4de)" style="fill: none; stroke: #000000; stroke-width: 3; stroke-linecap: square"/>
   </g>
   <g id="line2d_6">
    <path d="M 414.6 111.407812 
L 531 111.407812 
" clip-path="url(#p74e32fd4de)" style="fill: none; stroke: #000000; stroke-width: 3; stroke-linecap: square"/>
   </g>
   <g id="line2d_7">
    <path d="M 414.6 128.867812 
L 531 128.867812 
" clip-path="url(#p74e32fd4de)" style="fill: none; stroke: #000000; stroke-width: 3; stroke-linecap: square"/>
   </g>
   <g id="line2d_8">
    <path d="M 65.4 120.137812 
L 65.4 166.697812 
" clip-path="url(#p74e32fd4de)" style="fill: none; stroke: #000000; stroke-opacity: 0.6; stroke-width: 1.5; stroke-linecap: square"/>
   </g>
   <g id="line2d_9">
    <path d="M 65.4 120.137812 
L 65.4 73.577812 
" clip-path="url(#p74e32fd4de)" style="fill: none; stroke: #000000; stroke-opacity: 0.6; stroke-width: 1.5; stroke-linecap: square"/>
   </g>
   <g id="line2d_10">
    <path d="M 65.4 120.137812 
L 18.84 120.137812 
" clip-path="url(#p74e32fd4de)" style="fill: none; stroke: #000000; stroke-opacity: 0.6; stroke-width: 1.5; stroke-linecap: square"/>
   </g>
   <g id="line2d_11">
    <path d="M 181.8 120.137812 
L 181.8 166.697812 
" clip-path="url(#p74e32fd4de)" style="fill: none; stroke: #000000; stroke-opacity: 0.6; stroke-width: 1.5; stroke-linecap: square"/>
   </g>
   <g id="line2d_12">
    <path d="M 181.8 120.137812 
L 181.8 73.577812 
" clip-path="url(#p74e32fd4de)" style="fill: none; stroke: #000000; stroke-opacity: 0.6; stroke-width: 1.5; stroke-linecap: square"/>
   </g>
   <g id="line2d_13">
    <path d="M 298.2 120.137812 
L 298.2 73.577812 
" clip-path="url(#p74e32fd4de)" style="fill: none; stroke: #000000; stroke-opacity: 0.6; stroke-width: 1.5; stroke-linecap: square"/>
   </g>
   <g id="line2d_14">
    <path d="M 531 120.137812 
L 531 73.577812 
" clip-path="url(#p74e32fd4de)" style="fill: none; stroke: #000000; stroke-opacity: 0.6; stroke-width: 1.5; stroke-linecap: square"/>
   </g>
   <g id="line2d_15">
    <defs>
     <path id="me0df141977" d="M 0 9 
C 2.386828 9 4.676219 8.051703 6.363961 6.363961 
C 8.051703 4.676219 9 2.386828 9 0 
C 9 -2.386828 8.051703 -4.676219 6.363961 -6.363961 
C 4.676219 -8.051703 2.386828 -9 0 -9 
C -2.386828 -9 -4.676219 -8.051703 -6.363961 -6.363961 
C -8.051703 -4.676219 -9 -2.386828 -9 0 
C -9 2.386828 -8.051703 4.676219 -6.363961 6.363961 
C -4.676219 8.051703 -2.386828 9 0 9 
z
" style="stroke: #6b46c1"/>
    </defs>
    <g clip-path="url(#p74e32fd4de)">
     <use xlink:href="#me0df141977" x="65.4" y="120.137812" style="fill: #6b46c1; stroke: #6b46c1"/>
    </g>
   </g>
   <g id="line2d_16">
    <g clip-path="url(#p74e32fd4de)">
     <use xlink:href="#me0df141977" x="181.8" y="120.137812" style="fill: #6b46c1; stroke: #6b46c1"/>
    </g>
   </g>
   <g id="line2d_17">
    <g clip-path="url(#p74e32fd4de)">
     <use xlink:href="#me0df141977" x="298.2" y="120.137812" style="fill: #6b46c1; stroke: #6b46c1"/>
    </g>
   </g>
   <g id="line2d_18">
    <g clip-path="url(#p74e32fd4de)">
     <use xlink:href="#me0df141977" x="414.6" y="120.137812" style="fill: #6b46c1; stroke: #6b46c1"/>
    </g>
   </g>
   <g id="line2d_19">
    <g clip-path="url(#p74e32fd4de)">
     <use xlink:href="#me0df141977" x="531" y="120.137812" style="fill: #6b46c1; stroke: #6b46c1"/>
    </g>
   </g>
   <g id="text_1">
    <!-- H -->
    <g style="fill: #d946ef" transform="translate(60.37875 170.009062) scale(0.12 -0.12)">
     <defs>
      <path id="DejaVuSans-Bold-48" d="M 588 4666 
L 1791 4666 
L 1791 2888 
L 3566 2888 
L 3566 4666 
L 4769 4666 
L 4769 0 
L 3566 0 
L 3566 1978 
L 1791 1978 
L 1791 0 
L 588 0 
L 588 4666 
z
" transform="scale(0.015625)"/>
     </defs>
     <use xlink:href="#DejaVuSans-Bold-48"/>
    </g>
   </g>
   <g id="text_2">
    <!-- H -->
    <g style="fill: #d946ef" transform="translate(60.37875 76.889062) scale(0.12 -0.12)">
     <use xlink:href="#DejaVuSans-Bold-48"/>
    </g>
   </g>
   <g id="text_3">
    <!-- H -->
    <g style="fill: #d946ef" transform="translate(13.81875 123.449062) scale(0.12 -0.12)">
     <use xlink:href="#DejaVuSans-Bold-48"/>
    </g>
   </g>
   <g id="text_4">
    <!-- H -->
    <g style="fill: #d946ef" transform="translate(176.77875 170.009062) scale(0.12 -0.12)">
     <use xlink:href="#DejaVuSans-Bold-48"/>
    </g>
   </g>
   <g id="text_5">
    <!-- H -->
    <g style="fill: #d946ef" transform="translate(176.77875 76.889062) scale(0.12 -0.12)">
     <use xlink:href="#DejaVuSans-Bold-48"/>
    </g>
   </g>
   <g id="text_6">
    <!-- H -->
    <g style="fill: #d946ef" transform="translate(293.17875 76.889062) scale(0.12 -0.12)">
     <use xlink:href="#DejaVuSans-Bold-48"/>
    </g>
   </g>
   <g id="text_7">
    <!-- H -->
    <g style="fill: #d946ef" transform="translate(525.97875 76.889062) scale(0.12 -0.12)">
     <use xlink:href="#DejaVuSans-Bold-48"/>
    </g>
   </g>
   <g id="text_8">
    <g id="patch_2">
     <path d="M 111.566875 202.401406 
L 135.633125 202.401406 
Q 139.533125 202.401406 139.533125 198.501406 
L 139.533125 185.919844 
Q 139.533125 182.019844 135.633125 182.019844 
L 111.566875 182.019844 
Q 107.666875 182.019844 107.666875 185.919844 
L 107.666875 198.501406 
Q 107.666875 202.401406 111.566875 202.401406 
z
" style="fill: #e9d5ff; opacity: 0.7; stroke: #000000; stroke-linejoin: miter"/>
    </g>
    <!-- CH₃ -->
    <g transform="translate(111.566875 195.797812) scale(0.13 -0.13)">
     <defs>
      <path id="DejaVuSans-43" d="M 4122 4306 
L 4122 3641 
Q 3803 3938 3442 4084 
Q 3081 4231 2675 4231 
Q 1875 4231 1450 3742 
Q 1025 3253 1025 2328 
Q 1025 1406 1450 917 
Q 1875 428 2675 428 
Q 3081 428 3442 575 
Q 3803 722 4122 1019 
L 4122 359 
Q 3791 134 3420 21 
Q 3050 -91 2638 -91 
Q 1578 -91 968 557 
Q 359 1206 359 2328 
Q 359 3453 968 4101 
Q 1578 4750 2638 4750 
Q 3056 4750 3426 4639 
Q 3797 4528 4122 4306 
z
" transform="scale(0.015625)"/>
      <path id="DejaVuSans-48" d="M 628 4666 
L 1259 4666 
L 1259 2753 
L 3553 2753 
L 3553 4666 
L 4184 4666 
L 4184 0 
L 3553 0 
L 3553 2222 
L 1259 2222 
L 1259 0 
L 628 0 
L 628 4666 
z
" transform="scale(0.015625)"/>
      <path id="DejaVuSans-2083" d="M 1638 1388 
Q 1925 1332 2083 1161 
Q 2241 991 2241 735 
Q 2241 347 1944 138 
Q 1647 -71 1094 -71 
Q 916 -71 720 -38 
Q 525 -6 306 57 
L 306 435 
Q 469 351 655 310 
Q 841 269 1050 269 
Q 1391 269 1578 392 
Q 1766 516 1766 735 
Q 1766 966 1592 1085 
Q 1419 1204 1081 1204 
L 813 1204 
L 813 1541 
L 1106 1541 
Q 1400 1541 1551 1639 
Q 1703 1738 1703 1926 
Q 1703 2107 1547 2202 
Q 1391 2297 1094 2297 
Q 969 2297 809 2269 
Q 650 2241 397 2169 
L 397 2529 
Q 625 2582 825 2610 
Q 1025 2638 1197 2638 
Q 1647 2638 1911 2453 
Q 2175 2269 2175 1960 
Q 2175 1744 2034 1594 
Q 1894 1444 1638 1388 
z
" transform="scale(0.015625)"/>
     </defs>
     <use xlink:href="#DejaVuSans-43"/>
     <use xlink:href="#DejaVuSans-48" transform="translate(69.824219 0)"/>
     <use xlink:href="#DejaVuSans-2083" transform="translate(145.019531 0)"/>
    </g>
   </g>
   <g id="text_9">
    <g id="patch_3">
     <path d="M 225.475547 202.401406 
L 254.524453 202.401406 
Q 258.424453 202.401406 258.424453 198.501406 
L 258.424453 185.919844 
Q 258.424453 182.019844 254.524453 182.019844 
L 225.475547 182.019844 
Q 221.575547 182.019844 221.575547 185.919844 
L 221.575547 198.501406 
Q 221.575547 202.401406 225.475547 202.401406 
z
" style="fill: #fde68a; opacity: 0.7; stroke: #000000; stroke-linejoin: miter"/>
    </g>
    <!-- C=C -->
    <g transform="translate(225.475547 195.797812) scale(0.13 -0.13)">
     <defs>
      <path id="DejaVuSans-3d" d="M 678 2906 
L 4684 2906 
L 4684 2381 
L 678 2381 
L 678 2906 
z
M 678 1631 
L 4684 1631 
L 4684 1100 
L 678 1100 
L 678 1631 
z
" transform="scale(0.015625)"/>
     </defs>
     <use xlink:href="#DejaVuSans-43"/>
     <use xlink:href="#DejaVuSans-3d" transform="translate(69.824219 0)"/>
     <use xlink:href="#DejaVuSans-43" transform="translate(153.613281 0)"/>
    </g>
   </g>
   <g id="text_10">
    <g id="patch_4">
     <path d="M 460.510078 201.385469 
L 485.089922 201.385469 
Q 488.389922 201.385469 488.389922 198.085469 
L 488.389922 187.439531 
Q 488.389922 184.139531 485.089922 184.139531 
L 460.510078 184.139531 
Q 457.210078 184.139531 457.210078 187.439531 
L 457.210078 198.085469 
Q 457.210078 201.385469 460.510078 201.385469 
z
" style="fill: #fecaca; opacity: 0.7; stroke: #000000; stroke-linejoin: miter"/>
    </g>
    <!-- C≡C -->
    <g transform="translate(460.510078 195.797812) scale(0.11 -0.11)">
     <defs>
      <path id="DejaVuSans-2261" d="M 678 2272 
L 4684 2272 
L 4684 1741 
L 678 1741 
L 678 2272 
z
M 678 3438 
L 4684 3438 
L 4684 2906 
L 678 2906 
L 678 3438 
z
M 678 1106 
L 4684 1106 
L 4684 575 
L 678 575 
L 678 1106 
z
" transform="scale(0.015625)"/>
     </defs>
     <use xlink:href="#DejaVuSans-43"/>
     <use xlink:href="#DejaVuSans-2261" transform="translate(69.824219 0)"/>
     <use xlink:href="#DejaVuSans-43" transform="translate(153.613281 0)"/>
    </g>
   </g>
   <g id="text_11">
    <g id="patch_5">
     <path d="M 280.626562 56.393437 
L 432.173437 56.393437 
Q 435.773438 56.393437 435.773438 52.793437 
L 435.773438 41.179687 
Q 435.773438 37.579687 432.173437 37.579687 
L 280.626562 37.579687 
Q 277.026562 37.579687 277.026562 41.179687 
L 277.026562 52.793437 
Q 277.026562 56.393437 280.626562 56.393437 
z
" style="fill: #ffffff; stroke: #6b46c1; stroke-width: 2; stroke-linejoin: miter"/>
    </g>
    <!-- 10 σ bonds, 3 π bonds -->
    <g transform="translate(280.626562 50.297812) scale(0.12 -0.12)">
     <defs>
      <path id="DejaVuSans-Bold-31" d="M 750 831 
L 1813 831 
L 1813 3847 
L 722 3622 
L 722 4441 
L 1806 4666 
L 2950 4666 
L 2950 831 
L 4013 831 
L 4013 0 
L 750 0 
L 750 831 
z
" transform="scale(0.015625)"/>
      <path id="DejaVuSans-Bold-30" d="M 2944 2338 
Q 2944 3213 2780 3570 
Q 2616 3928 2228 3928 
Q 1841 3928 1675 3570 
Q 1509 3213 1509 2338 
Q 1509 1453 1675 1090 
Q 1841 728 2228 728 
Q 2613 728 2778 1090 
Q 2944 1453 2944 2338 
z
M 4147 2328 
Q 4147 1169 3647 539 
Q 3147 -91 2228 -91 
Q 1306 -91 806 539 
Q 306 1169 306 2328 
Q 306 3491 806 4120 
Q 1306 4750 2228 4750 
Q 3147 4750 3647 4120 
Q 4147 3491 4147 2328 
z
" transform="scale(0.015625)"/>
      <path id="DejaVuSans-Bold-20" transform="scale(0.015625)"/>
      <path id="DejaVuSans-Bold-3c3" d="M 2200 2784 
Q 1831 2784 1636 2517 
Q 1441 2250 1441 1747 
Q 1441 1244 1636 976 
Q 1831 709 2200 709 
Q 2569 709 2762 976 
Q 2956 1244 2956 1747 
Q 2956 2250 2762 2517 
Q 2569 2784 2200 2784 
z
M 4650 2700 
L 3916 2700 
Q 4122 2291 4122 1747 
Q 4122 884 3614 396 
Q 3106 -91 2203 -91 
Q 1297 -91 786 396 
Q 275 884 275 1747 
Q 275 2609 788 3097 
Q 1209 3500 2203 3500 
L 4650 3500 
L 4650 2700 
z
" transform="scale(0.015625)"/>
      <path id="DejaVuSans-Bold-62" d="M 2400 722 
Q 2759 722 2948 984 
Q 3138 1247 3138 1747 
Q 3138 2247 2948 2509 
Q 2759 2772 2400 2772 
Q 2041 2772 1848 2508 
Q 1656 2244 1656 1747 
Q 1656 1250 1848 986 
Q 2041 722 2400 722 
z
M 1656 2988 
Q 1888 3294 2169 3439 
Q 2450 3584 2816 3584 
Q 3463 3584 3878 3070 
Q 4294 2556 4294 1747 
Q 4294 938 3878 423 
Q 3463 -91 2816 -91 
Q 2450 -91 2169 54 
Q 1888 200 1656 506 
L 1656 0 
L 538 0 
L 538 4863 
L 1656 4863 
L 1656 2988 
z
" transform="scale(0.015625)"/>
      <path id="DejaVuSans-Bold-6f" d="M 2203 2784 
Q 1831 2784 1636 2517 
Q 1441 2250 1441 1747 
Q 1441 1244 1636 976 
Q 1831 709 2203 709 
Q 2569 709 2762 976 
Q 2956 1244 2956 1747 
Q 2956 2250 2762 2517 
Q 2569 2784 2203 2784 
z
M 2203 3584 
Q 3106 3584 3614 3096 
Q 4122 2609 4122 1747 
Q 4122 884 3614 396 
Q 3106 -91 2203 -91 
Q 1297 -91 786 396 
Q 275 884 275 1747 
Q 275 2609 786 3096 
Q 1297 3584 2203 3584 
z
" transform="scale(0.015625)"/>
      <path id="DejaVuSans-Bold-6e" d="M 4056 2131 
L 4056 0 
L 2931 0 
L 2931 347 
L 2931 1631 
Q 2931 2084 2911 2256 
Q 2891 2428 2841 2509 
Q 2775 2619 2662 2680 
Q 2550 2741 2406 2741 
Q 2056 2741 1856 2470 
Q 1656 2200 1656 1722 
L 1656 0 
L 538 0 
L 538 3500 
L 1656 3500 
L 1656 2988 
Q 1909 3294 2193 3439 
Q 2478 3584 2822 3584 
Q 3428 3584 3742 3212 
Q 4056 2841 4056 2131 
z
" transform="scale(0.015625)"/>
      <path id="DejaVuSans-Bold-64" d="M 2919 2988 
L 2919 4863 
L 4044 4863 
L 4044 0 
L 2919 0 
L 2919 506 
Q 2688 197 2409 53 
Q 2131 -91 1766 -91 
Q 1119 -91 703 423 
Q 288 938 288 1747 
Q 288 2556 703 3070 
Q 1119 3584 1766 3584 
Q 2128 3584 2408 3439 
Q 2688 3294 2919 2988 
z
M 2181 722 
Q 2541 722 2730 984 
Q 2919 1247 2919 1747 
Q 2919 2247 2730 2509 
Q 2541 2772 2181 2772 
Q 1825 2772 1636 2509 
Q 1447 2247 1447 1747 
Q 1447 1247 1636 984 
Q 1825 722 2181 722 
z
" transform="scale(0.015625)"/>
      <path id="DejaVuSans-Bold-73" d="M 3272 3391 
L 3272 2541 
Q 2913 2691 2578 2766 
Q 2244 2841 1947 2841 
Q 1628 2841 1473 2761 
Q 1319 2681 1319 2516 
Q 1319 2381 1436 2309 
Q 1553 2238 1856 2203 
L 2053 2175 
Q 2913 2066 3209 1816 
Q 3506 1566 3506 1031 
Q 3506 472 3093 190 
Q 2681 -91 1863 -91 
Q 1516 -91 1145 -36 
Q 775 19 384 128 
L 384 978 
Q 719 816 1070 734 
Q 1422 653 1784 653 
Q 2113 653 2278 743 
Q 2444 834 2444 1013 
Q 2444 1163 2330 1236 
Q 2216 1309 1875 1350 
L 1678 1375 
Q 931 1469 631 1722 
Q 331 1975 331 2491 
Q 331 3047 712 3315 
Q 1094 3584 1881 3584 
Q 2191 3584 2531 3537 
Q 2872 3491 3272 3391 
z
" transform="scale(0.015625)"/>
      <path id="DejaVuSans-Bold-2c" d="M 653 1209 
L 1778 1209 
L 1778 256 
L 1006 -909 
L 341 -909 
L 653 256 
L 653 1209 
z
" transform="scale(0.015625)"/>
      <path id="DejaVuSans-Bold-33" d="M 2981 2516 
Q 3453 2394 3698 2092 
Q 3944 1791 3944 1325 
Q 3944 631 3412 270 
Q 2881 -91 1863 -91 
Q 1503 -91 1142 -33 
Q 781 25 428 141 
L 428 1069 
Q 766 900 1098 814 
Q 1431 728 1753 728 
Q 2231 728 2486 893 
Q 2741 1059 2741 1369 
Q 2741 1688 2480 1852 
Q 2219 2016 1709 2016 
L 1228 2016 
L 1228 2791 
L 1734 2791 
Q 2188 2791 2409 2933 
Q 2631 3075 2631 3366 
Q 2631 3634 2415 3781 
Q 2200 3928 1806 3928 
Q 1516 3928 1219 3862 
Q 922 3797 628 3669 
L 628 4550 
Q 984 4650 1334 4700 
Q 1684 4750 2022 4750 
Q 2931 4750 3382 4451 
Q 3834 4153 3834 3553 
Q 3834 3144 3618 2883 
Q 3403 2622 2981 2516 
z
" transform="scale(0.015625)"/>
      <path id="DejaVuSans-Bold-3c0" d="M 269 3500 
L 4684 3500 
L 4684 2700 
L 4072 2700 
L 4072 1131 
Q 4072 728 4148 629 
Q 4225 531 4400 531 
Q 4578 531 4678 544 
L 4678 -44 
Q 4484 -122 3822 -122 
Q 3613 -122 3409 -63 
Q 3084 34 2994 319 
Q 2953 453 2953 728 
L 2953 2700 
L 2000 2700 
L 2000 0 
L 881 0 
L 881 2700 
L 269 2700 
L 269 3500 
z
" transform="scale(0.015625)"/>
     </defs>
     <use xlink:href="#DejaVuSans-Bold-31"/>
     <use xlink:href="#DejaVuSans-Bold-30" transform="translate(69.580078 0)"/>
     <use xlink:href="#DejaVuSans-Bold-20" transform="translate(139.160156 0)"/>
     <use xlink:href="#DejaVuSans-Bold-3c3" transform="translate(173.974609 0)"/>
     <use xlink:href="#DejaVuSans-Bold-20" transform="translate(251.855469 0)"/>
     <use xlink:href="#DejaVuSans-Bold-62" transform="translate(286.669922 0)"/>
     <use xlink:href="#DejaVuSans-Bold-6f" transform="translate(358.251953 0)"/>
     <use xlink:href="#DejaVuSans-Bold-6e" transform="translate(426.953125 0)"/>
     <use xlink:href="#DejaVuSans-Bold-64" transform="translate(498.144531 0)"/>
     <use xlink:href="#DejaVuSans-Bold-73" transform="translate(569.726562 0)"/>
     <use xlink:href="#DejaVuSans-Bold-2c" transform="translate(629.248047 0)"/>
     <use xlink:href="#DejaVuSans-Bold-20" transform="translate(667.236328 0)"/>
     <use xlink:href="#DejaVuSans-Bold-33" transform="translate(702.050781 0)"/>
     <use xlink:href="#DejaVuSans-Bold-20" transform="translate(771.630859 0)"/>
     <use xlink:href="#DejaVuSans-Bold-3c0" transform="translate(806.445312 0)"/>
     <use xlink:href="#DejaVuSans-Bold-20" transform="translate(885.546875 0)"/>
     <use xlink:href="#DejaVuSans-Bold-62" transform="translate(920.361328 0)"/>
     <use xlink:href="#DejaVuSans-Bold-6f" transform="translate(991.943359 0)"/>
     <use xlink:href="#DejaVuSans-Bold-6e" transform="translate(1060.644531 0)"/>
     <use xlink:href="#DejaVuSans-Bold-64" transform="translate(1131.835938 0)"/>
     <use xlink:href="#DejaVuSans-Bold-73" transform="translate(1203.417969 0)"/>
    </g>
   </g>
   <g id="text_12">
    <!-- CH₃-CH=CH-C≡C-H Structure -->
    <g transform="translate(243.67375 17.837812) scale(0.14 -0.14)">
     <defs>
      <path id="DejaVuSans-Bold-43" d="M 4288 256 
Q 3956 84 3597 -3 
Q 3238 -91 2847 -91 
Q 1681 -91 1000 561 
Q 319 1213 319 2328 
Q 319 3447 1000 4098 
Q 1681 4750 2847 4750 
Q 3238 4750 3597 4662 
Q 3956 4575 4288 4403 
L 4288 3438 
Q 3953 3666 3628 3772 
Q 3303 3878 2944 3878 
Q 2300 3878 1931 3465 
Q 1563 3053 1563 2328 
Q 1563 1606 1931 1193 
Q 2300 781 2944 781 
Q 3303 781 3628 887 
Q 3953 994 4288 1222 
L 4288 256 
z
" transform="scale(0.015625)"/>
      <path id="DejaVuSans-Bold-2083" d="M 1850 1388 
Q 2138 1332 2297 1160 
Q 2456 988 2456 735 
Q 2456 332 2147 130 
Q 1838 -71 1209 -71 
Q 956 -71 725 -35 
Q 494 1 281 69 
L 281 613 
Q 488 501 688 443 
Q 888 385 1075 385 
Q 1372 385 1534 485 
Q 1697 585 1697 769 
Q 1697 969 1530 1064 
Q 1363 1160 1006 1160 
L 775 1160 
L 775 1588 
L 1038 1588 
Q 1344 1588 1484 1661 
Q 1625 1735 1625 1894 
Q 1625 2035 1503 2105 
Q 1381 2176 1131 2176 
Q 969 2176 776 2135 
Q 584 2094 366 2010 
L 366 2529 
Q 569 2582 805 2610 
Q 1041 2638 1313 2638 
Q 1834 2638 2111 2463 
Q 2388 2288 2388 1960 
Q 2388 1744 2247 1594 
Q 2106 1444 1850 1388 
z
" transform="scale(0.015625)"/>
      <path id="DejaVuSans-Bold-2d" d="M 347 2297 
L 2309 2297 
L 2309 1388 
L 347 1388 
L 347 2297 
z
" transform="scale(0.015625)"/>
      <path id="DejaVuSans-Bold-3d" d="M 678 3084 
L 4684 3084 
L 4684 2350 
L 678 2350 
L 678 3084 
z
M 678 1663 
L 4684 1663 
L 4684 922 
L 678 922 
L 678 1663 
z
" transform="scale(0.015625)"/>
      <path id="DejaVuSans-Bold-2261" d="M 678 2369 
L 4684 2369 
L 4684 1638 
L 678 1638 
L 678 2369 
z
M 678 3766 
L 4684 3766 
L 4684 3031 
L 678 3031 
L 678 3766 
z
M 678 975 
L 4684 975 
L 4684 241 
L 678 241 
L 678 975 
z
" transform="scale(0.015625)"/>
      <path id="DejaVuSans-Bold-53" d="M 3834 4519 
L 3834 3531 
Q 3450 3703 3084 3790 
Q 2719 3878 2394 3878 
Q 1963 3878 1756 3759 
Q 1550 3641 1550 3391 
Q 1550 3203 1689 3098 
Q 1828 2994 2194 2919 
L 2706 2816 
Q 3484 2659 3812 2340 
Q 4141 2022 4141 1434 
Q 4141 663 3683 286 
Q 3225 -91 2284 -91 
Q 1841 -91 1394 -6 
Q 947 78 500 244 
L 500 1259 
Q 947 1022 1364 901 
Q 1781 781 2169 781 
Q 2563 781 2772 912 
Q 2981 1044 2981 1288 
Q 2981 1506 2839 1625 
Q 2697 1744 2272 1838 
L 1806 1941 
Q 1106 2091 782 2419 
Q 459 2747 459 3303 
Q 459 4000 909 4375 
Q 1359 4750 2203 4750 
Q 2588 4750 2994 4692 
Q 3400 4634 3834 4519 
z
" transform="scale(0.015625)"/>
      <path id="DejaVuSans-Bold-74" d="M 1759 4494 
L 1759 3500 
L 2913 3500 
L 2913 2700 
L 1759 2700 
L 1759 1216 
Q 1759 972 1856 886 
Q 1953 800 2241 800 
L 2816 800 
L 2816 0 
L 1856 0 
Q 1194 0 917 276 
Q 641 553 641 1216 
L 641 2700 
L 84 2700 
L 84 3500 
L 641 3500 
L 641 4494 
L 1759 4494 
z
" transform="scale(0.015625)"/>
      <path id="DejaVuSans-Bold-72" d="M 3138 2547 
Q 2991 2616 2845 2648 
Q 2700 2681 2553 2681 
Q 2122 2681 1889 2404 
Q 1656 2128 1656 1613 
L 1656 0 
L 538 0 
L 538 3500 
L 1656 3500 
L 1656 2925 
Q 1872 3269 2151 3426 
Q 2431 3584 2822 3584 
Q 2878 3584 2943 3579 
Q 3009 3575 3134 3559 
L 3138 2547 
z
" transform="scale(0.015625)"/>
      <path id="DejaVuSans-Bold-75" d="M 500 1363 
L 500 3500 
L 1625 3500 
L 1625 3150 
Q 1625 2866 1622 2436 
Q 1619 2006 1619 1863 
Q 1619 1441 1641 1255 
Q 1663 1069 1716 984 
Q 1784 875 1895 815 
Q 2006 756 2150 756 
Q 2500 756 2700 1025 
Q 2900 1294 2900 1772 
L 2900 3500 
L 4019 3500 
L 4019 0 
L 2900 0 
L 2900 506 
Q 2647 200 2364 54 
Q 2081 -91 1741 -91 
Q 1134 -91 817 281 
Q 500 653 500 1363 
z
" transform="scale(0.015625)"/>
      <path id="DejaVuSans-Bold-63" d="M 3366 3391 
L 3366 2478 
Q 3138 2634 2908 2709 
Q 2678 2784 2431 2784 
Q 1963 2784 1702 2511 
Q 1441 2238 1441 1747 
Q 1441 1256 1702 982 
Q 1963 709 2431 709 
Q 2694 709 2930 787 
Q 3166 866 3366 1019 
L 3366 103 
Q 3103 6 2833 -42 
Q 2563 -91 2291 -91 
Q 1344 -91 809 395 
Q 275 881 275 1747 
Q 275 2613 809 3098 
Q 1344 3584 2291 3584 
Q 2566 3584 2833 3536 
Q 3100 3488 3366 3391 
z
" transform="scale(0.015625)"/>
      <path id="DejaVuSans-Bold-65" d="M 4031 1759 
L 4031 1441 
L 1416 1441 
Q 1456 1047 1700 850 
Q 1944 653 2381 653 
Q 2734 653 3104 758 
Q 3475 863 3866 1075 
L 3866 213 
Q 3469 63 3072 -14 
Q 2675 -91 2278 -91 
Q 1328 -91 801 392 
Q 275 875 275 1747 
Q 275 2603 792 3093 
Q 1309 3584 2216 3584 
Q 3041 3584 3536 3087 
Q 4031 2591 4031 1759 
z
M 2881 2131 
Q 2881 2450 2695 2645 
Q 2509 2841 2209 2841 
Q 1884 2841 1681 2658 
Q 1478 2475 1428 2131 
L 2881 2131 
z
" transform="scale(0.015625)"/>
     </defs>
     <use xlink:href="#DejaVuSans-Bold-43"/>
     <use xlink:href="#DejaVuSans-Bold-48" transform="translate(73.388672 0)"/>
     <use xlink:href="#DejaVuSans-Bold-2083" transform="translate(157.080078 0)"/>
     <use xlink:href="#DejaVuSans-Bold-2d" transform="translate(200.878906 0)"/>
     <use xlink:href="#DejaVuSans-Bold-43" transform="translate(242.382812 0)"/>
     <use xlink:href="#DejaVuSans-Bold-48" transform="translate(315.771484 0)"/>
     <use xlink:href="#DejaVuSans-Bold-3d" transform="translate(399.462891 0)"/>
     <use xlink:href="#DejaVuSans-Bold-43" transform="translate(483.251953 0)"/>
     <use xlink:href="#DejaVuSans-Bold-48" transform="translate(556.640625 0)"/>
     <use xlink:href="#DejaVuSans-Bold-2d" transform="translate(640.332031 0)"/>
     <use xlink:href="#DejaVuSans-Bold-43" transform="translate(681.835938 0)"/>
     <use xlink:href="#DejaVuSans-Bold-2261" transform="translate(755.224609 0)"/>
     <use xlink:href="#DejaVuSans-Bold-43" transform="translate(839.013672 0)"/>
     <use xlink:href="#DejaVuSans-Bold-2d" transform="translate(914.652344 0)"/>
     <use xlink:href="#DejaVuSans-Bold-48" transform="translate(956.15625 0)"/>
     <use xlink:href="#DejaVuSans-Bold-20" transform="translate(1039.847656 0)"/>
     <use xlink:href="#DejaVuSans-Bold-53" transform="translate(1074.662109 0)"/>
     <use xlink:href="#DejaVuSans-Bold-74" transform="translate(1146.683594 0)"/>
     <use xlink:href="#DejaVuSans-Bold-72" transform="translate(1194.486328 0)"/>
     <use xlink:href="#DejaVuSans-Bold-75" transform="translate(1243.802734 0)"/>
     <use xlink:href="#DejaVuSans-Bold-63" transform="translate(1314.994141 0)"/>
     <use xlink:href="#DejaVuSans-Bold-74" transform="translate(1374.271484 0)"/>
     <use xlink:href="#DejaVuSans-Bold-75" transform="translate(1422.074219 0)"/>
     <use xlink:href="#DejaVuSans-Bold-72" transform="translate(1493.265625 0)"/>
     <use xlink:href="#DejaVuSans-Bold-65" transform="translate(1542.582031 0)"/>
    </g>
   </g>
  </g>
 </g>
 <defs>
  <clipPath id="p74e32fd4de">
   <rect x="7.2" y="32.837812" width="698.4" height="174.6"/>
  </clipPath>
 </defs>
</svg>
