<?xml version="1.0" encoding="utf-8" standalone="no"?>
<!DOCTYPE svg PUBLIC "-//W3C//DTD SVG 1.1//EN"
  "http://www.w3.org/Graphics/SVG/1.1/DTD/svg11.dtd">
<svg xmlns:xlink="http://www.w3.org/1999/xlink" width="562.062902pt" height="566.849844pt" viewBox="0 0 562.062902 566.849844" xmlns="http://www.w3.org/2000/svg" version="1.1">
 <metadata>
  <rdf:RDF xmlns:dc="http://purl.org/dc/elements/1.1/" xmlns:cc="http://creativecommons.org/ns#" xmlns:rdf="http://www.w3.org/1999/02/22-rdf-syntax-ns#">
   <cc:Work>
    <dc:type rdf:resource="http://purl.org/dc/dcmitype/StillImage"/>
    <dc:date>2025-12-12T18:46:06.235606</dc:date>
    <dc:format>image/svg+xml</dc:format>
    <dc:creator>
     <cc:Agent>
      <dc:title>Matplotlib v3.10.7, https://matplotlib.org/</dc:title>
     </cc:Agent>
    </dc:creator>
   </cc:Work>
  </rdf:RDF>
 </metadata>
 <defs>
  <style type="text/css">*{stroke-linejoin: round; stroke-linecap: butt}</style>
 </defs>
 <g id="figure_1">
  <g id="patch_1">
   <path d="M 0 566.849844 
L 562.062902 566.849844 
L 562.062902 0 
L 0 0 
z
" style="fill: #ffffff"/>
  </g>
  <g id="axes_1">
   <g id="patch_2">
    <path d="M 44.555937 527.357969 
L 539.835938 527.357969 
L 539.835938 32.077969 
L 44.555937 32.077969 
z
" style="fill: #ffffff"/>
   </g>
   <g id="matplotlib.axis_1">
    <g id="xtick_1">
     <g id="line2d_1">
      <path d="M 79.93308 527.357969 
L 79.93308 32.077969 
" clip-path="url(#p597d7633ff)" style="fill: none; stroke-dasharray: 2.96,1.28; stroke-dashoffset: 0; stroke: #b0b0b0; stroke-opacity: 0.3; stroke-width: 0.8"/>
     </g>
     <g id="line2d_2">
      <defs>
       <path id="m4d0860c14f" d="M 0 0 
L 0 3.5 
" style="stroke: #000000; stroke-width: 0.8"/>
      </defs>
      <g>
       <use xlink:href="#m4d0860c14f" x="79.93308" y="527.357969" style="stroke: #000000; stroke-width: 0.8"/>
      </g>
     </g>
     <g id="text_1">
      <!-- −6 -->
      <g transform="translate(72.561987 541.956406) scale(0.1 -0.1)">
       <defs>
        <path id="DejaVuSans-2212" d="M 678 2272 
L 4684 2272 
L 4684 1741 
L 678 1741 
L 678 2272 
z
" transform="scale(0.015625)"/>
        <path id="DejaVuSans-36" d="M 2113 2584 
Q 1688 2584 1439 2293 
Q 1191 2003 1191 1497 
Q 1191 994 1439 701 
Q 1688 409 2113 409 
Q 2538 409 2786 701 
Q 3034 994 3034 1497 
Q 3034 2003 2786 2293 
Q 2538 2584 2113 2584 
z
M 3366 4563 
L 3366 3988 
Q 3128 4100 2886 4159 
Q 2644 4219 2406 4219 
Q 1781 4219 1451 3797 
Q 1122 3375 1075 2522 
Q 1259 2794 1537 2939 
Q 1816 3084 2150 3084 
Q 2853 3084 3261 2657 
Q 3669 2231 3669 1497 
Q 3669 778 3244 343 
Q 2819 -91 2113 -91 
Q 1303 -91 875 529 
Q 447 1150 447 2328 
Q 447 3434 972 4092 
Q 1497 4750 2381 4750 
Q 2619 4750 2861 4703 
Q 3103 4656 3366 4563 
z
" transform="scale(0.015625)"/>
       </defs>
       <use xlink:href="#DejaVuSans-2212"/>
       <use xlink:href="#DejaVuSans-36" transform="translate(83.789062 0)"/>
      </g>
     </g>
    </g>
    <g id="xtick_2">
     <g id="line2d_3">
      <path d="M 150.687366 527.357969 
L 150.687366 32.077969 
" clip-path="url(#p597d7633ff)" style="fill: none; stroke-dasharray: 2.96,1.28; stroke-dashoffset: 0; stroke: #b0b0b0; stroke-opacity: 0.3; stroke-width: 0.8"/>
     </g>
     <g id="line2d_4">
      <g>
       <use xlink:href="#m4d0860c14f" x="150.687366" y="527.357969" style="stroke: #000000; stroke-width: 0.8"/>
      </g>
     </g>
     <g id="text_2">
      <!-- −4 -->
      <g transform="translate(143.316272 541.956406) scale(0.1 -0.1)">
       <defs>
        <path id="DejaVuSans-34" d="M 2419 4116 
L 825 1625 
L 2419 1625 
L 2419 4116 
z
M 2253 4666 
L 3047 4666 
L 3047 1625 
L 3713 1625 
L 3713 1100 
L 3047 1100 
L 3047 0 
L 2419 0 
L 2419 1100 
L 313 1100 
L 313 1709 
L 2253 4666 
z
" transform="scale(0.015625)"/>
       </defs>
       <use xlink:href="#DejaVuSans-2212"/>
       <use xlink:href="#DejaVuSans-34" transform="translate(83.789062 0)"/>
      </g>
     </g>
    </g>
    <g id="xtick_3">
     <g id="line2d_5">
      <path d="M 221.441652 527.357969 
L 221.441652 32.077969 
" clip-path="url(#p597d7633ff)" style="fill: none; stroke-dasharray: 2.96,1.28; stroke-dashoffset: 0; stroke: #b0b0b0; stroke-opacity: 0.3; stroke-width: 0.8"/>
     </g>
     <g id="line2d_6">
      <g>
       <use xlink:href="#m4d0860c14f" x="221.441652" y="527.357969" style="stroke: #000000; stroke-width: 0.8"/>
      </g>
     </g>
     <g id="text_3">
      <!-- −2 -->
      <g transform="translate(214.070558 541.956406) scale(0.1 -0.1)">
       <defs>
        <path id="DejaVuSans-32" d="M 1228 531 
L 3431 531 
L 3431 0 
L 469 0 
L 469 531 
Q 828 903 1448 1529 
Q 2069 2156 2228 2338 
Q 2531 2678 2651 2914 
Q 2772 3150 2772 3378 
Q 2772 3750 2511 3984 
Q 2250 4219 1831 4219 
Q 1534 4219 1204 4116 
Q 875 4013 500 3803 
L 500 4441 
Q 881 4594 1212 4672 
Q 1544 4750 1819 4750 
Q 2544 4750 2975 4387 
Q 3406 4025 3406 3419 
Q 3406 3131 3298 2873 
Q 3191 2616 2906 2266 
Q 2828 2175 2409 1742 
Q 1991 1309 1228 531 
z
" transform="scale(0.015625)"/>
       </defs>
       <use xlink:href="#DejaVuSans-2212"/>
       <use xlink:href="#DejaVuSans-32" transform="translate(83.789062 0)"/>
      </g>
     </g>
    </g>
    <g id="xtick_4">
     <g id="line2d_7">
      <path d="M 292.195938 527.357969 
L 292.195938 32.077969 
" clip-path="url(#p597d7633ff)" style="fill: none; stroke-dasharray: 2.96,1.28; stroke-dashoffset: 0; stroke: #b0b0b0; stroke-opacity: 0.3; stroke-width: 0.8"/>
     </g>
     <g id="line2d_8">
      <g>
       <use xlink:href="#m4d0860c14f" x="292.195938" y="527.357969" style="stroke: #000000; stroke-width: 0.8"/>
      </g>
     </g>
     <g id="text_4">
      <!-- 0 -->
      <g transform="translate(289.014688 541.956406) scale(0.1 -0.1)">
       <defs>
        <path id="DejaVuSans-30" d="M 2034 4250 
Q 1547 4250 1301 3770 
Q 1056 3291 1056 2328 
Q 1056 1369 1301 889 
Q 1547 409 2034 409 
Q 2525 409 2770 889 
Q 3016 1369 3016 2328 
Q 3016 3291 2770 3770 
Q 2525 4250 2034 4250 
z
M 2034 4750 
Q 2819 4750 3233 4129 
Q 3647 3509 3647 2328 
Q 3647 1150 3233 529 
Q 2819 -91 2034 -91 
Q 1250 -91 836 529 
Q 422 1150 422 2328 
Q 422 3509 836 4129 
Q 1250 4750 2034 4750 
z
" transform="scale(0.015625)"/>
       </defs>
       <use xlink:href="#DejaVuSans-30"/>
      </g>
     </g>
    </g>
    <g id="xtick_5">
     <g id="line2d_9">
      <path d="M 362.950223 527.357969 
L 362.950223 32.077969 
" clip-path="url(#p597d7633ff)" style="fill: none; stroke-dasharray: 2.96,1.28; stroke-dashoffset: 0; stroke: #b0b0b0; stroke-opacity: 0.3; stroke-width: 0.8"/>
     </g>
     <g id="line2d_10">
      <g>
       <use xlink:href="#m4d0860c14f" x="362.950223" y="527.357969" style="stroke: #000000; stroke-width: 0.8"/>
      </g>
     </g>
     <g id="text_5">
      <!-- 2 -->
      <g transform="translate(359.768973 541.956406) scale(0.1 -0.1)">
       <use xlink:href="#DejaVuSans-32"/>
      </g>
     </g>
    </g>
    <g id="xtick_6">
     <g id="line2d_11">
      <path d="M 433.704509 527.357969 
L 433.704509 32.077969 
" clip-path="url(#p597d7633ff)" style="fill: none; stroke-dasharray: 2.96,1.28; stroke-dashoffset: 0; stroke: #b0b0b0; stroke-opacity: 0.3; stroke-width: 0.8"/>
     </g>
     <g id="line2d_12">
      <g>
       <use xlink:href="#m4d0860c14f" x="433.704509" y="527.357969" style="stroke: #000000; stroke-width: 0.8"/>
      </g>
     </g>
     <g id="text_6">
      <!-- 4 -->
      <g transform="translate(430.523259 541.956406) scale(0.1 -0.1)">
       <use xlink:href="#DejaVuSans-34"/>
      </g>
     </g>
    </g>
    <g id="xtick_7">
     <g id="line2d_13">
      <path d="M 504.458795 527.357969 
L 504.458795 32.077969 
" clip-path="url(#p597d7633ff)" style="fill: none; stroke-dasharray: 2.96,1.28; stroke-dashoffset: 0; stroke: #b0b0b0; stroke-opacity: 0.3; stroke-width: 0.8"/>
     </g>
     <g id="line2d_14">
      <g>
       <use xlink:href="#m4d0860c14f" x="504.458795" y="527.357969" style="stroke: #000000; stroke-width: 0.8"/>
      </g>
     </g>
     <g id="text_7">
      <!-- 6 -->
      <g transform="translate(501.277545 541.956406) scale(0.1 -0.1)">
       <use xlink:href="#DejaVuSans-36"/>
      </g>
     </g>
    </g>
    <g id="text_8">
     <!-- x -->
     <g transform="translate(288.644688 557.154219) scale(0.12 -0.12)">
      <defs>
       <path id="DejaVuSans-78" d="M 3513 3500 
L 2247 1797 
L 3578 0 
L 2900 0 
L 1881 1375 
L 863 0 
L 184 0 
L 1544 1831 
L 300 3500 
L 978 3500 
L 1906 2253 
L 2834 3500 
L 3513 3500 
z
" transform="scale(0.015625)"/>
      </defs>
      <use xlink:href="#DejaVuSans-78"/>
     </g>
    </g>
   </g>
   <g id="matplotlib.axis_2">
    <g id="ytick_1">
     <g id="line2d_15">
      <path d="M 44.555937 491.980826 
L 539.835938 491.980826 
" clip-path="url(#p597d7633ff)" style="fill: none; stroke-dasharray: 2.96,1.28; stroke-dashoffset: 0; stroke: #b0b0b0; stroke-opacity: 0.3; stroke-width: 0.8"/>
     </g>
     <g id="line2d_16">
      <defs>
       <path id="mb03f6cf20f" d="M 0 0 
L -3.5 0 
" style="stroke: #000000; stroke-width: 0.8"/>
      </defs>
      <g>
       <use xlink:href="#mb03f6cf20f" x="44.555937" y="491.980826" style="stroke: #000000; stroke-width: 0.8"/>
      </g>
     </g>
     <g id="text_9">
      <!-- −6 -->
      <g transform="translate(22.81375 495.780045) scale(0.1 -0.1)">
       <use xlink:href="#DejaVuSans-2212"/>
       <use xlink:href="#DejaVuSans-36" transform="translate(83.789062 0)"/>
      </g>
     </g>
    </g>
    <g id="ytick_2">
     <g id="line2d_17">
      <path d="M 44.555937 421.22654 
L 539.835938 421.22654 
" clip-path="url(#p597d7633ff)" style="fill: none; stroke-dasharray: 2.96,1.28; stroke-dashoffset: 0; stroke: #b0b0b0; stroke-opacity: 0.3; stroke-width: 0.8"/>
     </g>
     <g id="line2d_18">
      <g>
       <use xlink:href="#mb03f6cf20f" x="44.555937" y="421.22654" style="stroke: #000000; stroke-width: 0.8"/>
      </g>
     </g>
     <g id="text_10">
      <!-- −4 -->
      <g transform="translate(22.81375 425.025759) scale(0.1 -0.1)">
       <use xlink:href="#DejaVuSans-2212"/>
       <use xlink:href="#DejaVuSans-34" transform="translate(83.789062 0)"/>
      </g>
     </g>
    </g>
    <g id="ytick_3">
     <g id="line2d_19">
      <path d="M 44.555937 350.472254 
L 539.835938 350.472254 
" clip-path="url(#p597d7633ff)" style="fill: none; stroke-dasharray: 2.96,1.28; stroke-dashoffset: 0; stroke: #b0b0b0; stroke-opacity: 0.3; stroke-width: 0.8"/>
     </g>
     <g id="line2d_20">
      <g>
       <use xlink:href="#mb03f6cf20f" x="44.555937" y="350.472254" style="stroke: #000000; stroke-width: 0.8"/>
      </g>
     </g>
     <g id="text_11">
      <!-- −2 -->
      <g transform="translate(22.81375 354.271473) scale(0.1 -0.1)">
       <use xlink:href="#DejaVuSans-2212"/>
       <use xlink:href="#DejaVuSans-32" transform="translate(83.789062 0)"/>
      </g>
     </g>
    </g>
    <g id="ytick_4">
     <g id="line2d_21">
      <path d="M 44.555937 279.717969 
L 539.835938 279.717969 
" clip-path="url(#p597d7633ff)" style="fill: none; stroke-dasharray: 2.96,1.28; stroke-dashoffset: 0; stroke: #b0b0b0; stroke-opacity: 0.3; stroke-width: 0.8"/>
     </g>
     <g id="line2d_22">
      <g>
       <use xlink:href="#mb03f6cf20f" x="44.555937" y="279.717969" style="stroke: #000000; stroke-width: 0.8"/>
      </g>
     </g>
     <g id="text_12">
      <!-- 0 -->
      <g transform="translate(31.193437 283.517187) scale(0.1 -0.1)">
       <use xlink:href="#DejaVuSans-30"/>
      </g>
     </g>
    </g>
    <g id="ytick_5">
     <g id="line2d_23">
      <path d="M 44.555937 208.963683 
L 539.835938 208.963683 
" clip-path="url(#p597d7633ff)" style="fill: none; stroke-dasharray: 2.96,1.28; stroke-dashoffset: 0; stroke: #b0b0b0; stroke-opacity: 0.3; stroke-width: 0.8"/>
     </g>
     <g id="line2d_24">
      <g>
       <use xlink:href="#mb03f6cf20f" x="44.555937" y="208.963683" style="stroke: #000000; stroke-width: 0.8"/>
      </g>
     </g>
     <g id="text_13">
      <!-- 2 -->
      <g transform="translate(31.193437 212.762902) scale(0.1 -0.1)">
       <use xlink:href="#DejaVuSans-32"/>
      </g>
     </g>
    </g>
    <g id="ytick_6">
     <g id="line2d_25">
      <path d="M 44.555937 138.209397 
L 539.835938 138.209397 
" clip-path="url(#p597d7633ff)" style="fill: none; stroke-dasharray: 2.96,1.28; stroke-dashoffset: 0; stroke: #b0b0b0; stroke-opacity: 0.3; stroke-width: 0.8"/>
     </g>
     <g id="line2d_26">
      <g>
       <use xlink:href="#mb03f6cf20f" x="44.555937" y="138.209397" style="stroke: #000000; stroke-width: 0.8"/>
      </g>
     </g>
     <g id="text_14">
      <!-- 4 -->
      <g transform="translate(31.193437 142.008616) scale(0.1 -0.1)">
       <use xlink:href="#DejaVuSans-34"/>
      </g>
     </g>
    </g>
    <g id="ytick_7">
     <g id="line2d_27">
      <path d="M 44.555937 67.455112 
L 539.835938 67.455112 
" clip-path="url(#p597d7633ff)" style="fill: none; stroke-dasharray: 2.96,1.28; stroke-dashoffset: 0; stroke: #b0b0b0; stroke-opacity: 0.3; stroke-width: 0.8"/>
     </g>
     <g id="line2d_28">
      <g>
       <use xlink:href="#mb03f6cf20f" x="44.555937" y="67.455112" style="stroke: #000000; stroke-width: 0.8"/>
      </g>
     </g>
     <g id="text_15">
      <!-- 6 -->
      <g transform="translate(31.193437 71.25433) scale(0.1 -0.1)">
       <use xlink:href="#DejaVuSans-36"/>
      </g>
     </g>
    </g>
    <g id="text_16">
     <!-- y -->
     <g transform="translate(16.318125 283.269219) rotate(-90) scale(0.12 -0.12)">
      <defs>
       <path id="DejaVuSans-79" d="M 2059 -325 
Q 1816 -950 1584 -1140 
Q 1353 -1331 966 -1331 
L 506 -1331 
L 506 -850 
L 844 -850 
Q 1081 -850 1212 -737 
Q 1344 -625 1503 -206 
L 1606 56 
L 191 3500 
L 800 3500 
L 1894 763 
L 2988 3500 
L 3597 3500 
L 2059 -325 
z
" transform="scale(0.015625)"/>
      </defs>
      <use xlink:href="#DejaVuSans-79"/>
     </g>
    </g>
   </g>
   <g id="line2d_29">
    <path d="M 469.081652 279.717969 
L 468.99349 274.133943 
L 468.729093 268.555484 
L 468.288723 262.988152 
L 467.672821 257.437496 
L 466.881999 251.90905 
L 465.917046 246.408325 
L 464.778924 240.940804 
L 463.468768 235.511936 
L 461.987884 230.127134 
L 460.337747 224.791765 
L 458.520003 219.511148 
L 456.536463 214.290546 
L 454.389105 209.135164 
L 452.080069 204.05014 
L 449.611658 199.040543 
L 446.986331 194.111368 
L 444.206705 189.267527 
L 441.275552 184.513849 
L 438.195793 179.855072 
L 434.970498 175.295841 
L 431.602883 170.840701 
L 428.096303 166.494091 
L 424.454256 162.260346 
L 420.68037 158.143685 
L 416.778408 154.148211 
L 412.75226 150.277909 
L 408.605938 146.536635 
L 404.343576 142.928119 
L 399.969424 139.455958 
L 395.48784 136.123614 
L 390.903293 132.934407 
L 386.220352 129.891518 
L 381.443685 126.997978 
L 376.578054 124.256674 
L 371.62831 121.670336 
L 366.599385 119.241544 
L 361.496294 116.972718 
L 356.324122 114.866121 
L 351.088026 112.923851 
L 345.793225 111.147845 
L 340.444997 109.539873 
L 335.048674 108.101539 
L 329.609634 106.834276 
L 324.133299 105.739347 
L 318.625128 104.817844 
L 313.090612 104.070684 
L 307.535268 103.498614 
L 301.964633 103.102204 
L 296.384261 102.881847 
L 290.799714 102.837765 
L 285.216558 102.970001 
L 279.64036 103.278423 
L 274.076677 103.762724 
L 268.531056 104.42242 
L 263.009024 105.256856 
L 257.516087 106.265197 
L 252.057719 107.446441 
L 246.639363 108.799408 
L 241.266417 110.322751 
L 235.94424 112.01495 
L 230.678135 113.87432 
L 225.473353 115.899006 
L 220.335081 118.08699 
L 215.268442 120.436092 
L 210.278485 122.943969 
L 205.370186 125.608122 
L 200.548437 128.425895 
L 195.818043 131.39448 
L 191.183722 134.510916 
L 186.650091 137.772098 
L 182.221671 141.174775 
L 177.902876 144.715554 
L 173.69801 148.390907 
L 169.611266 152.19717 
L 165.646717 156.130548 
L 161.808315 160.18712 
L 158.099886 164.362844 
L 154.525127 168.653556 
L 151.087601 173.05498 
L 147.790735 177.562727 
L 144.637815 182.172305 
L 141.631985 186.879119 
L 138.776239 191.678477 
L 136.073426 196.565594 
L 133.52624 201.535599 
L 131.137218 206.583538 
L 128.908744 211.704379 
L 126.843038 216.893018 
L 124.942159 222.144282 
L 123.208002 227.452937 
L 121.642296 232.81369 
L 120.246602 238.221199 
L 119.022311 243.670072 
L 117.970642 249.154879 
L 117.092646 254.670152 
L 116.389196 260.210393 
L 115.860994 265.77008 
L 115.508567 271.34367 
L 115.332265 276.925608 
L 115.332265 282.510329 
L 115.508567 288.092267 
L 115.860994 293.665858 
L 116.389196 299.225544 
L 117.092646 304.765785 
L 117.970642 310.281058 
L 119.022311 315.765865 
L 120.246602 321.214739 
L 121.642296 326.622247 
L 123.208002 331.983001 
L 124.942159 337.291656 
L 126.843038 342.542919 
L 128.908744 347.731558 
L 131.137218 352.852399 
L 133.52624 357.900338 
L 136.073426 362.870344 
L 138.776239 367.757461 
L 141.631985 372.556818 
L 144.637815 377.263632 
L 147.790735 381.87321 
L 151.087601 386.380958 
L 154.525127 390.782381 
L 158.099886 395.073094 
L 161.808315 399.248817 
L 165.646717 403.30539 
L 169.611266 407.238768 
L 173.69801 411.04503 
L 177.902876 414.720383 
L 182.221671 418.261163 
L 186.650091 421.66384 
L 191.183722 424.925021 
L 195.818043 428.041458 
L 200.548437 431.010042 
L 205.370186 433.827815 
L 210.278485 436.491968 
L 215.268442 438.999846 
L 220.335081 441.348947 
L 225.473353 443.536932 
L 230.678135 445.561618 
L 235.94424 447.420987 
L 241.266417 449.113187 
L 246.639363 450.636529 
L 252.057719 451.989497 
L 257.516087 453.17074 
L 263.009024 454.179082 
L 268.531056 455.013517 
L 274.076677 455.673214 
L 279.64036 456.157515 
L 285.216558 456.465937 
L 290.799714 456.598172 
L 296.384261 456.55409 
L 301.964633 456.333734 
L 307.535268 455.937323 
L 313.090612 455.365253 
L 318.625128 454.618094 
L 324.133299 453.696591 
L 329.609634 452.601662 
L 335.048674 451.334398 
L 340.444997 449.896064 
L 345.793225 448.288093 
L 351.088026 446.512087 
L 356.324122 444.569817 
L 361.496294 442.463219 
L 366.599385 440.194393 
L 371.62831 437.765601 
L 376.578054 435.179264 
L 381.443685 432.437959 
L 386.220352 429.54442 
L 390.903293 426.50153 
L 395.48784 423.312324 
L 399.969424 419.979979 
L 404.343576 416.507819 
L 408.605938 412.899303 
L 412.75226 409.158029 
L 416.778408 405.287726 
L 420.68037 401.292253 
L 424.454256 397.175592 
L 428.096303 392.941846 
L 431.602883 388.595237 
L 434.970498 384.140096 
L 438.195793 379.580865 
L 441.275552 374.922089 
L 444.206705 370.168411 
L 446.986331 365.32457 
L 449.611658 360.395394 
L 452.080069 355.385798 
L 454.389105 350.300774 
L 456.536463 345.145392 
L 458.520003 339.92479 
L 460.337747 334.644173 
L 461.987884 329.308804 
L 463.468768 323.924002 
L 464.778924 318.495134 
L 465.917046 313.027612 
L 466.881999 307.526887 
L 467.672821 301.998441 
L 468.288723 296.447786 
L 468.729093 290.880453 
L 468.99349 285.301994 
L 469.081652 279.717969 
L 469.081652 279.717969 
" clip-path="url(#p597d7633ff)" style="fill: none; stroke: #6b46c1; stroke-width: 3; stroke-linecap: square"/>
   </g>
   <g id="line2d_30">
    <path d="M 221.441652 5.545112 
L 224.657756 7.95719 
L 227.87386 10.369267 
L 231.089963 12.781345 
L 234.306067 15.193423 
L 237.522171 17.605501 
L 240.738275 20.017579 
L 243.954379 22.429657 
L 247.170483 24.841735 
L 250.386587 27.253813 
L 253.602691 29.665891 
L 256.818795 32.077969 
L 260.034899 34.490047 
L 263.251002 36.902125 
L 266.467106 39.314203 
L 269.68321 41.72628 
L 272.899314 44.138358 
L 276.115418 46.550436 
L 279.331522 48.962514 
L 282.547626 51.374592 
L 285.76373 53.78667 
L 288.979834 56.198748 
L 292.195938 58.610826 
L 295.412041 61.022904 
L 298.628145 63.434982 
L 301.844249 65.84706 
L 305.060353 68.259138 
L 308.276457 70.671216 
L 311.492561 73.083293 
L 314.708665 75.495371 
L 317.924769 77.907449 
L 321.140873 80.319527 
L 324.356976 82.731605 
L 327.57308 85.143683 
L 330.789184 87.555761 
L 334.005288 89.967839 
L 337.221392 92.379917 
L 340.437496 94.791995 
L 343.6536 97.204073 
L 346.869704 99.616151 
L 350.085808 102.028228 
L 353.301912 104.440306 
L 356.518015 106.852384 
L 359.734119 109.264462 
L 362.950223 111.67654 
L 366.166327 114.088618 
L 369.382431 116.500696 
L 372.598535 118.912774 
L 375.814639 121.324852 
L 379.030743 123.73693 
L 382.246847 126.149008 
L 385.46295 128.561086 
L 388.679054 130.973164 
L 391.895158 133.385241 
L 395.111262 135.797319 
L 398.327366 138.209397 
L 401.54347 140.621475 
L 404.759574 143.033553 
L 407.975678 145.445631 
L 411.191782 147.857709 
L 414.407886 150.269787 
L 417.623989 152.681865 
L 420.840093 155.093943 
L 424.056197 157.506021 
L 427.272301 159.918099 
L 430.488405 162.330177 
L 433.704509 164.742254 
L 436.920613 167.154332 
L 440.136717 169.56641 
L 443.352821 171.978488 
L 446.568925 174.390566 
L 449.785028 176.802644 
L 453.001132 179.214722 
L 456.217236 181.6268 
L 459.43334 184.038878 
L 462.649444 186.450956 
L 465.865548 188.863034 
L 469.081652 191.275112 
L 472.297756 193.68719 
L 475.51386 196.099267 
L 478.729963 198.511345 
L 481.946067 200.923423 
L 485.162171 203.335501 
L 488.378275 205.747579 
L 491.594379 208.159657 
L 494.810483 210.571735 
L 498.026587 212.983813 
L 501.242691 215.395891 
L 504.458795 217.807969 
L 507.674899 220.220047 
L 510.891002 222.632125 
L 514.107106 225.044203 
L 517.32321 227.45628 
L 520.539314 229.868358 
L 523.755418 232.280436 
L 526.971522 234.692514 
L 530.187626 237.104592 
L 533.40373 239.51667 
L 536.619834 241.928748 
L 539.835938 244.340826 
" clip-path="url(#p597d7633ff)" style="fill: none; stroke-dasharray: 9.25,4; stroke-dashoffset: 0; stroke: #d946ef; stroke-width: 2.5"/>
   </g>
   <g id="line2d_31">
    <path d="M 292.195938 279.717969 
L 398.327366 138.209397 
" clip-path="url(#p597d7633ff)" style="fill: none; stroke-dasharray: 7.4,3.2; stroke-dashoffset: 0; stroke: #008000; stroke-opacity: 0.7; stroke-width: 2"/>
   </g>
   <g id="line2d_32">
    <defs>
     <path id="m5b3702b987" d="M 0 5 
C 1.326016 5 2.597899 4.473168 3.535534 3.535534 
C 4.473168 2.597899 5 1.326016 5 0 
C 5 -1.326016 4.473168 -2.597899 3.535534 -3.535534 
C 2.597899 -4.473168 1.326016 -5 0 -5 
C -1.326016 -5 -2.597899 -4.473168 -3.535534 -3.535534 
C -4.473168 -2.597899 -5 -1.326016 -5 0 
C -5 1.326016 -4.473168 2.597899 -3.535534 3.535534 
C -2.597899 4.473168 -1.326016 5 0 5 
z
" style="stroke: #000000"/>
    </defs>
    <g clip-path="url(#p597d7633ff)">
     <use xlink:href="#m5b3702b987" x="292.195938" y="279.717969" style="stroke: #000000"/>
    </g>
   </g>
   <g id="line2d_33">
    <path d="M 44.555937 279.717969 
L 539.835938 279.717969 
" clip-path="url(#p597d7633ff)" style="fill: none; stroke: #000000; stroke-width: 0.5; stroke-linecap: square"/>
   </g>
   <g id="line2d_34">
    <path d="M 292.195938 527.357969 
L 292.195938 32.077969 
" clip-path="url(#p597d7633ff)" style="fill: none; stroke: #000000; stroke-width: 0.5; stroke-linecap: square"/>
   </g>
   <g id="patch_3">
    <path d="M 44.555937 527.357969 
L 44.555937 32.077969 
" style="fill: none; stroke: #000000; stroke-width: 0.8; stroke-linejoin: miter; stroke-linecap: square"/>
   </g>
   <g id="patch_4">
    <path d="M 539.835938 527.357969 
L 539.835938 32.077969 
" style="fill: none; stroke: #000000; stroke-width: 0.8; stroke-linejoin: miter; stroke-linecap: square"/>
   </g>
   <g id="patch_5">
    <path d="M 44.555937 527.357969 
L 539.835938 527.357969 
" style="fill: none; stroke: #000000; stroke-width: 0.8; stroke-linejoin: miter; stroke-linecap: square"/>
   </g>
   <g id="patch_6">
    <path d="M 44.555937 32.077969 
L 539.835938 32.077969 
" style="fill: none; stroke: #000000; stroke-width: 0.8; stroke-linejoin: miter; stroke-linecap: square"/>
   </g>
   <g id="text_17">
    <g id="patch_7">
     <path d="M 345.261652 197.370737 
L 377.939152 197.370737 
Q 381.539152 197.370737 381.539152 193.770737 
L 381.539152 182.156987 
Q 381.539152 178.556987 377.939152 178.556987 
L 345.261652 178.556987 
Q 341.661652 178.556987 341.661652 182.156987 
L 341.661652 193.770737 
Q 341.661652 197.370737 345.261652 197.370737 
z
" style="fill: #ffffff; opacity: 0.8; stroke: #000000; stroke-linejoin: miter"/>
    </g>
    <!-- r = 5 -->
    <g style="fill: #008000" transform="translate(345.261652 191.275112) scale(0.12 -0.12)">
     <defs>
      <path id="DejaVuSans-Bold-72" d="M 3138 2547 
Q 2991 2616 2845 2648 
Q 2700 2681 2553 2681 
Q 2122 2681 1889 2404 
Q 1656 2128 1656 1613 
L 1656 0 
L 538 0 
L 538 3500 
L 1656 3500 
L 1656 2925 
Q 1872 3269 2151 3426 
Q 2431 3584 2822 3584 
Q 2878 3584 2943 3579 
Q 3009 3575 3134 3559 
L 3138 2547 
z
" transform="scale(0.015625)"/>
      <path id="DejaVuSans-Bold-20" transform="scale(0.015625)"/>
      <path id="DejaVuSans-Bold-3d" d="M 678 3084 
L 4684 3084 
L 4684 2350 
L 678 2350 
L 678 3084 
z
M 678 1663 
L 4684 1663 
L 4684 922 
L 678 922 
L 678 1663 
z
" transform="scale(0.015625)"/>
      <path id="DejaVuSans-Bold-35" d="M 678 4666 
L 3669 4666 
L 3669 3781 
L 1638 3781 
L 1638 3059 
Q 1775 3097 1914 3117 
Q 2053 3138 2203 3138 
Q 3056 3138 3531 2711 
Q 4006 2284 4006 1522 
Q 4006 766 3489 337 
Q 2972 -91 2053 -91 
Q 1656 -91 1267 -14 
Q 878 63 494 219 
L 494 1166 
Q 875 947 1217 837 
Q 1559 728 1863 728 
Q 2300 728 2551 942 
Q 2803 1156 2803 1522 
Q 2803 1891 2551 2103 
Q 2300 2316 1863 2316 
Q 1603 2316 1309 2248 
Q 1016 2181 678 2041 
L 678 4666 
z
" transform="scale(0.015625)"/>
     </defs>
     <use xlink:href="#DejaVuSans-Bold-72"/>
     <use xlink:href="#DejaVuSans-Bold-20" transform="translate(49.316406 0)"/>
     <use xlink:href="#DejaVuSans-Bold-3d" transform="translate(84.130859 0)"/>
     <use xlink:href="#DejaVuSans-Bold-20" transform="translate(167.919922 0)"/>
     <use xlink:href="#DejaVuSans-Bold-35" transform="translate(202.734375 0)"/>
    </g>
   </g>
   <g id="text_18">
    <g id="patch_8">
     <path d="M 469.081652 91.333058 
L 554.862902 91.333058 
Q 558.462902 91.333058 558.462902 87.733058 
L 558.462902 76.119308 
Q 558.462902 72.519308 554.862902 72.519308 
L 469.081652 72.519308 
Q 465.481652 72.519308 465.481652 76.119308 
L 465.481652 87.733058 
Q 465.481652 91.333058 469.081652 91.333058 
z
" style="fill: #fde68a; opacity: 0.8; stroke: #000000; stroke-linejoin: miter"/>
    </g>
    <!-- 3x + 4y = 25 -->
    <g style="fill: #d946ef" transform="translate(469.081652 85.143683) scale(0.12 -0.12)">
     <defs>
      <path id="DejaVuSans-Bold-33" d="M 2981 2516 
Q 3453 2394 3698 2092 
Q 3944 1791 3944 1325 
Q 3944 631 3412 270 
Q 2881 -91 1863 -91 
Q 1503 -91 1142 -33 
Q 781 25 428 141 
L 428 1069 
Q 766 900 1098 814 
Q 1431 728 1753 728 
Q 2231 728 2486 893 
Q 2741 1059 2741 1369 
Q 2741 1688 2480 1852 
Q 2219 2016 1709 2016 
L 1228 2016 
L 1228 2791 
L 1734 2791 
Q 2188 2791 2409 2933 
Q 2631 3075 2631 3366 
Q 2631 3634 2415 3781 
Q 2200 3928 1806 3928 
Q 1516 3928 1219 3862 
Q 922 3797 628 3669 
L 628 4550 
Q 984 4650 1334 4700 
Q 1684 4750 2022 4750 
Q 2931 4750 3382 4451 
Q 3834 4153 3834 3553 
Q 3834 3144 3618 2883 
Q 3403 2622 2981 2516 
z
" transform="scale(0.015625)"/>
      <path id="DejaVuSans-Bold-78" d="M 1422 1791 
L 159 3500 
L 1344 3500 
L 2059 2463 
L 2784 3500 
L 3969 3500 
L 2706 1797 
L 4031 0 
L 2847 0 
L 2059 1106 
L 1281 0 
L 97 0 
L 1422 1791 
z
" transform="scale(0.015625)"/>
      <path id="DejaVuSans-Bold-2b" d="M 3053 4013 
L 3053 2375 
L 4684 2375 
L 4684 1638 
L 3053 1638 
L 3053 0 
L 2309 0 
L 2309 1638 
L 678 1638 
L 678 2375 
L 2309 2375 
L 2309 4013 
L 3053 4013 
z
" transform="scale(0.015625)"/>
      <path id="DejaVuSans-Bold-34" d="M 2356 3675 
L 1038 1722 
L 2356 1722 
L 2356 3675 
z
M 2156 4666 
L 3494 4666 
L 3494 1722 
L 4159 1722 
L 4159 850 
L 3494 850 
L 3494 0 
L 2356 0 
L 2356 850 
L 288 850 
L 288 1881 
L 2156 4666 
z
" transform="scale(0.015625)"/>
      <path id="DejaVuSans-Bold-79" d="M 78 3500 
L 1197 3500 
L 2138 1125 
L 2938 3500 
L 4056 3500 
L 2584 -331 
Q 2363 -916 2067 -1148 
Q 1772 -1381 1288 -1381 
L 641 -1381 
L 641 -647 
L 991 -647 
Q 1275 -647 1404 -556 
Q 1534 -466 1606 -231 
L 1638 -134 
L 78 3500 
z
" transform="scale(0.015625)"/>
      <path id="DejaVuSans-Bold-32" d="M 1844 884 
L 3897 884 
L 3897 0 
L 506 0 
L 506 884 
L 2209 2388 
Q 2438 2594 2547 2791 
Q 2656 2988 2656 3200 
Q 2656 3528 2436 3728 
Q 2216 3928 1850 3928 
Q 1569 3928 1234 3808 
Q 900 3688 519 3450 
L 519 4475 
Q 925 4609 1322 4679 
Q 1719 4750 2100 4750 
Q 2938 4750 3402 4381 
Q 3866 4013 3866 3353 
Q 3866 2972 3669 2642 
Q 3472 2313 2841 1759 
L 1844 884 
z
" transform="scale(0.015625)"/>
     </defs>
     <use xlink:href="#DejaVuSans-Bold-33"/>
     <use xlink:href="#DejaVuSans-Bold-78" transform="translate(69.580078 0)"/>
     <use xlink:href="#DejaVuSans-Bold-20" transform="translate(134.082031 0)"/>
     <use xlink:href="#DejaVuSans-Bold-2b" transform="translate(168.896484 0)"/>
     <use xlink:href="#DejaVuSans-Bold-20" transform="translate(252.685547 0)"/>
     <use xlink:href="#DejaVuSans-Bold-34" transform="translate(287.5 0)"/>
     <use xlink:href="#DejaVuSans-Bold-79" transform="translate(357.080078 0)"/>
     <use xlink:href="#DejaVuSans-Bold-20" transform="translate(422.265625 0)"/>
     <use xlink:href="#DejaVuSans-Bold-3d" transform="translate(457.080078 0)"/>
     <use xlink:href="#DejaVuSans-Bold-20" transform="translate(540.869141 0)"/>
     <use xlink:href="#DejaVuSans-Bold-32" transform="translate(575.683594 0)"/>
     <use xlink:href="#DejaVuSans-Bold-35" transform="translate(645.263672 0)"/>
    </g>
   </g>
   <g id="text_19">
    <!-- Circle x² + y² = 25 with Tangent at (3, 4) -->
    <g transform="translate(144.488516 17.077969) scale(0.13 -0.13)">
     <defs>
      <path id="DejaVuSans-Bold-43" d="M 4288 256 
Q 3956 84 3597 -3 
Q 3238 -91 2847 -91 
Q 1681 -91 1000 561 
Q 319 1213 319 2328 
Q 319 3447 1000 4098 
Q 1681 4750 2847 4750 
Q 3238 4750 3597 4662 
Q 3956 4575 4288 4403 
L 4288 3438 
Q 3953 3666 3628 3772 
Q 3303 3878 2944 3878 
Q 2300 3878 1931 3465 
Q 1563 3053 1563 2328 
Q 1563 1606 1931 1193 
Q 2300 781 2944 781 
Q 3303 781 3628 887 
Q 3953 994 4288 1222 
L 4288 256 
z
" transform="scale(0.015625)"/>
      <path id="DejaVuSans-Bold-69" d="M 538 3500 
L 1656 3500 
L 1656 0 
L 538 0 
L 538 3500 
z
M 538 4863 
L 1656 4863 
L 1656 3950 
L 538 3950 
L 538 4863 
z
" transform="scale(0.015625)"/>
      <path id="DejaVuSans-Bold-63" d="M 3366 3391 
L 3366 2478 
Q 3138 2634 2908 2709 
Q 2678 2784 2431 2784 
Q 1963 2784 1702 2511 
Q 1441 2238 1441 1747 
Q 1441 1256 1702 982 
Q 1963 709 2431 709 
Q 2694 709 2930 787 
Q 3166 866 3366 1019 
L 3366 103 
Q 3103 6 2833 -42 
Q 2563 -91 2291 -91 
Q 1344 -91 809 395 
Q 275 881 275 1747 
Q 275 2613 809 3098 
Q 1344 3584 2291 3584 
Q 2566 3584 2833 3536 
Q 3100 3488 3366 3391 
z
" transform="scale(0.015625)"/>
      <path id="DejaVuSans-Bold-6c" d="M 538 4863 
L 1656 4863 
L 1656 0 
L 538 0 
L 538 4863 
z
" transform="scale(0.015625)"/>
      <path id="DejaVuSans-Bold-65" d="M 4031 1759 
L 4031 1441 
L 1416 1441 
Q 1456 1047 1700 850 
Q 1944 653 2381 653 
Q 2734 653 3104 758 
Q 3475 863 3866 1075 
L 3866 213 
Q 3469 63 3072 -14 
Q 2675 -91 2278 -91 
Q 1328 -91 801 392 
Q 275 875 275 1747 
Q 275 2603 792 3093 
Q 1309 3584 2216 3584 
Q 3041 3584 3536 3087 
Q 4031 2591 4031 1759 
z
M 2881 2131 
Q 2881 2450 2695 2645 
Q 2509 2841 2209 2841 
Q 1884 2841 1681 2658 
Q 1478 2475 1428 2131 
L 2881 2131 
z
" transform="scale(0.015625)"/>
      <path id="DejaVuSans-Bold-b2" d="M 1288 2613 
L 2444 2613 
L 2444 2088 
L 341 2088 
L 341 2566 
L 1319 3397 
Q 1509 3563 1590 3688 
Q 1672 3813 1672 3938 
Q 1672 4094 1558 4191 
Q 1444 4288 1259 4288 
Q 1066 4288 844 4217 
Q 622 4147 359 4000 
L 359 4581 
Q 631 4666 886 4708 
Q 1141 4750 1375 4750 
Q 1869 4750 2150 4548 
Q 2431 4347 2431 4000 
Q 2431 3775 2320 3586 
Q 2209 3397 1894 3128 
L 1288 2613 
z
" transform="scale(0.015625)"/>
      <path id="DejaVuSans-Bold-77" d="M 225 3500 
L 1313 3500 
L 1900 1088 
L 2491 3500 
L 3425 3500 
L 4013 1113 
L 4603 3500 
L 5691 3500 
L 4769 0 
L 3547 0 
L 2956 2406 
L 2369 0 
L 1147 0 
L 225 3500 
z
" transform="scale(0.015625)"/>
      <path id="DejaVuSans-Bold-74" d="M 1759 4494 
L 1759 3500 
L 2913 3500 
L 2913 2700 
L 1759 2700 
L 1759 1216 
Q 1759 972 1856 886 
Q 1953 800 2241 800 
L 2816 800 
L 2816 0 
L 1856 0 
Q 1194 0 917 276 
Q 641 553 641 1216 
L 641 2700 
L 84 2700 
L 84 3500 
L 641 3500 
L 641 4494 
L 1759 4494 
z
" transform="scale(0.015625)"/>
      <path id="DejaVuSans-Bold-68" d="M 4056 2131 
L 4056 0 
L 2931 0 
L 2931 347 
L 2931 1625 
Q 2931 2084 2911 2256 
Q 2891 2428 2841 2509 
Q 2775 2619 2662 2680 
Q 2550 2741 2406 2741 
Q 2056 2741 1856 2470 
Q 1656 2200 1656 1722 
L 1656 0 
L 538 0 
L 538 4863 
L 1656 4863 
L 1656 2988 
Q 1909 3294 2193 3439 
Q 2478 3584 2822 3584 
Q 3428 3584 3742 3212 
Q 4056 2841 4056 2131 
z
" transform="scale(0.015625)"/>
      <path id="DejaVuSans-Bold-54" d="M 31 4666 
L 4331 4666 
L 4331 3756 
L 2784 3756 
L 2784 0 
L 1581 0 
L 1581 3756 
L 31 3756 
L 31 4666 
z
" transform="scale(0.015625)"/>
      <path id="DejaVuSans-Bold-61" d="M 2106 1575 
Q 1756 1575 1579 1456 
Q 1403 1338 1403 1106 
Q 1403 894 1545 773 
Q 1688 653 1941 653 
Q 2256 653 2472 879 
Q 2688 1106 2688 1447 
L 2688 1575 
L 2106 1575 
z
M 3816 1997 
L 3816 0 
L 2688 0 
L 2688 519 
Q 2463 200 2181 54 
Q 1900 -91 1497 -91 
Q 953 -91 614 226 
Q 275 544 275 1050 
Q 275 1666 698 1953 
Q 1122 2241 2028 2241 
L 2688 2241 
L 2688 2328 
Q 2688 2594 2478 2717 
Q 2269 2841 1825 2841 
Q 1466 2841 1156 2769 
Q 847 2697 581 2553 
L 581 3406 
Q 941 3494 1303 3539 
Q 1666 3584 2028 3584 
Q 2975 3584 3395 3211 
Q 3816 2838 3816 1997 
z
" transform="scale(0.015625)"/>
      <path id="DejaVuSans-Bold-6e" d="M 4056 2131 
L 4056 0 
L 2931 0 
L 2931 347 
L 2931 1631 
Q 2931 2084 2911 2256 
Q 2891 2428 2841 2509 
Q 2775 2619 2662 2680 
Q 2550 2741 2406 2741 
Q 2056 2741 1856 2470 
Q 1656 2200 1656 1722 
L 1656 0 
L 538 0 
L 538 3500 
L 1656 3500 
L 1656 2988 
Q 1909 3294 2193 3439 
Q 2478 3584 2822 3584 
Q 3428 3584 3742 3212 
Q 4056 2841 4056 2131 
z
" transform="scale(0.015625)"/>
      <path id="DejaVuSans-Bold-67" d="M 2919 594 
Q 2688 288 2409 144 
Q 2131 0 1766 0 
Q 1125 0 706 504 
Q 288 1009 288 1791 
Q 288 2575 706 3076 
Q 1125 3578 1766 3578 
Q 2131 3578 2409 3434 
Q 2688 3291 2919 2981 
L 2919 3500 
L 4044 3500 
L 4044 353 
Q 4044 -491 3511 -936 
Q 2978 -1381 1966 -1381 
Q 1638 -1381 1331 -1331 
Q 1025 -1281 716 -1178 
L 716 -306 
Q 1009 -475 1290 -558 
Q 1572 -641 1856 -641 
Q 2406 -641 2662 -400 
Q 2919 -159 2919 353 
L 2919 594 
z
M 2181 2772 
Q 1834 2772 1640 2515 
Q 1447 2259 1447 1791 
Q 1447 1309 1634 1061 
Q 1822 813 2181 813 
Q 2531 813 2725 1069 
Q 2919 1325 2919 1791 
Q 2919 2259 2725 2515 
Q 2531 2772 2181 2772 
z
" transform="scale(0.015625)"/>
      <path id="DejaVuSans-Bold-28" d="M 2413 -844 
L 1484 -844 
Q 1006 -72 778 623 
Q 550 1319 550 2003 
Q 550 2688 779 3389 
Q 1009 4091 1484 4856 
L 2413 4856 
Q 2013 4116 1813 3408 
Q 1613 2700 1613 2009 
Q 1613 1319 1811 609 
Q 2009 -100 2413 -844 
z
" transform="scale(0.015625)"/>
      <path id="DejaVuSans-Bold-2c" d="M 653 1209 
L 1778 1209 
L 1778 256 
L 1006 -909 
L 341 -909 
L 653 256 
L 653 1209 
z
" transform="scale(0.015625)"/>
      <path id="DejaVuSans-Bold-29" d="M 513 -844 
Q 913 -100 1113 609 
Q 1313 1319 1313 2009 
Q 1313 2700 1113 3408 
Q 913 4116 513 4856 
L 1441 4856 
Q 1916 4091 2145 3389 
Q 2375 2688 2375 2003 
Q 2375 1319 2147 623 
Q 1919 -72 1441 -844 
L 513 -844 
z
" transform="scale(0.015625)"/>
     </defs>
     <use xlink:href="#DejaVuSans-Bold-43"/>
     <use xlink:href="#DejaVuSans-Bold-69" transform="translate(73.388672 0)"/>
     <use xlink:href="#DejaVuSans-Bold-72" transform="translate(107.666016 0)"/>
     <use xlink:href="#DejaVuSans-Bold-63" transform="translate(156.982422 0)"/>
     <use xlink:href="#DejaVuSans-Bold-6c" transform="translate(216.259766 0)"/>
     <use xlink:href="#DejaVuSans-Bold-65" transform="translate(250.537109 0)"/>
     <use xlink:href="#DejaVuSans-Bold-20" transform="translate(318.359375 0)"/>
     <use xlink:href="#DejaVuSans-Bold-78" transform="translate(353.173828 0)"/>
     <use xlink:href="#DejaVuSans-Bold-b2" transform="translate(417.675781 0)"/>
     <use xlink:href="#DejaVuSans-Bold-20" transform="translate(461.474609 0)"/>
     <use xlink:href="#DejaVuSans-Bold-2b" transform="translate(496.289062 0)"/>
     <use xlink:href="#DejaVuSans-Bold-20" transform="translate(580.078125 0)"/>
     <use xlink:href="#DejaVuSans-Bold-79" transform="translate(614.892578 0)"/>
     <use xlink:href="#DejaVuSans-Bold-b2" transform="translate(680.078125 0)"/>
     <use xlink:href="#DejaVuSans-Bold-20" transform="translate(723.876953 0)"/>
     <use xlink:href="#DejaVuSans-Bold-3d" transform="translate(758.691406 0)"/>
     <use xlink:href="#DejaVuSans-Bold-20" transform="translate(842.480469 0)"/>
     <use xlink:href="#DejaVuSans-Bold-32" transform="translate(877.294922 0)"/>
     <use xlink:href="#DejaVuSans-Bold-35" transform="translate(946.875 0)"/>
     <use xlink:href="#DejaVuSans-Bold-20" transform="translate(1016.455078 0)"/>
     <use xlink:href="#DejaVuSans-Bold-77" transform="translate(1051.269531 0)"/>
     <use xlink:href="#DejaVuSans-Bold-69" transform="translate(1143.652344 0)"/>
     <use xlink:href="#DejaVuSans-Bold-74" transform="translate(1177.929688 0)"/>
     <use xlink:href="#DejaVuSans-Bold-68" transform="translate(1225.732422 0)"/>
     <use xlink:href="#DejaVuSans-Bold-20" transform="translate(1296.923828 0)"/>
     <use xlink:href="#DejaVuSans-Bold-54" transform="translate(1331.738281 0)"/>
     <use xlink:href="#DejaVuSans-Bold-61" transform="translate(1387.076172 0)"/>
     <use xlink:href="#DejaVuSans-Bold-6e" transform="translate(1454.556641 0)"/>
     <use xlink:href="#DejaVuSans-Bold-67" transform="translate(1525.748047 0)"/>
     <use xlink:href="#DejaVuSans-Bold-65" transform="translate(1597.330078 0)"/>
     <use xlink:href="#DejaVuSans-Bold-6e" transform="translate(1665.152344 0)"/>
     <use xlink:href="#DejaVuSans-Bold-74" transform="translate(1736.34375 0)"/>
     <use xlink:href="#DejaVuSans-Bold-20" transform="translate(1784.146484 0)"/>
     <use xlink:href="#DejaVuSans-Bold-61" transform="translate(1818.960938 0)"/>
     <use xlink:href="#DejaVuSans-Bold-74" transform="translate(1886.441406 0)"/>
     <use xlink:href="#DejaVuSans-Bold-20" transform="translate(1934.244141 0)"/>
     <use xlink:href="#DejaVuSans-Bold-28" transform="translate(1969.058594 0)"/>
     <use xlink:href="#DejaVuSans-Bold-33" transform="translate(2014.761719 0)"/>
     <use xlink:href="#DejaVuSans-Bold-2c" transform="translate(2084.341797 0)"/>
     <use xlink:href="#DejaVuSans-Bold-20" transform="translate(2122.330078 0)"/>
     <use xlink:href="#DejaVuSans-Bold-34" transform="translate(2157.144531 0)"/>
     <use xlink:href="#DejaVuSans-Bold-29" transform="translate(2226.724609 0)"/>
    </g>
   </g>
   <g id="line2d_35">
    <defs>
     <path id="m54be1c4289" d="M 0 6 
C 1.591219 6 3.117479 5.367802 4.242641 4.242641 
C 5.367802 3.117479 6 1.591219 6 0 
C 6 -1.591219 5.367802 -3.117479 4.242641 -4.242641 
C 3.117479 -5.367802 1.591219 -6 0 -6 
C -1.591219 -6 -3.117479 -5.367802 -4.242641 -4.242641 
C -5.367802 -3.117479 -6 -1.591219 -6 0 
C -6 1.591219 -5.367802 3.117479 -4.242641 4.242641 
C -3.117479 5.367802 -1.591219 6 0 6 
z
" style="stroke: #ff0000"/>
    </defs>
    <g clip-path="url(#p597d7633ff)">
     <use xlink:href="#m54be1c4289" x="398.327366" y="138.209397" style="fill: #ff0000; stroke: #ff0000"/>
    </g>
   </g>
   <g id="legend_1">
    <g id="patch_9">
     <path d="M 51.555937 113.468594 
L 196.545 113.468594 
Q 198.545 113.468594 198.545 111.468594 
L 198.545 39.077969 
Q 198.545 37.077969 196.545 37.077969 
L 51.555937 37.077969 
Q 49.555937 37.077969 49.555937 39.077969 
L 49.555937 111.468594 
Q 49.555937 113.468594 51.555937 113.468594 
z
" style="fill: #ffffff; opacity: 0.8; stroke: #cccccc; stroke-linejoin: miter"/>
    </g>
    <g id="line2d_36">
     <path d="M 53.555937 45.176406 
L 63.555937 45.176406 
L 73.555937 45.176406 
" style="fill: none; stroke: #6b46c1; stroke-width: 3; stroke-linecap: square"/>
    </g>
    <g id="text_20">
     <!-- x² + y² = 25 -->
     <g transform="translate(81.555937 48.676406) scale(0.1 -0.1)">
      <defs>
       <path id="DejaVuSans-b2" d="M 838 2444 
L 2163 2444 
L 2163 2088 
L 294 2088 
L 294 2431 
Q 400 2528 597 2703 
Q 1672 3656 1672 3950 
Q 1672 4156 1509 4282 
Q 1347 4409 1081 4409 
Q 919 4409 728 4354 
Q 538 4300 313 4191 
L 313 4575 
Q 553 4663 761 4706 
Q 969 4750 1147 4750 
Q 1600 4750 1872 4544 
Q 2144 4338 2144 4000 
Q 2144 3566 1109 2678 
Q 934 2528 838 2444 
z
" transform="scale(0.015625)"/>
       <path id="DejaVuSans-20" transform="scale(0.015625)"/>
       <path id="DejaVuSans-2b" d="M 2944 4013 
L 2944 2272 
L 4684 2272 
L 4684 1741 
L 2944 1741 
L 2944 0 
L 2419 0 
L 2419 1741 
L 678 1741 
L 678 2272 
L 2419 2272 
L 2419 4013 
L 2944 4013 
z
" transform="scale(0.015625)"/>
       <path id="DejaVuSans-3d" d="M 678 2906 
L 4684 2906 
L 4684 2381 
L 678 2381 
L 678 2906 
z
M 678 1631 
L 4684 1631 
L 4684 1100 
L 678 1100 
L 678 1631 
z
" transform="scale(0.015625)"/>
       <path id="DejaVuSans-35" d="M 691 4666 
L 3169 4666 
L 3169 4134 
L 1269 4134 
L 1269 2991 
Q 1406 3038 1543 3061 
Q 1681 3084 1819 3084 
Q 2600 3084 3056 2656 
Q 3513 2228 3513 1497 
Q 3513 744 3044 326 
Q 2575 -91 1722 -91 
Q 1428 -91 1123 -41 
Q 819 9 494 109 
L 494 744 
Q 775 591 1075 516 
Q 1375 441 1709 441 
Q 2250 441 2565 725 
Q 2881 1009 2881 1497 
Q 2881 1984 2565 2268 
Q 2250 2553 1709 2553 
Q 1456 2553 1204 2497 
Q 953 2441 691 2322 
L 691 4666 
z
" transform="scale(0.015625)"/>
      </defs>
      <use xlink:href="#DejaVuSans-78"/>
      <use xlink:href="#DejaVuSans-b2" transform="translate(59.179688 0)"/>
      <use xlink:href="#DejaVuSans-20" transform="translate(99.267578 0)"/>
      <use xlink:href="#DejaVuSans-2b" transform="translate(131.054688 0)"/>
      <use xlink:href="#DejaVuSans-20" transform="translate(214.84375 0)"/>
      <use xlink:href="#DejaVuSans-79" transform="translate(246.630859 0)"/>
      <use xlink:href="#DejaVuSans-b2" transform="translate(305.810547 0)"/>
      <use xlink:href="#DejaVuSans-20" transform="translate(345.898438 0)"/>
      <use xlink:href="#DejaVuSans-3d" transform="translate(377.685547 0)"/>
      <use xlink:href="#DejaVuSans-20" transform="translate(461.474609 0)"/>
      <use xlink:href="#DejaVuSans-32" transform="translate(493.261719 0)"/>
      <use xlink:href="#DejaVuSans-35" transform="translate(556.884766 0)"/>
     </g>
    </g>
    <g id="line2d_37">
     <g>
      <use xlink:href="#m54be1c4289" x="63.555937" y="59.854531" style="fill: #ff0000; stroke: #ff0000"/>
     </g>
    </g>
    <g id="text_21">
     <!-- Point (3, 4) -->
     <g transform="translate(81.555937 63.354531) scale(0.1 -0.1)">
      <defs>
       <path id="DejaVuSans-50" d="M 1259 4147 
L 1259 2394 
L 2053 2394 
Q 2494 2394 2734 2622 
Q 2975 2850 2975 3272 
Q 2975 3691 2734 3919 
Q 2494 4147 2053 4147 
L 1259 4147 
z
M 628 4666 
L 2053 4666 
Q 2838 4666 3239 4311 
Q 3641 3956 3641 3272 
Q 3641 2581 3239 2228 
Q 2838 1875 2053 1875 
L 1259 1875 
L 1259 0 
L 628 0 
L 628 4666 
z
" transform="scale(0.015625)"/>
       <path id="DejaVuSans-6f" d="M 1959 3097 
Q 1497 3097 1228 2736 
Q 959 2375 959 1747 
Q 959 1119 1226 758 
Q 1494 397 1959 397 
Q 2419 397 2687 759 
Q 2956 1122 2956 1747 
Q 2956 2369 2687 2733 
Q 2419 3097 1959 3097 
z
M 1959 3584 
Q 2709 3584 3137 3096 
Q 3566 2609 3566 1747 
Q 3566 888 3137 398 
Q 2709 -91 1959 -91 
Q 1206 -91 779 398 
Q 353 888 353 1747 
Q 353 2609 779 3096 
Q 1206 3584 1959 3584 
z
" transform="scale(0.015625)"/>
       <path id="DejaVuSans-69" d="M 603 3500 
L 1178 3500 
L 1178 0 
L 603 0 
L 603 3500 
z
M 603 4863 
L 1178 4863 
L 1178 4134 
L 603 4134 
L 603 4863 
z
" transform="scale(0.015625)"/>
       <path id="DejaVuSans-6e" d="M 3513 2113 
L 3513 0 
L 2938 0 
L 2938 2094 
Q 2938 2591 2744 2837 
Q 2550 3084 2163 3084 
Q 1697 3084 1428 2787 
Q 1159 2491 1159 1978 
L 1159 0 
L 581 0 
L 581 3500 
L 1159 3500 
L 1159 2956 
Q 1366 3272 1645 3428 
Q 1925 3584 2291 3584 
Q 2894 3584 3203 3211 
Q 3513 2838 3513 2113 
z
" transform="scale(0.015625)"/>
       <path id="DejaVuSans-74" d="M 1172 4494 
L 1172 3500 
L 2356 3500 
L 2356 3053 
L 1172 3053 
L 1172 1153 
Q 1172 725 1289 603 
Q 1406 481 1766 481 
L 2356 481 
L 2356 0 
L 1766 0 
Q 1100 0 847 248 
Q 594 497 594 1153 
L 594 3053 
L 172 3053 
L 172 3500 
L 594 3500 
L 594 4494 
L 1172 4494 
z
" transform="scale(0.015625)"/>
       <path id="DejaVuSans-28" d="M 1984 4856 
Q 1566 4138 1362 3434 
Q 1159 2731 1159 2009 
Q 1159 1288 1364 580 
Q 1569 -128 1984 -844 
L 1484 -844 
Q 1016 -109 783 600 
Q 550 1309 550 2009 
Q 550 2706 781 3412 
Q 1013 4119 1484 4856 
L 1984 4856 
z
" transform="scale(0.015625)"/>
       <path id="DejaVuSans-33" d="M 2597 2516 
Q 3050 2419 3304 2112 
Q 3559 1806 3559 1356 
Q 3559 666 3084 287 
Q 2609 -91 1734 -91 
Q 1441 -91 1130 -33 
Q 819 25 488 141 
L 488 750 
Q 750 597 1062 519 
Q 1375 441 1716 441 
Q 2309 441 2620 675 
Q 2931 909 2931 1356 
Q 2931 1769 2642 2001 
Q 2353 2234 1838 2234 
L 1294 2234 
L 1294 2753 
L 1863 2753 
Q 2328 2753 2575 2939 
Q 2822 3125 2822 3475 
Q 2822 3834 2567 4026 
Q 2313 4219 1838 4219 
Q 1578 4219 1281 4162 
Q 984 4106 628 3988 
L 628 4550 
Q 988 4650 1302 4700 
Q 1616 4750 1894 4750 
Q 2613 4750 3031 4423 
Q 3450 4097 3450 3541 
Q 3450 3153 3228 2886 
Q 3006 2619 2597 2516 
z
" transform="scale(0.015625)"/>
       <path id="DejaVuSans-2c" d="M 750 794 
L 1409 794 
L 1409 256 
L 897 -744 
L 494 -744 
L 750 256 
L 750 794 
z
" transform="scale(0.015625)"/>
       <path id="DejaVuSans-29" d="M 513 4856 
L 1013 4856 
Q 1481 4119 1714 3412 
Q 1947 2706 1947 2009 
Q 1947 1309 1714 600 
Q 1481 -109 1013 -844 
L 513 -844 
Q 928 -128 1133 580 
Q 1338 1288 1338 2009 
Q 1338 2731 1133 3434 
Q 928 4138 513 4856 
z
" transform="scale(0.015625)"/>
      </defs>
      <use xlink:href="#DejaVuSans-50"/>
      <use xlink:href="#DejaVuSans-6f" transform="translate(56.677734 0)"/>
      <use xlink:href="#DejaVuSans-69" transform="translate(117.859375 0)"/>
      <use xlink:href="#DejaVuSans-6e" transform="translate(145.642578 0)"/>
      <use xlink:href="#DejaVuSans-74" transform="translate(209.021484 0)"/>
      <use xlink:href="#DejaVuSans-20" transform="translate(248.230469 0)"/>
      <use xlink:href="#DejaVuSans-28" transform="translate(280.017578 0)"/>
      <use xlink:href="#DejaVuSans-33" transform="translate(319.03125 0)"/>
      <use xlink:href="#DejaVuSans-2c" transform="translate(382.654297 0)"/>
      <use xlink:href="#DejaVuSans-20" transform="translate(414.441406 0)"/>
      <use xlink:href="#DejaVuSans-34" transform="translate(446.228516 0)"/>
      <use xlink:href="#DejaVuSans-29" transform="translate(509.851562 0)"/>
     </g>
    </g>
    <g id="line2d_38">
     <path d="M 53.555937 74.532656 
L 63.555937 74.532656 
L 73.555937 74.532656 
" style="fill: none; stroke-dasharray: 9.25,4; stroke-dashoffset: 0; stroke: #d946ef; stroke-width: 2.5"/>
    </g>
    <g id="text_22">
     <!-- Tangent: 3x + 4y = 25 -->
     <g transform="translate(81.555937 78.032656) scale(0.1 -0.1)">
      <defs>
       <path id="DejaVuSans-54" d="M -19 4666 
L 3928 4666 
L 3928 4134 
L 2272 4134 
L 2272 0 
L 1638 0 
L 1638 4134 
L -19 4134 
L -19 4666 
z
" transform="scale(0.015625)"/>
       <path id="DejaVuSans-61" d="M 2194 1759 
Q 1497 1759 1228 1600 
Q 959 1441 959 1056 
Q 959 750 1161 570 
Q 1363 391 1709 391 
Q 2188 391 2477 730 
Q 2766 1069 2766 1631 
L 2766 1759 
L 2194 1759 
z
M 3341 1997 
L 3341 0 
L 2766 0 
L 2766 531 
Q 2569 213 2275 61 
Q 1981 -91 1556 -91 
Q 1019 -91 701 211 
Q 384 513 384 1019 
Q 384 1609 779 1909 
Q 1175 2209 1959 2209 
L 2766 2209 
L 2766 2266 
Q 2766 2663 2505 2880 
Q 2244 3097 1772 3097 
Q 1472 3097 1187 3025 
Q 903 2953 641 2809 
L 641 3341 
Q 956 3463 1253 3523 
Q 1550 3584 1831 3584 
Q 2591 3584 2966 3190 
Q 3341 2797 3341 1997 
z
" transform="scale(0.015625)"/>
       <path id="DejaVuSans-67" d="M 2906 1791 
Q 2906 2416 2648 2759 
Q 2391 3103 1925 3103 
Q 1463 3103 1205 2759 
Q 947 2416 947 1791 
Q 947 1169 1205 825 
Q 1463 481 1925 481 
Q 2391 481 2648 825 
Q 2906 1169 2906 1791 
z
M 3481 434 
Q 3481 -459 3084 -895 
Q 2688 -1331 1869 -1331 
Q 1566 -1331 1297 -1286 
Q 1028 -1241 775 -1147 
L 775 -588 
Q 1028 -725 1275 -790 
Q 1522 -856 1778 -856 
Q 2344 -856 2625 -561 
Q 2906 -266 2906 331 
L 2906 616 
Q 2728 306 2450 153 
Q 2172 0 1784 0 
Q 1141 0 747 490 
Q 353 981 353 1791 
Q 353 2603 747 3093 
Q 1141 3584 1784 3584 
Q 2172 3584 2450 3431 
Q 2728 3278 2906 2969 
L 2906 3500 
L 3481 3500 
L 3481 434 
z
" transform="scale(0.015625)"/>
       <path id="DejaVuSans-65" d="M 3597 1894 
L 3597 1613 
L 953 1613 
Q 991 1019 1311 708 
Q 1631 397 2203 397 
Q 2534 397 2845 478 
Q 3156 559 3463 722 
L 3463 178 
Q 3153 47 2828 -22 
Q 2503 -91 2169 -91 
Q 1331 -91 842 396 
Q 353 884 353 1716 
Q 353 2575 817 3079 
Q 1281 3584 2069 3584 
Q 2775 3584 3186 3129 
Q 3597 2675 3597 1894 
z
M 3022 2063 
Q 3016 2534 2758 2815 
Q 2500 3097 2075 3097 
Q 1594 3097 1305 2825 
Q 1016 2553 972 2059 
L 3022 2063 
z
" transform="scale(0.015625)"/>
       <path id="DejaVuSans-3a" d="M 750 794 
L 1409 794 
L 1409 0 
L 750 0 
L 750 794 
z
M 750 3309 
L 1409 3309 
L 1409 2516 
L 750 2516 
L 750 3309 
z
" transform="scale(0.015625)"/>
      </defs>
      <use xlink:href="#DejaVuSans-54"/>
      <use xlink:href="#DejaVuSans-61" transform="translate(44.583984 0)"/>
      <use xlink:href="#DejaVuSans-6e" transform="translate(105.863281 0)"/>
      <use xlink:href="#DejaVuSans-67" transform="translate(169.242188 0)"/>
      <use xlink:href="#DejaVuSans-65" transform="translate(232.71875 0)"/>
      <use xlink:href="#DejaVuSans-6e" transform="translate(294.242188 0)"/>
      <use xlink:href="#DejaVuSans-74" transform="translate(357.621094 0)"/>
      <use xlink:href="#DejaVuSans-3a" transform="translate(396.830078 0)"/>
      <use xlink:href="#DejaVuSans-20" transform="translate(430.521484 0)"/>
      <use xlink:href="#DejaVuSans-33" transform="translate(462.308594 0)"/>
      <use xlink:href="#DejaVuSans-78" transform="translate(525.931641 0)"/>
      <use xlink:href="#DejaVuSans-20" transform="translate(585.111328 0)"/>
      <use xlink:href="#DejaVuSans-2b" transform="translate(616.898438 0)"/>
      <use xlink:href="#DejaVuSans-20" transform="translate(700.6875 0)"/>
      <use xlink:href="#DejaVuSans-34" transform="translate(732.474609 0)"/>
      <use xlink:href="#DejaVuSans-79" transform="translate(796.097656 0)"/>
      <use xlink:href="#DejaVuSans-20" transform="translate(855.277344 0)"/>
      <use xlink:href="#DejaVuSans-3d" transform="translate(887.064453 0)"/>
      <use xlink:href="#DejaVuSans-20" transform="translate(970.853516 0)"/>
      <use xlink:href="#DejaVuSans-32" transform="translate(1002.640625 0)"/>
      <use xlink:href="#DejaVuSans-35" transform="translate(1066.263672 0)"/>
     </g>
    </g>
    <g id="line2d_39">
     <path d="M 53.555937 89.210781 
L 63.555937 89.210781 
L 73.555937 89.210781 
" style="fill: none; stroke-dasharray: 7.4,3.2; stroke-dashoffset: 0; stroke: #008000; stroke-opacity: 0.7; stroke-width: 2"/>
    </g>
    <g id="text_23">
     <!-- Radius -->
     <g transform="translate(81.555937 92.710781) scale(0.1 -0.1)">
      <defs>
       <path id="DejaVuSans-52" d="M 2841 2188 
Q 3044 2119 3236 1894 
Q 3428 1669 3622 1275 
L 4263 0 
L 3584 0 
L 2988 1197 
Q 2756 1666 2539 1819 
Q 2322 1972 1947 1972 
L 1259 1972 
L 1259 0 
L 628 0 
L 628 4666 
L 2053 4666 
Q 2853 4666 3247 4331 
Q 3641 3997 3641 3322 
Q 3641 2881 3436 2590 
Q 3231 2300 2841 2188 
z
M 1259 4147 
L 1259 2491 
L 2053 2491 
Q 2509 2491 2742 2702 
Q 2975 2913 2975 3322 
Q 2975 3731 2742 3939 
Q 2509 4147 2053 4147 
L 1259 4147 
z
" transform="scale(0.015625)"/>
       <path id="DejaVuSans-64" d="M 2906 2969 
L 2906 4863 
L 3481 4863 
L 3481 0 
L 2906 0 
L 2906 525 
Q 2725 213 2448 61 
Q 2172 -91 1784 -91 
Q 1150 -91 751 415 
Q 353 922 353 1747 
Q 353 2572 751 3078 
Q 1150 3584 1784 3584 
Q 2172 3584 2448 3432 
Q 2725 3281 2906 2969 
z
M 947 1747 
Q 947 1113 1208 752 
Q 1469 391 1925 391 
Q 2381 391 2643 752 
Q 2906 1113 2906 1747 
Q 2906 2381 2643 2742 
Q 2381 3103 1925 3103 
Q 1469 3103 1208 2742 
Q 947 2381 947 1747 
z
" transform="scale(0.015625)"/>
       <path id="DejaVuSans-75" d="M 544 1381 
L 544 3500 
L 1119 3500 
L 1119 1403 
Q 1119 906 1312 657 
Q 1506 409 1894 409 
Q 2359 409 2629 706 
Q 2900 1003 2900 1516 
L 2900 3500 
L 3475 3500 
L 3475 0 
L 2900 0 
L 2900 538 
Q 2691 219 2414 64 
Q 2138 -91 1772 -91 
Q 1169 -91 856 284 
Q 544 659 544 1381 
z
M 1991 3584 
L 1991 3584 
z
" transform="scale(0.015625)"/>
       <path id="DejaVuSans-73" d="M 2834 3397 
L 2834 2853 
Q 2591 2978 2328 3040 
Q 2066 3103 1784 3103 
Q 1356 3103 1142 2972 
Q 928 2841 928 2578 
Q 928 2378 1081 2264 
Q 1234 2150 1697 2047 
L 1894 2003 
Q 2506 1872 2764 1633 
Q 3022 1394 3022 966 
Q 3022 478 2636 193 
Q 2250 -91 1575 -91 
Q 1294 -91 989 -36 
Q 684 19 347 128 
L 347 722 
Q 666 556 975 473 
Q 1284 391 1588 391 
Q 1994 391 2212 530 
Q 2431 669 2431 922 
Q 2431 1156 2273 1281 
Q 2116 1406 1581 1522 
L 1381 1569 
Q 847 1681 609 1914 
Q 372 2147 372 2553 
Q 372 3047 722 3315 
Q 1072 3584 1716 3584 
Q 2034 3584 2315 3537 
Q 2597 3491 2834 3397 
z
" transform="scale(0.015625)"/>
      </defs>
      <use xlink:href="#DejaVuSans-52"/>
      <use xlink:href="#DejaVuSans-61" transform="translate(67.232422 0)"/>
      <use xlink:href="#DejaVuSans-64" transform="translate(128.511719 0)"/>
      <use xlink:href="#DejaVuSans-69" transform="translate(191.988281 0)"/>
      <use xlink:href="#DejaVuSans-75" transform="translate(219.771484 0)"/>
      <use xlink:href="#DejaVuSans-73" transform="translate(283.150391 0)"/>
     </g>
    </g>
    <g id="line2d_40">
     <g>
      <use xlink:href="#m5b3702b987" x="63.555937" y="103.888906" style="stroke: #000000"/>
     </g>
    </g>
    <g id="text_24">
     <!-- Center O(0,0) -->
     <g transform="translate(81.555937 107.388906) scale(0.1 -0.1)">
      <defs>
       <path id="DejaVuSans-43" d="M 4122 4306 
L 4122 3641 
Q 3803 3938 3442 4084 
Q 3081 4231 2675 4231 
Q 1875 4231 1450 3742 
Q 1025 3253 1025 2328 
Q 1025 1406 1450 917 
Q 1875 428 2675 428 
Q 3081 428 3442 575 
Q 3803 722 4122 1019 
L 4122 359 
Q 3791 134 3420 21 
Q 3050 -91 2638 -91 
Q 1578 -91 968 557 
Q 359 1206 359 2328 
Q 359 3453 968 4101 
Q 1578 4750 2638 4750 
Q 3056 4750 3426 4639 
Q 3797 4528 4122 4306 
z
" transform="scale(0.015625)"/>
       <path id="DejaVuSans-72" d="M 2631 2963 
Q 2534 3019 2420 3045 
Q 2306 3072 2169 3072 
Q 1681 3072 1420 2755 
Q 1159 2438 1159 1844 
L 1159 0 
L 581 0 
L 581 3500 
L 1159 3500 
L 1159 2956 
Q 1341 3275 1631 3429 
Q 1922 3584 2338 3584 
Q 2397 3584 2469 3576 
Q 2541 3569 2628 3553 
L 2631 2963 
z
" transform="scale(0.015625)"/>
       <path id="DejaVuSans-4f" d="M 2522 4238 
Q 1834 4238 1429 3725 
Q 1025 3213 1025 2328 
Q 1025 1447 1429 934 
Q 1834 422 2522 422 
Q 3209 422 3611 934 
Q 4013 1447 4013 2328 
Q 4013 3213 3611 3725 
Q 3209 4238 2522 4238 
z
M 2522 4750 
Q 3503 4750 4090 4092 
Q 4678 3434 4678 2328 
Q 4678 1225 4090 567 
Q 3503 -91 2522 -91 
Q 1538 -91 948 565 
Q 359 1222 359 2328 
Q 359 3434 948 4092 
Q 1538 4750 2522 4750 
z
" transform="scale(0.015625)"/>
      </defs>
      <use xlink:href="#DejaVuSans-43"/>
      <use xlink:href="#DejaVuSans-65" transform="translate(69.824219 0)"/>
      <use xlink:href="#DejaVuSans-6e" transform="translate(131.347656 0)"/>
      <use xlink:href="#DejaVuSans-74" transform="translate(194.726562 0)"/>
      <use xlink:href="#DejaVuSans-65" transform="translate(233.935547 0)"/>
      <use xlink:href="#DejaVuSans-72" transform="translate(295.458984 0)"/>
      <use xlink:href="#DejaVuSans-20" transform="translate(336.572266 0)"/>
      <use xlink:href="#DejaVuSans-4f" transform="translate(368.359375 0)"/>
      <use xlink:href="#DejaVuSans-28" transform="translate(447.070312 0)"/>
      <use xlink:href="#DejaVuSans-30" transform="translate(486.083984 0)"/>
      <use xlink:href="#DejaVuSans-2c" transform="translate(549.707031 0)"/>
      <use xlink:href="#DejaVuSans-30" transform="translate(581.494141 0)"/>
      <use xlink:href="#DejaVuSans-29" transform="translate(645.117188 0)"/>
     </g>
    </g>
   </g>
  </g>
 </g>
 <defs>
  <clipPath id="p597d7633ff">
   <rect x="44.555937" y="32.077969" width="495.28" height="495.28"/>
  </clipPath>
 </defs>
</svg>
